<?xml version="1.0" encoding="UTF-8"?>
<svg id="_レイヤー_2" data-name="レイヤー 2" xmlns="http://www.w3.org/2000/svg" width="333.54" height="221.31" viewBox="0 0 333.54 221.31">
  <defs>
    <style>
      .cls-1 {
        fill: none;
      }

      .cls-1, .cls-2 {
        stroke: #7c4721;
        stroke-miterlimit: 10;
      }

      .cls-3 {
        fill: #fffae6;
      }

      .cls-4 {
        fill: #fff1cc;
      }

      .cls-5 {
        fill: #5ab83a;
      }

      .cls-2 {
        fill: #fffcf2;
      }

      .cls-6 {
        fill: #7c4721;
      }

      .cls-7 {
        fill: #e8729c;
      }
    </style>
  </defs>
  <g id="_レイヤー_2-2" data-name="レイヤー 2">
    <g>
      <rect class="cls-4" width="333.54" height="221.31"/>
      <rect class="cls-3" x="11.86" y="20.89" width="309.83" height="98.96" rx="13.55" ry="13.55"/>
      <g>
        <path class="cls-6" d="M40.89,64.15h9.2c5.38,0,8.09,2.48,8.09,6.85,0,3.26-1.4,5.67-3.95,6.95l5.64,9.78h-5.25l-4.6-8.71c-.33.03-.68.03-1.01.03h-3.52v8.67h-4.6v-23.58ZM45.42,67.71v8.02h3.13c3.62,0,4.99-1.53,4.99-4.34,0-2.35-1.21-3.68-4.43-3.68h-3.68Z"/>
        <path class="cls-6" d="M62.34,76.31c0-7.27,4.6-12.42,11.35-12.42s11.09,4.7,11.09,11.74-4.27,12.36-11.51,12.36c-6.62,0-10.92-4.7-10.92-11.67ZM79.95,76.05c0-3.85-1.57-8.05-6.59-8.05-3.91,0-6.23,3.59-6.23,7.92,0,4.66,2.35,7.99,6.42,7.99s6.39-3.33,6.39-7.86Z"/>
        <path class="cls-6" d="M89.73,64.15h14.54v3.72h-9.95v6.07h9.39v3.75h-9.39v6.39h9.98v3.65h-14.58v-23.58Z"/>
      </g>
      <g>
        <path class="cls-6" d="M240.64,152.38c0-5.62,2.63-8.98,6.77-8.98s6.44,2.98,6.44,8.51-2.54,8.93-6.72,8.93-6.49-3.01-6.49-8.46ZM250.46,152.19c0-4.3-1.03-5.9-3.27-5.9-2.02,0-3.17,1.88-3.17,5.83s1.13,5.85,3.29,5.85c2,0,3.15-1.81,3.15-5.78Z"/>
        <path class="cls-6" d="M256.66,158.77c0-1.13.82-2.09,2.09-2.09s2.09.96,2.09,2.09-.87,2.11-2.09,2.11-2.09-.96-2.09-2.11Z"/>
        <path class="cls-6" d="M266.88,146.67l-3.5.54-.09-2.87,6.91-.94-.02,1.93v15.32h-3.29v-13.98Z"/>
      </g>
      <g>
        <path class="cls-6" d="M229.69,183.25c0-3.81,1.17-7.38,3.45-10.64h3.15c-2.37,3.22-3.62,6.79-3.62,10.6s1.25,7.47,3.62,10.57h-3.15c-2.28-3.08-3.45-6.72-3.45-10.53Z"/>
        <path class="cls-6" d="M238.9,180.03h12.78v2.3h-12.78v-2.3ZM238.9,185.79h12.78v2.3h-12.78v-2.3Z"/>
        <path class="cls-6" d="M263.71,178.03l-3.5.54-.09-2.87,6.91-.94-.02,1.93v15.32h-3.29v-13.98Z"/>
        <path class="cls-6" d="M271.35,183.75c0-5.62,2.63-8.98,6.77-8.98s6.44,2.98,6.44,8.51-2.54,8.93-6.72,8.93-6.49-3.01-6.49-8.46ZM281.17,183.56c0-4.3-1.03-5.9-3.27-5.9-2.02,0-3.17,1.88-3.17,5.83s1.13,5.85,3.29,5.85c2,0,3.15-1.81,3.15-5.78Z"/>
        <path class="cls-6" d="M314.21,183.2c0-3.81-1.25-7.38-3.62-10.6h3.15c2.28,3.27,3.45,6.84,3.45,10.64s-1.17,7.45-3.45,10.53h-3.15c2.37-3.1,3.62-6.77,3.62-10.57Z"/>
      </g>
      <path class="cls-6" d="M121.15,72.77h13.97v2.79h-13.97v-2.79ZM121.15,79.09h13.97v2.81h-13.97v-2.81Z"/>
      <path class="cls-6" d="M212.47,165.11h12.14v1.7h-12.14v-1.7ZM212.47,170.54h12.14v1.7h-12.14v-1.7Z"/>
      <g>
        <path class="cls-7" d="M215.68,65.12c-.68,1.6-1.48,2.87-2.31,3.76l-1.08-1.66c1.4-1.22,2.4-2.66,3.18-4.51h-2.87v-1.66h3.08v-1.68c-.64.1-1.53.23-2.2.29l-.7-1.5c2.1-.21,4.24-.65,5.98-1.22l1.03,1.48c-.7.23-1.53.46-2.35.62v2h2.61v1.66h-2.61v.99c1.11.73,1.91,1.34,2.64,2l-.99,1.71c-.41-.49-.62-.73-1.65-1.83v5.79h-1.76v-6.26ZM220.87,58.67h1.76v8.72h-1.76v-8.72ZM221.84,71.04l-.38-1.86c.83.13,1.63.2,2.35.2.46,0,.57-.11.57-.57v-11.28h1.79v11.98c0,1.3-.42,1.66-2,1.66-.73,0-1.6-.05-2.33-.13Z"/>
        <path class="cls-7" d="M229.01,69.29h2.12v-3.75c-.29.23-.59.41-1.24.77l-1.19-1.34c1.91-.86,3.42-2.12,4.42-3.67h-3.78v-1.56h4.06c-.33-.77-.75-1.5-1.27-2.17l1.78-.72c.47.6,1.03,1.47,1.43,2.3l-1.42.59h3.18c.55-.85,1.06-1.89,1.42-2.93l2,.65c-.46.83-.95,1.61-1.45,2.28h4.29v1.56h-3.73c1.12,1.32,2.71,2.51,4.33,3.28l-1.06,1.53c-.57-.36-1.01-.65-1.34-.88v4.06h2.12v1.56h-14.67v-1.56ZM240.65,64.52c-1.17-.95-2.15-2.02-2.9-3.21h-2.79c-.6,1.16-1.47,2.25-2.51,3.21h8.2ZM234.15,69.29v-3.34h-1.35v3.34h1.35ZM237,69.29v-3.34h-1.35v3.34h1.35ZM239.9,69.29v-3.34h-1.4v3.34h1.4Z"/>
      </g>
      <g>
        <path class="cls-5" d="M197.38,90.82h3.75c.31-.91.5-1.61.65-2.38l2.15.34c-.23.75-.47,1.37-.77,2.04h5.3v12.3h-1.89v-.9h-7.3v.9h-1.89v-12.3ZM206.58,94.1v-1.71h-7.3v1.71h7.3ZM206.58,97.31v-1.71h-7.3v1.71h7.3ZM206.58,100.63v-1.83h-7.3v1.83h7.3Z"/>
        <path class="cls-5" d="M214.5,102.18c-.54-.28-.8-.75-.8-1.47v-6.39h9.17v-2.95h-9.58v-1.69h11.54v7.25h-1.96v-.91h-7.19v3.85c0,.47.11.67.44.77.29.08,1.73.13,3.81.13s3.65-.06,4.04-.18c.55-.15.65-.46.78-2.36l1.92.51c-.15,2.13-.34,2.87-.91,3.28-.31.24-.75.36-1.45.42-1.01.08-3.15.15-4.95.15-3.26,0-4.27-.08-4.87-.39Z"/>
        <path class="cls-5" d="M229.01,93.61c1.45-.59,2.87-1.37,4.12-2.28l.6,1.34c-1.06.83-2.67,1.86-3.93,2.51l-.8-1.56ZM229.24,101.87c1.73-.36,3.31-.81,4.63-1.34h-2.62v-6.09h2.69l-.59-.88c2.66-.46,3.73-1.29,3.73-2.9h-.91c-.34.55-.86,1.17-1.38,1.63l-1.22-1.04c.91-.83,1.63-1.92,1.92-2.97l1.76.29c-.08.23-.23.55-.34.78h5.31l.88.68c-.41.83-.94,1.68-1.52,2.35l-1.58-.5c.46-.49.78-.9.95-1.22h-2.09c.1.59.59,1.22,1.37,1.78.65.47,1.79.88,3.31,1.21l-.88,1.47c-.33-.07-.73-.2-1.04-.31v5.74h-2.69c1.37.31,2.74.7,4.42,1.29l-1.42,1.43c-1.52-.72-3.18-1.34-4.87-1.83l1.11-.9h-3.86l1.19.93c-1.37.7-3.37,1.47-5.08,1.94l-1.16-1.53ZM229.68,89.89l1.06-1.19c.83.34,1.86.93,2.64,1.53l-1.14,1.34c-.72-.6-1.58-1.17-2.56-1.68ZM239.85,96.15v-.7h-6.84v.7h6.84ZM239.85,97.8v-.7h-6.84v.7h6.84ZM239.85,99.49v-.75h-6.84v.75h6.84ZM240.7,94.44c-1.11-.51-1.99-1.17-2.53-1.94-.51.91-1.3,1.53-2.48,1.94h5Z"/>
        <path class="cls-5" d="M252.02,100.22h-2.35v-1.58c-.83.9-1.76,1.71-2.74,2.41l-1.29-1.6c2.33-1.34,4.46-3.5,5.95-6.01h-5.46v-1.7h5.88v-3.13h1.99v3.13h5.98v1.7h-5.49c1.58,2.17,3.81,4.19,6.05,5.46l-1.27,1.74c-2.22-1.63-3.98-3.44-5.35-5.51v3.42h2.72v1.66h-2.64v2.9h-1.99v-2.9ZM252.1,98.56v-3.28c-.77,1.32-1.5,2.35-2.36,3.28h2.36Z"/>
      </g>
      <line class="cls-1" x1="155.71" y1="79.86" x2="300.29" y2="79.86"/>
      <g>
        <path class="cls-7" d="M72.06,152.97c-.76,1.76-1.64,3.17-2.56,4.16l-1.19-1.84c1.55-1.35,2.65-2.93,3.51-4.99h-3.17v-1.84h3.4v-1.85c-.7.11-1.69.25-2.43.32l-.77-1.66c2.32-.23,4.68-.72,6.61-1.35l1.13,1.64c-.77.25-1.69.5-2.59.68v2.21h2.88v1.84h-2.88v1.1c1.22.81,2.11,1.48,2.92,2.21l-1.1,1.89c-.45-.54-.68-.81-1.82-2.02v6.39h-1.95v-6.91ZM77.81,145.84h1.94v9.63h-1.94v-9.63ZM78.87,159.51l-.41-2.05c.92.14,1.8.22,2.59.22.5,0,.63-.13.63-.63v-12.46h1.98v13.23c0,1.44-.47,1.84-2.21,1.84-.81,0-1.76-.05-2.57-.14Z"/>
        <path class="cls-7" d="M86.79,157.58h2.34v-4.14c-.32.25-.65.45-1.37.85l-1.31-1.48c2.11-.96,3.78-2.34,4.88-4.05h-4.18v-1.73h4.48c-.36-.85-.83-1.66-1.41-2.39l1.96-.79c.52.67,1.13,1.62,1.58,2.54l-1.57.65h3.51c.61-.94,1.17-2.09,1.57-3.24l2.21.72c-.5.92-1.04,1.78-1.6,2.52h4.74v1.73h-4.12c1.24,1.46,2.99,2.77,4.79,3.62l-1.17,1.69c-.63-.4-1.12-.72-1.48-.97v4.48h2.34v1.73h-16.21v-1.73ZM99.64,152.31c-1.3-1.04-2.38-2.23-3.21-3.55h-3.08c-.67,1.28-1.62,2.49-2.77,3.55h9.06ZM92.46,157.58v-3.69h-1.5v3.69h1.5ZM95.61,157.58v-3.69h-1.49v3.69h1.49ZM98.81,157.58v-3.69h-1.55v3.69h1.55Z"/>
        <path class="cls-7" d="M110.47,150.25c0-.86.63-1.62,1.6-1.62s1.6.76,1.6,1.62-.67,1.6-1.6,1.6-1.6-.72-1.6-1.6ZM110.47,157.1c0-.86.63-1.6,1.6-1.6s1.6.74,1.6,1.6-.67,1.62-1.6,1.62-1.6-.74-1.6-1.62Z"/>
        <path class="cls-7" d="M123.6,147.82l-2.68.42-.07-2.2,5.29-.72-.02,1.48v11.74h-2.52v-10.71Z"/>
        <path class="cls-7" d="M129.8,152.2c0-4.3,2.02-6.88,5.19-6.88s4.93,2.29,4.93,6.52-1.94,6.84-5.15,6.84-4.97-2.3-4.97-6.48ZM137.33,152.05c0-3.29-.79-4.52-2.5-4.52-1.55,0-2.43,1.44-2.43,4.46s.86,4.48,2.52,4.48c1.53,0,2.41-1.39,2.41-4.43Z"/>
        <path class="cls-7" d="M147.32,158.01c1.93-.99,3.67-3.06,4.3-5.15.41-1.33.65-3.28.7-5.92h-4.79v-1.91h14.8v1.91h-7.92c0,.99-.04,1.66-.14,2.75h6.73c-.11,4.05-.34,6.61-.72,7.94-.38,1.26-1.08,1.73-2.63,1.73-.99,0-2.29-.09-3.24-.22l-.32-2.18c1.06.22,2.16.34,2.93.34.85,0,1.13-.22,1.31-.97.2-.77.38-2.43.5-4.77h-4.81c-.54,3.65-2.38,6.45-5.33,8.1l-1.39-1.66Z"/>
        <path class="cls-7" d="M166.24,144.76h13.9v12.89c0,1.41-.49,1.89-1.95,1.89-.74,0-1.94-.05-2.9-.13l-.43-2.11c.81.13,1.75.2,2.52.2.54,0,.7-.14.7-.65v-3.82h-9.79v6.66h-2.05v-14.94ZM172.11,151.24v-4.65h-3.82v4.65h3.82ZM178.08,151.24v-4.65h-3.93v4.65h3.93Z"/>
      </g>
      <g>
        <path class="cls-5" d="M54.5,183.38h3.68c.3-.9.5-1.58.64-2.34l2.11.34c-.22.74-.46,1.34-.75,2h5.2v12.08h-1.86v-.88h-7.17v.88h-1.86v-12.08ZM63.53,186.6v-1.68h-7.17v1.68h7.17ZM63.53,189.75v-1.68h-7.17v1.68h7.17ZM63.53,193.02v-1.79h-7.17v1.79h7.17Z"/>
        <path class="cls-5" d="M71.3,194.54c-.53-.27-.78-.74-.78-1.44v-6.28h9.01v-2.9h-9.41v-1.67h11.33v7.12h-1.92v-.9h-7.06v3.78c0,.46.11.66.43.75.29.08,1.7.13,3.75.13s3.58-.06,3.97-.18c.54-.14.64-.45.77-2.32l1.89.5c-.14,2.1-.34,2.82-.9,3.22-.3.24-.74.35-1.42.42-.99.08-3.09.14-4.87.14-3.2,0-4.19-.08-4.79-.38Z"/>
        <path class="cls-5" d="M85.54,186.12c1.42-.58,2.82-1.34,4.05-2.24l.59,1.31c-1.04.82-2.62,1.82-3.86,2.46l-.78-1.54ZM85.76,194.23c1.7-.35,3.25-.8,4.55-1.31h-2.58v-5.99h2.64l-.58-.86c2.61-.45,3.67-1.26,3.67-2.85h-.9c-.34.54-.85,1.15-1.36,1.6l-1.2-1.02c.9-.82,1.6-1.89,1.89-2.91l1.73.29c-.08.22-.22.54-.34.77h5.22l.86.67c-.4.82-.93,1.65-1.49,2.3l-1.55-.5c.45-.48.77-.88.93-1.2h-2.05c.1.58.58,1.2,1.34,1.74.64.46,1.76.86,3.25,1.18l-.87,1.44c-.32-.06-.72-.19-1.02-.3v5.63h-2.64c1.34.3,2.69.69,4.34,1.26l-1.39,1.41c-1.49-.7-3.12-1.31-4.79-1.79l1.09-.88h-3.79l1.17.91c-1.34.69-3.31,1.44-4.99,1.91l-1.14-1.5ZM86.2,182.47l1.04-1.17c.82.34,1.82.91,2.59,1.5l-1.12,1.31c-.7-.59-1.55-1.15-2.51-1.65ZM96.18,188.62v-.69h-6.72v.69h6.72ZM96.18,190.23v-.69h-6.72v.69h6.72ZM96.18,191.9v-.74h-6.72v.74h6.72ZM97.02,186.93c-1.09-.5-1.95-1.15-2.48-1.9-.5.9-1.28,1.5-2.43,1.9h4.91Z"/>
        <path class="cls-5" d="M108.12,192.62h-2.3v-1.55c-.82.88-1.73,1.68-2.69,2.37l-1.26-1.57c2.29-1.31,4.39-3.44,5.84-5.91h-5.36v-1.66h5.78v-3.07h1.95v3.07h5.87v1.66h-5.39c1.55,2.13,3.75,4.11,5.94,5.36l-1.25,1.71c-2.18-1.6-3.91-3.38-5.25-5.41v3.36h2.67v1.63h-2.59v2.85h-1.95v-2.85ZM108.2,190.98v-3.22c-.75,1.3-1.47,2.31-2.32,3.22h2.32Z"/>
        <path class="cls-5" d="M123,186.9c0-.77.56-1.44,1.42-1.44s1.42.67,1.42,1.44-.59,1.42-1.42,1.42-1.42-.64-1.42-1.42ZM123,192.99c0-.77.56-1.42,1.42-1.42s1.42.66,1.42,1.42-.59,1.44-1.42,1.44-1.42-.66-1.42-1.44Z"/>
        <path class="cls-5" d="M134.66,184.74l-2.39.37-.06-1.95,4.71-.64-.02,1.31v10.44h-2.24v-9.52Z"/>
        <path class="cls-5" d="M140.18,188.63c0-3.83,1.79-6.12,4.61-6.12s4.39,2.03,4.39,5.79-1.73,6.08-4.58,6.08-4.42-2.05-4.42-5.76ZM146.87,188.5c0-2.93-.7-4.02-2.22-4.02-1.38,0-2.16,1.28-2.16,3.97s.77,3.99,2.24,3.99c1.36,0,2.14-1.23,2.14-3.94Z"/>
        <path class="cls-5" d="M151.12,188.63c0-3.83,1.79-6.12,4.61-6.12s4.39,2.03,4.39,5.79-1.73,6.08-4.58,6.08-4.42-2.05-4.42-5.76ZM157.81,188.5c0-2.93-.7-4.02-2.22-4.02-1.38,0-2.16,1.28-2.16,3.97s.77,3.99,2.24,3.99c1.36,0,2.14-1.23,2.14-3.94Z"/>
        <path class="cls-5" d="M166.69,193.8c1.71-.88,3.27-2.72,3.83-4.58.37-1.18.58-2.91.62-5.27h-4.26v-1.7h13.16v1.7h-7.04c0,.88-.03,1.47-.13,2.45h5.99c-.1,3.6-.3,5.88-.64,7.06-.34,1.12-.96,1.54-2.34,1.54-.88,0-2.03-.08-2.88-.19l-.29-1.94c.94.19,1.92.3,2.61.3.75,0,1.01-.19,1.17-.86.18-.69.34-2.16.45-4.24h-4.27c-.48,3.25-2.11,5.73-4.74,7.2l-1.23-1.47Z"/>
        <path class="cls-5" d="M183.51,182.02h12.36v11.46c0,1.25-.43,1.68-1.73,1.68-.66,0-1.73-.05-2.58-.11l-.38-1.87c.72.11,1.55.18,2.24.18.48,0,.62-.13.62-.58v-3.39h-8.71v5.92h-1.82v-13.29ZM188.73,187.78v-4.13h-3.39v4.13h3.39ZM194.04,187.78v-4.13h-3.49v4.13h3.49Z"/>
      </g>
      <line class="cls-1" x1="52.15" y1="168.38" x2="197.47" y2="168.38"/>
      <g>
        <path class="cls-6" d="M25.54,147.17c0-2.11.65-4.08,1.91-5.89h1.74c-1.31,1.78-2,3.76-2,5.86s.69,4.13,2,5.85h-1.74c-1.26-1.7-1.91-3.72-1.91-5.82Z"/>
        <path class="cls-6" d="M31.74,147.26c-.22.42-.44.81-.77,1.29l-.57-1.48c.99-1.61,1.68-3.59,2.04-5.82l1.37.27c-.22.96-.44,1.74-.74,2.65v8.83h-1.33v-5.73ZM33.43,151.89c.99-.6,1.74-1.46,2.5-2.83-.47-.52-.75-.81-1.13-1.12-.31.57-.52.88-.81,1.25l-.74-1.2c.83-1.14,1.38-2.67,1.66-4.67h-1.08v-1.33h4.42v1.33h-2.09c-.07.44-.12.74-.22,1.3h1.61l.58.56c-.38,3.81-1.61,6.38-3.71,7.75l-1-1.04ZM36.79,145.87h-1.17c-.14.44-.22.69-.36,1.05.51.35.78.56,1.14.88.18-.61.34-1.34.39-1.94ZM38.55,142.98h1.3v7.09h-1.3v-7.09ZM39.03,152.79l-.26-1.35c.48.07,1.05.1,1.47.1.32,0,.4-.07.4-.39v-9.33h1.33v9.95c0,.81-.33,1.12-1.2,1.12-.45,0-1.18-.04-1.74-.09Z"/>
        <path class="cls-6" d="M45.85,147.14c0-2.11-.69-4.08-2-5.86h1.74c1.26,1.81,1.91,3.78,1.91,5.89s-.65,4.12-1.91,5.82h-1.74c1.31-1.72,2-3.74,2-5.85Z"/>
      </g>
      <path class="cls-2" d="M290.47,14.84H19.1c-4,0-7.25,3.24-7.25,7.25v10.4c0,4,3.24,7.25,7.25,7.25h41.8l4.78,9.3,4.24-9.3h220.55c4,0,7.25-3.24,7.25-7.25v-10.4c0-4-3.24-7.25-7.25-7.25Z"/>
      <g>
        <path class="cls-6" d="M28.87,27.57c-.29.91-.62,1.68-1.03,2.39l-.49-1.26c.62-.8,1.1-1.82,1.41-2.95h-1.18v-1.02h1.29v-1.96h1.04v1.96h1.05v.98c.28-.59.47-1.36.59-2.37l.98.15c-.03.32-.08.65-.14.96h.76v-1.68h1.06v1.68h1.9v.98h-1.9v1.18h2.32v.98h-2.09c.6.99,1.42,1.81,2.35,2.37l-.63,1.04c-.81-.68-1.49-1.51-1.95-2.36v3.13h-1.06v-3.04c-.43.91-1.06,1.78-1.8,2.48l-.73-.93c.97-.67,1.73-1.55,2.31-2.69h-2.02v-.98h2.24v-1.18h-1c-.11.36-.27.74-.46,1.12l-.84-.62c.03-.05.06-.1.09-.18h-1.03v.97c.48.43.83.8,1.26,1.32l-.6,1c-.23-.44-.4-.74-.66-1.13v3.86h-1.04v-4.2Z"/>
        <path class="cls-6" d="M38.09,30.28h3.6v-1.94h-2.78v-1h2.78v-1.65h-3.28v-1h3.87c-.57-.41-1.27-.81-2.07-1.19l.89-.77c.76.32,1.53.75,2.33,1.31l-.7.65h3.48v1h-3.34v1.65h2.84v1h-2.84v1.94h3.66v1.04h-8.44v-1.04Z"/>
        <path class="cls-6" d="M52.45,30.31c1.85-.5,2.86-1.53,2.86-2.94s-.88-2.24-2.2-2.36c-.09,1.11-.27,2.11-.56,2.99-.48,1.55-1.35,2.44-2.33,2.44s-1.76-1.01-1.76-2.33c0-2.37,1.93-4.24,4.35-4.24,2.24,0,3.76,1.38,3.76,3.49,0,1.85-1.11,3.18-3.18,3.9l-.94-.95ZM50.27,29.15c.45,0,.88-.56,1.22-1.63.24-.79.38-1.52.44-2.41-1.3.37-2.26,1.59-2.26,2.94,0,.61.28,1.1.6,1.1Z"/>
        <path class="cls-6" d="M58.89,29.36c0-.74.77-1.74,1.9-2.26,0-.45-.03-.92-.03-1.36-.64.06-1.26.09-1.78.11l-.12-1.12c.55,0,1.21-.05,1.88-.1,0-.47,0-1.02,0-1.56l1.33.05c-.02.41-.04.9-.05,1.38.56-.07,1.09-.15,1.53-.24l.14,1.12c-.5.08-1.08.16-1.68.23v.37c0,.22,0,.48,0,.77.64-.18,1.33-.28,1.95-.28,1.6,0,2.55.87,2.55,2.15,0,1.45-.94,2.35-2.43,2.35-.39,0-.8-.06-1.09-.17l-.19-1.23c.36.15.76.24,1.13.24.85,0,1.34-.49,1.34-1.18,0-.62-.49-1.08-1.52-1.08-.54,0-1.14.11-1.72.31.02.61.04,1.23.06,1.7,0,.29,0,.48,0,.71,0,.66-.5.95-1.16.95-1.12,0-2.07-.8-2.07-1.86ZM60.66,30.02c.23,0,.31-.17.31-.45,0-.23,0-.47-.02-.8-.01-.18-.01-.35-.01-.51-.52.3-.88.77-.88,1.09,0,.4.32.67.6.67ZM64.08,24.59l.61-.97c.85.37,1.49.79,2.2,1.48l-.72,1c-.74-.73-1.31-1.13-2.09-1.51Z"/>
        <path class="cls-6" d="M68.81,30.49h1.82c-.18-.61-.46-1.26-.7-1.64l1.02-.37c.22.32.54.98.78,1.63l-1.07.38h1.8v-2.14h-3.15v-.94h3.15v-.94h-1.45v-.6c-.56.42-1.21.82-1.89,1.16l-.6-1.03c1.69-.7,2.91-1.74,3.8-3.23h1.33c.92,1.26,2.28,2.28,3.98,2.96l-.7,1.08c-.75-.41-1.35-.78-1.81-1.11v.77h-1.52v.94h3.21v.94h-3.21v2.14h1.59l-.88-.36c.32-.48.64-1.15.83-1.71l1.14.39c-.27.61-.61,1.22-.93,1.68h1.96v.98h-8.5v-.98ZM74.91,25.55c-.72-.52-1.36-1.15-1.91-1.86-.4.68-.93,1.3-1.6,1.86h3.51Z"/>
        <path class="cls-6" d="M81.93,28.27c0-1.02.67-2.05,1.84-2.93-1.74.18-2.97.28-4.32.38l-.16-1.25c2.09-.08,5.43-.27,7.82-.67l.22,1.22c-1.44.16-2.06.42-2.79,1.02-.85.69-1.37,1.42-1.37,2.22,0,1.11.96,1.67,2.76,1.9l-.56,1.19c-2.13-.29-3.44-1.33-3.44-3.08ZM84.88,26.82l.66-.44c.43.43.69.85,1,1.43l-.68.47c-.31-.62-.59-1.03-.98-1.46ZM85.92,26.21l.67-.44c.41.4.71.84,1.01,1.4l-.68.46c-.32-.61-.58-1.01-1-1.42Z"/>
        <path class="cls-6" d="M88.87,29.58l.99-.84c.65.55,1.39,1.38,1.92,2.15l-1.06.94c-.46-.79-1.18-1.66-1.85-2.25Z"/>
        <path class="cls-6" d="M100.54,29.13c0-.84.6-1.71,1.88-2.49-.4-.95-.84-2.14-1.13-3.31l1.26-.32c.2.95.58,2.14.92,3.05.69-.36,1.51-.72,2.45-1.11-.25-.62-.45-.98-.77-1.46l.68-.37c.35.47.58.89.85,1.51l-.5.27.53,1.14c-2.74.87-4.93,2.03-4.93,2.99,0,.63.56.94,1.93.94.94,0,2-.1,3.13-.31l.22,1.29c-1.16.18-2.39.22-3.24.22-2.43,0-3.28-.75-3.28-2.04ZM106.34,23.17l.69-.38c.37.5.61.93.85,1.52l-.73.38c-.25-.63-.47-1.06-.81-1.52Z"/>
        <path class="cls-6" d="M111.73,28.88c-.34.39-.72.86-1.17,1.46l-.99-.75c.86-.85,1.58-1.84,1.87-2.41.09-.19.2-.47.3-.77v-.54c-.58.12-1.25.23-1.77.28l-.17-1.14c.55-.03,1.29-.12,1.93-.26,0-.72-.01-1.24-.02-1.78l1.26.03c-.03.6-.04,1.14-.05,1.76l.44.28-.46,1.11v.07c1.08-1.13,2.05-2,2.91-2,.7,0,1.19.47,1.19,1.24,0,.42-.07.87-.15,1.37-.18,1.06-.26,1.9-.26,2.26,0,.43.14.58.41.58.35,0,.8-.23,1.27-.9l.52,1.21c-.57.62-1.22.91-1.99.91-.87,0-1.42-.63-1.42-1.61,0-.56.1-1.45.26-2.47.07-.49.11-.83.11-1.05,0-.2-.08-.31-.26-.31-.4,0-1.56,1.11-2.59,2.22,0,1.29,0,2.27.03,3.81l-1.25.04c.02-1.02.04-1.85.05-2.64Z"/>
        <path class="cls-6" d="M122.57,28.66c-.84-.57-1.12-.86-1.12-1.37,0-.44.32-.75,1.16-1.42,1.12-.88,2.01-1.66,2.94-2.85l1.1.83c-1.08,1.19-1.85,1.8-3,2.68-.6.45-.76.62-.76.78,0,.19.15.31.88.76,1.12.69,1.96,1.23,3.41,2.57l-.98.97c-1.4-1.42-2.18-1.99-3.63-2.95Z"/>
        <path class="cls-6" d="M133.14,30.44c2.23-.18,3.57-.77,3.56-1.81,0-.58-.52-.97-1.33-.95-1.01.03-2.04.61-2.88,1.59l-.93-.45c.23-1.2.36-2.74.38-4.18l1.25.11c-.03.8-.14,1.8-.28,2.74.74-.57,1.73-.89,2.54-.91,1.43-.02,2.49.74,2.52,2.01v.05c0,1.7-1.4,2.55-4.07,2.88l-.76-1.08ZM132.81,24l.44-1c1.03.17,2.02.47,3.04,1.03l-.49,1.08c-1.03-.57-1.93-.87-2.99-1.11Z"/>
        <path class="cls-6" d="M141.62,29.05c-.23-.73-.39-1.98-.39-3.21,0-.53.02-1.23.08-1.89l1.3.27c-.08.69-.12,1.28-.12,1.95,0,1.03.1,1.79.27,2.37.18.62.45.99.73.99.31,0,.7-.73.94-1.96l1.07.9c-.42,1.61-1.15,2.48-2,2.48s-1.51-.74-1.88-1.9ZM146.16,25.29l.94-.86c1.19,1.06,1.61,2.57,1.86,4.56l-1.28.39c-.26-1.92-.57-3.22-1.52-4.09Z"/>
        <path class="cls-6" d="M150.81,29.97h3.34v-6.85h1.24v2.52h3.22v1.12h-3.22v3.21h3.92v1.14h-8.5v-1.14Z"/>
        <path class="cls-6" d="M163.09,31.55l-.2-1.16c.52.08,1.14.14,1.56.14.28,0,.38-.09.38-.34v-1.44h-3.87v-1h3.87v-1.08h-3.32v-.98h3.32v-1.03c-1.72.17-2.3.21-2.89.23l-.48-.97c2.33-.1,4.63-.39,6.36-.81l.87.93c-.8.18-1.77.35-2.68.47v1.18h3.1v.98h-3.1v1.08h3.65v1h-3.65v1.94c0,.7-.3.95-1.15.95-.55,0-1.18-.03-1.77-.09Z"/>
        <path class="cls-6" d="M172.08,27.95c0-.97.19-2.67.53-4.64l1.23.2c-.42,1.96-.61,3.63-.61,4.37,0,.29,0,.55.04.78.15-.46.35-.94.56-1.33l.69.73c-.33.64-.5,1.08-.6,1.48-.13.48-.18.93-.13,1.33l-.94.4c-.49-.92-.77-2.05-.77-3.32ZM174.97,29.07c0-.46.19-.98.71-1.55l1.11.38c-.44.39-.62.7-.62.98,0,.47.38.72,1.44.72.48,0,1.11-.06,1.76-.22l.24,1.24c-.66.11-1.44.15-1.84.15-1.92,0-2.8-.5-2.8-1.7ZM175.06,24.36c1.17.03,3.02-.07,4.19-.25l.13,1.19c-1.26.19-2.99.28-4.21.27l-.11-1.21Z"/>
        <path class="cls-6" d="M183.38,27.93c-.42.98-.91,1.76-1.42,2.31l-.66-1.02c.86-.75,1.47-1.63,1.95-2.77h-1.76v-1.02h1.89v-1.03c-.39.06-.94.14-1.35.18l-.43-.92c1.29-.13,2.6-.4,3.67-.75l.63.91c-.43.14-.94.28-1.44.38v1.23h1.6v1.02h-1.6v.61c.68.45,1.17.82,1.62,1.23l-.61,1.05c-.25-.3-.38-.45-1.01-1.12v3.55h-1.08v-3.84ZM186.57,23.97h1.08v5.35h-1.08v-5.35ZM187.16,31.55l-.23-1.14c.51.08,1,.12,1.44.12.28,0,.35-.07.35-.35v-6.92h1.1v7.35c0,.8-.26,1.02-1.23,1.02-.45,0-.98-.03-1.43-.08Z"/>
        <path class="cls-6" d="M191.56,30.49h1.3v-2.3c-.18.14-.36.25-.76.47l-.73-.82c1.17-.53,2.1-1.3,2.71-2.25h-2.32v-.96h2.49c-.2-.47-.46-.92-.78-1.33l1.09-.44c.29.37.63.9.88,1.41l-.87.36h1.95c.34-.52.65-1.16.87-1.8l1.23.4c-.28.51-.58.99-.89,1.4h2.63v.96h-2.29c.69.81,1.66,1.54,2.66,2.01l-.65.94c-.35-.22-.62-.4-.82-.54v2.49h1.3v.96h-9v-.96ZM198.69,27.56c-.72-.58-1.32-1.24-1.78-1.97h-1.71c-.37.71-.9,1.38-1.54,1.97h5.03ZM194.71,30.49v-2.05h-.83v2.05h.83ZM196.46,30.49v-2.05h-.83v2.05h.83ZM198.23,30.49v-2.05h-.86v2.05h.86Z"/>
        <path class="cls-6" d="M206.62,28.51v-.16c-.93.46-1.36.86-1.36,1.23s.4.61,1.46.61c.7,0,1.74-.1,2.6-.28l.22,1.24c-.83.11-1.83.18-2.75.18-1.86,0-2.75-.55-2.75-1.62,0-1.01,1.03-1.75,2.44-2.43-.11-.28-.33-.42-.65-.42-.44,0-.91.23-1.32.59-.39.33-.61.58-1.03,1.13l-.97-.72c.76-.68,1.39-1.47,1.93-2.48-.62.04-1.2.07-1.72.09l-.11-1.18c.73,0,1.53-.02,2.36-.07.18-.44.34-.91.5-1.43l1.17.35c-.12.33-.25.66-.38.97.77-.08,1.55-.2,2.31-.36l.15,1.17c-.9.15-1.97.27-3.04.36-.14.26-.28.5-.44.75.27-.11.55-.17.81-.17.75,0,1.25.35,1.48.96.69-.3,1.42-.61,2.17-.91l.46,1.12c-.96.31-1.76.6-2.43.87.03.27.04.52.04.75,0,.39,0,.64-.02.97h-1.19c.03-.37.06-.78.06-1.11Z"/>
        <path class="cls-6" d="M212.55,28.07h1.14v2.06h2.26v-3.07h-1.86v.51h-1.12v-3.73h1.12v2.22h1.86v-3.09h1.16v3.09h1.92v-2.22h1.12v3.73h-1.12v-.51h-1.92v3.07h2.32v-2.06h1.14v3.7h-1.14v-.6h-5.74v.6h-1.14v-3.7Z"/>
        <path class="cls-6" d="M222.36,25.68c.61-.02,1.26-.04,1.94-.07.01-.85.02-1.63.02-2h1.24c-.02.61-.04,1.27-.05,1.94.84-.05,1.69-.11,2.52-.17,0-.83-.02-1.63-.06-2.32l1.24-.03c.01.51.01,1.43,0,2.25.69-.06,1.35-.12,1.95-.19l.1,1.19-2.07.15c-.06,2.13-.15,2.63-1.15,2.63-.42,0-.97-.06-1.45-.19v-1.15c.38.13.75.21,1.01.21.33,0,.4-.34.42-1.42-.85.06-1.7.12-2.53.17,0,.62,0,1.24,0,1.84,0,1.26.53,1.47,2.05,1.47.82,0,1.47-.07,2.41-.23l.19,1.26c-.96.14-1.74.18-2.67.18-2.27,0-3.19-.62-3.19-2.47,0-.38,0-1.14,0-1.98-.63.04-1.25.08-1.82.11l-.1-1.18Z"/>
        <path class="cls-6" d="M235.68,28.27c0-1.02.67-2.05,1.84-2.93-1.74.18-2.97.28-4.32.38l-.16-1.25c2.09-.08,5.43-.27,7.82-.67l.22,1.22c-1.44.16-2.06.42-2.79,1.02-.85.69-1.37,1.42-1.37,2.22,0,1.11.93,1.67,2.76,1.9l-.56,1.19c-2.13-.29-3.44-1.33-3.44-3.08Z"/>
        <path class="cls-6" d="M244.12,29.05c-.23-.73-.39-1.98-.39-3.21,0-.53.02-1.23.08-1.89l1.3.27c-.08.69-.12,1.28-.12,1.95,0,1.03.1,1.79.27,2.37.18.62.45.99.73.99.31,0,.7-.73.94-1.96l1.07.9c-.42,1.61-1.15,2.48-2,2.48s-1.51-.74-1.88-1.9ZM248.66,25.29l.94-.86c1.19,1.06,1.61,2.57,1.86,4.56l-1.28.39c-.26-1.92-.57-3.22-1.52-4.09Z"/>
        <path class="cls-6" d="M255.51,29.82c0-.73.65-1.29,1.58-1.29.84,0,1.6.46,2.11,1.28.4-.3.65-.72.65-1.21,0-.66-.7-1.19-1.76-1.19-.79,0-1.59.25-2.23.66-.47.3-.81.59-1.36,1.15l-.84-.91c1.07-.8,2.61-2.16,4.04-3.73-.79.12-1.73.21-2.5.24l-.21-1.16c1.24-.02,2.6-.12,4.01-.38l.66.81c-.89.96-1.62,1.66-2.45,2.4.36-.1.71-.15,1.07-.15,1.65,0,2.8.92,2.8,2.23,0,1.62-1.6,2.8-3.59,2.8-1.12,0-1.98-.62-1.98-1.55ZM257.59,30.33c.22,0,.43-.03.64-.07-.29-.47-.68-.73-1.09-.73-.28,0-.46.15-.46.33,0,.28.35.47.91.47Z"/>
        <path class="cls-6" d="M263.86,30.58c.81-1.49,1.38-2.82,1.8-4.26l-1.52.22-.21-1.17c.47-.03,1.25-.12,1.95-.21.16-.69.3-1.42.42-2.19l1.22.2c-.11.59-.25,1.2-.41,1.84.26-.03.49-.04.68-.04,1.05,0,1.7.66,1.7,1.89,0,.86-.08,1.95-.3,2.87-.24,1-.76,1.39-1.54,1.39-.42,0-.9-.08-1.34-.22l-.09-1.31c.46.22.91.31,1.18.31.36,0,.56-.18.69-.82.12-.57.19-1.3.19-2.02,0-.67-.24-.96-.69-.96-.16,0-.39.02-.71.05-.5,1.76-1.06,3.33-1.88,5.02l-1.14-.59ZM269.64,24.96l1.02-.65c.76,1.05,1.16,2.11,1.59,3.76l-1.14.62c-.37-1.65-.77-2.8-1.47-3.73Z"/>
      </g>
      <path class="cls-6" d="M290.82,181.97c0-1.78,1.15-2.96,2.83-2.96s2.77,1.06,2.77,2.82-1.08,2.94-2.87,2.94c-1.65,0-2.73-1.08-2.73-2.8ZM294.82,181.91c0-.9-.34-1.55-1.23-1.55-.73,0-1.19.59-1.19,1.54s.45,1.51,1.2,1.51,1.22-.55,1.22-1.5ZM299.81,179.13h1.72l-6.37,10.24h-1.72l6.37-10.24ZM298.53,186.66c0-1.78,1.16-2.96,2.86-2.96s2.75,1.08,2.75,2.82-1.08,2.94-2.86,2.94c-1.65,0-2.75-1.09-2.75-2.8ZM302.55,186.59c0-.9-.34-1.53-1.23-1.53-.73,0-1.21.56-1.21,1.51s.46,1.53,1.21,1.53,1.23-.53,1.23-1.51Z"/>
    </g>
  </g>
</svg>