<?xml version="1.0" encoding="UTF-8"?>
<svg id="_レイヤー_2" data-name="レイヤー 2" xmlns="http://www.w3.org/2000/svg" width="343.75" height="212.66" viewBox="0 0 343.75 212.66">
  <defs>
    <style>
      .cls-1 {
        fill: #d3ebf2;
      }

      .cls-2 {
        fill: #e8f0f2;
      }

      .cls-3 {
        fill: #d3e6f5;
      }

      .cls-4 {
        fill: #f2c9b8;
      }

      .cls-5 {
        fill: #fcefe9;
      }
    </style>
  </defs>
  <g id="_レイヤー_1-2" data-name="レイヤー 1">
    <g>
      <rect class="cls-4" x="35.31" width="152.54" height="28.49"/>
      <rect class="cls-1" x="191.21" width="152.54" height="28.49"/>
      <rect class="cls-5" x="35.31" y="31.52" width="152.54" height="89.06"/>
      <rect class="cls-2" x="191.21" y="31.52" width="152.54" height="89.06"/>
      <g>
        <path d="M258.76,9.56c1.21,0,1.99.22,2.54.7.51.46.81,1.18.81,1.96,0,1.29-.64,2.13-1.89,2.5.66.29.83.55,1.5,2.29l1.01,2.68h-1.78l-.86-2.51c-.51-1.48-.88-1.92-1.64-1.92h-1.65v4.43h-1.62v-10.13h3.59ZM258.29,13.88c1.48,0,2.16-.48,2.16-1.53,0-.44-.17-.83-.46-1.05-.3-.22-.9-.35-1.72-.35h-1.48v2.94h1.5Z"/>
        <path d="M271.06,18.33c-.74,1-1.79,1.52-3.11,1.52-2.56,0-4.19-2.03-4.19-5.23,0-1.51.38-2.82,1.08-3.76.74-.97,1.78-1.48,3.09-1.48s2.44.56,3.2,1.62c.62.9.99,2.2.99,3.6,0,1.48-.36,2.78-1.07,3.72ZM267.94,10.87c-.81,0-1.44.36-1.85,1.05-.39.65-.6,1.62-.6,2.73,0,1.01.21,1.94.58,2.61.39.71,1.05,1.1,1.86,1.1,1.55,0,2.46-1.39,2.46-3.74s-.9-3.76-2.46-3.76Z"/>
        <path d="M280.21,9.56v1.38h-4.68v2.76h3.58v1.37h-3.58v3.22h4.9v1.4h-6.58v-10.13h6.36Z"/>
      </g>
      <g>
        <path d="M103.31,9.56c2.31,0,3.42.94,3.42,2.92,0,.87-.34,1.68-.91,2.18-.6.53-1.43.79-2.51.79h-1.87v4.23h-1.68v-10.13h3.55ZM102.91,14.08c1.47,0,2.13-.49,2.13-1.6s-.62-1.53-2.13-1.53h-1.47v3.13h1.47Z"/>
        <path d="M114.76,9.56v1.38h-4.68v2.76h3.58v1.37h-3.58v3.22h4.9v1.4h-6.58v-10.13h6.36Z"/>
        <path d="M120.18,9.56c1.21,0,1.99.22,2.54.7.51.46.81,1.18.81,1.96,0,1.29-.64,2.13-1.89,2.5.66.29.83.55,1.5,2.29l1.01,2.68h-1.78l-.86-2.51c-.51-1.48-.88-1.92-1.64-1.92h-1.65v4.43h-1.62v-10.13h3.59ZM119.71,13.88c1.48,0,2.16-.48,2.16-1.53,0-.44-.17-.83-.46-1.05-.3-.22-.9-.35-1.71-.35h-1.48v2.94h1.49Z"/>
      </g>
      <rect class="cls-3" y="31.52" width="32.34" height="89.06"/>
      <g>
        <path d="M58.9,63.26h1.99c.63,0,1.02-.03,1.44-.08v1.53c-.45-.04-.87-.07-1.46-.07h-1.51c.8,1.4,1.96,2.56,3.35,3.35-.45.45-.64.73-.92,1.4-.57-.41-.98-.8-1.51-1.4-.69-.8-.98-1.23-1.43-2.07.03.5.04.94.04,1.34v1.69c0,.63.03,1.12.08,1.55h-1.55c.06-.43.08-.94.08-1.57v-1.6c0-.38.01-.83.04-1.39-.85,1.54-1.81,2.58-3.17,3.49-.35-.66-.55-.94-.84-1.27,1.44-.83,2.62-2.03,3.43-3.53h-.88c-.6,0-1.04.03-1.47.08v-.56c-.24.34-.41.64-.57,1.13-.35-.55-.56-.98-.83-1.68.03.43.06,1.19.06,1.78v3.45c0,.71.03,1.23.08,1.65h-1.55c.06-.43.08-.95.08-1.65v-2.9c0-.53.01-.87.1-1.74-.41,1.36-.81,2.27-1.42,3.18-.17-.63-.35-1.04-.63-1.5.67-.85,1.37-2.44,1.79-4.06h-.53c-.41,0-.64.01-.9.06v-1.43c.22.04.48.06.9.06h.67v-1.08c0-.71-.01-1.06-.07-1.4h1.54c-.06.36-.07.74-.07,1.4v1.08h.41c.34,0,.5-.01.73-.06v1.33c.53-.95.98-2.35,1.02-3.26l1.36.35c-.06.15-.1.32-.2.74-.07.25-.1.38-.17.64h1.08v-.92c0-.57-.03-.92-.08-1.27h1.57c-.06.34-.08.71-.08,1.27v.92h1.58c.67,0,1.07-.03,1.44-.08v1.47c-.39-.04-.84-.07-1.44-.07h-1.58v1.7ZM55.97,61.56c-.24.57-.36.84-.76,1.5q-.34-.35-1.09-.88c.11-.15.15-.22.22-.32-.18-.03-.41-.04-.66-.04h-.35c.32.74.66,1.3,1.27,2.13v-.77c.42.06.81.08,1.46.08h1.43v-1.7h-1.53Z"/>
        <path d="M66.18,64.91c0-.53.01-.92.03-1.47-.24.48-.53.92-.88,1.39-.18-.66-.32-1.04-.59-1.61.85-.94,1.48-2.02,2.02-3.49.29-.81.42-1.26.5-1.85l1.44.59c-.1.29-.14.41-.25.74q-.27.83-.87,2.21v7.51c0,.74.01,1.15.06,1.55h-1.54c.07-.53.08-.92.08-1.57v-4.01ZM75.93,61.93c.5,0,.91-.01,1.22-.06-.04.35-.06.71-.06,1.26v5.59c0,.67.03,1.13.08,1.68h-1.54v-.74h-5.7v.73h-1.48c.04-.45.07-.98.07-1.47v-5.76c0-.48-.03-.92-.06-1.29.38.04.67.06,1.22.06h1.27v-1.81h-.67c-.64,0-1.15.03-1.58.07v-1.5c.39.06.85.08,1.58.08h5.63c.74,0,1.23-.03,1.64-.08v1.5c-.39-.04-.95-.07-1.6-.07h-1.39v1.81h1.36ZM69.88,63.21v5.14h1.08v-5.14h-1.08ZM73.29,60.12h-1.04v1.81h1.04v-1.81ZM72.25,68.36h1.04v-5.14h-1.04v5.14ZM74.57,68.36h1.12v-5.14h-1.12v5.14Z"/>
        <path d="M81.5,63.56c-.11.03-.17.06-.25.1-.07.04-.11.06-.17.06-.31,0-.53-.53-.7-1.57h.27c.59,0,2.09-.18,2.98-.36.29-1.22.45-2.16.45-2.82,0-.06,0-.14-.01-.24.6.06,1.18.18,1.57.35.22.08.34.2.34.34,0,.07-.01.13-.08.24q-.21.36-.64,1.91c.34-.04.71-.07.95-.07.57,0,1.02.11,1.34.34.56.41.84,1.23.84,2.51,0,2.09-.38,3.88-1.02,4.76-.45.62-1.04.91-1.86.91-.5,0-.98-.07-1.12-.15q-.11-.07-.15-.59c-.04-.38-.13-.71-.29-1.11.73.25.91.29,1.36.29.67,0,.95-.32,1.26-1.46.21-.74.32-1.69.32-2.73,0-1.09-.27-1.48-1.01-1.48-.25,0-.66.04-.98.08-.04.17-.06.18-.11.36-.39,1.44-1.11,3.32-1.82,4.83-.74,1.53-.92,1.83-1.11,1.83-.11,0-.49-.2-.9-.46-.32-.2-.41-.28-.41-.39q0-.07.57-.98c.77-1.19,1.78-3.52,2.13-4.9-1.04.24-1.61.36-1.74.41ZM90.3,60.69c-.22.17-.38.24-.45.24-.04,0-.08-.03-.13-.1-.29-.48-.78-1.02-1.19-1.37-.03-.03-.04-.06-.04-.08,0-.06.1-.15.34-.34.24-.17.31-.21.41-.21.22,0,1.46,1.25,1.46,1.47,0,.08-.11.18-.39.39ZM88.81,62.18c0-.1.13-.22.53-.55.28-.21.42-.29.53-.29.18,0,.81.67,1.4,1.5.49.7,1.02,1.7,1.02,1.93,0,.14-.04.18-.49.55-.28.22-.6.41-.71.41-.1,0-.14-.04-.24-.28-.27-.67-.5-1.13-.88-1.74-.38-.6-.41-.63-1.08-1.36-.06-.07-.08-.11-.08-.17ZM90.65,57.88c.24,0,1.43,1.19,1.43,1.43,0,.07-.08.15-.36.35-.25.2-.38.27-.43.27q-.07,0-.35-.39c-.24-.32-.69-.8-.94-1.01-.04-.04-.07-.07-.07-.11,0-.11.57-.53.73-.53Z"/>
        <path d="M97.91,60.3c-.78.15-1.11.21-1.96.34-.11-.46-.24-.78-.49-1.29,2.21-.22,4.33-.76,5.17-1.29l.9,1.23c-.81.28-1.58.52-2.2.69v1.74h1.08c.49,0,.81-.01,1.13-.07v1.46c-.34-.04-.66-.06-1.16-.06h-.99c.55.98,1.18,1.71,2.17,2.51-.27.35-.55.87-.71,1.32-.78-.81-1.09-1.23-1.58-2.16.04.48.07,1.01.07,1.71v2.34c0,.84.01,1.19.08,1.69h-1.6c.06-.49.08-.94.08-1.69v-2.26c0-.56.03-1.16.07-1.61-.39.99-.57,1.36-.92,1.89-.36.59-.66.95-1.15,1.49-.27-.63-.48-1.02-.76-1.42.59-.53.99-1.05,1.46-1.79.35-.56.88-1.57,1.05-2.02h-.97c-.52,0-.87.03-1.23.07v-1.47c.34.06.64.07,1.26.07h1.21v-1.42ZM103.83,59.03c-.06.43-.07.85-.07,1.64v5.07c0,.85.01,1.2.07,1.61h-1.58c.06-.38.07-.69.07-1.57v-5.11c0-.78-.01-1.18-.07-1.64h1.58ZM107.03,58.21c-.06.53-.08,1.05-.08,1.82v8.66c0,.71-.17,1.09-.6,1.33-.34.17-.78.22-1.86.22-.32,0-.53,0-.99-.03-.11-.59-.21-.91-.45-1.49.73.08,1.27.11,1.79.11.56,0,.66-.06.66-.41v-8.4c0-.67-.03-1.22-.08-1.82h1.62Z"/>
        <path d="M113.91,60.09c-.34-.66-.66-1.16-1.11-1.71l1.39-.53c.56.76.77,1.09,1.13,1.79l-1.13.45h3.11c.52-.7.91-1.42,1.2-2.21l1.49.52c-.48.88-.62,1.11-1.07,1.7h1.93c.76,0,1.16-.01,1.54-.08v1.51c-.39-.06-.91-.08-1.51-.08h-2.03c.81,1.36,2.28,2.65,4.05,3.5-.36.55-.55.91-.73,1.47-.62-.38-.88-.55-1.29-.87v3.1h.56c.55,0,.8-.01,1.09-.07v1.51c-.45-.04-.92-.07-1.44-.07h-9.32c-.49,0-1.05.03-1.47.08v-1.53c.31.04.64.07,1.04.07h.62v-3.14c-.48.34-.7.49-1.28.83-.24-.62-.39-.9-.73-1.33,1.83-.91,3.17-2.13,3.89-3.56h-1.85c-.66,0-1.13.03-1.56.08v-1.51c.39.06.81.08,1.56.08h1.9ZM119.47,64.32c-.91-.91-1.43-1.61-2.12-2.89h-1.91c-.59,1.15-1.23,2.02-2.12,2.89h6.14ZM113.37,68.66h1.2v-3.04h-1.2v3.04ZM115.85,68.66h1.16v-3.04h-1.16v3.04ZM118.3,68.66h1.19v-3.04h-1.19v3.04Z"/>
        <path d="M129.16,66.37c.04.07.06.13.06.2,0,.1-.01.11-.14.42-.28.64-.62,1.65-.78,2.41-.04.15-.08.24-.14.27-.07.03-.55.1-.7.1h-.06c-.07,0-.17-.01-.28-.01-.18,0-.22-.04-.28-.21-.27-.91-.48-2.79-.48-4.2,0-1.54.1-2.49.49-4.59.14-.76.21-1.18.27-1.64.59.11,1.09.25,1.51.45.24.1.31.17.31.31,0,.1-.01.14-.17.36-.46.74-.98,3.71-.98,5.71,0,.32.01.76.06,1.46.39-.88.53-1.15.85-1.83.13.29.21.43.46.81ZM132.2,67.36c.45.24.98.32,1.92.32s1.43-.07,2.3-.32c.08-.03.15-.04.2-.04.1,0,.17.06.18.2.07.48.13,1.04.13,1.32,0,.14-.04.18-.24.24-.76.2-1.53.29-2.47.29-1.29,0-2.09-.15-2.75-.55-.62-.38-1.26-1.15-1.26-1.53,0-.2.29-.46,1.05-.92.25.5.49.76.94.99ZM131.22,60.22c.31.07,1.2.13,1.89.13.92,0,1.85-.07,2.72-.22q.07-.01.13-.01c.1,0,.14.04.17.15.03.14.07.76.07,1.13,0,.21-.04.28-.2.31-.57.11-1.53.18-2.54.18-1.21,0-2.28-.07-2.42-.15-.07-.04-.1-.14-.1-.39,0-.38.04-.94.07-1.05.01-.06.06-.08.14-.08.01,0,.04,0,.07.01Z"/>
        <path d="M142.93,59.35c0-.6-.01-.9-.07-1.26h1.55c-.06.39-.07.71-.07,1.26v.76h.95c.56,0,.9-.01,1.29-.07v1.43c-.34-.03-.5-.04-1.04-.04-.1,1.37-.42,2.8-.92,4.08.71.9,1.02,1.32,1.91,2.56l-1.06,1.19c-.56-.98-.81-1.36-1.54-2.33-.78,1.34-1.44,2.14-2.69,3.32-.35-.59-.56-.84-1.01-1.25,1.25-.97,1.97-1.85,2.76-3.31-.63-.78-1.37-1.58-2.28-2.46l.98-1.01q.27.28,1.05,1.09c.13.11.34.36.85.97.28-.88.48-1.93.52-2.86h-2.48c-.5,0-.88.01-1.26.07v-1.47c.41.06.81.08,1.33.08h1.23v-.76ZM147.4,62.99c.9,1.19,1.29,1.83,1.9,3.11l-1.22.8c-.63-1.47-1.08-2.25-1.88-3.25l1.19-.66ZM148.16,62.15c-.55,0-.9.01-1.26.07v-1.48c.38.06.66.07,1.27.07h1.7v-1.06c0-.78-.03-1.2-.08-1.6h1.61c-.06.42-.08.88-.08,1.6v1.06h.17c.56,0,.91-.03,1.25-.08v1.5q-.11,0-.31-.03c-.13-.03-.58-.04-.94-.04h-.17v6.5c0,.7-.04.92-.24,1.15-.25.32-.74.46-1.62.46-.55,0-1.06-.01-1.58-.04-.1-.67-.18-1-.42-1.49.46.07,1.29.14,1.57.14.77,0,.85-.03.85-.31v-6.42h-1.71Z"/>
        <path d="M160.04,58.68c.35.1.45.17.45.32,0,.1-.01.14-.08.34-.15.41-.27,1.12-.32,2.1-.11,2.25-.17,4.01-.17,5.39,0,.45.04.79.11,1.01.15.46.64.7,1.43.7,1.26,0,2.45-.52,3.54-1.54.5-.48.81-.85,1.33-1.62.08.45.2.74.5,1.37.04.11.07.2.07.32,0,.25-.27.59-.97,1.22-1.39,1.25-2.93,1.89-4.54,1.89-1.06,0-1.85-.27-2.35-.77-.53-.56-.74-1.29-.74-2.68,0-1.09.01-1.93.13-5.2.01-.49.03-.78.03-.91,0-1.19-.01-1.54-.1-2.14.71.03,1.26.08,1.68.2Z"/>
        <path d="M55.36,80.06c0-.29-.01-.56-.07-.83h1.64c-.04.28-.07.53-.07.83v.17h3.98c.59,0,.98-.03,1.4-.08v1.37c-.45-.06-.79-.07-1.4-.07h-9.27c-.62,0-.94.01-1.39.07v-1.37c.42.06.83.08,1.46.08h3.73v-.17ZM50.56,86.67c0-.46-.01-.8-.06-1.22.42.04.84.06,1.4.06h8.7c.64,0,.95-.01,1.33-.06-.04.41-.06.74-.06,1.2v3.43c0,.66-.07.92-.32,1.15-.27.24-.67.32-1.62.32-.28,0-.35,0-.77-.03q-.21,0-.43-.01c-.03-.6-.1-.91-.28-1.34.69.08,1.32.13,1.68.13.25,0,.32-.06.32-.28v-3.35h-8.46v3.57c0,.69.01,1.02.07,1.49h-1.58c.06-.29.08-.84.08-1.49v-3.57ZM52.23,82.9c0-.42-.01-.66-.04-.97.36.03.7.04,1.32.04h5.58c.57,0,.84-.01,1.21-.04-.03.34-.04.55-.04.98v1.15c0,.5.01.67.04.98-.35-.03-.66-.04-1.28-.04h-5.55c-.56,0-.9.01-1.27.04.03-.27.04-.55.04-.98v-1.16ZM59.09,89.15c0,.39.01.66.04.91-.24-.03-.77-.04-1.12-.04h-3.39v.67h-1.39c.04-.25.06-.56.06-1.09v-1.55c0-.38-.01-.64-.04-.88.34.03.6.04,1.09.04h3.7c.5,0,.63,0,1.09-.04-.03.27-.04.46-.04.87v1.12ZM53.63,83.89h5.2v-.81h-5.2v.81ZM54.62,88.96h3.18v-.73h-3.18v.73Z"/>
        <path d="M66.04,82.27c0-.41-.01-.95-.04-1.26.64.07,1.12.17,1.5.31.34.13.45.21.45.36q0,.08-.06.22c-.18.48-.24,1.01-.24,2.28,0,1.79.11,2.91.39,3.77.21.66.53,1.04.91,1.04.57,0,1.05-.67,1.57-2.23.27.71.36.92.76,1.43.07.1.11.2.11.29,0,.22-.21.7-.49,1.11-.55.8-1.25,1.23-1.99,1.23-1.08,0-1.89-.87-2.4-2.59-.32-1.12-.48-2.54-.48-4.5v-1.47ZM74.38,82.5c.08,0,.15.04.27.14.7.67,1.43,1.79,1.89,2.88.31.74.6,1.74.6,2.03,0,.14-.07.21-.36.36-.32.17-.98.39-1.15.39-.13,0-.18-.07-.22-.32-.18-1.08-.43-1.86-.87-2.77-.39-.81-.42-.85-1.37-2.03.59-.43,1.05-.69,1.22-.69Z"/>
        <path d="M81.7,84.52c-.11.03-.17.06-.25.1-.07.04-.11.06-.18.06-.29,0-.52-.55-.69-1.58.11.01.21.01.27.01.59,0,2.09-.18,2.98-.36.29-1.23.45-2.16.45-2.83,0-.06,0-.13-.01-.24.6.07,1.18.2,1.57.35.22.08.34.21.34.35,0,.07-.01.11-.08.22q-.21.38-.64,1.92c.34-.04.71-.07.95-.07.57,0,1.02.11,1.34.34.56.41.84,1.23.84,2.51,0,2.09-.38,3.87-1.02,4.75-.45.62-1.04.91-1.86.91-.5,0-.98-.07-1.12-.15q-.11-.07-.15-.59c-.04-.38-.13-.7-.29-1.09.73.24.91.28,1.36.28.67,0,.95-.32,1.26-1.44.21-.74.32-1.71.32-2.73,0-1.09-.27-1.49-1.01-1.49-.25,0-.66.03-.98.08-.04.15-.06.17-.11.36-.39,1.43-1.11,3.32-1.82,4.83-.74,1.53-.92,1.83-1.11,1.83-.11,0-.49-.2-.9-.46-.32-.2-.41-.28-.41-.39q0-.07.57-.98c.77-1.19,1.78-3.53,2.13-4.9-1.04.22-1.61.36-1.74.41ZM88.84,82.95c0-.1.13-.22.53-.55.28-.21.42-.29.52-.29.08,0,.15.04.34.22.83.8,1.6,1.86,2.04,2.79.14.31.22.5.22.59,0,.14-.04.18-.49.55-.28.22-.6.41-.71.41-.1,0-.14-.04-.24-.28-.28-.69-.55-1.22-.88-1.74-.36-.56-.43-.64-1.26-1.53-.06-.08-.07-.13-.07-.17Z"/>
        <path d="M104.77,85.45c-.5,1.37-.91,2.1-1.71,2.98,1.58.66,2.41,1.05,4.12,1.97l-1.11,1.25c-1.51-.97-2.62-1.55-4.13-2.21-1.47,1.09-3.05,1.71-5.83,2.25-.21-.56-.41-.95-.74-1.44,2.28-.28,3.71-.69,5.03-1.44-1.2-.46-1.51-.56-3.6-1.11.8-.99,1.12-1.46,1.6-2.25h-1.53c-.67,0-1.07.01-1.47.07v-1.51c.41.06.69.07,1.47.07h2.31c.42-.8.67-1.37.8-1.89l1.62.24q-.14.28-.28.58c-.1.2-.27.56-.52,1.08h5.11c.78,0,1.08-.01,1.47-.07v1.51c-.42-.06-.83-.07-1.47-.07h-1.15ZM100.49,80.34c0-.42-.01-.7-.07-1.02h1.64c-.04.28-.06.6-.06,1.01v.24h3.63c.67,0,1.08-.01,1.54-.06-.04.34-.06.64-.06,1.02v1c0,.41.01.67.06.99h-1.46v-1.61h-8.7v1.61h-1.48c.04-.31.07-.6.07-.99v-1c0-.31-.03-.67-.07-1.02.46.04.87.06,1.54.06h3.42v-.22ZM100.08,85.45c-.41.67-.55.91-1.04,1.6,1.32.38,1.6.48,2.61.84.77-.73,1.18-1.36,1.57-2.44h-3.14Z"/>
        <path d="M111.19,82.27c0-.41-.01-.95-.04-1.26.64.07,1.12.17,1.5.31.34.13.45.21.45.36q0,.08-.06.22c-.18.48-.24,1.01-.24,2.28,0,1.79.11,2.91.39,3.77.21.66.53,1.04.91,1.04.57,0,1.05-.67,1.57-2.23.27.71.36.92.76,1.43.07.1.11.2.11.29,0,.22-.21.7-.49,1.11-.55.8-1.25,1.23-1.99,1.23-1.08,0-1.89-.87-2.4-2.59-.32-1.12-.48-2.54-.48-4.5v-1.47ZM119.53,82.5c.08,0,.15.04.27.14.7.67,1.43,1.79,1.89,2.88.31.74.6,1.74.6,2.03,0,.14-.07.21-.36.36-.32.17-.98.39-1.15.39-.13,0-.18-.07-.22-.32-.18-1.08-.43-1.86-.87-2.77-.39-.81-.42-.85-1.37-2.03.59-.43,1.05-.69,1.22-.69Z"/>
        <path d="M126.85,84.52c-.11.03-.17.06-.25.1-.07.04-.11.06-.18.06-.29,0-.52-.55-.69-1.58.11.01.21.01.27.01.59,0,2.09-.18,2.98-.36.29-1.23.45-2.16.45-2.83,0-.06,0-.13-.01-.24.6.07,1.18.2,1.57.35.22.08.34.21.34.35,0,.07-.01.11-.08.22q-.21.38-.64,1.92c.34-.04.71-.07.95-.07.57,0,1.02.11,1.34.34.56.41.84,1.23.84,2.51,0,2.09-.38,3.87-1.02,4.75-.45.62-1.04.91-1.86.91-.5,0-.98-.07-1.12-.15q-.11-.07-.15-.59c-.04-.38-.13-.7-.29-1.09.73.24.91.28,1.36.28.67,0,.95-.32,1.26-1.44.21-.74.32-1.71.32-2.73,0-1.09-.27-1.49-1.01-1.49-.25,0-.66.03-.98.08-.04.15-.06.17-.11.36-.39,1.43-1.11,3.32-1.82,4.83-.74,1.53-.92,1.83-1.11,1.83-.11,0-.49-.2-.9-.46-.32-.2-.41-.28-.41-.39q0-.07.57-.98c.77-1.19,1.78-3.53,2.13-4.9-1.04.22-1.61.36-1.74.41ZM133.99,82.95c0-.1.13-.22.53-.55.28-.21.42-.29.52-.29.08,0,.15.04.34.22.83.8,1.6,1.86,2.04,2.79.14.31.22.5.22.59,0,.14-.04.18-.49.55-.28.22-.6.41-.71.41-.1,0-.14-.04-.24-.28-.28-.69-.55-1.22-.88-1.74-.36-.56-.43-.64-1.26-1.53-.06-.08-.07-.13-.07-.17Z"/>
      </g>
      <g>
        <path d="M208.95,63.26h1.99c.63,0,1.02-.03,1.44-.08v1.53c-.45-.04-.87-.07-1.46-.07h-1.51c.8,1.4,1.96,2.56,3.35,3.35-.45.45-.64.73-.92,1.4-.57-.41-.98-.8-1.51-1.4-.69-.8-.98-1.23-1.43-2.07.03.5.04.94.04,1.34v1.69c0,.63.03,1.12.08,1.55h-1.55c.06-.43.08-.94.08-1.57v-1.6c0-.38.01-.83.04-1.39-.85,1.54-1.81,2.58-3.17,3.49-.35-.66-.55-.94-.84-1.27,1.44-.83,2.62-2.03,3.43-3.53h-.88c-.6,0-1.04.03-1.47.08v-.56c-.24.34-.41.64-.57,1.13-.35-.55-.56-.98-.83-1.68.03.43.06,1.19.06,1.78v3.45c0,.71.03,1.23.08,1.65h-1.55c.06-.43.08-.95.08-1.65v-2.9c0-.53.01-.87.1-1.74-.41,1.36-.81,2.27-1.42,3.18-.17-.63-.35-1.04-.63-1.5.67-.85,1.37-2.44,1.79-4.06h-.53c-.41,0-.64.01-.9.06v-1.43c.22.04.48.06.9.06h.67v-1.08c0-.71-.01-1.06-.07-1.4h1.54c-.06.36-.07.74-.07,1.4v1.08h.41c.34,0,.5-.01.73-.06v1.33c.53-.95.98-2.35,1.02-3.26l1.36.35c-.06.15-.1.32-.2.74-.07.25-.1.38-.17.64h1.08v-.92c0-.57-.03-.92-.08-1.27h1.57c-.06.34-.08.71-.08,1.27v.92h1.58c.67,0,1.07-.03,1.44-.08v1.47c-.39-.04-.84-.07-1.44-.07h-1.58v1.7ZM206.03,61.56c-.24.57-.36.84-.76,1.5q-.34-.35-1.09-.88c.11-.15.15-.22.22-.32-.18-.03-.41-.04-.66-.04h-.35c.32.74.66,1.3,1.27,2.13v-.77c.42.06.81.08,1.46.08h1.43v-1.7h-1.53Z"/>
        <path d="M217.42,61.98c-.9,0-1.29.01-1.64.06v-1.54c.46.07.87.08,1.61.08h7.77c.7,0,1.15-.03,1.64-.08v1.54c-.46-.04-.85-.06-1.64-.06h-3.14v2.34h2.59c.59,0,1.01-.01,1.44-.07v1.53c-.45-.06-.73-.07-1.4-.07h-2.63v2.79h3.59c.7,0,1.19-.03,1.78-.08v1.6c-.59-.07-1.04-.1-1.75-.1h-8.56c-.8,0-1.23.03-1.82.1v-1.6c.46.06,1.01.08,1.78.08h3.42v-2.79h-2.41c-.71,0-1.06.01-1.53.07v-1.53c.41.06.71.07,1.42.07h2.52v-2.34h-3.04ZM219.88,57.88c1.39.48,1.85.66,3.49,1.44l-1.01,1.21c-1.36-.77-2.37-1.21-3.57-1.56l1.09-1.09Z"/>
        <path d="M235.68,67.04c-.67,1.16-1.6,1.81-2.55,1.81-1.46,0-2.49-1.43-2.49-3.42,0-2.21,1.12-4.12,3.04-5.13.94-.5,1.95-.73,3.28-.73,2.93,0,5.1,2.07,5.1,4.85,0,2.45-1.2,4.22-3.53,5.21-.46.2-.83.31-1.01.31-.17,0-.24-.06-.42-.32-.24-.36-.5-.63-.88-.88,2.89-.74,4.19-2.1,4.19-4.37,0-1.16-.49-2.14-1.36-2.76-.49-.34-.88-.48-1.65-.6-.39,2.96-.85,4.57-1.71,6.04ZM233.66,62.08c-.94.83-1.47,2-1.47,3.32,0,1.08.35,1.71.94,1.71.7,0,1.42-.97,1.95-2.63.34-1.05.5-1.85.71-3.4-.99.21-1.48.45-2.13,1.01Z"/>
        <path d="M248.5,62.78c-1.11.11-1.39.13-2.02.13-.43,0-.5-.18-.6-1.43h.55c.69,0,1.3-.04,2.07-.13v-.29c0-.91-.06-1.62-.2-2.38,1.06.06,1.49.11,1.78.2.14.04.2.11.2.25,0,.08-.01.14-.08.28-.13.27-.2.77-.21,1.72.46-.08,1.21-.27,1.77-.43.04-.01.07-.01.1-.01.11,0,.18.06.21.15.07.28.15.84.15,1.05,0,.11-.07.21-.18.25-.17.07-1.19.28-2.09.43v1.81c1.39-.46,2.47-.69,3.39-.69,1.79,0,2.96,1.15,2.96,2.93,0,1.15-.46,2.07-1.29,2.56-.43.25-1.05.41-1.72.41s-1.27-.06-1.43-.15c-.15-.08-.17-.13-.2-.46-.03-.39-.11-.73-.28-1.13.57.21,1.05.29,1.6.29,1.09,0,1.71-.56,1.71-1.55s-.59-1.55-1.53-1.55c-.88,0-2,.28-3.21.8q0,.06.01.6.01.92.01,1.12c.01.25.01.5.01.63,0,1.13-.43,1.68-1.36,1.68s-1.81-.48-2.37-1.21c-.22-.31-.34-.63-.34-1.01,0-.91.81-1.74,2.58-2.65v-2.21ZM248.5,66.53c-.81.49-1.15.81-1.15,1.11,0,.32.46.67.88.67.2,0,.27-.13.27-.45v-1.33ZM256.32,63.35c-.71-.76-1.7-1.39-2.62-1.68-.11-.04-.17-.1-.17-.17,0-.08.14-.31.53-.84.15-.21.17-.22.31-.22.14.01.67.2,1.04.36.88.41,2.03,1.28,2.03,1.54,0,.25-.7,1.13-.91,1.13-.07,0-.13-.03-.21-.13Z"/>
        <path d="M264.39,62.99c-.52,0-.94.01-1.32.06v-.64c-.71.45-1.3.74-2.18,1.12-.32-.71-.43-.9-.79-1.4,2.52-.88,4.52-2.33,5.51-3.94h1.65c.55.78,1.12,1.37,2.07,2.09,1.11.81,2.12,1.32,3.57,1.79-.34.52-.53.92-.73,1.5-1.09-.46-1.53-.69-2.37-1.2v.69c-.35-.04-.74-.06-1.32-.06h-1.36v1.3h3.4c.71,0,1.09-.01,1.46-.07v1.49c-.36-.06-.84-.08-1.47-.08h-3.39v3.01h3.66c.69,0,1.13-.03,1.58-.08v1.54c-.5-.06-1.05-.08-1.62-.08h-8.49c-.62,0-1.15.03-1.68.08v-1.54c.49.06.97.08,1.67.08h3.39v-3.01h-3.18c-.57,0-1.06.03-1.47.08v-1.49c.39.06.78.07,1.47.07h3.18v-1.3h-1.25ZM263.44,65.74c.46.81.7,1.3,1.08,2.24l-1.34.53c-.28-.84-.63-1.56-1.06-2.23l1.33-.55ZM264.36,61.73h4.5c-1.01-.71-1.72-1.37-2.41-2.25-.69.9-1.29,1.47-2.37,2.25h.28ZM270.78,66.3q-.17.31-.66,1.29c-.06.1-.1.18-.56.95l-1.26-.48c.41-.66.74-1.37,1.06-2.31l1.41.55Z"/>
        <path d="M277.83,61.9c-.36.08-.49.13-.99.31-.18.07-.28.1-.36.1-.31,0-.59-.57-.84-1.78.9-.04,1.22-.08,2.77-.32,1.68-.25,3.81-.57,4.93-.71,1.26-.17,2.27-.34,2.8-.45.1-.03.14-.03.21-.03.18,0,.25.08.38.43.11.29.2.71.2.91,0,.17-.06.22-.25.22-.29,0-.56.03-.83.07-2.37.39-4.26,2.46-4.26,4.65,0,1.64,1.29,2.72,3.47,2.91.2.01.27.08.27.25,0,.35-.14,1.02-.27,1.33-.07.15-.18.22-.36.22s-.6-.08-1.04-.21c-2.38-.7-3.63-2.21-3.63-4.36,0-1.16.38-2.24,1.11-3.17.39-.5.73-.78,1.53-1.33-1.83.31-3.77.67-4.83.94ZM285,62.26c.2,0,1.39,1.33,1.39,1.54,0,.07-.08.15-.34.38-.27.22-.28.22-.39.27q-.07.03-.1.03c-.06,0-.07-.01-.32-.41-.22-.35-.46-.66-.91-1.12-.03-.03-.07-.1-.07-.11.03-.07.04-.11.06-.11.04-.06.28-.25.34-.29.14-.07.22-.13.24-.14.01-.03.04-.03.04-.03h.07ZM287.4,63.23c-.21.15-.34.24-.41.24-.06,0-.08-.03-.15-.14-.42-.63-.63-.9-1.08-1.33-.03-.04-.06-.08-.06-.11,0-.07.08-.15.28-.29.2-.14.36-.22.43-.22.1,0,.27.13.56.42.41.42.78.94.78,1.06,0,.08-.1.18-.36.38Z"/>
        <path d="M204.36,84c-.18-.62-.24-.99-.41-2.72-.06-.67-.11-1.01-.25-1.48.85.01,1.4.06,1.78.15.21.06.31.15.31.31,0,.06-.01.13-.04.24-.1.34-.14.59-.14.95,0,.69.14,1.81.29,2.3.08.27.17.36.32.36.34,0,1.57-.64,2.24-1.16.18-.14.21-.15.28-.15.13,0,.25.1.46.36.35.48.63,1,.63,1.19,0,.15-.1.25-.34.32-.87.24-2.3.8-3.26,1.26-1.71.84-2.48,1.61-2.48,2.48s.71,1.21,2.52,1.21c1.05,0,2-.1,3.29-.31.06-.01.15-.03.18-.03.11,0,.18.06.24.17.04.14.14.99.14,1.33,0,.2-.06.27-.24.32-.31.07-2,.17-3.07.17-1.79,0-2.98-.24-3.73-.74-.63-.43-.97-1.12-.97-1.96,0-.64.18-1.22.56-1.78.49-.73,1.02-1.19,2.2-1.89-.29-.27-.41-.46-.53-.9ZM209.44,80.86c.11-.08.18-.11.27-.11.2,0,1.42,1.29,1.42,1.5,0,.08-.11.21-.38.43-.28.24-.31.25-.38.25-.08,0-.1,0-.36-.39-.28-.39-.67-.84-.97-1.09-.04-.04-.07-.08-.07-.13,0-.07.13-.2.48-.46ZM212.48,81.24c0,.08-.04.14-.21.28-.2.17-.46.35-.52.35-.08,0-.11-.04-.28-.27-.32-.46-.52-.69-1.02-1.15-.06-.06-.07-.08-.07-.13,0-.13.53-.53.7-.53.24,0,1.4,1.19,1.4,1.44Z"/>
        <path d="M217.92,83.55c-.63.13-1.23.28-1.62.42-.1.04-.18.06-.25.06-.13,0-.2-.07-.28-.31-.1-.31-.2-.8-.25-1.29.21.01.31.03.43.03.53,0,1.11-.07,1.99-.24l.03-.84c.01-.2.01-.34.01-.38,0-.6-.01-.97-.07-1.34.74.03,1.21.08,1.65.2.18.04.27.13.27.25,0,.06-.01.1-.08.25-.13.27-.14.43-.24,1.6.31.21.57.5.57.64,0,.08-.04.15-.17.31-.21.22-.28.32-.55.71q-.03.36-.03.46c.46-.41.77-.67,1.25-1.02.53-.41,1.12-.78,1.54-1,.55-.29.92-.39,1.43-.39.74,0,1.27.28,1.57.81.17.34.24.66.24,1.2,0,.48-.03.92-.11,1.95-.11,1.21-.17,2.1-.17,2.65s.13.71.52.71c.56,0,1.25-.41,1.85-1.09.01.55.06.71.24,1.27.04.11.06.18.06.24,0,.15-.07.28-.31.46-.57.46-1.4.76-2.14.76-1.23,0-1.79-.64-1.79-2.06,0-.64.04-1.47.18-3.43.04-.46.06-.85.06-1.05,0-.57-.2-.84-.62-.84s-1.25.45-2.35,1.3c-.56.42-.88.71-1.47,1.32v.64c0,1.05.07,3.47.13,4.33v.17c0,.11-.01.15-.04.2-.07.08-.48.14-1.12.14-.41,0-.49-.06-.49-.29,0-.08,0-.22.01-.38v-.32q.01-.49.07-3.15-.8,1.04-1.28,1.81c-.13.2-.21.27-.32.27s-.36-.22-.8-.7c-.27-.31-.36-.43-.36-.52,0-.07.03-.13.13-.22.88-.91,1.62-1.78,2.68-3.1l.03-1.19Z"/>
        <path d="M231.18,83.98h-.08c-.07.01-.13.01-.15.01-.13,0-.2-.06-.24-.24-.08-.35-.14-.77-.17-1.32.2.01.35.01.45.01.76,0,1.64-.06,2.38-.15.14-.92.21-1.62.21-2.21v-.32c1.62.22,1.93.31,1.92.56,0,.07-.03.11-.08.24-.17.32-.18.36-.41,1.47.55-.1,1.25-.28,1.53-.38.06-.03.07-.03.11-.03.13,0,.15.06.27.55.06.28.11.67.11.78,0,.1-.04.15-.17.18q-.25.08-2.17.42c-.64,2.86-1.32,4.95-2.4,7.47-.07.18-.14.25-.22.25-.18,0-.67-.2-1.15-.46-.24-.13-.31-.18-.31-.27,0-.06.04-.15.11-.29,1.06-2.02,1.83-4.16,2.37-6.46-.62.07-1.05.11-1.91.18ZM237.16,89.31c.41.27,1,.39,1.82.39.91,0,1.69-.08,2.14-.22.11-.03.14-.04.2-.04.13,0,.18.04.22.17.1.29.17.87.17,1.3,0,.18-.06.25-.24.29-.46.1-1.25.15-2.07.15-1.75,0-2.73-.28-3.38-.95-.24-.25-.43-.56-.55-.91-.08-.21-.14-.45-.14-.53,0-.24.42-.49,1.15-.73.15.59.32.85.67,1.08ZM241.1,85.23c-.28-.04-.87-.07-1.36-.07-1.04,0-1.47.04-2.7.25-.03.01-.07.01-.1.01-.08,0-.13-.03-.15-.11-.04-.1-.1-.78-.1-1.08,0-.18.03-.27.14-.31.06-.03.14-.04.43-.1.95-.17,1.75-.24,2.73-.24.81,0,1.23.03,1.33.1.07.06.08.17.08.63,0,.41-.03.77-.06.85-.01.04-.07.07-.14.07-.03,0-.07,0-.11-.01ZM239.56,80.3c.18,0,1.37,1.33,1.37,1.54,0,.06-.1.18-.21.27-.06.04-.14.11-.24.2-.13.11-.17.14-.31.2t-.07.03c-.06,0-.06-.01-.32-.42-.24-.36-.69-.92-.92-1.13-.03-.03-.07-.08-.07-.1.03-.06.04-.08.04-.08.07-.08.31-.28.36-.32.14-.07.22-.13.24-.14.01-.03.03-.03.04-.03h.08ZM241.92,81.28c-.2.14-.34.22-.41.22-.06,0-.08-.03-.15-.14-.31-.5-.6-.87-1.06-1.33-.04-.04-.06-.07-.06-.11,0-.13.53-.52.71-.52.1,0,.27.14.57.46.45.46.77.88.77,1.02,0,.08-.1.18-.38.39Z"/>
        <path d="M247.06,80.2v-.2c.88.15,1.33.28,1.69.46.1.04.13.1.13.2,0,.06-.03.13-.08.22-.13.22-.17.39-.38,1.32-.27,1.21-.41,2.55-.41,4.02,0,.78.03,1.22.11,1.96l.74-1.5c.08.29.2.53.36.73.11.14.13.18.13.29s0,.11-.27.7c-.29.63-.46,1.18-.62,1.89-.04.22-.08.29-.15.32-.11.06-.59.13-.87.13-.2,0-.27-.04-.31-.17-.34-.95-.62-2.91-.62-4.31,0-1.21.15-2.87.41-4.62.08-.57.13-.99.13-1.29v-.15ZM251.83,84.17c-.78,0-1.01-.03-1.08-.13-.1-.13-.18-.7-.18-1.22v-.21c.56.06,1.01.08,1.72.08.55,0,.85-.01,1.42-.06-.04-1.46-.13-2.33-.29-2.77h.38c.49,0,1.09.04,1.4.11.14.03.21.11.21.22,0,.06-.01.11-.04.21-.07.2-.11.5-.11.87,0,.21.01.87.01,1.04v.14c.7-.11,1.04-.18,1.62-.38.06-.01.11-.03.17-.03.08,0,.13.04.15.13.06.15.11.7.11,1.01,0,.22-.04.32-.15.36-.18.07-1.04.24-1.86.35.01.39.01.6.01.83,0,2.06-.25,3.53-.81,4.64-.5.99-1.6,2.16-2.04,2.16-.13,0-.18-.03-.34-.17-.46-.41-.55-.48-1.09-.73.98-.55,1.61-1.13,2.04-1.93.46-.85.71-2.03.71-3.32,0-.1,0-.34-.01-.67-.01-.14-.01-.35-.03-.63-.5.04-1.64.1-1.92.1Z"/>
        <path d="M264.22,83.75c-1-.2-1.75-.49-2.27-.85-.25-.17-.31-.24-.31-.36,0-.15.11-.43.5-1.22.69.43,1.46.74,2.34.92.2-.98.28-1.79.29-2.7.71.13,1.34.34,1.7.53.15.08.21.17.2.28,0,.06-.03.11-.1.25-.21.43-.22.48-.52,1.85.14.01.32.01.43.01h.1c.34-.01.59-.01.71-.01h.04c.13,0,.17.06.17.24,0,.62-.04,1.12-.1,1.22-.04.07-.22.1-.81.1-.27,0-.48-.01-.87-.03q-.29,1.44-.42,2.2c.48.04.57.04.81.04h.79c.14-.01.21.01.25.08.06.08.1.53.1,1.04,0,.25-.01.32-.1.36-.07.03-.38.04-.91.04-.25,0-.63-.01-1.12-.04-.01.25-.01.42-.01.53,0,1.29.6,1.88,1.92,1.88,1.47,0,2.35-.71,2.35-1.92,0-.43-.1-.83-.32-1.26-.28-.53-.55-.84-1.22-1.37h.13c.22,0,.7-.07,1.12-.15.22-.04.31-.06.38-.06.21,0,.35.1.63.45.64.78.97,1.61.97,2.48,0,1.97-1.6,3.28-4.02,3.28-2.27,0-3.4-1.13-3.4-3.43,0-.2,0-.35.03-.59-1.39-.29-2.14-.98-2.14-1.98,0-.52.15-.9.55-1.29.04-.06.1-.07.15-.07.08,0,.18.07.5.34.25.21.29.25.29.32q0,.06-.08.18c-.06.1-.11.25-.11.34,0,.18.11.34.32.43.2.1.25.11.7.21l.36-2.27Z"/>
        <path d="M279.82,83.14c.91-.24,1.51-.32,2.17-.32,1.99,0,3.14,1.18,3.14,3.19,0,1.75-.76,3.17-2.28,4.29-.81.6-2.04,1.2-2.45,1.2-.18,0-.22-.04-.52-.46-.21-.32-.42-.52-.77-.77,1.61-.55,2.28-.9,3.01-1.53.84-.74,1.26-1.64,1.26-2.7,0-1.13-.53-1.78-1.47-1.78-.76,0-1.74.29-3.01.91-.18.08-.28.15-.52.32-.06.03-.11.06-.17.06-.27,0-.71-.78-1.02-1.83.52-.04.79-.11,2.63-.57ZM280.76,79.73c.5.15,1.26.29,1.95.38.28.03.38.04,1.09.07.21,0,.27.06.27.21,0,.46-.1,1.22-.18,1.36-.03.08-.1.11-.2.11-.32,0-1.46-.15-2.12-.29-1.11-.22-2.07-.5-2.27-.66-.04-.04-.07-.1-.07-.15,0-.11.29-.87.43-1.13.07-.11.11-.14.2-.14q.07,0,.9.25Z"/>
        <path d="M292.21,80.2v-.2c.88.15,1.33.28,1.69.46.1.04.13.1.13.2,0,.06-.03.13-.08.22-.13.22-.17.39-.38,1.32-.27,1.21-.41,2.55-.41,4.02,0,.78.03,1.22.11,1.96l.74-1.5c.08.29.2.53.36.73.11.14.13.18.13.29s0,.11-.27.7c-.29.63-.46,1.18-.62,1.89-.04.22-.08.29-.15.32-.11.06-.59.13-.87.13-.2,0-.27-.04-.31-.17-.34-.95-.62-2.91-.62-4.31,0-1.21.15-2.87.41-4.62.08-.57.13-.99.13-1.29v-.15ZM296.98,84.17c-.78,0-1.01-.03-1.08-.13-.1-.13-.18-.7-.18-1.22v-.21c.56.06,1.01.08,1.72.08.55,0,.85-.01,1.42-.06-.04-1.46-.13-2.33-.29-2.77h.38c.49,0,1.09.04,1.4.11.14.03.21.11.21.22,0,.06-.01.11-.04.21-.07.2-.11.5-.11.87,0,.21.01.87.01,1.04v.14c.7-.11,1.04-.18,1.62-.38.06-.01.11-.03.17-.03.08,0,.13.04.15.13.06.15.11.7.11,1.01,0,.22-.04.32-.15.36-.18.07-1.04.24-1.86.35.01.39.01.6.01.83,0,2.06-.25,3.53-.81,4.64-.5.99-1.6,2.16-2.05,2.16-.13,0-.18-.03-.34-.17-.46-.41-.55-.48-1.09-.73.98-.55,1.61-1.13,2.04-1.93.46-.85.71-2.03.71-3.32,0-.1,0-.34-.01-.67-.01-.14-.01-.35-.03-.63-.5.04-1.64.1-1.92.1Z"/>
        <path d="M306.53,83.82h-.08c-.07.01-.13.01-.15.01-.13,0-.2-.06-.24-.24-.08-.35-.14-.78-.17-1.32.2.01.35.01.45.01.76,0,1.64-.06,2.38-.15.14-.92.21-1.64.21-2.21v-.32c1.62.21,1.93.31,1.92.56,0,.07-.03.11-.08.24-.17.32-.18.36-.41,1.47.55-.1,1.25-.28,1.53-.38.06-.03.07-.03.11-.03.13,0,.15.06.27.55.06.28.11.67.11.78,0,.1-.04.15-.17.18q-.25.08-2.17.42c-.64,2.84-1.32,4.94-2.4,7.47-.07.18-.14.25-.22.25-.18,0-.67-.2-1.15-.46-.24-.13-.31-.2-.31-.27,0-.06.04-.15.11-.29,1.07-2.02,1.83-4.16,2.37-6.47-.62.08-1.05.13-1.9.2ZM312.51,89.14c.41.27.99.39,1.82.39.91,0,1.7-.08,2.14-.22.11-.03.14-.04.2-.04.13,0,.18.04.22.17.1.29.17.87.17,1.3,0,.18-.06.25-.24.29-.46.1-1.25.15-2.07.15-1.75,0-2.73-.28-3.38-.95-.24-.25-.43-.57-.55-.92-.08-.2-.14-.43-.14-.52,0-.24.42-.49,1.15-.73.15.59.32.84.67,1.08ZM316.45,85.06c-.28-.04-.87-.07-1.36-.07-1.04,0-1.47.04-2.7.25-.03.01-.07.01-.1.01-.08,0-.13-.03-.15-.11-.04-.1-.1-.78-.1-1.08,0-.18.03-.27.14-.31.06-.03.14-.04.43-.1.95-.17,1.75-.24,2.73-.24.81,0,1.23.03,1.33.1.07.06.08.17.08.63,0,.41-.03.77-.06.85-.01.04-.07.07-.14.07-.03,0-.07,0-.11-.01Z"/>
        <path d="M322.06,84.52c-.11.03-.17.06-.25.1-.07.04-.11.06-.18.06-.29,0-.52-.55-.69-1.58.11.01.21.01.27.01.59,0,2.09-.18,2.98-.36.29-1.23.45-2.16.45-2.83,0-.06,0-.13-.01-.24.6.07,1.18.2,1.57.35.22.08.34.21.34.35,0,.07-.01.11-.08.22q-.21.38-.64,1.92c.34-.04.71-.07.95-.07.57,0,1.02.11,1.34.34.56.41.84,1.23.84,2.51,0,2.09-.38,3.87-1.02,4.75-.45.62-1.04.91-1.86.91-.5,0-.98-.07-1.12-.15q-.11-.07-.15-.59c-.04-.38-.13-.7-.29-1.09.73.24.91.28,1.36.28.67,0,.95-.32,1.26-1.44.21-.74.32-1.71.32-2.73,0-1.09-.27-1.49-1.01-1.49-.25,0-.66.03-.98.08-.04.15-.06.17-.11.36-.39,1.43-1.11,3.32-1.82,4.83-.74,1.53-.92,1.83-1.11,1.83-.11,0-.49-.2-.9-.46-.32-.2-.41-.28-.41-.39q0-.07.57-.98c.77-1.19,1.78-3.53,2.13-4.9-1.04.22-1.61.36-1.74.41ZM329.2,82.95c0-.1.13-.22.53-.55.28-.21.42-.29.52-.29.08,0,.15.04.34.22.83.8,1.6,1.86,2.04,2.79.14.31.22.5.22.59,0,.14-.04.18-.49.55-.28.22-.6.41-.71.41-.1,0-.14-.04-.24-.28-.28-.69-.55-1.22-.88-1.74-.36-.56-.43-.64-1.26-1.53-.06-.08-.07-.13-.07-.17Z"/>
      </g>
      <rect class="cls-5" x="35.31" y="123.6" width="152.54" height="89.06"/>
      <rect class="cls-2" x="191.21" y="123.6" width="152.54" height="89.06"/>
      <rect class="cls-3" y="123.6" width="32.34" height="89.06"/>
      <g>
        <path d="M58.9,156.19h1.99c.63,0,1.02-.03,1.44-.08v1.53c-.45-.04-.87-.07-1.46-.07h-1.51c.8,1.4,1.96,2.56,3.35,3.35-.45.45-.64.73-.92,1.4-.57-.41-.98-.8-1.51-1.4-.69-.8-.98-1.23-1.43-2.07.03.5.04.94.04,1.34v1.69c0,.63.03,1.12.08,1.55h-1.55c.06-.43.08-.94.08-1.57v-1.6c0-.38.01-.83.04-1.39-.85,1.54-1.81,2.58-3.17,3.49-.35-.66-.55-.94-.84-1.27,1.44-.83,2.62-2.03,3.43-3.53h-.88c-.6,0-1.04.03-1.47.08v-.56c-.24.34-.41.64-.57,1.13-.35-.55-.56-.98-.83-1.68.03.43.06,1.19.06,1.78v3.45c0,.71.03,1.23.08,1.65h-1.55c.06-.43.08-.95.08-1.65v-2.9c0-.53.01-.87.1-1.74-.41,1.36-.81,2.27-1.42,3.18-.17-.63-.35-1.04-.63-1.5.67-.85,1.37-2.44,1.79-4.06h-.53c-.41,0-.64.01-.9.06v-1.43c.22.04.48.06.9.06h.67v-1.08c0-.71-.01-1.06-.07-1.4h1.54c-.06.36-.07.74-.07,1.4v1.08h.41c.34,0,.5-.01.73-.06v1.33c.53-.95.98-2.35,1.02-3.26l1.36.35c-.06.15-.1.32-.2.74-.07.25-.1.38-.17.64h1.08v-.92c0-.57-.03-.92-.08-1.27h1.57c-.06.34-.08.71-.08,1.27v.92h1.58c.67,0,1.07-.03,1.44-.08v1.47c-.39-.04-.84-.07-1.44-.07h-1.58v1.7ZM55.97,154.5c-.24.57-.36.84-.76,1.5q-.34-.35-1.09-.88c.11-.15.15-.22.22-.32-.18-.03-.41-.04-.66-.04h-.35c.32.74.66,1.3,1.27,2.13v-.77c.42.06.81.08,1.46.08h1.43v-1.7h-1.53Z"/>
        <path d="M70.57,159.97c-.67,1.16-1.6,1.81-2.55,1.81-1.46,0-2.49-1.43-2.49-3.42,0-2.21,1.12-4.12,3.04-5.13.94-.5,1.95-.73,3.28-.73,2.93,0,5.1,2.07,5.1,4.85,0,2.45-1.2,4.22-3.53,5.21-.46.2-.83.31-1.01.31-.17,0-.24-.06-.42-.32-.24-.36-.5-.63-.88-.88,2.89-.74,4.19-2.1,4.19-4.37,0-1.16-.49-2.14-1.36-2.76-.49-.34-.88-.48-1.65-.6-.39,2.96-.85,4.57-1.71,6.04ZM68.55,155.02c-.94.83-1.47,2-1.47,3.32,0,1.08.35,1.71.94,1.71.7,0,1.42-.97,1.95-2.63.34-1.05.5-1.85.71-3.4-.99.21-1.48.45-2.13,1.01Z"/>
        <path d="M88.94,152.05c-.71.36-.98.7-1.08,1.33.13-.03.25-.04.29-.04.56,0,.98.45.98,1.02,0,.62-.43,1.05-1.04,1.05-.74,0-1.18-.55-1.18-1.48,0-.56.17-1.19.41-1.58.24-.36.55-.63,1.05-.91l.56.62ZM91.64,152.05c-.71.36-.98.7-1.08,1.33.13-.03.25-.04.29-.04.56,0,.98.45.98,1.02,0,.62-.43,1.05-1.04,1.05-.74,0-1.18-.55-1.18-1.44,0-1.21.43-1.97,1.46-2.54l.56.62Z"/>
        <path d="M95.52,157.83c0-.49,0-.97.03-1.5-.39.69-.58.95-.94,1.4-.14-.56-.34-1.09-.6-1.6.9-.99,1.48-2,1.99-3.35.32-.84.42-1.25.52-1.92l1.53.36q-.66,1.99-1.13,3.03v7.55c0,.59.01,1.05.07,1.56h-1.54c.06-.55.08-.91.08-1.57v-3.96ZM97.81,163.39c.06-.48.07-.83.07-1.65v-5.93c0-.67-.03-1.12-.08-1.51h1.5c-.04.42-.06.83-.06,1.53v5.64h5.93c.67,0,1.08-.01,1.48-.07v1.44c-.46-.06-.9-.08-1.5-.08h-5.91v.63h-1.43ZM99.36,153.38c-.55,0-.87.01-1.26.06v-1.42c.35.06.71.07,1.42.07h2.4c.06-.48.07-.6.1-1.12l1.48.08q-.13.74-.18,1.04h2.04c.64,0,.95-.01,1.4-.08v1.43c-.39-.04-.79-.06-1.23-.06h-2.45c-.06.28-.13.57-.2.88h1.93c.56,0,.88-.01,1.13-.03-.04.43-.04.66-.04,1.29v4.08c0,.56,0,.77.04,1.19-.42-.01-.77-.03-1.15-.03h-3.46c-.39,0-.71.01-1.13.03.03-.29.04-.64.04-1.06v-4.4c0-.5-.01-.87-.04-1.09.34.03.53.03,1.08.03h.2c.1-.32.14-.55.21-.88h-2.33ZM101.6,156.09h2.94v-.7h-2.94v.7ZM101.6,157.82h2.94v-.71h-2.94v.71ZM101.6,159.61h2.94v-.79h-2.94v.79Z"/>
        <path d="M115.86,160.73c1.15,0,2.42-.17,3.68-.49.07-.03.11-.03.15-.03.08,0,.13.06.15.18.04.31.07.76.07,1.22,0,.28-.03.36-.15.42-.42.22-2.31.43-3.94.43-2.12,0-3.32-.36-4.29-1.26-.46-.43-.92-1.19-.92-1.5,0-.21.13-.31,1.28-.95.5,1.39,1.67,1.97,3.96,1.97ZM115.99,152.66c.81,0,1.29-.03,2.24-.17h.1c.11,0,.15.04.18.13.03.17.06.59.06,1.09,0,.32-.03.43-.11.49-.11.07-1.33.15-2.27.15-1.25,0-2.28-.1-3.45-.32-.8-.15-.84-.18-.84-.69,0-.31.03-.85.07-1.23,1.22.36,2.55.55,4.02.55ZM120.09,153.39c-.07,0-.11-.03-.15-.11-.36-.6-.62-.94-1.11-1.43-.04-.04-.06-.07-.06-.11,0-.11.56-.56.71-.56.1,0,.27.13.62.5.45.48.78.92.78,1.04,0,.15-.62.67-.8.67ZM121.53,150.76c.43.46.74.88.74,1.01,0,.08-.04.13-.27.31-.28.21-.43.31-.52.31-.04,0-.08-.04-.14-.14-.42-.62-.66-.91-1.08-1.33-.04-.03-.07-.08-.07-.11,0-.13.55-.52.73-.52.1,0,.31.15.6.48Z"/>
        <path d="M130.49,156.21c.55-.22,1.28-.36,1.78-.36,2.14,0,3.54,1.23,3.54,3.1,0,1.27-.66,2.42-1.78,3.14-.91.56-2.59.99-3.92.99q-.42,0-.55-.38c-.11-.34-.34-.69-.62-.97,1.92-.11,2.52-.21,3.4-.6,1.16-.49,1.76-1.26,1.76-2.21,0-1.06-.77-1.79-1.92-1.79-1.51,0-3.28.84-4.79,2.28-.21.21-.32.32-.8.9-.13.17-.22.22-.31.22-.25,0-1.15-1.01-1.15-1.3,0-.08.03-.13.24-.31,1.01-.88,3.53-3.56,5.32-5.66-1.39.17-2.58.38-3.11.56-.25.1-.32.11-.38.11-.13,0-.18-.07-.27-.32-.14-.38-.25-.94-.31-1.48.18.03.32.04.55.04,1.36,0,4.26-.34,4.75-.56.17-.07.22-.08.31-.08.24,0,.5.21.9.7.25.29.35.46.35.56,0,.14-.08.24-.29.35-.18.11-.32.21-.52.38-.31.24-.42.35-1.4,1.3q-1.27,1.25-2.23,2.14c.76-.45,1.08-.62,1.43-.74Z"/>
        <path d="M146.35,158.11c.55-.39.95-.74,1.33-1.16-.5-.99-.78-2.04-.99-3.61h-4.85c-.03,2.25-.14,3.52-.39,4.51-.21.84-.46,1.46-.83,2.02-.39-.45-.7-.7-1.21-1,.77-1.19,1.05-2.55,1.05-5.11,0-.91-.01-1.18-.07-1.7.45.03,1.02.06,1.62.06h4.54q-.03-.27-.04-.57c-.01-.25-.04-.39-.08-.6h1.53c-.03.18-.04.45-.04.78,0,.1,0,.11.01.39h1.54c-.45-.32-.6-.42-.98-.62l.99-.63c.52.27.71.41,1.26.84l-.62.41c.76,0,1.08-.03,1.44-.08v1.37c-.48-.06-.94-.07-1.64-.07h-1.89c.14,1.06.29,1.71.57,2.42.43-.67.73-1.3.91-1.91l1.26.52q-.15.27-.34.64c-.35.7-.76,1.36-1.22,1.99.22.32.39.53.56.7.2.18.43.34.5.34.18,0,.38-.64.46-1.58.39.38.63.56,1.12.84-.34,1.58-.76,2.2-1.48,2.2-.63,0-1.4-.55-2.04-1.44-.6.63-.87.85-1.6,1.37-.39-.45-.43-.49-.7-.69-.18-.01-.29-.01-.55-.01h-2.49c-.32,0-.66.01-.84.04,0-.08.01-.36.03-.85v-1.37c0-.32-.01-.63-.03-.83.27.03.49.04.85.04h2.49c.38,0,.59-.01.85-.04-.01.18-.03.46-.03.81v1.58ZM142.29,159.97c-.52,1.61-.79,2.1-1.62,3.07l-1.21-.87c.92-.94,1.13-1.32,1.57-2.77l1.26.57ZM146.59,155.18c-.24-.03-.48-.04-.84-.04h-2.79c-.35,0-.62.01-.84.04v-1.22c.22.03.45.04.84.04h2.79c.39,0,.6-.01.84-.04v1.22ZM144.11,161.64c0,.29.15.32,1.47.32.84,0,1.47-.04,1.71-.11.29-.1.38-.35.38-1.19.59.27.81.34,1.37.46-.11,1.02-.25,1.44-.6,1.69-.39.29-1.18.41-2.93.41-2.35,0-2.79-.18-2.79-1.16v-1.61c0-.41-.01-.66-.07-.94h1.53c-.06.27-.07.46-.07.78v1.34ZM143.44,157.63h1.71v-.81h-1.71v.81ZM146.3,161.37c-.6-.74-.91-1.02-1.74-1.64l.95-.69c.7.45,1.06.74,1.81,1.46l-1.02.87ZM150,159.57c.71.87,1.12,1.5,1.75,2.67l-1.28.69c-.52-1.13-.99-1.93-1.67-2.83l1.19-.53Z"/>
        <path d="M154.48,154.87c.71-.36.99-.7,1.08-1.33-.13.03-.24.04-.28.04-.56,0-.99-.45-.99-1.02,0-.62.43-1.05,1.04-1.05.74,0,1.18.53,1.18,1.44,0,1.21-.43,1.98-1.46,2.54l-.56-.62ZM157.19,154.87c.71-.36.99-.7,1.08-1.33-.13.03-.24.04-.28.04-.56,0-1-.45-1-1.02,0-.62.43-1.05,1.04-1.05.74,0,1.18.53,1.18,1.44,0,1.21-.43,1.98-1.46,2.54l-.56-.62Z"/>
        <path d="M162.06,159.81c.25-.22.32-.28.42-.28.18,0,1.02.62,1.64,1.21.7.64,1.49,1.58,1.49,1.78,0,.13-.03.15-.43.52-.53.49-.64.57-.74.57-.08,0-.17-.06-.24-.2-.49-.87-1.61-2.02-2.61-2.66-.11-.08-.17-.14-.17-.22,0-.1.03-.14.64-.71Z"/>
        <path d="M51.84,173.31c-.71.36-.98.7-1.08,1.33.13-.03.25-.04.29-.04.56,0,.98.45.98,1.02,0,.62-.43,1.05-1.04,1.05-.74,0-1.18-.55-1.18-1.48,0-.56.17-1.19.41-1.58.24-.36.55-.63,1.05-.91l.56.62ZM54.54,173.31c-.71.36-.98.7-1.08,1.33.13-.03.25-.04.29-.04.56,0,.98.45.98,1.02,0,.62-.43,1.05-1.04,1.05-.74,0-1.18-.55-1.18-1.44,0-1.21.43-1.97,1.46-2.54l.56.62Z"/>
        <path d="M60.46,176.98c-1.11.11-1.39.13-2.02.13-.43,0-.5-.18-.6-1.43h.55c.69,0,1.3-.04,2.07-.13v-.29c0-.91-.06-1.62-.2-2.38,1.06.06,1.49.11,1.78.2.14.04.2.11.2.25,0,.08-.01.14-.08.28-.13.27-.2.77-.21,1.72.46-.08,1.21-.27,1.77-.43.04-.01.07-.01.1-.01.11,0,.18.06.21.15.07.28.15.84.15,1.05,0,.11-.07.21-.18.25-.17.07-1.19.28-2.09.43v1.81c1.39-.46,2.47-.69,3.39-.69,1.79,0,2.96,1.15,2.96,2.93,0,1.15-.46,2.07-1.29,2.56-.43.25-1.05.41-1.72.41s-1.27-.06-1.43-.15c-.15-.08-.17-.13-.2-.46-.03-.39-.11-.73-.28-1.13.57.21,1.05.29,1.6.29,1.09,0,1.71-.56,1.71-1.55s-.59-1.55-1.53-1.55c-.88,0-2,.28-3.21.8q0,.06.01.6.01.92.01,1.12c.01.25.01.5.01.63,0,1.13-.43,1.68-1.36,1.68s-1.81-.48-2.37-1.21c-.22-.31-.34-.63-.34-1.01,0-.91.81-1.74,2.58-2.65v-2.21ZM60.46,180.73c-.81.49-1.15.81-1.15,1.11,0,.32.46.67.88.67.2,0,.27-.13.27-.45v-1.33ZM68.28,177.55c-.71-.76-1.7-1.39-2.62-1.68-.11-.04-.17-.1-.17-.17,0-.08.14-.31.53-.84.15-.21.17-.22.31-.22.14.01.67.2,1.04.36.88.41,2.03,1.28,2.03,1.54,0,.25-.7,1.13-.91,1.13-.07,0-.13-.03-.21-.13Z"/>
        <path d="M73.66,180.45c0-.53.01-.92.03-1.44-.36.45-.57.64-1.05,1.01-.18-.58-.34-.92-.63-1.42.98-.67,1.68-1.37,2.41-2.41.22-.34.43-.69.62-1.09l1.19.84c-.11.17-.15.22-.27.41-.31.5-.38.6-.87,1.23v5.52c0,.73.01,1.11.07,1.53h-1.58c.07-.41.08-.77.08-1.43v-2.75ZM76.14,172.95c-.71.94-.8,1.02-1.15,1.4-.62.62-1.29,1.16-2.06,1.65-.24-.55-.43-.83-.78-1.23,1.36-.77,2.28-1.65,2.8-2.69l1.19.87ZM76.88,180.88c-.56,0-.87.01-1.28.06v-1.36c.36.04.71.06,1.29.06h4.47v-.67h-4.33c-.52,0-.91.01-1.26.06v-1.32c.35.04.56.06,1.27.06h6.01c.63,0,.97-.01,1.3-.07v1.33c-.35-.04-.73-.06-1.27-.06h-.29v.67h.35c.56,0,.97-.01,1.32-.06v1.36c-.32-.04-.71-.06-1.28-.06h-.39v2.35c0,.99-.39,1.26-1.81,1.26-.27,0-.78-.01-1.4-.04-.06-.56-.13-.84-.31-1.34l-.7.63c-.56-.95-.94-1.42-1.74-2.16l.97-.7h-.92ZM77.96,177.17c-.55,0-1.01.01-1.25.04.03-.38.04-.73.04-1.32v-2.02c0-.56-.01-.87-.04-1.25.38.04.71.06,1.36.06h4.15c.67,0,1.04-.01,1.39-.06-.04.43-.06.76-.06,1.33v1.93c0,.59.01.92.06,1.32-.29-.03-.77-.04-1.23-.04h-4.41ZM78.12,180.88c.57.53.88.87,1.62,1.82l-.34.29c.69.1,1.15.14,1.46.14.41,0,.5-.06.5-.34v-1.92h-3.25ZM78.15,174.41h3.98v-.59h-3.98v.59ZM78.15,176.09h3.98v-.63h-3.98v.63Z"/>
        <path d="M89.74,176.61c-.06,4.08-.42,6-1.53,7.97-.38-.55-.64-.84-1.12-1.25.98-1.83,1.22-3.5,1.22-8.6,0-.64-.01-1.16-.06-1.6.48.04.95.07,1.53.07h3.35v-.29c0-.29-.03-.52-.08-.77h1.62c-.06.22-.07.45-.07.79v.28h3.33c.74,0,1.23-.03,1.62-.08v1.4c-.41-.04-.79-.06-1.42-.06h-1.04v.94h1.3c.55,0,.83-.01,1.19-.06v1.32c-.32-.04-.56-.06-1.19-.06h-1.3v1.29c0,.32.01.59.04.84q-.31-.01-.87-.01h-3.75c-.55,0-.7,0-.92.01.03-.21.04-.56.04-.84v-1.29h-1.9ZM98.21,180.21q-.15.15-.25.28c-.7.8-1.44,1.47-2.23,2.02,1.16.41,2.34.59,3.98.63-.25.48-.42.91-.57,1.51-2.24-.28-3.57-.63-4.85-1.3-1.41.67-2.56,1.01-4.59,1.32-.11-.5-.22-.8-.52-1.39,1.67-.13,2.73-.34,3.84-.76-.78-.6-1.12-.95-1.83-1.91-.41.01-.66.03-.95.06v-1.26c.34.04.74.06,1.44.06h4.69c.55,0,.77-.01,1.11-.04l.74.78ZM91.64,175.41v-.94h-1.89v.94h1.89ZM92.8,180.62c.42.5.85.85,1.57,1.26.7-.41,1.06-.67,1.67-1.26h-3.24ZM95.69,175.41v-.94h-2.65v.94h2.65ZM93.04,177.55h2.65v-.94h-2.65v.94Z"/>
        <path d="M102.33,176.13c.71-.36.99-.7,1.08-1.33-.13.03-.24.04-.28.04-.56,0-.99-.45-.99-1.02,0-.62.43-1.05,1.04-1.05.74,0,1.18.53,1.18,1.44,0,1.21-.43,1.98-1.46,2.54l-.56-.62ZM105.04,176.13c.71-.36.99-.7,1.08-1.33-.13.03-.24.04-.28.04-.56,0-1-.45-1-1.02,0-.62.43-1.05,1.04-1.05.74,0,1.18.53,1.18,1.44,0,1.21-.43,1.98-1.46,2.54l-.56-.62Z"/>
        <path d="M122.57,180.29c-1.39.81-1.78,1.22-1.78,1.83,0,.25.1.42.31.55.31.18,1,.28,1.88.28.76,0,1.81-.07,2.52-.17.29-.04.46-.08,1.02-.22h.07c.1,0,.17.07.21.17.08.29.14.71.14,1.22,0,.21-.07.29-.25.34-.34.07-1.89.15-2.91.15-1.71,0-2.62-.11-3.29-.39-.81-.34-1.22-.97-1.22-1.85,0-.81.38-1.53,1.13-2.13.6-.48.74-.57,2.03-1.3-.11-.46-.32-.66-.76-.66-.57,0-1.18.22-1.83.66-.41.28-.88.67-1.18.97-.42.43-.46.46-.58.46-.14,0-.43-.32-.73-.81-.14-.24-.22-.42-.22-.52,0-.13.03-.15.36-.36,1.15-.77,2.1-1.75,2.68-2.76-1,.07-1.51.08-2.06.08-.21,0-.25-.04-.32-.28-.04-.18-.11-.92-.13-1.3.48.07.76.08,1.43.08.55,0,1.15-.01,1.78-.04.29-.8.39-1.3.41-1.96,1.25.21,1.82.42,1.82.66,0,.06-.01.08-.06.17-.1.18-.21.41-.39.84q-.03.06-.04.1c.8-.11,1.5-.25,1.99-.36.31-.08.38-.1.45-.1.11,0,.17.04.2.13.06.25.14.9.14,1.09,0,.15-.06.22-.24.27-.45.13-1.99.36-3.28.49-.42.77-.71,1.22-1.15,1.7.63-.29,1.11-.41,1.67-.41.63,0,1.05.36,1.33,1.15,1.39-.76,2.13-1.16,2.21-1.22.64-.38.91-.59,1.22-.94.57.59,1.19,1.47,1.19,1.71,0,.08-.06.14-.24.18-.69.18-1.96.73-4.09,1.76.01.25.04.9.04,1.34v.67c0,.17-.03.25-.1.29-.07.07-.45.11-.87.11-.48,0-.56-.04-.56-.27v-.06c.03-.41.04-.94.04-1.27v-.07Z"/>
        <path d="M133.25,178.11c-.56,0-.88.01-1.25.07v-1.47c.31.06.59.07,1.23.07h1.39v-3.11c0-.69-.03-1.06-.08-1.46h1.58c-.06.39-.07.74-.07,1.43v3.14h1.15c.7,0,1-.01,1.29-.07v1.46c-.32-.04-.63-.06-1.26-.06h-1.18v1.5h1.29c.73,0,1.08-.01,1.37-.06v1.46c-.38-.04-.66-.06-1.34-.06h-1.32v2c0,.6.03,1.12.08,1.67h-1.61c.07-.56.1-.97.1-1.67v-2h-1.71c-.64,0-.95.01-1.34.07v-1.48c.35.06.73.07,1.39.07h1.67v-1.5h-1.37ZM132.92,172.79c.62,1.12.91,1.82,1.29,2.97l-1.27.48c-.55-1.55-.74-2-1.3-2.91l1.29-.53ZM138.93,173.21c-.62,1.61-.87,2.21-1.36,3.14l-1.19-.53c.6-1.11.88-1.82,1.21-3.11l1.34.5ZM140.78,173.22c-.06.38-.07.7-.07,1.4v5.31c0,.69.01,1.15.06,1.43h-1.5c.03-.31.06-.83.06-1.43v-5.28c0-.71-.01-1.06-.06-1.43h1.51ZM143.58,172.32c-.06.38-.08.8-.08,1.62v8.91c0,.69-.15,1.05-.53,1.29-.29.18-.71.25-1.53.25-.35,0-.94-.01-1.41-.04-.1-.66-.17-.91-.38-1.4.94.11,1.18.13,1.57.13.78,0,.88-.04.88-.42v-8.67c0-.79-.03-1.26-.08-1.67h1.57Z"/>
        <path d="M155.22,177.47c-.03,1.42-.17,2.7-.38,3.8-.31,1.47-.64,2.28-1.49,3.45-.39-.57-.59-.81-1.05-1.21-.42-.03-.53-.03-1.01-.03h-2.91v.91h-1.47c.06-.46.08-.97.08-1.54v-8.68c0-.63-.01-1.02-.08-1.53h1.54c-.06.36-.07.66-.07,1.13v6.22c.79-.84,1.18-1.46,1.64-2.54h-.46c-.34,0-.67.03-.9.06v-1.39c.38.04.5.04.94.04h.84v-2.83c0-.55-.01-.77-.06-1.08h1.37c-.04.27-.06.53-.06,1.09v2.82h.81c.43,0,.67-.01.87-.04v1.4c-.29-.06-.55-.07-.98-.07h-.46c.55.94.9,1.39,1.62,2.04-.28.39-.46.74-.63,1.19-.71-.83-.95-1.18-1.29-1.86.03.29.06.73.06.94v1.19c0,.45.01.62.06.91h-1.37c.04-.31.07-.55.07-.94v-1.05c0-.2,0-.34.01-.57q.01-.25.03-.43c-.41,1.02-.69,1.49-1.43,2.35-.15-.27-.36-.53-.69-.88v1.83h2.93c.59,0,1.05-.01,1.4-.06v.81c.9-1.47,1.16-3.22,1.16-7.73,0-1.12-.01-1.43-.07-1.88.76-.03,1.91-.28,2.83-.62.59-.2.98-.39,1.29-.62l1.06,1.33q-.07.01-.31.1s-.1.03-.21.07c-1.08.42-2.06.69-3.24.87v1.62h2.7c.49,0,.84-.03,1.18-.08v1.53c-.34-.04-.56-.06-1.07-.06h-.14v5.59c0,.64.03,1.11.08,1.53h-1.58c.06-.41.08-.88.08-1.53v-5.59h-1.27ZM149.49,172.76c.49,1.39.58,1.64.8,2.65l-1.02.43c-.21-1.05-.41-1.68-.83-2.61l1.05-.48ZM153.56,173.22c-.39,1.47-.52,1.85-.87,2.61l-.9-.48c.35-.95.49-1.46.67-2.59l1.09.46Z"/>
      </g>
      <g>
        <path d="M204,155.38c-.9.56-1.21.73-2.16,1.16-.24-.55-.45-.91-.78-1.39,1.43-.56,2.37-1.08,3.38-1.86.9-.69,1.57-1.42,2.13-2.27h1.58c.71.99,1.26,1.53,2.28,2.24,1.13.81,2.24,1.39,3.46,1.82-.38.57-.56.95-.76,1.51-.84-.36-1.36-.64-2.28-1.23v1.05c-.36-.04-.7-.06-1.21-.06h-4.5c-.38,0-.78.01-1.15.06v-1.04ZM203.26,158.84c-.7,0-1.15.03-1.58.08v-1.55c.42.04.95.07,1.58.07h8.36c.67,0,1.13-.03,1.58-.07v1.55c-.45-.06-.9-.08-1.58-.08h-4.61c-.45,1.02-.87,1.81-1.4,2.61q2.33-.13,4.26-.34c-.43-.48-.67-.73-1.42-1.48l1.33-.59c1.44,1.46,2.03,2.14,3.11,3.57l-1.3.85c-.38-.57-.49-.74-.8-1.16-1.12.14-1.92.24-2.42.28-1.4.14-3.95.38-4.52.42-.76.04-1.43.11-1.74.18l-.21-1.64c.41.03.57.04.76.04.11,0,.52-.01,1.2-.06.66-1.01,1.08-1.81,1.43-2.69h-2.03ZM209.63,154.96c.18,0,.31,0,.59-.01-1.22-.81-2-1.54-2.82-2.62-.7.95-1.51,1.72-2.79,2.62.22.01.34.01.55.01h4.47Z"/>
        <path d="M219.74,162.02c0,.63.01.98.08,1.37h-1.62c.06-.41.08-.77.08-1.4v-3.38c-.55.49-.83.7-1.5,1.15-.17-.52-.41-1.01-.69-1.4.94-.55,1.58-1.05,2.31-1.82.63-.66,1.02-1.22,1.46-2.07h-2.19c-.48,0-.8.01-1.12.06v-1.5c.35.04.62.06,1.05.06h.69v-1.12c0-.36-.03-.71-.08-1.02h1.61c-.06.29-.07.62-.07,1.04v1.11h.56c.41,0,.56-.01.77-.04l.64.7c-.11.18-.2.35-.29.58-.45.98-.69,1.39-1.34,2.3.63.71,1.25,1.21,2.13,1.7-.31.43-.5.8-.73,1.33-.71-.45-1.13-.83-1.75-1.51v3.89ZM225.45,161.37h1.61c.67,0,1.13-.03,1.54-.07v1.61c-.48-.06-.99-.08-1.54-.08h-4.59c-.56,0-1.05.03-1.51.08v-1.61c.42.04.9.07,1.53.07h1.47v-5.25h-1.01c-.45,0-.9.03-1.32.07v-1.53c.38.06.76.07,1.32.07h1.01v-2.37c0-.56-.03-.88-.08-1.4h1.67c-.07.53-.08.8-.08,1.4v2.37h1.41c.62,0,.97-.01,1.33-.07v1.53c-.43-.04-.85-.07-1.33-.07h-1.41v5.25Z"/>
        <path d="M236.79,159.97c-.67,1.16-1.6,1.81-2.55,1.81-1.46,0-2.49-1.43-2.49-3.42,0-2.21,1.12-4.12,3.04-5.13.94-.5,1.95-.73,3.28-.73,2.93,0,5.1,2.07,5.1,4.85,0,2.45-1.2,4.22-3.53,5.21-.46.2-.83.31-1.01.31-.17,0-.24-.06-.42-.32-.24-.36-.5-.63-.88-.88,2.89-.74,4.19-2.1,4.19-4.37,0-1.16-.49-2.14-1.36-2.76-.49-.34-.88-.48-1.65-.6-.39,2.96-.85,4.57-1.71,6.04ZM234.77,155.02c-.94.83-1.47,2-1.47,3.32,0,1.08.35,1.71.94,1.71.7,0,1.42-.97,1.95-2.63.34-1.05.5-1.85.71-3.4-.99.21-1.48.45-2.13,1.01Z"/>
        <path d="M255.15,152.05c-.71.36-.98.7-1.08,1.33.13-.03.25-.04.29-.04.56,0,.98.45.98,1.02,0,.62-.43,1.05-1.04,1.05-.74,0-1.18-.55-1.18-1.48,0-.56.17-1.19.41-1.58.24-.36.55-.63,1.05-.91l.56.62ZM257.86,152.05c-.71.36-.98.7-1.08,1.33.13-.03.25-.04.29-.04.56,0,.98.45.98,1.02,0,.62-.43,1.05-1.04,1.05-.74,0-1.18-.55-1.18-1.44,0-1.21.43-1.97,1.46-2.54l.56.62Z"/>
        <path d="M262.3,153c-.42.1-.63.14-1.29.27-.06-.34-.21-.76-.5-1.26,1.78-.22,3.18-.63,3.78-1.11l.76,1.18c-.11.04-.14.07-.27.13-.48.21-.66.27-1.12.42v1.86h.13c.43,0,.63-.01.88-.06v1.4c-.28-.04-.45-.06-.92-.06.35.71.78,1.33,1.39,1.91-.29.38-.49.73-.71,1.27-.39-.66-.57-.99-.83-1.57.06.56.07.99.07,1.64v2.8c0,.77.01,1.2.07,1.58h-1.51c.06-.43.08-.88.08-1.58v-2.25q.01-.71.01-.77c0-.06.01-.18.03-.36.01-.08.01-.21.03-.38-.45,1.25-.83,2-1.4,2.79-.2-.66-.36-1.02-.69-1.47.43-.48.84-1.12,1.32-2.09.2-.41.36-.83.58-1.51h-.55c-.43,0-.64.01-1.02.07v-1.43c.34.06.53.07,1.05.07h.64v-1.49ZM268.85,155.32q-.36.36-.71.67c.34.42.55.73.74,1.08.62,1.09.98,2.54.98,3.94,0,1.04-.2,1.67-.62,2-.27.21-.66.31-1.33.31-.28,0-.53-.01-1.08-.07-.06-.59-.14-.91-.34-1.36-.48.34-.57.38-1.64.95-.21-.49-.39-.74-.8-1.19,1.3-.5,1.95-.87,3.01-1.67.59-.46.78-.63,1.22-1.04-.1-.32-.14-.46-.22-.69-.78.69-1.78,1.34-2.77,1.85-.24-.49-.42-.76-.78-1.12,1.18-.45,2.13-.98,3.05-1.72-.17-.25-.22-.32-.39-.53-.57.41-.95.63-1.76,1.02-.27-.55-.38-.71-.73-1.05,1.12-.38,2.04-.87,2.62-1.39h-.59c-.45,0-.67.01-.92.04v-.55h-.87c.03-.27.04-.46.04-.85v-.92c0-.43-.01-.62-.04-.88.28.03.52.04,1.16.04h1.93v-.28c0-.38-.03-.64-.07-.94h1.55c-.06.22-.08.52-.08.94v.28h2.13c.73,0,.92,0,1.19-.04-.03.27-.04.55-.04.91v.94c0,.34.01.56.06.85h-.81v.5c-.27-.03-.48-.04-.95-.04h-.67c.21,1.04.25,1.21.48,1.85.5-.46.78-.83,1.09-1.34l1.12.92c-.69.77-1.15,1.22-1.71,1.68.57,1.26,1.12,2.04,1.93,2.8-.24.25-.35.39-.49.6-.04.06-.14.21-.28.45-.04.07-.1.18-.18.31-.8-.94-1.4-1.93-1.99-3.31-.64-1.46-.92-2.4-1.23-3.96h-.2ZM271.33,153.39h-5.04v.81c.22.01.32.01.55.01h4.5v-.83ZM266.55,161.86c.62.11.87.14,1.22.14.29,0,.52-.07.59-.17.11-.17.15-.49.15-1.11,0-.18,0-.28-.03-.45-.6.63-.92.9-1.93,1.58Z"/>
        <path d="M283.86,152.49c0,.11-.06.17-.29.29-.1.07-.22.17-.35.32-.87,1.01-2.12,2.37-3.22,3.49-.24.24-.34.42-.34.59,0,.15.11.32.38.56.83.76,2.17,2.13,3.17,3.26.7.78.88,1.04.88,1.19,0,.14-.24.38-.81.83-.27.21-.43.31-.52.31-.13,0-.18-.06-.32-.28-.6-.95-2.07-2.73-3.19-3.87-.63-.63-.76-.77-.95-1.05-.24-.34-.34-.62-.34-.94,0-.28.08-.57.25-.85q.15-.25,1.01-1.15c.81-.85,1.68-1.92,2.23-2.7.36-.52.55-.85.73-1.33,1.09.6,1.69,1.06,1.69,1.33ZM284.03,156.35c-.31-.52-.62-.92-1.08-1.39-.08-.08-.08-.1-.08-.14,0-.07.08-.17.32-.35.21-.15.31-.21.39-.21.11,0,.25.11.6.48.48.5.8.92.8,1.05,0,.15-.62.67-.81.67-.06,0-.1-.03-.14-.11ZM285.95,155.25c-.17.13-.31.2-.36.2s-.1-.03-.14-.11c-.18-.34-.66-.94-1.09-1.36-.04-.04-.07-.08-.07-.11,0-.11.57-.52.73-.52.1,0,.31.17.59.45.42.45.77.91.77,1.04,0,.08-.11.2-.42.42Z"/>
        <path d="M300.35,153.63c.83,0,1.25-.01,1.74-.07-.06.49-.06.63-.07,1.16-.06,3.32-.2,5.48-.46,6.71-.25,1.15-.81,1.53-2.24,1.53-.6,0-1.2-.04-2.04-.15-.08-.67-.18-1.08-.38-1.64.87.2,1.62.28,2.31.28.62,0,.83-.24.98-1.15.17-.99.29-3.05.31-5.24h-3.64c-.13,1.01-.14,1.12-.27,1.69-.43,2.12-1.15,3.45-2.48,4.69-.71.66-1.34,1.12-2.37,1.68-.29-.56-.63-1-1.11-1.4,1.85-.8,3.07-1.88,3.8-3.35.41-.81.67-1.88.84-3.32h-2.33c-.69,0-1.23.03-1.68.08v-1.6c.49.06.92.08,1.71.08h2.39c.03-.53.03-.67.03-1.37,0-.62-.03-1.01-.08-1.29h1.79q-.07.34-.15,2.66h3.4Z"/>
        <path d="M305.65,154.87c.71-.36.99-.7,1.08-1.33-.13.03-.24.04-.28.04-.56,0-.99-.45-.99-1.02,0-.62.43-1.05,1.04-1.05.74,0,1.18.53,1.18,1.44,0,1.21-.43,1.98-1.46,2.54l-.56-.62ZM308.36,154.87c.71-.36.99-.7,1.08-1.33-.13.03-.24.04-.28.04-.56,0-1-.45-1-1.02,0-.62.43-1.05,1.04-1.05.74,0,1.18.53,1.18,1.44,0,1.21-.43,1.98-1.46,2.54l-.56-.62Z"/>
        <path d="M325.89,159.03c-1.39.81-1.78,1.22-1.78,1.83,0,.25.1.42.31.55.31.18,1,.28,1.88.28.76,0,1.81-.07,2.52-.17.29-.04.46-.08,1.02-.22h.07c.1,0,.17.07.21.17.08.29.14.71.14,1.22,0,.21-.07.29-.25.34-.34.07-1.89.15-2.91.15-1.71,0-2.62-.11-3.29-.39-.81-.34-1.22-.97-1.22-1.85,0-.81.38-1.53,1.13-2.13.6-.48.74-.57,2.03-1.3-.11-.46-.32-.66-.76-.66-.57,0-1.18.22-1.83.66-.41.28-.88.67-1.18.97-.42.43-.46.46-.58.46-.14,0-.43-.32-.73-.81-.14-.24-.22-.42-.22-.52,0-.13.03-.15.36-.36,1.15-.77,2.1-1.75,2.68-2.76-1,.07-1.51.08-2.06.08-.21,0-.25-.04-.32-.28-.04-.18-.11-.92-.13-1.3.48.07.76.08,1.43.08.55,0,1.15-.01,1.78-.04.29-.8.39-1.3.41-1.96,1.25.21,1.82.42,1.82.66,0,.06-.01.08-.06.17-.1.18-.21.41-.39.84q-.03.06-.04.1c.8-.11,1.5-.25,1.99-.36.31-.08.38-.1.45-.1.11,0,.17.04.2.13.06.25.14.9.14,1.09,0,.15-.06.22-.24.27-.45.13-1.99.36-3.28.49-.42.77-.71,1.22-1.15,1.7.63-.29,1.11-.41,1.67-.41.63,0,1.05.36,1.33,1.15,1.39-.76,2.13-1.16,2.21-1.22.64-.38.91-.59,1.22-.94.57.59,1.19,1.47,1.19,1.71,0,.08-.06.14-.24.18-.69.18-1.96.73-4.09,1.76.01.25.04.9.04,1.34v.67c0,.17-.03.25-.1.29-.07.07-.45.11-.87.11-.48,0-.56-.04-.56-.27v-.06c.03-.41.04-.94.04-1.27v-.07Z"/>
        <path d="M202.88,178.11c-.56,0-.88.01-1.25.07v-1.47c.31.06.59.07,1.23.07h1.39v-3.11c0-.69-.03-1.06-.08-1.46h1.58c-.06.39-.07.74-.07,1.43v3.14h1.15c.7,0,1-.01,1.29-.07v1.46c-.32-.04-.63-.06-1.26-.06h-1.18v1.5h1.29c.73,0,1.08-.01,1.37-.06v1.46c-.38-.04-.66-.06-1.34-.06h-1.32v2c0,.6.03,1.12.08,1.67h-1.61c.07-.56.1-.97.1-1.67v-2h-1.71c-.64,0-.95.01-1.34.07v-1.48c.35.06.73.07,1.39.07h1.67v-1.5h-1.37ZM202.56,172.79c.62,1.12.91,1.82,1.29,2.97l-1.27.48c-.55-1.55-.74-2-1.3-2.91l1.29-.53ZM208.57,173.21c-.62,1.61-.87,2.21-1.36,3.14l-1.19-.53c.6-1.11.88-1.82,1.21-3.11l1.34.5ZM210.41,173.22c-.06.38-.07.7-.07,1.4v5.31c0,.69.01,1.15.06,1.43h-1.5c.03-.31.06-.83.06-1.43v-5.28c0-.71-.01-1.06-.06-1.43h1.51ZM213.22,172.32c-.06.38-.08.8-.08,1.62v8.91c0,.69-.15,1.05-.53,1.29-.29.18-.71.25-1.53.25-.35,0-.94-.01-1.41-.04-.1-.66-.17-.91-.38-1.4.94.11,1.18.13,1.57.13.78,0,.88-.04.88-.42v-8.67c0-.79-.03-1.26-.08-1.67h1.57Z"/>
        <path d="M224.85,177.47c-.03,1.42-.17,2.7-.38,3.8-.31,1.47-.64,2.28-1.49,3.45-.39-.57-.59-.81-1.05-1.21-.42-.03-.53-.03-1.01-.03h-2.91v.91h-1.47c.06-.46.08-.97.08-1.54v-8.68c0-.63-.01-1.02-.08-1.53h1.54c-.06.36-.07.66-.07,1.13v6.22c.78-.84,1.18-1.46,1.64-2.54h-.46c-.34,0-.67.03-.9.06v-1.39c.38.04.5.04.94.04h.84v-2.83c0-.55-.01-.77-.06-1.08h1.37c-.04.27-.06.53-.06,1.09v2.82h.81c.43,0,.67-.01.87-.04v1.4c-.29-.06-.55-.07-.98-.07h-.46c.55.94.9,1.39,1.62,2.04-.28.39-.46.74-.63,1.19-.71-.83-.95-1.18-1.29-1.86.03.29.06.73.06.94v1.19c0,.45.01.62.06.91h-1.37c.04-.31.07-.55.07-.94v-1.05c0-.2,0-.34.01-.57q.01-.25.03-.43c-.41,1.02-.69,1.49-1.43,2.35-.15-.27-.36-.53-.69-.88v1.83h2.93c.59,0,1.05-.01,1.4-.06v.81c.9-1.47,1.16-3.22,1.16-7.73,0-1.12-.01-1.43-.07-1.88.76-.03,1.91-.28,2.83-.62.59-.2.98-.39,1.29-.62l1.06,1.33q-.07.01-.31.1s-.1.03-.21.07c-1.08.42-2.06.69-3.24.87v1.62h2.7c.49,0,.84-.03,1.18-.08v1.53c-.34-.04-.56-.06-1.07-.06h-.14v5.59c0,.64.03,1.11.08,1.53h-1.58c.06-.41.08-.88.08-1.53v-5.59h-1.27ZM219.12,172.76c.49,1.39.57,1.64.8,2.65l-1.02.43c-.21-1.05-.41-1.68-.83-2.61l1.05-.48ZM223.19,173.22c-.39,1.47-.52,1.85-.87,2.61l-.9-.48c.35-.95.49-1.46.67-2.59l1.09.46Z"/>
      </g>
      <g>
        <path d="M13.13,52.95q0-1.42.01-2.03c-.65.71-1.09,1.29-1.31,1.69-.07.13-.16.21-.23.21-.13,0-.44-.27-.86-.74-.17-.21-.25-.33-.25-.38q0-.09.66-.74c.56-.56,1.31-1.44,2.01-2.38,0-.08,0-.38.01-.9-.64.12-1.46.34-1.68.46-.13.06-.16.08-.22.08-.22,0-.4-.51-.57-1.52.69-.01,1.55-.1,2.5-.26,0-.47.01-1.13.01-1.5,0-.39-.03-.7-.08-.96.82.05,1.22.1,1.59.2.19.05.27.13.27.27,0,.07-.03.13-.08.26-.13.26-.14.35-.25,1.38.31.19.61.52.61.69q0,.12-.4.61c-.04.05-.16.22-.35.47q-.01.42-.01.51c1.27-1.08,2.35-1.53,3.63-1.53,2.03,0,3.3,1.29,3.3,3.35,0,1.59-.73,2.77-2.22,3.58-.57.33-1.55.68-1.83.68-.08,0-.17-.03-.21-.08t-.2-.26c-.22-.31-.47-.56-.73-.74,2.59-.7,3.61-1.61,3.61-3.21,0-1.25-.74-2.05-1.91-2.05-.77,0-1.47.25-2.3.79q-.42.27-1.16.9.01.1.01.27c0,1.39,0,1.51.08,4.24.01.14.01.25.01.27,0,.25-.18.3-1.13.3-.34,0-.36-.04-.36-.4v-1.51Z"/>
        <path d="M11.88,61.83c-.1.03-.16.05-.23.09-.07.04-.1.05-.17.05-.27,0-.48-.51-.64-1.47.1.01.2.01.25.01.55,0,1.94-.17,2.77-.34.27-1.14.42-2,.42-2.63,0-.05,0-.12-.01-.22.56.06,1.09.18,1.46.32.21.08.31.2.31.33,0,.07-.01.1-.08.21q-.2.35-.6,1.78c.31-.04.66-.07.88-.07.53,0,.95.1,1.25.31.52.38.78,1.14.78,2.33,0,1.94-.35,3.59-.95,4.41-.42.57-.96.84-1.73.84-.47,0-.91-.06-1.04-.14q-.1-.07-.14-.55c-.04-.35-.12-.65-.27-1.01.68.22.85.26,1.26.26.62,0,.88-.3,1.17-1.34.19-.69.3-1.59.3-2.54,0-1.01-.25-1.38-.94-1.38-.23,0-.61.03-.91.08-.04.14-.05.16-.1.34-.36,1.33-1.03,3.08-1.69,4.49-.69,1.42-.86,1.7-1.03,1.7-.1,0-.46-.18-.83-.43-.3-.18-.38-.26-.38-.36q0-.07.53-.91c.72-1.11,1.65-3.28,1.98-4.55-.96.21-1.5.34-1.61.38ZM18.51,60.37c0-.09.12-.21.49-.51.26-.2.39-.27.48-.27.08,0,.14.04.31.21.77.74,1.48,1.73,1.9,2.59.13.29.21.47.21.55,0,.13-.04.17-.46.51-.26.21-.56.38-.66.38-.09,0-.13-.04-.22-.26-.26-.64-.51-1.13-.82-1.61-.34-.52-.4-.6-1.17-1.42-.05-.08-.07-.12-.07-.16Z"/>
        <path d="M17.52,74.89c1.83,0,3.13,1.25,3.13,3.02,0,1.21-.64,2.3-1.7,2.94-.74.44-1.65.66-2.68.66-1.65,0-2.61-.66-2.61-1.79,0-1.03.86-1.75,2.08-1.75,1.1,0,1.9.56,2.43,1.7.66-.48.94-.99.94-1.69,0-1.12-.79-1.85-2.04-1.85s-2.64.64-3.77,1.77c-.21.21-.4.43-.64.73-.09.13-.16.18-.23.18-.23,0-1.16-.91-1.16-1.14,0-.12.05-.18.34-.39.3-.23.73-.61,1.27-1.13,1.26-1.2,2.18-2.2,3.55-3.86-1.62.21-2.72.39-3.12.53-.07.01-.1.03-.14.03-.1,0-.17-.07-.25-.26-.16-.39-.23-.82-.27-1.39.35.05.6.07.88.07.62,0,1.68-.09,3.04-.25.48-.05.64-.09,1-.23.12-.05.18-.06.26-.06.18,0,.36.16.7.68.25.34.33.51.33.61,0,.17-.04.22-.33.4-.23.14-.38.26-.68.55-.65.62-.66.62-1.47,1.44-.57.58-.64.65-1.16,1.17.84-.47,1.51-.66,2.29-.66ZM16.27,79.39c-.2-.13-.42-.2-.66-.2-.4,0-.66.2-.66.51,0,.38.4.61,1.03.61.29,0,.53-.03.86-.12-.16-.43-.29-.62-.56-.81Z"/>
        <path d="M16.64,92.61c1.07,0,2.25-.16,3.42-.46.06-.03.1-.03.14-.03.08,0,.12.05.14.17.04.29.06.7.06,1.13,0,.26-.03.34-.14.39-.39.21-2.15.4-3.65.4-1.96,0-3.08-.33-3.98-1.17-.43-.4-.86-1.11-.86-1.39,0-.19.12-.27,1.18-.88.47,1.29,1.55,1.83,3.68,1.83ZM16.75,85.13c.75,0,1.2-.03,2.08-.16h.09c.1,0,.14.04.17.12.03.16.05.55.05,1.01,0,.3-.03.4-.1.46-.1.06-1.23.14-2.11.14-1.16,0-2.12-.09-3.2-.3-.74-.14-.78-.18-.78-.64,0-.3.03-.79.07-1.16,1.13.35,2.37.52,3.73.52Z"/>
        <path d="M14.39,101.32c-.17-.57-.22-.92-.38-2.52-.05-.62-.1-.94-.23-1.38.79.01,1.3.05,1.65.14.2.05.29.14.29.29,0,.05-.01.12-.04.22-.09.31-.13.55-.13.88,0,.64.13,1.68.27,2.13.08.25.16.34.3.34.31,0,1.46-.6,2.08-1.08.17-.13.2-.14.26-.14.12,0,.23.09.43.34.32.44.58.92.58,1.11,0,.14-.09.23-.31.3-.81.22-2.13.74-3.03,1.17-1.59.78-2.3,1.5-2.3,2.3s.66,1.12,2.34,1.12c.98,0,1.86-.09,3.06-.29.05-.01.14-.03.17-.03.1,0,.17.05.22.16.04.13.13.92.13,1.23,0,.18-.05.25-.22.3-.29.06-1.86.16-2.85.16-1.66,0-2.77-.22-3.46-.69-.58-.4-.9-1.04-.9-1.82,0-.6.17-1.13.52-1.65.46-.68.95-1.1,2.04-1.75-.27-.25-.38-.43-.49-.83Z"/>
      </g>
      <g>
        <path d="M19.24,153.91c.58,0,.96-.01,1.34-.07-.05.49-.06.86-.06,1.27v8.19c0,.64.01,1.08.08,1.52h-1.49v-.7h-5.85v.7h-1.5c.05-.42.08-.87.08-1.42v-8.24c0-.47-.03-.92-.07-1.33.4.05.81.07,1.39.07h6.08ZM19.09,156.84v-1.6h-5.85v1.6h5.85ZM13.24,159.75h5.85v-1.6h-5.85v1.6ZM13.24,162.81h5.85v-1.75h-5.85v1.75Z"/>
        <path d="M12.19,173.19c.25-.57.42-1.17.53-1.82l1.43.2c-.27.81-.34.97-.64,1.62h.69c.62-.01.99-.03,1.08-.04q-.01.1-.03.38s-.01.07-.01.7v1.04c.79-.92,1.64-2.73,1.82-3.94l1.43.25c-.06.17-.09.25-.17.48-.05.18-.26.81-.36,1.05h2.67c.51,0,.81-.01,1.07-.05-.04.25-.04.34-.05.53v.39q0,.06-.09,3.02c-.09,2.67-.25,4.06-.53,4.78-.3.72-.81.95-2.04.95-.3,0-.61-.01-1.25-.04-.05-.57-.14-.91-.35-1.43.82.13,1.21.17,1.6.17.53,0,.73-.1.84-.46.26-.78.43-3.17.46-6.57h-2.89c-.49.98-.87,1.51-1.61,2.35-.18-.26-.22-.31-.53-.62v4.8c0,.46.01.91.05,1.22h-1.34v-.74h-1.77v1.09h-1.37c.05-.38.06-.83.06-1.61v-6.49c0-.65-.01-.94-.05-1.26.21.03.48.04.66.04h.69ZM12.18,176.61h1.78v-2.21h-1.78v2.21ZM12.18,180.23h1.78v-2.41h-1.78v2.41ZM18.05,179.67c-.43-1.22-1.01-2.39-1.61-3.17l1.14-.61c.74,1.07,1.13,1.75,1.73,3.09l-1.26.69Z"/>
      </g>
    </g>
  </g>
</svg>