<?xml version="1.0" encoding="UTF-8"?>
<svg id="_レイヤー_2" data-name="レイヤー 2" xmlns="http://www.w3.org/2000/svg" width="339.66" height="263.72" viewBox="0 0 339.66 263.72">
  <defs>
    <style>
      .cls-1 {
        fill: #211815;
      }

      .cls-2 {
        fill: #f5f19b;
      }

      .cls-3 {
        fill: #ecbb6e;
      }

      .cls-4 {
        fill: #93c9ce;
      }

      .cls-5 {
        fill: #5c948d;
      }

      .cls-6 {
        fill: #fffba1;
      }

      .cls-7, .cls-8 {
        fill: #fff;
      }

      .cls-9 {
        fill: #d3f2c9;
      }

      .cls-10 {
        fill: #ceeaeb;
      }

      .cls-11 {
        fill: #f2ec67;
      }

      .cls-12 {
        fill: #f2d496;
      }

      .cls-8 {
        stroke: #ceeaeb;
        stroke-miterlimit: 10;
        stroke-width: 2.83px;
      }
    </style>
  </defs>
  <g id="_レイヤー_1-2" data-name="レイヤー 1">
    <g>
      <path class="cls-8" d="M9.89,129.86h239.38c4.68,0,8.47,3.79,8.47,8.47v92.05s9.69,9.69,9.69,9.69h-9.69s0,.5,0,.5c0,4.68-3.79,8.47-8.47,8.47H9.89c-4.68,0-8.47-3.79-8.47-8.47v-102.24c0-4.68,3.79-8.47,8.47-8.47Z"/>
      <path class="cls-8" d="M329.77,1.42H90.4c-4.68,0-8.47,3.79-8.47,8.47v66.5s-9.69,9.69-9.69,9.69h9.69s0,.5,0,.5c0,4.68,3.79,8.47,8.47,8.47h239.38c4.68,0,8.47-3.79,8.47-8.47V9.89c0-4.68-3.79-8.47-8.47-8.47Z"/>
      <circle class="cls-9" cx="308.24" cy="233.72" r="30"/>
      <g>
        <path d="M104.94,22.13c-.41-.04-.87-.06-1.41-.06h-3.87c-.55,0-.94.02-1.33.06v-1.17c-.9.58-1.59.98-2.73,1.48-.25-.63-.46-1-.84-1.45,1.51-.62,2.68-1.29,3.7-2.13,1.11-.91,1.82-1.68,2.19-2.38h1.79c.63.93,1.46,1.75,2.49,2.52,1.17.87,2.22,1.42,3.63,1.9-.42.56-.54.77-.85,1.59-1.14-.52-1.79-.87-2.76-1.51v1.15ZM107.17,24.41c-.13.15-.45.51-.63.74l-2.77,3.51c-.38.48-.62.82-.92,1.27l-1.65-.92c.38-.34.72-.72,1.09-1.19l2.37-2.91h-6.48c-.57,0-1.16.03-1.79.09v-1.63c.57.06,1.16.09,1.8.09h6.57c.83,0,1.2-.02,1.48-.07l.92,1.02ZM103.63,20.69c.36,0,.54,0,.84-.02-1.29-.93-1.98-1.57-2.9-2.76-.9,1.16-1.57,1.81-2.83,2.76.32.02.48.02.84.02h4.05Z"/>
        <path d="M120.61,29.77v-.78h-8.97v.78h-1.68c.06-.46.09-1.06.09-1.86v-9.1c0-.71-.03-1.16-.09-1.74.52.06.99.08,1.69.08h8.92c.71,0,1.17-.02,1.7-.08-.06.52-.08,1-.08,1.74v9.12c0,.78.03,1.48.08,1.84h-1.67ZM111.64,27.56h8.97v-8.98h-8.97v8.98ZM117.64,20.21c.63,0,1-.02,1.38-.04-.03.35-.04.69-.04,1.14v3.43c0,.48.01.78.04,1.14-.44-.03-.78-.04-1.38-.04h-3.08c-.72,0-.95.01-1.39.04.04-.39.06-.71.06-1.14v-3.43c0-.42-.01-.75-.06-1.14.38.03.76.04,1.39.04h3.08ZM114.75,24.49h2.71v-2.92h-2.71v2.92Z"/>
        <path d="M127.99,25.69c.04.06.06.1.06.16q0,.09-.25.78c-.32.92-.51,1.67-.57,2.25-.01.19-.08.27-.27.31-.21.06-.61.09-1,.09-.15,0-.22-.03-.27-.12-.13-.28-.38-1.32-.5-2.16-.1-.71-.15-1.44-.15-2.21,0-1.73.2-3.36.74-6.3.09-.48.12-.71.17-1.17.69.09,1.17.23,1.6.44.23.12.32.23.32.36,0,.09-.03.17-.11.29-.61,1.05-1.18,4.29-1.18,6.69,0,.36.01.93.06,1.65.36-.93.52-1.35.85-2.07.11.41.21.6.51,1.01ZM130.51,21.74c-.72,0-.87-.03-.92-.19-.04-.13-.09-.61-.09-.96,0-.12,0-.24.01-.51.41.03.64.04,1.14.04.81,0,1.32-.02,2.1-.08-.02-1.9-.03-2.15-.18-2.85.74.01,1.29.07,1.77.19.22.06.31.13.31.29,0,.06-.01.1-.06.22-.15.35-.23.93-.25,1.98.55-.07,1.03-.18,1.93-.39.08-.03.1-.03.15-.03.09,0,.13.04.17.15.03.14.07.71.07,1.02,0,.38-.01.44-.17.5-.24.12-.9.23-2.17.39,0,1.03.09,2.74.2,3.72.95.4,1.59.75,2.25,1.21.42.3.51.41.51.51,0,.16-.27.67-.58,1.11-.18.25-.27.33-.38.33s-.1,0-.45-.33c-.33-.33-.67-.58-1.33-1.02v.12c0,1.32-1.09,2.19-2.76,2.19s-2.8-.9-2.8-2.25,1.14-2.35,2.66-2.35c.55,0,.84.02,1.24.08q-.06-1.17-.1-3.18c-.65.04-1.67.09-2.26.09ZM131.74,26.15c-.75,0-1.25.34-1.25.87,0,.48.46.78,1.19.78.79,0,1.21-.36,1.21-1.05,0-.21-.02-.38-.02-.38-.39-.15-.73-.23-1.14-.23Z"/>
        <path d="M146.52,17.17c1.39,0,2.29.25,2.92.81.58.52.93,1.36.93,2.27,0,1.48-.73,2.46-2.17,2.88.76.33.96.63,1.72,2.64l1.17,3.09h-2.05l-.99-2.9c-.58-1.71-1.02-2.22-1.89-2.22h-1.9v5.11h-1.88v-11.68h4.14ZM145.98,22.16c1.71,0,2.49-.56,2.49-1.77,0-.51-.19-.96-.52-1.21-.34-.26-1.04-.41-1.98-.41h-1.71v3.39h1.72Z"/>
        <path d="M159.79,27.29c-.86,1.16-2.07,1.75-3.58,1.75-2.96,0-4.83-2.34-4.83-6.03,0-1.74.43-3.25,1.25-4.33.85-1.12,2.05-1.71,3.57-1.71s2.82.65,3.69,1.88c.72,1.03,1.14,2.53,1.14,4.15,0,1.71-.42,3.21-1.23,4.29ZM156.19,18.68c-.93,0-1.67.42-2.13,1.21-.45.75-.69,1.88-.69,3.15,0,1.17.24,2.23.67,3.01.45.83,1.21,1.28,2.14,1.28,1.79,0,2.83-1.6,2.83-4.32s-1.03-4.33-2.83-4.33Z"/>
        <path d="M169.44,17.17v1.59h-5.4v3.18h4.12v1.57h-4.12v3.72h5.66v1.62h-7.59v-11.68h7.33Z"/>
        <path d="M178.3,25.4c.04.07.06.13.06.21,0,.1-.02.12-.15.45-.3.69-.66,1.77-.84,2.58-.04.17-.09.25-.15.29-.08.03-.58.1-.75.1h-.06c-.08,0-.18-.02-.3-.02-.2,0-.24-.04-.3-.23-.29-.97-.51-2.98-.51-4.5,0-1.65.1-2.67.52-4.92.15-.81.22-1.26.29-1.75.63.12,1.17.27,1.62.48.25.1.33.18.33.33,0,.1-.02.15-.18.39-.5.79-1.05,3.98-1.05,6.12,0,.34.02.81.06,1.56.42-.94.57-1.23.92-1.96.13.31.22.46.49.87ZM181.56,26.47c.48.25,1.05.34,2.06.34s1.53-.07,2.46-.34c.09-.03.17-.04.21-.04.1,0,.18.06.19.21.08.51.13,1.11.13,1.41,0,.15-.04.2-.25.26-.81.21-1.63.31-2.64.31-1.38,0-2.23-.17-2.94-.58-.66-.41-1.35-1.23-1.35-1.64,0-.21.32-.49,1.12-.99.27.54.53.81,1,1.06ZM180.51,18.82c.33.08,1.29.14,2.03.14.99,0,1.98-.08,2.91-.24q.08-.01.14-.01c.1,0,.15.04.18.16.03.15.08.81.08,1.22,0,.22-.04.3-.21.33-.62.12-1.63.2-2.71.2-1.29,0-2.45-.08-2.59-.17-.08-.04-.11-.15-.11-.42,0-.41.04-1,.08-1.12.01-.06.06-.09.15-.09.02,0,.05,0,.08.01Z"/>
        <path d="M191.65,19.79c2.49-.71,3.78-.93,5.19-.93,1.51,0,2.7.41,3.5,1.19.66.68,1.02,1.6,1.02,2.7,0,1.92-1.03,3.54-2.83,4.47-.96.48-1.93.81-3.27,1.06-.58.12-.88.17-1.11.17-.18,0-.27-.06-.36-.23-.34-.69-.48-.9-.93-1.36,2.23-.27,3.45-.57,4.62-1.16,1.28-.63,1.98-1.67,1.98-2.92,0-1.41-.96-2.32-2.43-2.32-1.78,0-3.76.51-6.04,1.56-.41.18-.62.29-.77.38-.27.15-.34.18-.43.18-.29,0-.79-.92-1.14-2.07.69-.09,1.38-.25,3.01-.71Z"/>
        <path d="M204.1,19.67c0-.44-.02-1.02-.04-1.35.69.07,1.2.18,1.6.33.36.14.48.23.48.39q0,.09-.06.24c-.2.51-.25,1.08-.25,2.44,0,1.92.12,3.12.42,4.03.22.71.57,1.11.97,1.11.62,0,1.12-.72,1.68-2.38.28.77.39.99.81,1.53.08.1.12.21.12.31,0,.24-.22.75-.53,1.19-.58.85-1.33,1.32-2.13,1.32-1.15,0-2.02-.93-2.56-2.77-.34-1.2-.51-2.71-.51-4.81v-1.58ZM213.03,19.91c.09,0,.17.04.29.15.75.72,1.53,1.92,2.03,3.09.33.79.64,1.86.64,2.17,0,.15-.08.23-.39.39-.34.18-1.05.42-1.23.42-.13,0-.19-.08-.24-.34-.2-1.16-.46-2-.93-2.97-.42-.87-.45-.92-1.47-2.17.63-.46,1.12-.73,1.3-.73Z"/>
        <path d="M220.2,20.62c-.39.09-.53.13-1.07.33-.19.08-.3.1-.39.1-.33,0-.63-.61-.9-1.9.96-.04,1.31-.09,2.97-.34,1.8-.27,4.08-.62,5.28-.77,1.35-.18,2.43-.36,3-.48.1-.03.15-.03.22-.03.2,0,.27.09.41.47.12.31.21.76.21.98,0,.18-.06.24-.27.24-.32,0-.6.03-.89.08-2.53.42-4.56,2.64-4.56,4.98,0,1.75,1.38,2.91,3.72,3.12.21.01.29.09.29.27,0,.38-.15,1.09-.29,1.42-.08.17-.19.24-.39.24s-.65-.09-1.11-.22c-2.55-.75-3.88-2.37-3.88-4.67,0-1.25.41-2.4,1.19-3.39.42-.54.78-.84,1.63-1.43-1.96.33-4.04.72-5.17,1.01Z"/>
        <path d="M233.98,25.79c-.75,0-1.31.03-1.75.09v-1.59c.51.06,1.08.09,1.74.09h3.93v-.1c0-.29-.01-.52-.04-.78h.63c.62-.32,1.08-.65,1.7-1.17h-3.96c-.6,0-1.04.02-1.46.06v-1.42c.42.04.86.06,1.47.06h4.75c.56,0,.86-.02,1.1-.06l.79.87q-.21.18-.53.44c-1.02.87-1.75,1.42-2.86,2.1v.02h3.73c.69,0,1.35-.03,1.77-.09v1.59c-.4-.06-1.02-.09-1.78-.09h-3.72v2.52c0,.73-.15,1.05-.56,1.2-.36.13-.81.18-1.67.18-.18,0-.64-.01-1.42-.04-.15-.78-.22-1.02-.48-1.53.71.09,1.35.13,1.78.13.65,0,.75-.04.75-.33v-2.13h-3.91ZM234.73,18.68c-.35-.65-.53-.93-1.08-1.62l1.44-.44c.53.63.81,1.08,1.32,2.06h1.51c-.25-.73-.46-1.17-.87-1.81l1.5-.42c.58,1.09.67,1.3.99,2.23h1.21c.43-.56.93-1.48,1.18-2.16l1.56.44c-.33.6-.76,1.29-1.09,1.73h.66c.99,0,1.25-.02,1.77-.06-.04.38-.06.66-.06,1.2v1.33c0,.39.03.75.08,1.1h-1.58v-2.23h-9.37v2.23h-1.58c.06-.33.08-.66.08-1.11v-1.32c0-.51-.01-.85-.06-1.2.66.06.74.06,1.71.06h.68Z"/>
        <path d="M250.51,26.45c.11.17.13.27.13.36,0,.17-.21.47-.55.75-.48.44-.97.65-1.47.65-.69,0-1.29-.44-1.8-1.32-.2-.33-.34-.71-.34-.85,0-.12.06-.23.24-.39.29-.28.75-.6.89-.6q.12,0,.25.33c.24.57.6.98.88.98.36,0,.9-.42,1.38-1.09.06.44.2.87.39,1.2ZM252.75,27.29c.71,0,1.06-.21,1.06-.63,0-.36-.19-.66-.84-1.27-1.18-1.17-1.58-1.86-1.58-2.82,0-.56.2-1.04.62-1.57.23-.26.33-.33.46-.33.15.01.58.23.93.45.21.15.25.21.25.31s-.03.15-.15.29c-.25.27-.39.57-.39.88,0,.41.22.77.79,1.31,1.08,1.04,1.3,1.3,1.56,1.88.13.3.21.69.21,1.06,0,.75-.34,1.4-.94,1.74-.39.24-1.04.36-1.86.36-.62,0-1.17-.06-1.37-.15-.13-.04-.18-.15-.19-.39-.06-.51-.2-1.02-.44-1.5.79.3,1.25.39,1.86.39ZM255.36,20.14c-.15.25-.24.34-.34.34-.06,0-.12-.03-.21-.09-.99-.68-2.43-1.25-3.57-1.42-.25-.03-.33-.08-.33-.18,0-.15.15-.51.39-.94.21-.38.31-.48.46-.48.63,0,2.12.45,3.21.96.66.31.84.45.84.61,0,.23-.21.81-.45,1.2ZM258.19,27.23c-.34-.77-.42-.9-.76-1.38-.38-.49-.69-.84-1.17-1.23-.09-.09-.13-.15-.13-.21,0-.21.85-.96,1.11-.96.6,0,2.55,2.33,2.55,3.02,0,.15-.1.27-.39.51-.39.3-.76.51-.93.51-.12,0-.18-.06-.27-.25ZM257.22,21.55c-.29-.45-.72-.98-1-1.23-.04-.04-.06-.07-.06-.1,0-.13.62-.6.79-.6.24,0,1.5,1.4,1.5,1.67,0,.04-.04.12-.1.18-.24.24-.65.52-.75.52q-.09,0-.38-.44ZM259.93,20.23c0,.1-.06.18-.36.4-.22.17-.38.26-.45.26-.09,0-.12-.02-.2-.15-.23-.39-.78-1.05-1.14-1.41-.05-.04-.08-.08-.08-.1,0-.15.58-.57.78-.57.24,0,1.44,1.31,1.44,1.58Z"/>
        <path d="M268.02,17.48c.18.12.25.21.25.31s-.01.12-.24.38c-.08.09-.3.42-.54.83q-.75,1.25-1.16,1.96c-.42.71-.69,1.19-.84,1.41q-.04.07-.25.45c-.2.35-.32.52-.53.81.97-.85,1.5-1.08,2.49-1.08.66,0,1.25.29,1.62.78.31.42.4.81.54,2.28.07.88.15,1.27.25,1.5.1.21.31.33.58.33,1.03,0,2.26-1.25,2.86-2.88.15.63.27.93.58,1.48.11.18.14.3.14.45,0,.17-.08.38-.26.66-.78,1.26-2.05,2.01-3.42,2.01-.85,0-1.57-.3-1.95-.79-.3-.42-.44-.98-.56-2.44-.07-.96-.15-1.29-.36-1.53-.17-.18-.41-.27-.74-.27-.99,0-2.29,1.33-3.06,3.1-.22.51-.38.97-.54,1.54-.06.22-.13.31-.24.31-.31,0-1.04-.3-1.42-.58-.1-.09-.15-.15-.15-.24,0-.07.03-.15.22-.57.12-.27.17-.35.27-.62q1.11-2.59,4.19-8.82c.34-.69.51-1.12.61-1.58.78.29,1.14.47,1.62.79Z"/>
        <path d="M276.43,21.5h-.09c-.08.02-.13.02-.17.02-.13,0-.21-.06-.25-.26-.09-.37-.15-.82-.18-1.41.21.02.38.02.48.02.81,0,1.75-.06,2.55-.17.15-.99.23-1.74.23-2.37v-.34c1.74.24,2.07.33,2.05.6,0,.08-.03.12-.09.26-.18.34-.2.39-.44,1.57.58-.1,1.33-.3,1.64-.4.06-.03.07-.03.12-.03.13,0,.16.06.28.58.06.3.12.72.12.84,0,.11-.04.17-.18.2q-.27.09-2.33.45c-.69,3.06-1.41,5.29-2.56,7.99-.08.2-.15.27-.24.27-.2,0-.72-.21-1.23-.49-.26-.14-.33-.2-.33-.29,0-.06.04-.17.12-.31,1.14-2.16,1.96-4.45,2.53-6.91-.66.07-1.12.12-2.04.19ZM282.84,27.2c.43.29,1.06.42,1.95.42.97,0,1.81-.09,2.29-.24.12-.03.15-.04.21-.04.13,0,.19.04.24.18.11.31.18.93.18,1.4,0,.19-.06.27-.25.31-.5.1-1.33.17-2.22.17-1.88,0-2.92-.3-3.61-1.02-.25-.27-.46-.6-.58-.98-.09-.22-.15-.48-.15-.57,0-.25.45-.52,1.23-.78.17.63.34.92.72,1.15ZM287.05,22.84c-.3-.04-.93-.08-1.46-.08-1.11,0-1.58.05-2.89.27-.03.02-.08.02-.11.02-.09,0-.13-.03-.17-.12-.04-.1-.1-.84-.1-1.15,0-.19.03-.29.15-.33.06-.03.15-.04.46-.1,1.02-.18,1.88-.25,2.92-.25.87,0,1.32.03,1.43.1.07.06.09.18.09.67,0,.44-.03.83-.06.92-.01.04-.08.08-.15.08-.03,0-.08,0-.12-.02ZM285.4,17.56c.2,0,1.47,1.42,1.47,1.65,0,.06-.1.19-.22.29-.06.04-.15.12-.25.21-.13.12-.18.15-.33.21t-.08.03c-.06,0-.06-.01-.34-.45-.25-.39-.74-.99-.99-1.22-.03-.03-.08-.09-.08-.1.03-.06.05-.09.05-.09.07-.09.33-.3.39-.34.15-.08.24-.14.25-.15.01-.03.03-.03.04-.03h.09ZM287.94,18.61c-.21.15-.36.24-.43.24-.06,0-.09-.03-.17-.15-.33-.54-.65-.93-1.14-1.43-.04-.04-.06-.07-.06-.12,0-.14.57-.56.76-.56.11,0,.29.15.62.5.48.49.83.94.83,1.09,0,.09-.11.19-.41.42Z"/>
        <path d="M296.98,21.79c.03,1.12.06,1.71.21,3.21,1.26.41,1.86.66,2.75,1.14,1.18.67,1.79,1.12,1.79,1.33,0,.18-.2.52-.54,1.02-.22.33-.39.48-.51.48-.08,0-.14-.03-.24-.14-1.07-1.02-1.92-1.57-3.18-2.08-.03.91-.2,1.39-.63,1.84-.53.52-1.44.81-2.62.81-1.96,0-3.17-.87-3.17-2.29,0-1.52,1.32-2.48,3.38-2.48.5,0,.93.03,1.3.08-.15-2.46-.2-3.65-.21-5.85-.01-.87-.04-1.39-.13-2.1.69.02,1.38.09,1.79.19.24.08.33.15.33.31,0,.08-.01.12-.06.24-.17.39-.22.96-.25,2.62q.12,0,.58-.03c.72-.04,1.74-.23,2.88-.54.04-.01.08-.01.12-.01.09,0,.12.03.18.18.15.36.32,1.1.32,1.35,0,.12-.06.17-.2.21-1.16.27-2.78.5-3.66.5h-.21ZM294.04,26.11c-1.02,0-1.63.34-1.63.91,0,.53.51.8,1.46.8,1.15,0,1.66-.41,1.66-1.35v-.12c-.49-.18-.92-.24-1.48-.24Z"/>
        <path d="M307.11,21.1c-1.06.18-1.3.22-1.56.3-.15.04-.27.06-.36.06-.27,0-.4-.48-.46-1.65.87,0,1.35-.04,2.42-.24,0-.48.01-1.03.01-1.23,0-.58-.03-1.09-.09-1.47,1.58.07,2.04.18,2.04.46q0,.08-.13.39t-.2,1.62c.48.38.74.68.72.87,0,.04-.03.08-.09.14-.22.19-.25.22-.52.61q-.06.08-.15.19l-.06.09c0,.23,0,.25-.02.54.45-.51.87-.93,1.28-1.26,1.32-1.08,2.31-1.53,3.39-1.53s1.77.44,2.29,1.33c.45.78.69,1.88.69,3.17,0,.78-.06,1.38-.23,2.5.72.51,1.5,1.3,1.5,1.51,0,.24-.84,1.08-1.09,1.08-.1,0-.12-.02-.32-.31-.12-.17-.28-.36-.61-.72-.21.39-.33.56-.54.75-.55.51-1.3.78-2.19.78-1.56,0-2.56-.79-2.56-2,0-1.27,1.04-2.23,2.4-2.23.78,0,1.35.1,1.86.33.06-.56.08-.83.08-1.31,0-2.37-.45-3.3-1.59-3.3-.81,0-1.89.57-3.03,1.59-.41.38-.72.69-1.37,1.4v.87c0,1.99.04,4,.11,4.53v.06c0,.27-.21.34-.93.34-.66,0-.79-.06-.79-.34v-.12c.03-.44.04-.96.04-1.62q0-.99.01-2.17s-.03.04-.06.08c-.33.4-.87,1.14-1.22,1.63-.17.24-.25.31-.36.31-.15,0-.42-.27-.88-.87-.18-.23-.29-.42-.29-.5s.08-.17.45-.5c.27-.25,1.29-1.5,1.81-2.19.27-.38.46-.65.58-.84v-1.15ZM312.85,26.24c-.69,0-1.11.29-1.11.75s.32.69.89.69c.5,0,.9-.15,1.17-.45.13-.14.34-.51.34-.57h0c-.51-.33-.81-.42-1.29-.42Z"/>
        <path d="M323.56,27.44c0,1.41-1.14,2.55-2.54,2.55s-2.53-1.14-2.53-2.55,1.14-2.54,2.53-2.54,2.54,1.14,2.54,2.54ZM319.66,27.44c0,.76.62,1.38,1.36,1.38s1.37-.62,1.37-1.38-.62-1.37-1.37-1.37-1.36.62-1.36,1.37Z"/>
        <path d="M99.34,43.42c2.67,0,3.94,1.08,3.94,3.38,0,1-.39,1.94-1.05,2.52-.69.61-1.65.92-2.89.92h-2.16v4.87h-1.93v-11.68h4.09ZM98.88,48.64c1.69,0,2.46-.57,2.46-1.84s-.72-1.77-2.46-1.77h-1.7v3.61h1.7Z"/>
        <path d="M111.64,43.42v1.59h-5.4v3.18h4.12v1.57h-4.12v3.72h5.66v1.62h-7.59v-11.68h7.33Z"/>
        <path d="M116.98,43.42c1.39,0,2.29.25,2.92.81.58.52.93,1.36.93,2.27,0,1.48-.73,2.46-2.17,2.88.76.33.96.63,1.72,2.64l1.17,3.09h-2.05l-.99-2.9c-.58-1.71-1.02-2.22-1.89-2.22h-1.9v5.11h-1.88v-11.68h4.14ZM116.44,48.41c1.71,0,2.49-.56,2.49-1.77,0-.51-.19-.96-.52-1.21-.34-.26-1.04-.41-1.98-.41h-1.71v3.39h1.72Z"/>
        <path d="M130.45,47.77c-.19-.66-.25-1.06-.43-2.91-.06-.72-.12-1.08-.27-1.59.91.02,1.5.06,1.9.17.23.06.33.17.33.33,0,.06-.01.13-.04.25-.1.36-.15.63-.15,1.02,0,.73.15,1.94.32,2.46.09.28.18.39.34.39.36,0,1.68-.69,2.4-1.24.19-.15.22-.17.3-.17.13,0,.27.1.5.39.38.51.67,1.06.67,1.27,0,.17-.11.27-.36.34-.93.25-2.46.85-3.49,1.35-1.83.9-2.66,1.73-2.66,2.65s.76,1.29,2.7,1.29c1.12,0,2.14-.1,3.52-.33.06-.02.17-.03.2-.03.12,0,.19.06.25.18.04.15.15,1.06.15,1.43,0,.21-.06.28-.26.34-.33.08-2.14.18-3.28.18-1.92,0-3.2-.26-3.99-.79-.67-.47-1.04-1.2-1.04-2.1,0-.69.2-1.31.6-1.9.52-.78,1.09-1.27,2.35-2.02-.31-.29-.43-.5-.57-.96Z"/>
        <path d="M144.91,46.39c.93.66.95.66,1.79,1.44,1.04-.84,1.53-1.35,2.48-2.49h-3.78c-1.12,1.2-2.31,2.1-3.9,2.98-.24-.48-.48-.78-.98-1.2,2.38-1.16,4.26-2.88,5.12-4.65l1.69.42c-.36.52-.48.69-.75,1.05h2.96c.57,0,.88-.01,1.28-.07l.85.92c-.18.21-.19.22-.54.66-1.26,1.65-2.61,2.94-4.32,4.15h4.67c.58,0,.84-.01,1.21-.04-.06.38-.08.77-.08,1.31v3.72c0,.56.03,1.04.09,1.42h-1.65v-.78h-5.5v.78h-1.67c.06-.42.09-.92.09-1.42v-3.13c-.92.51-1.47.76-2.73,1.3-.27-.63-.45-.93-.93-1.44,1.23-.4,2.43-.92,3.46-1.48.44-.24.99-.58,1.7-1.08-.65-.67-.99-.97-1.75-1.5l1.2-.85ZM145.53,53.86h5.54v-2.85h-5.54v2.85Z"/>
        <path d="M158.68,44.57c-.34-.6-.57-.9-1.16-1.58l1.56-.45c.72.94.93,1.26,1.33,2.02h1.95c.54-.65.9-1.22,1.26-2.01l1.63.44c-.39.62-.79,1.15-1.16,1.58h2.22c.69,0,1.12-.03,1.53-.09v1.54c-.45-.06-.79-.07-1.53-.07h-9.78c-.72,0-1.08.01-1.54.07v-1.54c.55.08.81.09,1.54.09h2.13ZM157.3,54.4c0,.74.01,1.12.08,1.54h-1.65c.06-.48.08-.91.08-1.65v-6.19c0-.71-.01-.92-.04-1.29.41.03.76.04,1.35.04h2.79c.75,0,.99-.02,1.29-.04-.03.33-.04.67-.04,1.44v6.18c0,1.12-.33,1.4-1.65,1.4-.21,0-.38,0-.9-.03-.11-.65-.15-.84-.36-1.41.46.07.75.1,1.02.1.33,0,.4-.06.4-.33v-1.23h-2.35v1.47ZM159.66,49.21v-.99h-2.35v.99h2.35ZM159.66,51.58v-1.02h-2.35v1.02h2.35ZM164.08,47.05c-.04.42-.06.65-.06,1.38v3.08c0,.9.01,1.14.06,1.54h-1.63c.04-.42.06-.68.06-1.54v-3.09c0-.68-.02-.93-.06-1.37h1.63ZM167.16,46.66c-.06.41-.08.83-.08,1.53v6.06c0,1.31-.39,1.64-1.95,1.64-.34,0-.64-.02-1.54-.06-.1-.6-.19-.93-.45-1.53.78.1,1.32.15,1.75.15.58,0,.66-.06.66-.45v-5.85c0-.81-.02-1.06-.08-1.49h1.68Z"/>
        <path d="M170.73,48.65c-.12.03-.18.06-.27.1-.08.04-.12.06-.18.06-.33,0-.57-.57-.75-1.68h.29c.63,0,2.24-.2,3.2-.39.31-1.31.48-2.31.48-3.02,0-.06,0-.15-.01-.25.64.06,1.26.19,1.68.38.24.09.36.21.36.36,0,.08-.02.14-.09.26q-.23.39-.69,2.04c.36-.04.76-.07,1.02-.07.62,0,1.1.12,1.44.36.6.44.9,1.32.9,2.69,0,2.23-.41,4.15-1.1,5.1-.48.66-1.11.98-2,.98-.54,0-1.05-.08-1.2-.17q-.12-.08-.17-.63c-.04-.41-.13-.77-.32-1.19.78.27.98.31,1.46.31.72,0,1.02-.35,1.35-1.56.23-.79.35-1.81.35-2.92,0-1.17-.29-1.59-1.08-1.59-.27,0-.71.04-1.05.09-.04.18-.06.2-.12.39-.42,1.54-1.19,3.55-1.95,5.17-.79,1.63-.99,1.96-1.18,1.96-.12,0-.53-.21-.96-.5-.35-.21-.44-.3-.44-.42q0-.07.62-1.05c.83-1.27,1.91-3.77,2.28-5.25-1.11.25-1.73.39-1.86.44ZM180.15,45.58c-.24.18-.41.25-.48.25-.04,0-.09-.03-.13-.1-.32-.51-.84-1.1-1.28-1.47-.03-.03-.04-.06-.04-.09,0-.06.11-.17.36-.36.25-.18.33-.23.43-.23.24,0,1.56,1.33,1.56,1.58,0,.09-.12.19-.42.42ZM178.56,47.17c0-.1.13-.24.57-.58.3-.23.45-.31.57-.31.2,0,.87.72,1.5,1.6.52.75,1.09,1.81,1.09,2.07,0,.15-.04.19-.52.58-.3.24-.65.44-.77.44-.1,0-.15-.04-.25-.3-.29-.72-.54-1.21-.95-1.86-.4-.65-.43-.67-1.15-1.45-.06-.08-.09-.12-.09-.18ZM180.52,42.56c.25,0,1.53,1.27,1.53,1.53,0,.07-.09.17-.39.38-.27.21-.41.28-.46.28q-.08,0-.38-.42c-.25-.34-.74-.85-1-1.08-.04-.04-.08-.07-.08-.12,0-.12.62-.57.78-.57Z"/>
        <path d="M187.87,51.65c.04.07.06.13.06.21,0,.1-.02.12-.15.45-.3.69-.66,1.77-.84,2.58-.04.17-.09.25-.15.29-.08.03-.58.1-.75.1h-.06c-.08,0-.18-.02-.3-.02-.2,0-.24-.04-.3-.23-.29-.97-.51-2.98-.51-4.5,0-1.65.1-2.67.52-4.92.15-.81.22-1.26.29-1.75.63.12,1.17.27,1.62.48.25.1.33.18.33.33,0,.1-.02.15-.18.39-.5.79-1.05,3.98-1.05,6.12,0,.34.02.81.06,1.56.42-.94.57-1.23.92-1.96.13.31.22.46.49.87ZM191.13,52.72c.48.25,1.05.34,2.06.34s1.53-.07,2.46-.34c.09-.03.17-.04.21-.04.1,0,.18.06.19.21.08.51.13,1.11.13,1.41,0,.15-.04.2-.25.26-.81.21-1.63.31-2.64.31-1.38,0-2.23-.17-2.94-.58-.66-.41-1.35-1.23-1.35-1.64,0-.21.32-.49,1.12-.99.27.54.53.81,1,1.06ZM190.08,45.07c.33.08,1.29.14,2.03.14.99,0,1.98-.08,2.91-.24q.08-.01.14-.01c.1,0,.15.04.18.16.03.15.08.81.08,1.22,0,.22-.04.3-.21.33-.62.12-1.63.2-2.71.2-1.29,0-2.45-.08-2.59-.17-.08-.04-.11-.15-.11-.42,0-.41.04-1,.08-1.12.01-.06.06-.09.15-.09.02,0,.05,0,.08.01Z"/>
        <path d="M200.85,46.87c-.39.09-.53.13-1.07.33-.19.08-.3.1-.39.1-.33,0-.63-.61-.9-1.9.96-.04,1.31-.09,2.97-.34,1.8-.27,4.08-.62,5.28-.77,1.35-.18,2.43-.36,3-.48.1-.03.15-.03.22-.03.2,0,.27.09.41.47.12.31.21.76.21.98,0,.18-.06.24-.27.24-.32,0-.6.03-.89.08-2.53.42-4.56,2.64-4.56,4.98,0,1.75,1.38,2.91,3.72,3.12.21.01.29.09.29.27,0,.38-.15,1.09-.29,1.42-.08.17-.19.24-.39.24s-.65-.09-1.11-.22c-2.55-.75-3.88-2.37-3.88-4.67,0-1.25.41-2.4,1.19-3.39.42-.54.78-.84,1.63-1.43-1.96.33-4.04.72-5.17,1.01Z"/>
        <path d="M220.83,48.02c2.12,0,3.62,1.44,3.62,3.48,0,1.4-.74,2.65-1.96,3.39-.86.51-1.91.77-3.09.77-1.91,0-3.02-.77-3.02-2.07,0-1.19.99-2.02,2.4-2.02,1.27,0,2.19.64,2.8,1.96.76-.56,1.08-1.14,1.08-1.95,0-1.29-.92-2.13-2.36-2.13s-3.04.73-4.35,2.04c-.24.24-.46.5-.73.84-.11.15-.18.21-.27.21-.27,0-1.33-1.05-1.33-1.32,0-.13.06-.21.39-.45.34-.27.84-.7,1.47-1.3,1.46-1.38,2.52-2.54,4.09-4.46-1.88.24-3.13.45-3.6.62-.08.02-.12.03-.17.03-.12,0-.2-.07-.29-.3-.18-.45-.27-.94-.32-1.6.41.06.69.08,1.02.08.72,0,1.93-.1,3.51-.29.55-.06.73-.1,1.16-.27.13-.06.21-.08.3-.08.21,0,.42.18.81.78.29.39.38.58.38.71,0,.19-.04.25-.38.46-.27.17-.43.3-.78.63-.75.72-.76.72-1.69,1.67-.66.67-.74.75-1.33,1.35.97-.54,1.74-.77,2.64-.77ZM219.39,53.21c-.23-.15-.48-.23-.77-.23-.46,0-.76.23-.76.58,0,.44.46.71,1.18.71.33,0,.62-.03.99-.14-.18-.5-.33-.72-.64-.93Z"/>
        <path d="M229.05,43.7v-.21c.94.17,1.42.3,1.81.5.11.04.13.1.13.21,0,.06-.03.13-.09.24-.13.24-.18.42-.41,1.41-.28,1.29-.43,2.73-.43,4.3,0,.84.03,1.3.12,2.1l.79-1.6c.09.31.21.57.39.78.12.15.13.19.13.31s0,.12-.28.75c-.32.67-.5,1.26-.66,2.02-.04.24-.09.31-.17.35-.12.06-.63.13-.93.13-.21,0-.29-.04-.33-.18-.36-1.02-.66-3.12-.66-4.62,0-1.29.17-3.07.43-4.95.09-.62.14-1.06.14-1.38v-.17ZM234.16,47.95c-.84,0-1.08-.03-1.16-.13-.1-.14-.19-.75-.19-1.31v-.22c.6.06,1.08.09,1.84.09.58,0,.92-.02,1.51-.06-.04-1.56-.13-2.49-.31-2.97h.4c.53,0,1.17.04,1.5.12.15.03.23.12.23.24,0,.06-.02.12-.04.23-.08.21-.12.54-.12.93,0,.23.01.93.01,1.11v.15c.75-.12,1.11-.2,1.74-.41.06-.02.12-.03.18-.03.09,0,.13.04.17.13.06.17.12.75.12,1.08,0,.24-.04.35-.17.39-.2.07-1.11.25-2,.38.02.42.02.65.02.88,0,2.21-.27,3.78-.87,4.96-.54,1.06-1.71,2.31-2.19,2.31-.13,0-.19-.03-.36-.18-.5-.44-.58-.51-1.17-.78,1.05-.58,1.72-1.22,2.19-2.07.5-.91.76-2.17.76-3.55,0-.1,0-.36-.01-.72-.01-.15-.01-.38-.03-.68-.54.04-1.75.1-2.05.1Z"/>
        <path d="M246.13,47.77c-.19-.66-.25-1.06-.43-2.91-.06-.72-.12-1.08-.27-1.59.91.02,1.5.06,1.9.17.23.06.33.17.33.33,0,.06-.01.13-.04.25-.1.36-.15.63-.15,1.02,0,.73.15,1.94.32,2.46.09.28.18.39.34.39.36,0,1.68-.69,2.4-1.24.19-.15.22-.17.3-.17.13,0,.27.1.5.39.38.51.67,1.06.67,1.27,0,.17-.11.27-.36.34-.93.25-2.46.85-3.49,1.35-1.83.9-2.66,1.73-2.66,2.65s.76,1.29,2.7,1.29c1.12,0,2.14-.1,3.52-.33.06-.02.17-.03.2-.03.12,0,.19.06.25.18.04.15.15,1.06.15,1.43,0,.21-.06.28-.26.34-.33.08-2.14.18-3.28.18-1.92,0-3.2-.26-3.99-.79-.67-.47-1.04-1.2-1.04-2.1,0-.69.2-1.31.6-1.9.52-.78,1.09-1.27,2.35-2.02-.31-.29-.43-.5-.57-.96ZM251.58,44.41c.12-.09.2-.12.29-.12.21,0,1.51,1.38,1.51,1.6,0,.09-.12.23-.41.46-.3.25-.33.27-.4.27-.09,0-.11,0-.39-.42-.3-.42-.72-.9-1.04-1.17-.04-.04-.07-.09-.07-.14,0-.07.13-.21.51-.49ZM254.83,44.81c0,.09-.04.15-.23.3-.21.18-.49.38-.55.38-.09,0-.12-.04-.3-.28-.34-.5-.55-.73-1.09-1.23-.06-.06-.08-.09-.08-.14,0-.13.57-.57.75-.57.25,0,1.5,1.27,1.5,1.54Z"/>
        <path d="M256.44,52.19c.27-.24.34-.3.45-.3.19,0,1.09.66,1.75,1.29.75.69,1.59,1.69,1.59,1.9,0,.14-.03.17-.46.56-.57.52-.69.61-.79.61-.09,0-.18-.06-.25-.21-.53-.93-1.73-2.16-2.79-2.85-.12-.09-.18-.15-.18-.24,0-.1.03-.15.69-.76Z"/>
        <path d="M275.05,47.77c-.19-.66-.25-1.06-.43-2.91-.06-.72-.12-1.08-.27-1.59.91.02,1.5.06,1.9.17.23.06.33.17.33.33,0,.06-.01.13-.04.25-.1.36-.15.63-.15,1.02,0,.73.15,1.94.32,2.46.09.28.18.39.34.39.36,0,1.68-.69,2.4-1.24.19-.15.22-.17.3-.17.13,0,.27.1.5.39.38.51.67,1.06.67,1.27,0,.17-.11.27-.36.34-.93.25-2.46.85-3.49,1.35-1.83.9-2.66,1.73-2.66,2.65s.76,1.29,2.7,1.29c1.12,0,2.14-.1,3.52-.33.06-.02.17-.03.2-.03.12,0,.19.06.25.18.04.15.15,1.06.15,1.43,0,.21-.06.28-.26.34-.33.08-2.14.18-3.28.18-1.92,0-3.2-.26-3.99-.79-.67-.47-1.04-1.2-1.04-2.1,0-.69.2-1.31.6-1.9.52-.78,1.09-1.27,2.35-2.02-.31-.29-.43-.5-.57-.96ZM280.5,44.41c.12-.09.2-.12.29-.12.21,0,1.51,1.38,1.51,1.6,0,.09-.12.23-.41.46-.3.25-.33.27-.4.27-.09,0-.11,0-.39-.42-.3-.42-.72-.9-1.04-1.17-.04-.04-.07-.09-.07-.14,0-.07.13-.21.51-.49ZM283.75,44.81c0,.09-.04.15-.22.3-.21.18-.5.38-.56.38-.09,0-.12-.04-.3-.28-.34-.5-.55-.73-1.09-1.23-.06-.06-.08-.09-.08-.14,0-.13.57-.57.75-.57.25,0,1.5,1.27,1.5,1.54Z"/>
        <path d="M289.74,46.85c.97-.25,1.62-.35,2.33-.35,2.13,0,3.36,1.26,3.36,3.42,0,1.88-.81,3.39-2.45,4.59-.87.65-2.19,1.29-2.62,1.29-.2,0-.24-.04-.56-.5-.22-.34-.45-.55-.82-.82,1.72-.58,2.44-.96,3.22-1.64.9-.79,1.35-1.75,1.35-2.89,0-1.22-.57-1.91-1.58-1.91-.81,0-1.86.31-3.22.98-.2.09-.3.17-.55.35-.06.03-.12.06-.18.06-.29,0-.77-.84-1.1-1.96.56-.04.84-.12,2.82-.61ZM290.74,43.19c.54.17,1.35.32,2.08.41.3.03.41.04,1.17.07.22,0,.29.06.29.23,0,.5-.11,1.31-.2,1.46-.03.09-.1.12-.21.12-.34,0-1.56-.17-2.26-.31-1.19-.24-2.22-.54-2.43-.71-.05-.04-.08-.1-.08-.17,0-.12.31-.93.46-1.21.08-.12.12-.15.21-.15q.08,0,.96.27Z"/>
        <path d="M300.43,45.92c0-.44-.02-1.02-.04-1.35.69.07,1.2.18,1.6.33.36.14.48.23.48.39q0,.09-.06.24c-.2.51-.25,1.08-.25,2.44,0,1.92.12,3.12.42,4.03.22.71.57,1.11.97,1.11.62,0,1.12-.72,1.68-2.38.28.77.39.99.81,1.53.08.1.12.21.12.31,0,.24-.22.75-.53,1.19-.58.85-1.33,1.32-2.13,1.32-1.15,0-2.02-.93-2.56-2.77-.34-1.2-.51-2.71-.51-4.81v-1.58ZM309.36,46.16c.09,0,.17.04.29.15.75.72,1.53,1.92,2.03,3.09.33.79.64,1.86.64,2.17,0,.15-.08.23-.39.39-.34.18-1.05.42-1.23.42-.13,0-.19-.08-.24-.34-.2-1.16-.46-2-.93-2.97-.42-.87-.45-.92-1.47-2.17.63-.46,1.12-.73,1.3-.73Z"/>
        <path d="M318.66,46.85c.97-.25,1.62-.35,2.33-.35,2.13,0,3.36,1.26,3.36,3.42,0,1.88-.81,3.39-2.45,4.59-.87.65-2.19,1.29-2.62,1.29-.2,0-.24-.04-.56-.5-.22-.34-.45-.55-.82-.82,1.72-.58,2.44-.96,3.22-1.64.9-.79,1.35-1.75,1.35-2.89,0-1.22-.57-1.91-1.58-1.91-.81,0-1.86.31-3.22.98-.2.09-.3.17-.55.35-.06.03-.12.06-.18.06-.29,0-.77-.84-1.1-1.96.56-.04.84-.12,2.82-.61ZM319.66,43.19c.54.17,1.35.32,2.08.41.3.03.41.04,1.17.07.22,0,.29.06.29.23,0,.5-.11,1.31-.2,1.46-.03.09-.1.12-.21.12-.34,0-1.56-.17-2.26-.31-1.19-.24-2.22-.54-2.43-.71-.05-.04-.08-.1-.08-.17,0-.12.31-.93.46-1.21.08-.12.12-.15.21-.15q.08,0,.96.27Z"/>
        <path d="M94.95,81.17c.86-.93,1.22-1.5,1.59-2.54l1.4.58c-.46,1.17-.83,1.8-1.67,2.86l-1.32-.91ZM100.74,69.74c0-.31-.01-.58-.08-.92h1.77c-.04.3-.08.57-.08.92v.13h3.39c.71,0,1.08-.01,1.53-.09v1.4c-.44-.04-.78-.06-1.53-.06h-.81c-.13.31-.25.52-.42.85h1.95c.86,0,1.25-.02,1.67-.08v1.4c-.42-.06-.84-.07-1.68-.07h-9.6c-.81,0-1.23.01-1.65.07v-1.4c.4.06.85.08,1.71.08h1.79c-.12-.33-.18-.48-.38-.85h-.79c-.72,0-1.08.02-1.47.06v-1.4c.39.06.83.09,1.53.09h3.15v-.13ZM98.13,78.35c-.62,0-.96.02-1.4.03.03-.29.04-.52.04-1.06v-2.28c0-.58-.01-.92-.06-1.29.38.03.76.04,1.56.04h6.69c.87,0,1.2-.02,1.58-.04-.04.33-.06.67-.06,1.29v2.16c0,.46.01.75.06,1.19-.19,0-.22,0-.48-.02h-.39c-.18-.02-.31-.02-.39-.02h-3.29c.44.29.65.45,1.42,1.12l-1.18.95c-.66-.75-.72-.8-1.63-1.53l.72-.54h-3.19ZM98.28,75.55h6.71v-.6h-6.71v.6ZM98.28,77.2h6.71v-.58h-6.71v.58ZM103.9,79.54v-.15c.51.23.79.3,1.47.39-.04,1.08-.15,1.53-.42,1.83-.39.44-1,.53-3.48.53s-2.99-.17-2.99-1.02v-1.26c0-.48-.01-.78-.08-1.06h1.65c-.04.36-.06.56-.06,1.06v.63c0,.17.04.23.22.27.17.05.76.09,1.29.09,1.29,0,1.84-.04,2.08-.15.13-.06.19-.17.24-.39.03-.15.06-.46.06-.62v-.15ZM102.9,71.98c.18-.35.25-.51.41-.85h-3.39c.15.31.2.42.38.85h2.61ZM107.01,81.91c-.71-1.17-1.14-1.77-1.96-2.7l1.26-.72c.9.96,1.4,1.57,2.01,2.52l-1.31.9Z"/>
        <path d="M112.62,79.61v-.71h-1.3v1.48h-1.51c.04-.44.08-.96.08-1.74v-7.14c0-.63-.02-1.11-.06-1.49.38.05.67.06,1.29.06h1.7c.54,0,.88-.01,1.24-.06-.01.26-.03.69-.03,1.44v6.57c0,.6.01.98.04,1.44,1.23-1.03,2.23-2.31,2.91-3.7h-1.46c-.51,0-.86.01-1.2.06v-1.59c.46.05.62.06,1.21.06h1.95v-1.89h-1.2c-.64,0-1.14.02-1.58.06v-1.56c.44.04.93.07,1.58.07h1.2v-.85c0-.51-.02-.8-.06-1.14h1.65c-.06.34-.08.61-.08,1.14v.85h1.58c.72,0,1.18-.03,1.6-.09v1.59c-.46-.04-.99-.07-1.63-.07h-1.54v1.89h1.98c.75,0,1.26-.03,1.71-.07v1.62c-.4-.04-1-.07-1.71-.07h-1.6c.79,1.67,1.95,2.91,3.75,4.05-.38.55-.6.98-.86,1.56-1.75-1.37-2.73-2.55-3.31-4.06.03.61.04.87.04,1.42v2.07c0,.58.01.99.08,1.46h-1.67c.04-.45.08-.88.08-1.46v-2.1c0-.51.01-.87.03-1.47-.43.99-.81,1.58-1.51,2.42-.66.79-1.26,1.33-2.04,1.88-.33-.5-.61-.81-1.09-1.23.54-.33.74-.46,1.02-.69h-1.26ZM111.31,77.51h1.3v-5.94h-1.3v5.94Z"/>
        <path d="M125.74,73.45c-.27.02-.43.03-.61.05-.14.01-.15.01-.17.01-.12,0-.18-.04-.23-.19-.08-.24-.18-1.04-.19-1.48.17.01.6.03,1.14.03.17,0,1.35-.07,1.88-.12.25-1.21.34-1.84.34-2.65,1.54.21,2.1.39,2.1.68,0,.1-.01.13-.24.48-.12.18-.17.34-.42,1.27.7-.12,1.12-.23,1.68-.41.1-.03.15-.04.22-.04.11,0,.13.08.23.51.07.37.12.69.12.85,0,.18-.04.21-.43.3-.51.12-1.38.27-2.31.39-.56,1.68-.93,2.58-1.62,3.99-.53,1.05-.83,1.6-1.23,2.23-.12.18-.19.24-.3.24-.15,0-.57-.22-1.09-.61-.24-.17-.3-.24-.3-.35s.06-.19.25-.46c.43-.54,1-1.47,1.5-2.46.42-.82.57-1.17,1-2.35-.58.05-.63.06-1.32.1ZM130.68,82.09c-1.64,0-2.75-.9-2.75-2.23s1.15-2.41,2.7-2.41c.36,0,.53.01,1.14.1-.06-.72-.06-1.01-.12-2.4,0-.29-.03-.68-.06-1.16.77.08,1.35.17,1.64.29.12.04.18.12.18.24,0,.08-.01.14-.03.24-.08.31-.09.54-.09.94,0,.56.04,1.5.09,2.23,1.07.48,1.5.72,2.25,1.31.33.25.45.39.45.51,0,.15-.08.29-.5.96-.18.3-.31.44-.42.44q-.09,0-.51-.39c-.33-.33-.71-.58-1.23-.9,0,1.4-1.02,2.23-2.74,2.23ZM130.65,78.88c-.72,0-1.21.34-1.21.87,0,.5.45.81,1.12.81.79,0,1.21-.4,1.21-1.2,0-.12,0-.24-.02-.24-.3-.15-.7-.24-1.11-.24ZM136.26,74.62c-.18.26-.27.33-.38.33-.08,0-.13-.03-.24-.13-.38-.36-.9-.75-1.46-1.1q-.36-.22-1.02-.52c-.21-.09-.29-.15-.29-.27,0-.1.08-.24.3-.58.36-.52.45-.61.58-.61.28,0,1.39.57,2.19,1.11.65.44.84.61.84.78,0,.12-.24.57-.54,1Z"/>
        <path d="M144.27,78.62c-.72,1.25-1.71,1.94-2.73,1.94-1.56,0-2.67-1.53-2.67-3.66,0-2.37,1.2-4.41,3.25-5.49,1-.54,2.08-.78,3.51-.78,3.14,0,5.46,2.22,5.46,5.19,0,2.62-1.29,4.51-3.78,5.58-.5.21-.89.33-1.08.33-.18,0-.25-.06-.45-.34-.25-.39-.54-.68-.95-.95,3.09-.79,4.49-2.25,4.49-4.68,0-1.25-.53-2.29-1.46-2.96-.53-.36-.95-.51-1.77-.64-.42,3.16-.92,4.89-1.83,6.46ZM142.11,73.31c-1,.88-1.58,2.15-1.58,3.55,0,1.16.38,1.83,1,1.83.75,0,1.52-1.04,2.08-2.82.36-1.12.54-1.98.77-3.65-1.07.23-1.59.48-2.28,1.08Z"/>
        <path d="M154.53,74.57c-.12.03-.18.06-.27.1-.08.04-.12.06-.2.06-.32,0-.55-.58-.74-1.69.12.02.23.02.29.02.63,0,2.24-.2,3.2-.39.31-1.32.48-2.31.48-3.03,0-.06,0-.14-.01-.25.64.07,1.26.21,1.68.38.24.09.36.22.36.38,0,.07-.02.12-.09.24q-.23.4-.69,2.06c.36-.05.76-.08,1.02-.08.62,0,1.1.12,1.44.36.6.44.9,1.32.9,2.69,0,2.23-.41,4.14-1.1,5.08-.48.66-1.11.98-1.99.98-.54,0-1.05-.07-1.2-.17q-.12-.07-.17-.63c-.04-.4-.13-.75-.32-1.17.78.25.98.3,1.46.3.72,0,1.02-.34,1.35-1.54.23-.79.35-1.83.35-2.92,0-1.17-.29-1.59-1.08-1.59-.27,0-.71.03-1.05.09-.04.17-.06.18-.12.39-.42,1.53-1.19,3.55-1.95,5.17-.79,1.63-.99,1.96-1.18,1.96-.12,0-.53-.21-.96-.5-.35-.21-.44-.3-.44-.42q0-.07.62-1.05c.83-1.27,1.91-3.78,2.28-5.25-1.11.24-1.73.39-1.86.44ZM162.18,72.89c0-.1.14-.24.57-.58.3-.23.45-.31.55-.31.09,0,.17.04.36.24.88.85,1.71,2,2.19,2.98.15.33.24.54.24.63,0,.15-.04.2-.52.58-.3.24-.65.44-.77.44-.1,0-.15-.04-.25-.3-.3-.73-.58-1.31-.94-1.86-.39-.6-.47-.69-1.35-1.64-.06-.09-.08-.13-.08-.18Z"/>
        <path d="M169.12,73.45c-.27.02-.43.03-.61.05-.14.01-.15.01-.17.01-.12,0-.18-.04-.23-.19-.08-.24-.18-1.04-.19-1.48.17.01.6.03,1.14.03.17,0,1.35-.07,1.88-.12.25-1.21.34-1.84.34-2.65,1.54.21,2.1.39,2.1.68,0,.1-.01.13-.24.48-.12.18-.17.34-.42,1.27.7-.12,1.12-.23,1.68-.41.1-.03.15-.04.22-.04.11,0,.13.08.23.51.07.37.12.69.12.85,0,.18-.04.21-.43.3-.51.12-1.38.27-2.31.39-.56,1.68-.93,2.58-1.62,3.99-.53,1.05-.83,1.6-1.23,2.23-.12.18-.19.24-.3.24-.15,0-.57-.22-1.09-.61-.24-.17-.3-.24-.3-.35s.06-.19.25-.46c.43-.54,1-1.47,1.5-2.46.42-.82.57-1.17,1-2.35-.58.05-.63.06-1.32.1ZM174.06,82.09c-1.64,0-2.75-.9-2.75-2.23s1.15-2.41,2.7-2.41c.36,0,.53.01,1.14.1-.06-.72-.06-1.01-.12-2.4,0-.29-.03-.68-.06-1.16.77.08,1.35.17,1.64.29.12.04.18.12.18.24,0,.08-.01.14-.03.24-.08.31-.09.54-.09.94,0,.56.04,1.5.09,2.23,1.07.48,1.5.72,2.25,1.31.33.25.45.39.45.51,0,.15-.08.29-.5.96-.18.3-.31.44-.42.44q-.09,0-.51-.39c-.33-.33-.71-.58-1.23-.9,0,1.4-1.02,2.23-2.74,2.23ZM174.03,78.88c-.72,0-1.21.34-1.21.87,0,.5.45.81,1.12.81.79,0,1.21-.4,1.21-1.2,0-.12,0-.24-.02-.24-.3-.15-.7-.24-1.11-.24ZM179.64,74.62c-.18.26-.27.33-.38.33-.08,0-.13-.03-.24-.13-.38-.36-.9-.75-1.46-1.1q-.36-.22-1.02-.52c-.21-.09-.29-.15-.29-.27,0-.1.08-.24.3-.58.36-.52.45-.61.58-.61.28,0,1.39.57,2.19,1.11.65.44.84.61.84.78,0,.12-.24.57-.54,1Z"/>
        <path d="M184.57,71.99c.34-.9.67-1.38,1.25-1.86.69-.57,1.51-.84,2.56-.84,2.25,0,3.69,1.23,3.69,3.15,0,.65-.18,1.26-.53,1.75-.27.39-.39.51-1.23,1.27-1.17,1.05-1.42,1.46-1.42,2.25v.79h-1.53v-.84c0-.67.13-1.27.41-1.75.21-.38.43-.63,1.03-1.23.63-.61.83-.84.99-1.11.21-.3.33-.72.33-1.12,0-1-.67-1.63-1.74-1.63s-1.69.55-2.14,1.86l-1.67-.69ZM189.36,80.74c0,.66-.53,1.18-1.19,1.18s-1.18-.52-1.18-1.18.52-1.19,1.18-1.19,1.19.52,1.19,1.19Z"/>
      </g>
      <circle class="cls-10" cx="31.42" cy="83.49" r="30"/>
      <g>
        <path d="M16.63,144.43c2.67,0,3.94,1.08,3.94,3.38,0,1-.39,1.93-1.05,2.52-.69.62-1.65.92-2.89.92h-2.16v4.88h-1.93v-11.68h4.09ZM16.16,149.65c1.69,0,2.46-.57,2.46-1.84s-.72-1.77-2.46-1.77h-1.7v3.62h1.7Z"/>
        <path d="M28.93,144.43v1.59h-5.4v3.18h4.12v1.58h-4.12v3.72h5.66v1.62h-7.59v-11.68h7.33Z"/>
        <path d="M34.27,144.43c1.39,0,2.29.25,2.92.81.58.53.93,1.37.93,2.27,0,1.48-.73,2.46-2.17,2.88.76.33.96.63,1.72,2.64l1.17,3.09h-2.05l-.99-2.9c-.58-1.71-1.02-2.22-1.89-2.22h-1.9v5.12h-1.88v-11.68h4.14ZM33.73,149.43c1.71,0,2.49-.56,2.49-1.77,0-.51-.2-.96-.53-1.21-.34-.25-1.04-.41-1.98-.41h-1.71v3.39h1.72Z"/>
        <path d="M47.73,148.78c-.19-.66-.25-1.06-.43-2.91-.06-.72-.12-1.08-.27-1.59.91.02,1.5.06,1.9.17.23.06.33.17.33.33,0,.06-.01.13-.04.25-.1.36-.15.63-.15,1.02,0,.73.15,1.93.32,2.46.09.28.18.39.34.39.36,0,1.68-.69,2.4-1.25.19-.15.22-.17.3-.17.13,0,.27.11.5.39.38.51.67,1.06.67,1.27,0,.17-.11.27-.36.34-.93.25-2.46.86-3.49,1.35-1.83.9-2.66,1.72-2.66,2.65s.76,1.29,2.7,1.29c1.12,0,2.14-.1,3.52-.33.06-.01.17-.03.2-.03.12,0,.19.06.25.18.04.15.15,1.06.15,1.42,0,.21-.06.29-.26.34-.33.08-2.14.18-3.28.18-1.92,0-3.2-.25-3.99-.79-.67-.47-1.04-1.2-1.04-2.1,0-.69.2-1.3.6-1.9.52-.78,1.09-1.28,2.35-2.03-.31-.29-.43-.5-.57-.96Z"/>
        <path d="M58.43,147.27c1.02.63,1.35.85,2.59,1.86l-.9,1.31c-.81-.79-1.3-1.17-2.55-1.92l.85-1.25ZM61.07,152.26c-.55,1.67-.85,2.43-1.38,3.5-.17.32-.19.39-.46.87q-.1.2-.17.32l-1.42-1.2c.23-.23.46-.57.75-1.08.51-.92.87-1.8,1.35-3.31l1.33.91ZM59.06,143.71c1.65,1.17,1.8,1.29,2.49,1.93l-.97,1.25c-.71-.72-1.49-1.35-2.46-2l.94-1.18ZM61.91,151.3c0-.52-.03-.85-.09-1.21h1.65c-.08.36-.09.66-.09,1.23v.1h1.11c.51,0,.75-.01,1.02-.06v1.5c-.29-.03-.65-.04-1-.04h-1.12v2.05c.6-.12,1.3-.3,2.21-.57v1.47c-1.17.38-1.61.48-3.25.84-.89.19-1.02.22-1.32.31l-.38-1.65c.38,0,.71-.04,1.28-.14v-3.84ZM63.31,149.65c-.53,0-.96.01-1.33.04.03-.38.04-.81.04-1.35v-2.96c0-.5-.01-.9-.04-1.26.33.04.76.06,1.46.06h5.05c.72,0,1.14-.01,1.47-.06-.04.45-.06.73-.06,1.32v2.92c0,.51.01.87.06,1.31-.34-.02-.64-.03-1.32-.03h-5.33ZM63.48,146.35h4.88v-.83h-4.88v.83ZM63.48,148.38h4.88v-.85h-4.88v.85ZM67.53,154.98c0,.25.15.31.83.31.58,0,.83-.06.95-.24.13-.17.19-.6.19-1.25v-.45c.47.24,1.04.42,1.44.46-.06,1.5-.2,2.08-.57,2.46-.34.33-.88.43-2.23.43-1.61,0-2.08-.29-2.08-1.21v-4.21c0-.54-.02-.84-.08-1.23h1.63c-.06.36-.08.69-.08,1.24v.63c1.19-.47,1.79-.83,2.52-1.43l.81,1.32c-.18.09-.2.09-.81.43-.77.44-1.42.72-2.52,1.1v1.62Z"/>
        <path d="M78.71,144.58c0,.38.18,1.08.54,2.03,1.23-.32,1.71-.48,3.1-1.08.08-.03.13-.04.17-.04.12,0,.2.12.33.62.13.46.2.76.2.87s-.08.15-.47.3c-.61.24-1.57.52-2.65.79.75,1.46,1.88,2.71,2.96,3.34.07.04.12.11.12.18,0,.18-.33.89-.58,1.25-.13.2-.22.27-.36.27-.11,0-.13-.02-.33-.17-.32-.23-1.07-.57-1.61-.72-.64-.18-1.23-.25-1.92-.25-1.77,0-2.67.5-2.67,1.46,0,.54.28.93.9,1.23.71.34,2,.54,3.51.54.45,0,.75-.02,1.2-.09-.24.47-.32.68-.6,1.61-.08.22-.2.29-.6.29-1,0-2.26-.14-3.03-.32-2-.5-3.14-1.62-3.14-3.12,0-.73.29-1.42.78-1.93.69-.69,1.8-1.06,3.22-1.06.93,0,1.53.1,2.33.42-.87-.93-1.3-1.53-1.83-2.55-.92.17-1.68.27-2.56.36-.53.04-1.68.12-1.91.12-.21,0-.27-.04-.34-.3-.09-.29-.17-.77-.24-1.42.5.03.74.03,1,.03.9,0,2.38-.12,3.36-.27-.13-.29-.39-.95-.54-1.35-.24-.66-.34-.9-.54-1.23.71-.1,1.47-.2,1.81-.2.29,0,.39.08.39.27v.15ZM83.72,146.07c-.27-.54-.71-1.12-1.11-1.51-.04-.06-.08-.11-.08-.13,0-.14.54-.53.72-.53.09,0,.25.13.52.42.5.54.92,1.14.92,1.29,0,.09-.04.12-.24.27-.29.2-.5.32-.58.32-.06,0-.1-.03-.15-.12ZM85.22,145.14c-.25-.45-.71-1.05-1.12-1.49-.04-.04-.06-.09-.06-.12,0-.12.53-.46.69-.46.1,0,.3.17.64.55.42.51.75.98.75,1.1,0,.06-.04.1-.21.24-.21.17-.46.32-.52.32-.08,0-.12-.04-.17-.13Z"/>
        <path d="M95.03,149.37c2.05,0,3.39,1.21,3.39,3.06s-1.12,3.02-3.37,3.74c-.81.25-2.15.5-2.75.5-.32,0-.39-.08-.6-.51-.16-.35-.34-.56-.79-.87,3.77-.3,5.62-1.26,5.62-2.9,0-.92-.64-1.46-1.72-1.46-1.37,0-2.78.71-3.93,1.95-.21.21-.41.46-.54.69-.13.22-.23.3-.36.3-.22,0-.75-.22-1.11-.5-.18-.13-.24-.24-.24-.48q0-.12.04-.48s0-.15.01-.31c.08-.96.12-1.37.3-2.72q.03-.16.14-.87s.04-.33.12-.89c.01-.13.03-.25.03-.49.72.1,1.4.27,1.68.43.12.06.18.13.16.22,0,.06-.03.11-.07.2-.17.25-.21.39-.35.96-.13.57-.34,1.89-.38,2.38,1.53-1.41,2.87-1.96,4.71-1.96ZM94.76,145.09c.58.34.76.51.76.67,0,.13-.24.58-.5.96-.24.34-.33.42-.45.42-.07,0-.12-.03-.3-.17-1-.76-1.8-1.2-2.92-1.59-.22-.09-.27-.12-.27-.24,0-.15.12-.41.39-.79.24-.36.34-.45.51-.45.36,0,1.83.63,2.78,1.19Z"/>
        <path d="M102.81,148.21c-.27.02-.43.03-.61.05-.14.01-.15.01-.17.01-.12,0-.18-.04-.23-.2-.08-.24-.18-1.04-.19-1.48.17.01.6.03,1.14.03.17,0,1.35-.07,1.88-.12.25-1.21.34-1.84.34-2.65,1.54.21,2.1.39,2.1.67,0,.11-.01.13-.24.48-.12.18-.17.34-.42,1.27.7-.12,1.12-.22,1.68-.41.1-.03.15-.04.22-.04.11,0,.13.08.23.51.07.38.12.69.12.85,0,.18-.04.21-.43.3-.51.12-1.38.27-2.31.39-.56,1.68-.93,2.58-1.62,3.99-.53,1.05-.83,1.61-1.23,2.24-.12.18-.19.24-.3.24-.15,0-.57-.22-1.09-.61-.24-.17-.3-.24-.3-.35s.06-.19.25-.46c.43-.54,1-1.47,1.5-2.46.42-.82.57-1.17,1-2.35-.58.04-.63.06-1.32.1ZM107.75,156.85c-1.64,0-2.75-.9-2.75-2.23s1.15-2.42,2.7-2.42c.36,0,.53.01,1.14.11-.06-.72-.06-1.01-.12-2.4,0-.29-.03-.67-.06-1.16.77.08,1.35.17,1.64.29.12.04.18.12.18.24,0,.08-.01.13-.03.24-.08.31-.09.54-.09.94,0,.56.04,1.5.09,2.24,1.07.48,1.5.72,2.25,1.3.33.25.45.39.45.51,0,.15-.08.29-.5.96-.18.3-.31.44-.42.44q-.09,0-.51-.39c-.33-.33-.71-.58-1.23-.9,0,1.39-1.02,2.23-2.74,2.23ZM107.72,153.64c-.72,0-1.21.34-1.21.87,0,.5.45.81,1.12.81.79,0,1.21-.41,1.21-1.2,0-.12,0-.24-.02-.24-.3-.15-.7-.24-1.11-.24ZM113.33,149.38c-.18.26-.27.33-.38.33-.08,0-.13-.03-.24-.13-.38-.36-.9-.75-1.46-1.09q-.36-.22-1.02-.53c-.21-.09-.29-.15-.29-.27,0-.11.08-.24.3-.58.36-.53.45-.62.58-.62.28,0,1.39.57,2.19,1.11.65.43.84.61.84.78,0,.12-.24.57-.54,1Z"/>
        <path d="M116.5,146.94c0-.44-.02-1.02-.04-1.35.69.07,1.2.18,1.6.33.36.14.48.23.48.39q0,.09-.06.24c-.2.51-.25,1.08-.25,2.44,0,1.92.12,3.12.42,4.04.22.71.57,1.11.97,1.11.62,0,1.12-.72,1.68-2.38.28.77.39.99.81,1.53.08.1.12.21.12.31,0,.24-.22.75-.53,1.19-.58.85-1.33,1.32-2.13,1.32-1.15,0-2.02-.93-2.56-2.77-.34-1.2-.51-2.71-.51-4.81v-1.58ZM125.42,147.18c.09,0,.17.04.29.15.75.72,1.53,1.92,2.03,3.09.33.79.64,1.86.64,2.17,0,.15-.08.23-.39.39-.34.18-1.05.42-1.23.42-.13,0-.19-.08-.24-.34-.2-1.16-.46-2-.93-2.97-.42-.87-.45-.92-1.47-2.17.63-.46,1.12-.73,1.3-.73Z"/>
        <path d="M137.07,149.05c.03,1.12.06,1.71.21,3.21,1.26.41,1.86.66,2.75,1.14,1.18.67,1.79,1.12,1.79,1.33,0,.18-.2.52-.54,1.02-.22.33-.39.48-.51.48-.08,0-.14-.03-.24-.14-1.07-1.02-1.92-1.57-3.18-2.08-.03.91-.2,1.39-.63,1.84-.53.52-1.44.81-2.62.81-1.96,0-3.17-.87-3.17-2.29,0-1.51,1.32-2.47,3.38-2.47.5,0,.93.03,1.3.08-.15-2.46-.2-3.65-.21-5.85-.01-.87-.04-1.39-.13-2.1.69.02,1.38.09,1.79.2.24.08.33.15.33.31,0,.08-.01.12-.06.24-.17.39-.22.96-.25,2.62q.12,0,.58-.03c.72-.04,1.74-.22,2.88-.54.04-.01.08-.01.12-.01.09,0,.12.03.18.18.15.36.32,1.1.32,1.35,0,.12-.06.17-.2.21-1.16.27-2.78.5-3.66.5h-.21ZM134.14,153.37c-1.02,0-1.63.34-1.63.92,0,.53.51.79,1.46.79,1.15,0,1.66-.41,1.66-1.35v-.12c-.49-.18-.92-.24-1.48-.24Z"/>
        <path d="M149.18,147.87c.97-.25,1.62-.34,2.33-.34,2.13,0,3.36,1.26,3.36,3.42,0,1.88-.81,3.39-2.45,4.59-.87.64-2.19,1.29-2.62,1.29-.2,0-.24-.04-.56-.5-.22-.34-.45-.55-.82-.83,1.72-.58,2.44-.96,3.22-1.63.9-.79,1.35-1.75,1.35-2.89,0-1.22-.57-1.91-1.58-1.91-.81,0-1.86.31-3.22.97-.2.09-.3.17-.55.35-.06.03-.12.06-.18.06-.29,0-.77-.84-1.1-1.96.56-.04.84-.12,2.82-.62ZM150.19,144.21c.54.17,1.35.32,2.08.41.3.03.41.04,1.17.08.22,0,.29.06.29.22,0,.5-.11,1.31-.2,1.46-.03.09-.1.12-.21.12-.34,0-1.56-.17-2.26-.31-1.19-.24-2.22-.54-2.43-.71-.05-.04-.08-.11-.08-.17,0-.12.31-.93.46-1.21.08-.12.12-.15.21-.15q.08,0,.96.27Z"/>
        <path d="M162.99,152.67c.04.08.06.13.06.21,0,.11-.02.12-.15.45-.3.69-.66,1.77-.84,2.58-.04.17-.09.25-.15.29-.08.03-.59.1-.75.1h-.06c-.08,0-.18-.01-.3-.01-.2,0-.24-.04-.3-.23-.29-.97-.51-2.98-.51-4.5,0-1.65.1-2.67.52-4.92.15-.81.22-1.26.29-1.75.63.12,1.17.27,1.62.48.25.11.33.18.33.33,0,.11-.02.15-.18.39-.5.79-1.05,3.98-1.05,6.12,0,.34.02.81.06,1.56.42-.94.57-1.23.92-1.96.13.32.22.46.49.87ZM166.25,153.73c.48.25,1.05.34,2.06.34s1.53-.08,2.46-.34c.09-.03.16-.04.21-.04.1,0,.18.06.19.21.08.51.13,1.11.13,1.41,0,.15-.04.2-.25.26-.81.21-1.63.31-2.64.31-1.38,0-2.23-.17-2.94-.58-.66-.41-1.35-1.23-1.35-1.63,0-.21.32-.5,1.12-.99.27.54.53.81,1,1.07ZM165.2,146.08c.33.08,1.29.14,2.03.14.99,0,1.98-.08,2.91-.24q.08-.01.14-.01c.1,0,.15.04.18.16.03.15.08.81.08,1.22,0,.22-.04.3-.21.33-.62.12-1.63.19-2.71.19-1.29,0-2.45-.08-2.59-.17-.08-.04-.11-.15-.11-.42,0-.41.04-1,.08-1.12.01-.06.06-.09.15-.09.02,0,.04,0,.08.01Z"/>
        <path d="M174.22,147.34c1.17.67,1.67,1.05,2.61,1.88l-.85,1.32c-1.05-.99-1.61-1.39-2.67-2l.92-1.2ZM176.93,152.26c-.65,1.77-1.04,2.66-1.61,3.69-.15.27-.24.43-.4.69q-.11.18-.2.35l-1.38-1.2c.69-.74,1.53-2.35,2.29-4.42l1.29.9ZM174.86,143.83c1.09.64,1.65,1.06,2.55,1.89l-.96,1.27c-.92-.94-1.39-1.33-2.56-2.04l.97-1.12ZM182.28,146.67c-.99-.81-1.58-1.17-2.98-1.83l1.03-1.19c1.58.77,1.92.98,3.11,1.83l-.96,1.18h2.16c.79,0,1.14-.01,1.6-.09v1.62c-.43-.04-.99-.08-1.6-.08h-2.27v2.5h1.86c.62,0,1.17-.03,1.58-.07v1.57c-.44-.04-1.04-.08-1.58-.08h-1.86v2.99h2.46c.67,0,1.29-.03,1.71-.09v1.6c-.46-.04-1.02-.08-1.71-.08h-6.28c-.68,0-1.28.03-1.71.08v-1.6c.45.06,1.08.09,1.71.09h2.22v-2.99h-1.49c-.55,0-1.14.03-1.59.08v-1.57c.42.04.96.07,1.58.07h1.5v-2.5h-1.88c-.71,0-1.08.02-1.61.08v-1.62c.5.08.89.09,1.61.09h3.39Z"/>
        <path d="M187.7,155.94c.86-.93,1.22-1.5,1.59-2.54l1.4.58c-.46,1.17-.83,1.8-1.67,2.86l-1.32-.91ZM193.49,144.51c0-.32-.01-.58-.08-.92h1.77c-.04.3-.08.57-.08.92v.13h3.39c.71,0,1.08-.01,1.53-.09v1.39c-.44-.04-.78-.06-1.53-.06h-.81c-.13.31-.25.52-.42.85h1.95c.86,0,1.25-.01,1.67-.08v1.4c-.42-.06-.84-.08-1.68-.08h-9.6c-.81,0-1.23.01-1.65.08v-1.4c.4.06.85.08,1.71.08h1.79c-.12-.33-.18-.48-.38-.85h-.79c-.72,0-1.08.01-1.47.06v-1.39c.39.06.83.09,1.53.09h3.15v-.13ZM190.88,153.12c-.62,0-.96.01-1.4.03.03-.29.04-.53.04-1.07v-2.28c0-.58-.01-.92-.06-1.29.38.03.76.04,1.56.04h6.69c.87,0,1.2-.02,1.58-.04-.04.33-.06.67-.06,1.29v2.16c0,.46.01.75.06,1.19-.19,0-.22,0-.48-.02h-.39c-.18-.01-.31-.01-.39-.01h-3.29c.44.29.65.45,1.42,1.12l-1.18.95c-.66-.75-.72-.79-1.63-1.53l.72-.54h-3.19ZM191.03,150.31h6.71v-.6h-6.71v.6ZM191.03,151.96h6.71v-.58h-6.71v.58ZM196.66,154.3v-.15c.51.22.79.3,1.47.39-.04,1.08-.15,1.53-.42,1.83-.39.43-1,.53-3.48.53s-2.99-.17-2.99-1.02v-1.26c0-.48-.01-.78-.08-1.07h1.65c-.04.36-.06.56-.06,1.07v.63c0,.17.04.22.22.27.17.05.76.09,1.29.09,1.29,0,1.84-.04,2.08-.15.13-.06.19-.17.24-.39.03-.15.06-.46.06-.62v-.15ZM195.65,146.74c.18-.34.25-.51.41-.85h-3.39c.15.31.2.42.38.85h2.61ZM199.76,156.67c-.71-1.17-1.14-1.77-1.96-2.7l1.26-.72c.9.96,1.4,1.58,2.01,2.52l-1.31.9Z"/>
        <path d="M207.22,144.43c.38.1.48.18.48.34,0,.11-.01.15-.09.36-.17.43-.29,1.2-.34,2.25-.12,2.42-.18,4.29-.18,5.77,0,.48.04.84.12,1.08.17.5.69.75,1.53.75,1.35,0,2.62-.55,3.79-1.65.54-.51.87-.92,1.42-1.74.09.48.21.79.54,1.47.04.12.08.21.08.34,0,.27-.29.63-1.04,1.3-1.49,1.33-3.13,2.03-4.86,2.03-1.14,0-1.98-.29-2.52-.83-.57-.6-.79-1.38-.79-2.86,0-1.17.01-2.07.13-5.57.02-.52.03-.84.03-.97,0-1.28-.01-1.65-.11-2.29.77.03,1.35.09,1.8.21Z"/>
        <path d="M218.5,148.21c-.27.02-.43.03-.61.05-.14.01-.15.01-.17.01-.12,0-.18-.04-.23-.2-.08-.24-.18-1.04-.19-1.48.17.01.6.03,1.14.03.17,0,1.35-.07,1.88-.12.25-1.21.34-1.84.34-2.65,1.54.21,2.1.39,2.1.67,0,.11-.01.13-.24.48-.12.18-.17.34-.42,1.27.7-.12,1.12-.22,1.68-.41.1-.03.15-.04.22-.04.11,0,.13.08.23.51.07.38.12.69.12.85,0,.18-.04.21-.43.3-.51.12-1.38.27-2.31.39-.56,1.68-.93,2.58-1.62,3.99-.53,1.05-.83,1.61-1.23,2.24-.12.18-.19.24-.3.24-.15,0-.57-.22-1.09-.61-.24-.17-.3-.24-.3-.35s.06-.19.25-.46c.43-.54,1-1.47,1.5-2.46.42-.82.57-1.17,1-2.35-.58.04-.63.06-1.32.1ZM223.43,156.85c-1.64,0-2.75-.9-2.75-2.23s1.15-2.42,2.7-2.42c.36,0,.53.01,1.14.11-.06-.72-.06-1.01-.12-2.4,0-.29-.03-.67-.06-1.16.77.08,1.35.17,1.64.29.12.04.18.12.18.24,0,.08-.01.13-.03.24-.08.31-.09.54-.09.94,0,.56.04,1.5.09,2.24,1.07.48,1.5.72,2.25,1.3.33.25.45.39.45.51,0,.15-.08.29-.5.96-.18.3-.31.44-.42.44q-.09,0-.51-.39c-.33-.33-.71-.58-1.23-.9,0,1.39-1.02,2.23-2.74,2.23ZM223.4,153.64c-.72,0-1.21.34-1.21.87,0,.5.45.81,1.12.81.79,0,1.21-.41,1.21-1.2,0-.12,0-.24-.02-.24-.3-.15-.7-.24-1.11-.24ZM229.01,149.38c-.18.26-.27.33-.38.33-.08,0-.13-.03-.24-.13-.38-.36-.9-.75-1.46-1.09q-.36-.22-1.02-.53c-.21-.09-.29-.15-.29-.27,0-.11.08-.24.3-.58.36-.53.45-.62.58-.62.28,0,1.39.57,2.19,1.11.65.43.84.61.84.78,0,.12-.24.57-.54,1Z"/>
        <path d="M232.18,146.94c0-.44-.02-1.02-.04-1.35.69.07,1.2.18,1.6.33.36.14.48.23.48.39q0,.09-.06.24c-.2.51-.25,1.08-.25,2.44,0,1.92.12,3.12.42,4.04.22.71.57,1.11.97,1.11.62,0,1.12-.72,1.68-2.38.28.77.39.99.81,1.53.08.1.12.21.12.31,0,.24-.22.75-.53,1.19-.58.85-1.33,1.32-2.13,1.32-1.15,0-2.02-.93-2.56-2.77-.34-1.2-.51-2.71-.51-4.81v-1.58ZM241.1,147.18c.09,0,.17.04.29.15.75.72,1.53,1.92,2.03,3.09.33.79.64,1.86.64,2.17,0,.15-.08.23-.39.39-.34.18-1.05.42-1.23.42-.13,0-.19-.08-.24-.34-.2-1.16-.46-2-.93-2.97-.42-.87-.45-.92-1.47-2.17.63-.46,1.12-.73,1.3-.73Z"/>
        <path d="M16.87,175.03c-.19-.66-.25-1.06-.43-2.91-.06-.72-.12-1.08-.27-1.59.91.02,1.5.06,1.9.17.23.06.33.17.33.33,0,.06-.01.13-.04.25-.1.36-.15.63-.15,1.02,0,.73.15,1.93.32,2.46.09.28.18.39.34.39.36,0,1.68-.69,2.4-1.25.19-.15.22-.17.3-.17.13,0,.27.11.5.39.38.51.67,1.06.67,1.27,0,.17-.11.27-.36.34-.93.25-2.46.86-3.49,1.35-1.83.9-2.66,1.72-2.66,2.65s.76,1.29,2.7,1.29c1.12,0,2.14-.1,3.52-.33.06-.01.17-.03.2-.03.12,0,.19.06.25.18.04.15.15,1.06.15,1.42,0,.21-.06.29-.26.34-.33.08-2.14.18-3.28.18-1.92,0-3.2-.25-3.99-.79-.67-.47-1.04-1.2-1.04-2.1,0-.69.2-1.3.6-1.9.52-.78,1.09-1.28,2.35-2.03-.31-.29-.43-.5-.57-.96Z"/>
        <path d="M29.57,174.61c-1.06.18-1.3.22-1.56.3-.15.04-.27.06-.36.06-.27,0-.4-.48-.46-1.65.87,0,1.35-.04,2.42-.24,0-.48.01-1.03.01-1.23,0-.58-.03-1.09-.09-1.47,1.58.07,2.04.18,2.04.46q0,.08-.13.39t-.2,1.62c.48.38.74.67.72.87,0,.04-.03.08-.09.13-.22.2-.25.22-.52.62q-.06.08-.15.19l-.06.09c0,.22,0,.25-.02.54.45-.51.87-.93,1.28-1.26,1.32-1.08,2.31-1.53,3.39-1.53s1.77.43,2.29,1.33c.45.78.69,1.88.69,3.17,0,.78-.06,1.38-.23,2.5.72.51,1.5,1.3,1.5,1.51,0,.24-.84,1.08-1.09,1.08-.1,0-.12-.02-.32-.32-.12-.17-.28-.36-.61-.72-.21.39-.33.55-.54.75-.55.51-1.3.78-2.19.78-1.56,0-2.56-.79-2.56-2,0-1.28,1.04-2.24,2.4-2.24.78,0,1.35.11,1.86.33.06-.55.08-.83.08-1.3,0-2.37-.45-3.3-1.59-3.3-.81,0-1.89.57-3.03,1.59-.41.38-.72.69-1.37,1.39v.87c0,2,.04,4,.11,4.53v.06c0,.27-.21.34-.93.34-.66,0-.79-.06-.79-.34v-.12c.03-.43.04-.96.04-1.62q0-.99.01-2.17s-.03.04-.06.08c-.33.41-.87,1.14-1.22,1.63-.17.24-.25.32-.36.32-.15,0-.42-.27-.88-.87-.18-.22-.29-.42-.29-.5s.08-.17.45-.5c.27-.25,1.29-1.5,1.81-2.19.27-.38.46-.65.58-.84v-1.16ZM35.32,179.76c-.69,0-1.11.29-1.11.75s.32.69.89.69c.5,0,.9-.15,1.17-.45.13-.13.34-.51.34-.57h0c-.51-.33-.81-.42-1.29-.42Z"/>
        <path d="M49.03,181.75c0,.66-.52,1.18-1.18,1.18s-1.19-.52-1.19-1.18.53-1.18,1.19-1.18,1.18.52,1.18,1.18ZM48.5,179.53h-1.33l-.41-8.98h2.16l-.42,8.98Z"/>
        <path d="M63.8,170.68c1.39,0,2.29.25,2.92.81.58.53.93,1.37.93,2.27,0,1.48-.73,2.46-2.17,2.88.76.33.96.63,1.72,2.64l1.17,3.09h-2.05l-.99-2.9c-.58-1.71-1.02-2.22-1.89-2.22h-1.9v5.12h-1.88v-11.68h4.14ZM63.26,175.68c1.71,0,2.49-.56,2.49-1.77,0-.51-.2-.96-.53-1.21-.34-.25-1.04-.41-1.98-.41h-1.71v3.39h1.72Z"/>
        <path d="M77.08,180.81c-.86,1.16-2.07,1.76-3.58,1.76-2.96,0-4.83-2.34-4.83-6.03,0-1.74.43-3.25,1.25-4.33.85-1.12,2.05-1.71,3.57-1.71s2.82.65,3.69,1.88c.72,1.04,1.14,2.54,1.14,4.16,0,1.71-.42,3.21-1.23,4.29ZM73.48,172.2c-.93,0-1.67.42-2.13,1.21-.45.75-.69,1.88-.69,3.15,0,1.17.24,2.23.67,3.01.45.83,1.21,1.28,2.14,1.28,1.79,0,2.83-1.61,2.83-4.32s-1.04-4.33-2.83-4.33Z"/>
        <path d="M86.72,170.68v1.59h-5.4v3.18h4.12v1.58h-4.12v3.72h5.66v1.62h-7.59v-11.68h7.33Z"/>
        <path d="M95.49,179.2c.04.06.06.11.06.17q0,.09-.25.78c-.32.92-.51,1.67-.57,2.25-.01.19-.08.27-.27.31-.21.06-.61.09-1,.09-.15,0-.22-.03-.27-.12-.13-.28-.38-1.32-.5-2.16-.1-.71-.15-1.44-.15-2.21,0-1.73.2-3.36.74-6.3.09-.48.12-.71.17-1.17.69.09,1.17.22,1.6.43.23.12.32.23.32.36,0,.09-.03.17-.11.29-.61,1.05-1.18,4.29-1.18,6.69,0,.36.01.93.06,1.65.36-.93.52-1.35.85-2.07.11.41.21.6.51,1ZM98.02,175.26c-.72,0-.87-.03-.92-.19-.04-.13-.09-.62-.09-.96,0-.12,0-.24.01-.51.41.03.64.04,1.14.04.81,0,1.32-.02,2.1-.08-.02-1.91-.03-2.15-.18-2.85.74.01,1.29.07,1.77.19.22.06.31.14.31.29,0,.06-.01.11-.06.22-.15.35-.23.93-.25,1.98.55-.08,1.03-.18,1.93-.39.08-.03.1-.03.15-.03.09,0,.13.04.17.15.03.14.07.71.07,1.02,0,.38-.01.43-.17.5-.24.12-.9.22-2.17.39,0,1.04.09,2.75.2,3.72.95.41,1.59.75,2.25,1.21.42.3.51.41.51.51,0,.17-.27.67-.58,1.11-.18.25-.27.33-.38.33s-.1,0-.45-.33c-.33-.33-.67-.58-1.33-1.02v.12c0,1.32-1.09,2.19-2.76,2.19s-2.8-.9-2.8-2.25,1.14-2.35,2.66-2.35c.55,0,.84.01,1.24.08q-.06-1.17-.1-3.18c-.65.04-1.67.09-2.26.09ZM99.24,179.67c-.75,0-1.25.34-1.25.87,0,.48.46.78,1.19.78.79,0,1.21-.36,1.21-1.05,0-.21-.02-.38-.02-.38-.39-.15-.73-.23-1.14-.23Z"/>
        <path d="M106.31,179.46c.27-.24.34-.3.45-.3.19,0,1.09.66,1.75,1.29.75.69,1.59,1.69,1.59,1.9,0,.14-.03.17-.46.56-.57.52-.69.62-.79.62-.09,0-.18-.06-.25-.21-.53-.93-1.73-2.16-2.79-2.85-.12-.09-.18-.15-.18-.24,0-.1.03-.15.69-.76Z"/>
        <path d="M123.35,174.72c-.96.6-1.29.78-2.31,1.24-.25-.58-.48-.97-.84-1.48,1.53-.6,2.54-1.16,3.62-2,.96-.74,1.68-1.51,2.28-2.43h1.7c.76,1.06,1.35,1.63,2.45,2.4,1.21.87,2.4,1.49,3.7,1.95-.4.62-.6,1.02-.81,1.62-.9-.39-1.46-.69-2.45-1.32v1.12c-.39-.04-.75-.06-1.29-.06h-4.82c-.41,0-.84.01-1.23.06v-1.11ZM122.56,178.42c-.75,0-1.23.03-1.7.09v-1.66c.45.04,1.02.07,1.7.07h8.95c.72,0,1.21-.03,1.7-.07v1.66c-.48-.06-.96-.09-1.7-.09h-4.93c-.48,1.1-.93,1.94-1.5,2.79q2.49-.13,4.56-.36c-.46-.51-.72-.78-1.51-1.59l1.42-.63c1.54,1.56,2.17,2.29,3.33,3.83l-1.39.92c-.41-.62-.53-.79-.86-1.25-1.2.15-2.05.25-2.59.3-1.5.15-4.23.41-4.84.45-.81.04-1.53.12-1.86.2l-.22-1.75c.43.03.62.04.81.04.12,0,.56-.02,1.29-.06.71-1.08,1.16-1.93,1.53-2.88h-2.17ZM129.38,174.27c.2,0,.33,0,.63-.02-1.3-.87-2.14-1.65-3.01-2.8-.75,1.02-1.62,1.84-2.98,2.8.24.02.36.02.58.02h4.78Z"/>
        <path d="M138.54,181.83c0,.67.02,1.05.09,1.47h-1.74c.06-.43.09-.83.09-1.5v-3.61c-.58.52-.88.75-1.6,1.23-.18-.55-.44-1.08-.74-1.5,1-.58,1.69-1.12,2.47-1.95.67-.71,1.09-1.3,1.56-2.22h-2.34c-.51,0-.85.02-1.2.06v-1.61c.38.04.66.06,1.12.06h.73v-1.2c0-.39-.03-.76-.09-1.09h1.72c-.06.31-.07.66-.07,1.11v1.19h.6c.43,0,.6-.02.83-.04l.69.75c-.12.19-.21.37-.31.61-.48,1.05-.74,1.49-1.44,2.46.67.77,1.33,1.29,2.28,1.82-.33.46-.54.85-.78,1.42-.76-.48-1.21-.88-1.88-1.62v4.17ZM144.66,181.14h1.72c.72,0,1.21-.03,1.65-.07v1.72c-.51-.06-1.07-.09-1.65-.09h-4.92c-.6,0-1.12.03-1.62.09v-1.72c.45.04.96.07,1.63.07h1.58v-5.62h-1.08c-.48,0-.96.03-1.41.07v-1.63c.41.06.81.08,1.41.08h1.08v-2.54c0-.6-.03-.94-.09-1.5h1.79c-.08.57-.09.86-.09,1.5v2.54h1.51c.66,0,1.04-.01,1.42-.08v1.63c-.46-.04-.92-.07-1.42-.07h-1.51v5.62Z"/>
        <path d="M150.74,175.92c-.12.03-.18.06-.27.11-.08.04-.12.06-.18.06-.33,0-.57-.57-.75-1.68h.29c.63,0,2.24-.2,3.2-.39.31-1.31.48-2.31.48-3.02,0-.06,0-.15-.01-.25.64.06,1.26.2,1.68.38.24.09.36.21.36.36,0,.08-.02.13-.09.25q-.23.39-.69,2.04c.36-.04.76-.08,1.02-.08.62,0,1.1.12,1.44.36.6.43.9,1.32.9,2.68,0,2.24-.41,4.16-1.1,5.1-.48.66-1.11.98-2,.98-.54,0-1.05-.08-1.2-.17q-.12-.08-.17-.63c-.04-.41-.13-.77-.32-1.19.78.27.98.32,1.46.32.72,0,1.02-.35,1.35-1.56.23-.79.35-1.81.35-2.92,0-1.17-.29-1.59-1.08-1.59-.27,0-.71.04-1.05.09-.04.18-.06.2-.12.39-.42,1.54-1.19,3.55-1.95,5.17-.79,1.63-.99,1.96-1.18,1.96-.12,0-.53-.21-.96-.5-.35-.21-.44-.3-.44-.42q0-.08.62-1.05c.83-1.28,1.91-3.77,2.28-5.25-1.11.25-1.73.39-1.86.43ZM160.16,172.84c-.24.18-.41.25-.48.25-.04,0-.09-.03-.13-.11-.32-.51-.84-1.09-1.28-1.47-.03-.03-.04-.06-.04-.09,0-.06.11-.17.36-.36.25-.18.33-.22.43-.22.24,0,1.56,1.33,1.56,1.58,0,.09-.12.19-.42.42ZM158.57,174.43c0-.11.13-.24.57-.58.3-.23.45-.32.57-.32.2,0,.87.72,1.5,1.61.52.75,1.09,1.81,1.09,2.07,0,.15-.04.2-.52.58-.3.24-.65.44-.77.44-.1,0-.15-.04-.25-.3-.29-.72-.54-1.21-.95-1.86-.4-.65-.43-.67-1.15-1.46-.06-.08-.09-.12-.09-.18ZM160.53,169.83c.25,0,1.53,1.28,1.53,1.53,0,.08-.09.17-.39.38-.27.21-.41.29-.46.29q-.08,0-.38-.42c-.25-.34-.74-.86-1-1.08-.04-.04-.08-.08-.08-.12,0-.12.62-.57.78-.57Z"/>
        <path d="M173.16,171.15c-.76.39-1.05.75-1.15,1.42.13-.03.27-.04.31-.04.6,0,1.05.48,1.05,1.09,0,.66-.46,1.12-1.11,1.12-.79,0-1.26-.58-1.26-1.59,0-.6.18-1.27.44-1.69.25-.39.58-.68,1.12-.98l.6.66ZM176.06,171.15c-.77.39-1.05.75-1.16,1.42.13-.03.27-.04.31-.04.6,0,1.05.48,1.05,1.09,0,.66-.47,1.12-1.11,1.12-.79,0-1.26-.58-1.26-1.54,0-1.29.46-2.11,1.56-2.71l.6.66Z"/>
        <path d="M181.82,175.03c-.19-.66-.25-1.06-.43-2.91-.06-.72-.12-1.08-.27-1.59.91.02,1.5.06,1.9.17.23.06.33.17.33.33,0,.06-.01.13-.04.25-.1.36-.15.63-.15,1.02,0,.73.15,1.93.32,2.46.09.28.18.39.34.39.36,0,1.68-.69,2.4-1.25.19-.15.22-.17.3-.17.13,0,.27.11.5.39.38.51.67,1.06.67,1.27,0,.17-.11.27-.36.34-.93.25-2.46.86-3.49,1.35-1.83.9-2.66,1.72-2.66,2.65s.76,1.29,2.7,1.29c1.12,0,2.14-.1,3.52-.33.06-.01.17-.03.2-.03.12,0,.19.06.25.18.04.15.15,1.06.15,1.42,0,.21-.06.29-.26.34-.33.08-2.14.18-3.28.18-1.92,0-3.2-.25-3.99-.79-.67-.47-1.04-1.2-1.04-2.1,0-.69.2-1.3.6-1.9.52-.78,1.09-1.28,2.35-2.03-.31-.29-.43-.5-.57-.96ZM187.26,171.67c.12-.09.2-.12.29-.12.21,0,1.51,1.38,1.51,1.6,0,.09-.12.23-.41.46-.3.25-.33.27-.4.27-.09,0-.11,0-.39-.42-.3-.42-.72-.9-1.04-1.17-.04-.04-.07-.09-.07-.14,0-.07.13-.21.51-.49ZM190.52,172.08c0,.09-.04.15-.22.3-.21.18-.5.38-.56.38-.09,0-.12-.04-.3-.28-.34-.5-.55-.74-1.09-1.23-.06-.06-.08-.09-.08-.13,0-.13.57-.57.75-.57.25,0,1.5,1.28,1.5,1.54Z"/>
        <path d="M194.69,174.55c-.67.13-1.32.3-1.74.45-.11.04-.2.06-.27.06-.13,0-.21-.08-.3-.33-.11-.33-.21-.86-.27-1.38.22.01.33.03.46.03.57,0,1.18-.08,2.13-.26l.03-.9c.02-.21.02-.36.02-.41,0-.64-.02-1.04-.08-1.44.79.03,1.29.09,1.77.21.2.04.29.13.29.27,0,.06-.01.11-.09.27-.13.28-.15.46-.25,1.71.33.22.62.54.62.69,0,.09-.04.17-.18.33-.22.24-.3.34-.58.76q-.03.39-.03.5c.5-.43.82-.72,1.33-1.09.57-.43,1.2-.84,1.65-1.06.58-.32.99-.42,1.53-.42.79,0,1.37.3,1.68.87.18.36.25.71.25,1.29,0,.51-.03.99-.12,2.08-.12,1.29-.18,2.25-.18,2.83s.13.76.55.76c.6,0,1.33-.43,1.98-1.17.01.58.06.77.25,1.37.04.12.06.2.06.25,0,.17-.08.3-.33.5-.61.5-1.5.81-2.29.81-1.32,0-1.92-.69-1.92-2.2,0-.69.04-1.58.2-3.67.04-.5.06-.92.06-1.12,0-.62-.21-.9-.66-.9s-1.33.48-2.52,1.39c-.6.45-.94.77-1.57,1.41v.69c0,1.12.07,3.72.13,4.63v.18c0,.12-.02.17-.04.21-.08.09-.51.15-1.2.15-.43,0-.53-.06-.53-.32,0-.09,0-.24.02-.4v-.35q.01-.52.08-3.38-.86,1.11-1.37,1.94c-.13.21-.23.29-.34.29s-.39-.24-.86-.75c-.29-.33-.39-.47-.39-.56,0-.07.03-.13.13-.24.95-.98,1.74-1.91,2.87-3.32l.03-1.27Z"/>
        <path d="M207.23,175.02h-.09c-.08.01-.13.01-.17.01-.13,0-.21-.06-.25-.25-.09-.38-.15-.83-.18-1.41.21.02.38.02.48.02.81,0,1.75-.06,2.55-.17.15-.99.23-1.74.23-2.37v-.34c1.74.24,2.07.33,2.05.6,0,.08-.03.12-.09.25-.18.34-.2.39-.44,1.58.58-.11,1.33-.3,1.64-.41.06-.03.07-.03.12-.03.13,0,.16.06.28.58.06.3.12.72.12.84,0,.1-.04.16-.18.19q-.27.09-2.33.45c-.69,3.06-1.41,5.29-2.56,8-.08.19-.15.27-.24.27-.2,0-.72-.21-1.23-.5-.26-.13-.33-.2-.33-.29,0-.06.04-.17.12-.31,1.14-2.16,1.96-4.46,2.53-6.92-.66.08-1.12.12-2.04.2ZM213.64,180.72c.43.29,1.06.42,1.95.42.97,0,1.81-.09,2.29-.24.12-.03.15-.04.21-.04.13,0,.19.04.24.18.11.31.18.93.18,1.39,0,.2-.06.27-.25.32-.5.1-1.33.17-2.22.17-1.88,0-2.92-.3-3.61-1.02-.25-.27-.46-.6-.58-.97-.09-.22-.15-.48-.15-.57,0-.25.45-.52,1.23-.78.17.63.34.92.72,1.15ZM217.85,176.35c-.3-.04-.93-.08-1.46-.08-1.11,0-1.58.04-2.89.27-.03.02-.08.02-.11.02-.09,0-.13-.03-.17-.12-.04-.11-.1-.84-.1-1.16,0-.19.03-.29.15-.33.06-.03.15-.04.46-.1,1.02-.18,1.88-.25,2.92-.25.87,0,1.32.03,1.43.1.07.06.09.18.09.67,0,.44-.03.83-.06.92-.01.04-.08.08-.15.08-.03,0-.08,0-.12-.01ZM216.2,171.07c.2,0,1.47,1.42,1.47,1.65,0,.06-.1.19-.22.29-.06.04-.15.12-.25.21-.13.12-.18.15-.33.21t-.08.03c-.06,0-.06-.01-.34-.45-.25-.39-.74-.99-.99-1.22-.03-.03-.08-.09-.08-.1.03-.06.05-.09.05-.09.07-.09.33-.3.39-.34.15-.08.24-.14.25-.15.01-.03.03-.03.04-.03h.09ZM218.73,172.12c-.21.15-.36.24-.43.24-.06,0-.09-.03-.17-.15-.33-.54-.65-.93-1.14-1.43-.04-.04-.06-.07-.06-.12,0-.14.57-.56.76-.56.11,0,.29.15.62.5.48.5.83.95.83,1.09,0,.09-.11.2-.41.42Z"/>
        <path d="M222.58,170.97v-.21c.94.17,1.42.3,1.81.5.11.04.13.1.13.21,0,.06-.03.13-.09.24-.13.24-.18.42-.41,1.41-.28,1.29-.43,2.73-.43,4.3,0,.84.03,1.31.12,2.1l.79-1.61c.09.32.21.57.39.78.12.15.13.19.13.31s0,.12-.28.75c-.32.67-.5,1.26-.66,2.03-.04.24-.09.31-.17.34-.12.06-.63.13-.93.13-.21,0-.29-.04-.33-.18-.36-1.02-.66-3.12-.66-4.62,0-1.29.17-3.07.43-4.95.09-.62.14-1.07.14-1.38v-.17ZM227.69,175.21c-.84,0-1.08-.03-1.16-.13-.1-.13-.19-.75-.19-1.3v-.22c.6.06,1.08.09,1.84.09.58,0,.92-.02,1.51-.06-.04-1.56-.13-2.49-.31-2.97h.4c.53,0,1.17.04,1.5.12.15.03.23.12.23.24,0,.06-.02.12-.04.22-.08.21-.12.54-.12.93,0,.23.01.93.01,1.11v.15c.75-.12,1.11-.2,1.74-.41.06-.01.12-.03.18-.03.09,0,.13.04.17.13.06.17.12.75.12,1.08,0,.24-.04.35-.17.39-.2.07-1.11.25-2,.38.02.42.02.64.02.88,0,2.21-.27,3.78-.87,4.96-.54,1.06-1.71,2.31-2.19,2.31-.13,0-.19-.03-.36-.18-.5-.44-.58-.51-1.17-.78,1.05-.58,1.72-1.21,2.19-2.07.5-.91.76-2.17.76-3.55,0-.1,0-.36-.01-.72-.01-.15-.01-.38-.03-.67-.54.04-1.75.1-2.05.1Z"/>
        <path d="M14.84,202.72c.55.49.72.64,1.17,1.09.3-.69.41-.99.58-1.79l1.37.71c-.3.96-.46,1.37-.89,2.19.47.53.69.78,1.32,1.56l-1.09,1.14c-.48-.69-.67-.95-1-1.35-.88,1.29-1.82,2.22-3.17,3.15-.29-.5-.62-.94-.99-1.3,1.38-.78,2.33-1.67,3.17-2.99-.57-.64-.83-.9-1.5-1.51l1.04-.9ZM15.53,200.2c-.73,1.68-1.17,2.33-2.35,3.55-.29-.58-.48-.87-.9-1.29.57-.49.81-.76,1.19-1.32.34-.53.5-.83.73-1.5l1.33.55ZM20.5,200.62c-.63,0-.9.02-1.18.06v-1.21c-.32-.03-.58-.03-1.16-.03h-4.27c-.54,0-.88.01-1.35.08v-1.54c.43.06.73.07,1.41.07h1.33v-.63c0-.51-.01-.84-.07-1.18h1.68c-.06.38-.08.71-.08,1.18v.63h1.2c.66,0,1.02-.01,1.42-.07v1.18c.24.03.55.04,1.08.04h.29c.01-.51.01-1.05.01-1.63,0-.53-.01-.78-.08-1.21h1.7c-.06.51-.06.63-.08,1.27-.01.86-.01,1.2-.03,1.58h1.49c.84,0,1.16-.01,1.47-.06-.04.5-.06.54-.1,2.89-.06,3.06-.3,5.4-.66,6.3-.27.69-.77.96-1.79.96-.48,0-.95-.01-1.38-.06-.03-.63-.11-.96-.32-1.56.47.09,1.11.17,1.38.17.58,0,.68-.12.84-.99.27-1.54.38-3.07.4-6.22h-1.39c-.12,1.42-.23,2.13-.46,3.23-.38,1.59-.9,2.74-1.75,3.93-.46.64-.83,1-1.68,1.72-.33-.51-.64-.81-1.17-1.14,1.23-.93,1.83-1.67,2.52-3.09.54-1.1.84-2.49,1-4.65h-.23ZM17.96,199.68c.61,1.29,1.05,1.9,1.95,2.8-.43.33-.58.48-1.05,1.04-.99-1.12-1.3-1.62-2.11-3.27l1.21-.57Z"/>
        <path d="M28.46,206.64c-.65,0-1.04.02-1.68.09v-1.59c.36.06.93.09,1.54.09h4.14v-.11c0-.36-.02-.66-.06-.84h1.71c-.04.21-.06.48-.06.84v.11h4.46c.6,0,1.08-.03,1.48-.09v1.59c-.48-.06-1.04-.09-1.69-.09h-4.25v1.61c0,.55.03.92.1,1.39h-1.8c.08-.48.11-.85.11-1.39v-1.61h-4ZM31.15,199.06c.25.2.33.24.54.42.25-.36.36-.51.54-.84h-3.78c-.61,0-1.06.01-1.48.06v-1.56c.46.06.96.09,1.71.09h3.84v-.15c0-.34-.03-.58-.09-.88h1.75c-.06.3-.09.54-.09.88v.15h4.09c.76,0,1.26-.03,1.72-.09v1.56c-.42-.04-.87-.06-1.5-.06h-4.62c-.38.64-.69,1.08-1.17,1.63.3.27.38.36.6.6.61-.67.88-1,1.42-1.8l1.16.77c-.86,1.05-1.79,1.96-3,2.98q.12-.01.31-.01c.6-.03,1.19-.08,1.7-.13-.23-.33-.33-.47-.63-.86l1.05-.43c.79.99.88,1.11,1.77,2.64l-1.25.5c-.18-.44-.25-.58-.38-.83-1.45.22-2.26.32-4.65.51-.3.03-.57.04-.71.08l-.13-1c-.78.55-1.28.84-2.46,1.42l-.58-1.49c1.12-.31,2.24-.9,3.18-1.71l.74,1.12-.36.27h.17s.42,0,.51-.01c.54-.44.77-.63,1.2-1.07-.58-.64-1.23-1.2-2.07-1.77l.95-.99ZM28.36,198.85c.81.63,1.38,1.12,2.01,1.8l-1.09,1.07c-.69-.84-1.12-1.26-2.02-1.92l1.11-.95ZM39.25,199.81c-.83.83-1.51,1.38-2.54,2.07l-.99-1.03c1.06-.69,1.63-1.17,2.38-2l1.14.96ZM37.3,201.75c1.17.72,1.52.96,2.55,1.83l-1,1.18c-.8-.82-1.46-1.38-2.42-2.01l.87-1Z"/>
        <path d="M48.37,201.55c.03,1.12.06,1.71.21,3.21,1.26.41,1.86.66,2.75,1.14,1.18.67,1.79,1.12,1.79,1.33,0,.18-.2.52-.54,1.02-.22.33-.39.48-.51.48-.08,0-.14-.03-.24-.14-1.07-1.02-1.92-1.57-3.18-2.08-.03.91-.2,1.39-.63,1.84-.53.52-1.44.81-2.62.81-1.96,0-3.17-.87-3.17-2.29,0-1.51,1.32-2.47,3.38-2.47.5,0,.93.03,1.3.08-.15-2.46-.2-3.65-.21-5.85-.01-.87-.04-1.39-.13-2.1.69.02,1.38.09,1.79.2.24.08.33.15.33.31,0,.08-.01.12-.06.24-.17.39-.22.96-.25,2.62q.12,0,.58-.03c.72-.04,1.74-.22,2.88-.54.04-.01.08-.01.12-.01.09,0,.12.03.18.18.15.36.32,1.1.32,1.35,0,.12-.06.17-.2.21-1.16.27-2.78.5-3.66.5h-.21ZM45.43,205.87c-1.02,0-1.63.34-1.63.92,0,.53.51.79,1.46.79,1.15,0,1.66-.41,1.66-1.35v-.12c-.49-.18-.92-.24-1.48-.24Z"/>
        <path d="M64.97,197.74c0,.14-.06.18-.32.33-.1.06-.24.18-.38.34-.93,1.08-2.26,2.54-3.45,3.74-.25.25-.36.45-.36.63,0,.17.12.34.41.6.88.81,2.32,2.28,3.39,3.5.75.84.94,1.11.94,1.26,0,.17-.25.42-.87.9-.29.22-.47.33-.56.33-.13,0-.19-.06-.34-.3-.64-1.02-2.22-2.92-3.42-4.14-.67-.67-.81-.82-1.02-1.12-.25-.36-.36-.66-.36-1,0-.3.09-.61.27-.92q.17-.27,1.08-1.24c.87-.9,1.8-2.04,2.38-2.88.39-.56.58-.92.78-1.42,1.17.64,1.82,1.14,1.82,1.41Z"/>
        <path d="M74.35,201.01c-1.07-.21-1.88-.53-2.43-.92-.27-.18-.33-.25-.33-.39,0-.17.12-.46.54-1.3.73.46,1.56.79,2.5.99.21-1.05.3-1.92.31-2.9.77.14,1.44.36,1.82.57.17.09.22.18.21.3,0,.06-.03.12-.11.27-.22.46-.24.51-.55,1.98.15.02.34.02.46.02h.11c.36-.02.63-.02.76-.02h.04c.13,0,.18.06.18.25,0,.66-.04,1.2-.1,1.31-.04.07-.24.1-.87.1-.29,0-.51-.01-.93-.03q-.32,1.54-.45,2.36c.51.04.62.04.87.04h.84c.15-.01.22.01.27.09.06.09.11.57.11,1.11,0,.27-.02.34-.11.39-.07.03-.4.04-.97.04-.27,0-.67-.01-1.2-.04-.01.27-.01.45-.01.57,0,1.38.64,2.01,2.05,2.01,1.58,0,2.52-.77,2.52-2.05,0-.47-.1-.89-.34-1.35-.3-.57-.58-.9-1.3-1.47h.13c.24,0,.75-.08,1.2-.17.24-.04.33-.06.41-.06.22,0,.38.1.67.48.69.84,1.04,1.72,1.04,2.66,0,2.11-1.71,3.51-4.31,3.51-2.43,0-3.64-1.21-3.64-3.67,0-.21,0-.38.03-.63-1.49-.32-2.29-1.05-2.29-2.12,0-.55.17-.96.58-1.38.04-.06.1-.08.17-.08.09,0,.19.08.54.36.27.22.31.27.31.34q0,.06-.09.2c-.06.1-.12.27-.12.36,0,.2.12.36.35.46.21.11.27.12.75.23l.39-2.43Z"/>
        <path d="M89.39,200.37c.97-.25,1.62-.34,2.33-.34,2.13,0,3.36,1.26,3.36,3.42,0,1.88-.81,3.39-2.45,4.59-.87.64-2.19,1.29-2.62,1.29-.2,0-.24-.04-.56-.5-.22-.34-.45-.55-.82-.83,1.72-.58,2.44-.96,3.22-1.63.9-.79,1.35-1.75,1.35-2.89,0-1.22-.57-1.91-1.58-1.91-.81,0-1.86.31-3.22.97-.2.09-.3.17-.55.35-.06.03-.12.06-.18.06-.29,0-.77-.84-1.1-1.96.56-.04.84-.12,2.82-.62ZM90.4,196.71c.54.17,1.35.32,2.08.41.3.03.41.04,1.17.08.22,0,.29.06.29.22,0,.5-.11,1.31-.2,1.46-.03.09-.1.12-.21.12-.34,0-1.56-.17-2.26-.31-1.19-.24-2.22-.54-2.43-.71-.05-.04-.08-.11-.08-.17,0-.12.31-.93.46-1.21.08-.12.12-.15.21-.15q.08,0,.96.27Z"/>
        <path d="M101,197.22v-.21c.94.17,1.42.3,1.81.5.11.04.13.1.13.21,0,.06-.03.13-.09.24-.13.24-.18.42-.41,1.41-.28,1.29-.43,2.73-.43,4.3,0,.84.03,1.31.12,2.1l.79-1.61c.09.32.21.57.39.78.12.15.13.19.13.31s0,.12-.28.75c-.32.67-.5,1.26-.66,2.03-.04.24-.09.31-.17.34-.12.06-.63.13-.93.13-.21,0-.29-.04-.33-.18-.36-1.02-.66-3.12-.66-4.62,0-1.29.17-3.07.43-4.95.09-.62.14-1.07.14-1.38v-.17ZM106.12,201.46c-.84,0-1.08-.03-1.16-.13-.1-.13-.19-.75-.19-1.3v-.22c.6.06,1.08.09,1.84.09.58,0,.92-.02,1.51-.06-.04-1.56-.13-2.49-.31-2.97h.4c.53,0,1.17.04,1.5.12.15.03.23.12.23.24,0,.06-.02.12-.04.22-.08.21-.12.54-.12.93,0,.23.01.93.01,1.11v.15c.75-.12,1.11-.2,1.74-.41.06-.01.12-.03.18-.03.09,0,.13.04.17.13.06.17.12.75.12,1.08,0,.24-.04.35-.17.39-.2.07-1.11.25-2,.38.02.42.02.64.02.88,0,2.21-.27,3.78-.87,4.96-.54,1.06-1.71,2.31-2.19,2.31-.13,0-.19-.03-.36-.18-.5-.44-.58-.51-1.17-.78,1.05-.58,1.72-1.21,2.19-2.07.5-.91.76-2.17.76-3.55,0-.1,0-.36-.01-.72-.01-.15-.01-.38-.03-.67-.54.04-1.75.1-2.05.1Z"/>
        <path d="M116.18,200.38c-.39.09-.53.13-1.07.33-.19.08-.3.11-.39.11-.33,0-.63-.62-.9-1.91.96-.04,1.31-.09,2.97-.34,1.8-.27,4.08-.62,5.28-.76,1.35-.18,2.43-.36,3-.48.1-.03.15-.03.22-.03.2,0,.27.09.41.46.12.31.21.76.21.97,0,.18-.06.24-.27.24-.32,0-.6.03-.89.08-2.53.42-4.56,2.64-4.56,4.98,0,1.75,1.38,2.91,3.72,3.12.21.01.29.09.29.27,0,.38-.15,1.09-.29,1.42-.08.17-.19.24-.39.24s-.65-.09-1.11-.22c-2.55-.75-3.88-2.37-3.88-4.67,0-1.25.41-2.4,1.19-3.39.42-.54.78-.84,1.63-1.43-1.96.33-4.04.72-5.17,1.01Z"/>
        <path d="M129.01,199.44c0-.44-.02-1.02-.04-1.35.69.07,1.2.18,1.6.33.36.14.48.23.48.39q0,.09-.06.24c-.2.51-.25,1.08-.25,2.44,0,1.92.12,3.12.42,4.04.22.71.57,1.11.97,1.11.62,0,1.12-.72,1.68-2.38.28.77.39.99.81,1.53.08.1.12.21.12.31,0,.24-.22.75-.53,1.19-.58.85-1.33,1.32-2.13,1.32-1.15,0-2.02-.93-2.56-2.77-.34-1.2-.51-2.71-.51-4.81v-1.58ZM137.93,199.68c.09,0,.17.04.29.15.75.72,1.53,1.92,2.03,3.09.33.79.64,1.86.64,2.17,0,.15-.08.23-.39.39-.34.18-1.05.42-1.23.42-.13,0-.19-.08-.24-.34-.2-1.16-.46-2-.93-2.97-.42-.87-.45-.92-1.47-2.17.63-.46,1.12-.73,1.3-.73Z"/>
        <path d="M150.62,201.54c2.12,0,3.62,1.44,3.62,3.48,0,1.39-.74,2.65-1.96,3.39-.86.51-1.91.76-3.09.76-1.91,0-3.02-.76-3.02-2.07,0-1.19.99-2.03,2.4-2.03,1.27,0,2.19.64,2.8,1.96.76-.55,1.08-1.14,1.08-1.95,0-1.29-.92-2.13-2.36-2.13s-3.04.74-4.35,2.04c-.24.24-.46.5-.73.84-.11.15-.18.21-.27.21-.27,0-1.33-1.05-1.33-1.32,0-.13.06-.21.39-.45.34-.27.84-.71,1.47-1.3,1.46-1.38,2.52-2.54,4.09-4.46-1.88.24-3.13.45-3.6.62-.08.01-.12.03-.17.03-.12,0-.2-.07-.29-.3-.18-.45-.27-.94-.32-1.6.41.06.69.08,1.02.08.72,0,1.93-.11,3.51-.29.55-.06.73-.11,1.16-.27.13-.06.21-.08.3-.08.21,0,.42.18.81.78.29.39.38.58.38.71,0,.2-.04.25-.38.46-.27.17-.43.3-.78.63-.75.72-.76.72-1.69,1.67-.66.67-.74.75-1.33,1.35.97-.54,1.74-.77,2.64-.77ZM149.18,206.73c-.23-.15-.48-.23-.77-.23-.46,0-.76.23-.76.58,0,.44.46.71,1.18.71.33,0,.62-.03.99-.13-.18-.5-.33-.72-.64-.93Z"/>
        <path d="M158.57,201.84c-.12.03-.18.06-.27.11-.08.04-.12.06-.2.06-.32,0-.55-.58-.74-1.69.12.01.23.01.29.01.63,0,2.24-.2,3.2-.39.31-1.32.48-2.31.48-3.03,0-.06,0-.13-.01-.25.64.08,1.26.21,1.68.38.24.09.36.22.36.38,0,.08-.02.12-.09.24q-.23.4-.69,2.05c.36-.04.76-.08,1.02-.08.62,0,1.1.12,1.44.36.6.43.9,1.32.9,2.68,0,2.24-.41,4.14-1.1,5.08-.48.66-1.11.97-1.99.97-.54,0-1.05-.07-1.2-.17q-.12-.07-.17-.63c-.04-.4-.13-.75-.32-1.17.78.25.98.3,1.46.3.72,0,1.02-.34,1.35-1.54.23-.79.35-1.83.35-2.92,0-1.17-.29-1.59-1.08-1.59-.27,0-.71.03-1.05.09-.04.17-.06.18-.12.39-.42,1.53-1.19,3.55-1.95,5.17-.79,1.63-.99,1.96-1.18,1.96-.12,0-.53-.21-.96-.5-.35-.21-.44-.3-.44-.42q0-.08.62-1.05c.83-1.28,1.91-3.78,2.28-5.25-1.11.24-1.73.39-1.86.43ZM166.22,200.16c0-.1.14-.24.57-.58.3-.22.45-.31.55-.31.09,0,.17.04.36.24.88.86,1.71,2,2.19,2.99.15.33.24.54.24.63,0,.15-.04.2-.52.58-.3.24-.65.43-.77.43-.1,0-.15-.04-.25-.3-.3-.73-.58-1.3-.94-1.86-.39-.6-.47-.69-1.35-1.64-.06-.09-.08-.13-.08-.18Z"/>
        <path d="M171.34,200.43c.77-.39,1.07-.75,1.16-1.43-.13.03-.25.05-.3.05-.6,0-1.07-.48-1.07-1.1,0-.66.47-1.12,1.11-1.12.79,0,1.26.57,1.26,1.54,0,1.29-.46,2.12-1.56,2.71l-.6-.66ZM174.23,200.43c.76-.39,1.06-.75,1.16-1.43-.14.03-.26.05-.3.05-.6,0-1.06-.48-1.06-1.1,0-.66.46-1.12,1.11-1.12.79,0,1.26.57,1.26,1.54,0,1.29-.47,2.12-1.56,2.71l-.6-.66Z"/>
        <path d="M191.35,204.88c-1.48.87-1.91,1.31-1.91,1.96,0,.27.11.45.33.58.33.2,1.07.3,2.01.3.81,0,1.93-.08,2.7-.18.32-.04.5-.09,1.09-.24h.08c.11,0,.18.07.23.18.09.31.15.76.15,1.3,0,.23-.08.32-.27.36-.36.08-2.03.17-3.12.17-1.83,0-2.8-.12-3.52-.42-.87-.36-1.31-1.04-1.31-1.98,0-.87.41-1.63,1.21-2.28.65-.51.79-.62,2.17-1.4-.12-.5-.34-.71-.81-.71-.62,0-1.26.24-1.96.71-.43.3-.95.72-1.26,1.04-.45.46-.5.5-.62.5-.15,0-.46-.34-.78-.87-.15-.25-.24-.45-.24-.55,0-.14.03-.17.39-.39,1.23-.82,2.25-1.88,2.87-2.95-1.07.07-1.62.09-2.21.09-.23,0-.27-.04-.34-.3-.05-.2-.12-.99-.14-1.4.51.08.81.09,1.53.09.58,0,1.23-.01,1.91-.04.31-.85.42-1.39.43-2.1,1.33.22,1.95.45,1.95.71,0,.06-.02.09-.06.18-.1.2-.22.43-.42.9q-.03.06-.04.1c.86-.12,1.61-.27,2.13-.39.33-.09.41-.11.48-.11.12,0,.18.04.21.14.06.27.15.96.15,1.17,0,.17-.06.24-.25.28-.48.14-2.13.39-3.51.53-.45.83-.76,1.3-1.23,1.81.67-.31,1.18-.43,1.78-.43.68,0,1.12.39,1.43,1.23,1.48-.81,2.28-1.24,2.37-1.3.69-.4.98-.63,1.31-1,.61.63,1.27,1.58,1.27,1.83,0,.09-.06.15-.25.2-.74.19-2.1.78-4.38,1.89.01.27.04.96.04,1.44v.72c0,.18-.03.27-.1.31-.08.08-.48.12-.93.12-.51,0-.6-.04-.6-.29v-.06c.03-.44.04-1,.04-1.37v-.08Z"/>
        <path d="M202.7,205.29c-.67,0-1.2.01-1.56.04.04-.42.08-.88.08-1.53v-5.25c0-.78-.03-1.42-.08-1.79.42.04.87.06,1.52.06h6.64c.63,0,1.09-.01,1.51-.06-.04.31-.08.97-.08,1.79v5.25c0,.72.02,1.11.08,1.53-.38-.03-.96-.04-1.53-.04h-1.24v2.22c0,.41.12.45,1.29.45,1.08,0,1.36-.06,1.53-.3.15-.21.23-.78.25-1.84.6.31.96.46,1.5.6-.15,1.6-.29,2.14-.66,2.49-.4.36-1.02.48-2.62.48-2.42,0-2.85-.2-2.85-1.27v-2.82h-1.29c-.17,1.09-.63,2-1.36,2.67-.92.84-2,1.37-3.65,1.74-.24-.6-.42-.9-.84-1.42,1.37-.24,2.12-.5,2.82-.96.76-.5,1.18-1.12,1.36-2.03h-.82ZM202.73,199.21h6.5v-.95h-6.5v.95ZM202.73,201.51h6.5v-.94h-6.5v.94ZM202.73,203.89h6.5v-1.04h-6.5v1.04Z"/>
        <path d="M221.98,201.54c2.12,0,3.62,1.44,3.62,3.48,0,1.39-.74,2.65-1.96,3.39-.86.51-1.91.76-3.09.76-1.91,0-3.02-.76-3.02-2.07,0-1.19.99-2.03,2.4-2.03,1.27,0,2.19.64,2.8,1.96.76-.55,1.08-1.14,1.08-1.95,0-1.29-.92-2.13-2.36-2.13s-3.04.74-4.35,2.04c-.24.24-.46.5-.73.84-.11.15-.18.21-.27.21-.27,0-1.33-1.05-1.33-1.32,0-.13.06-.21.39-.45.34-.27.84-.71,1.47-1.3,1.46-1.38,2.52-2.54,4.09-4.46-1.88.24-3.13.45-3.6.62-.08.01-.12.03-.17.03-.12,0-.2-.07-.29-.3-.18-.45-.27-.94-.32-1.6.41.06.69.08,1.02.08.72,0,1.93-.11,3.51-.29.55-.06.73-.11,1.16-.27.13-.06.21-.08.3-.08.21,0,.42.18.81.78.29.39.38.58.38.71,0,.2-.04.25-.38.46-.27.17-.43.3-.78.63-.75.72-.76.72-1.69,1.67-.66.67-.74.75-1.33,1.35.97-.54,1.74-.77,2.64-.77ZM220.54,206.73c-.23-.15-.48-.23-.77-.23-.46,0-.76.23-.76.58,0,.44.46.71,1.18.71.33,0,.62-.03.99-.13-.18-.5-.33-.72-.64-.93Z"/>
        <path d="M230.29,197.7c0-.63-.03-1-.09-1.47h1.72c-.08.43-.09.83-.09,1.46v1.21h.31c.39,0,.72-.01,1.12-.06v1.54c-.43-.05-.73-.06-1.12-.06h-.31v2.26c.54-.13.76-.21,1.47-.42v1.38q-1,.35-1.47.51v4.02c0,.63-.23,1.04-.66,1.18-.29.11-.72.15-1.41.15-.27,0-.5-.01-1.04-.04-.06-.66-.13-.96-.34-1.54.65.09,1.05.13,1.47.13.35,0,.44-.08.44-.39v-3.06c-.17.04-.57.15-1.2.32-.27.06-.32.08-.54.15l-.27-1.65c.51-.03,1.02-.12,2.01-.34v-2.66h-.75c-.39,0-.69.01-1.11.06v-1.56c.36.04.71.08,1.11.08h.75v-1.2ZM235.33,197.82c2.06-.3,3.89-.83,4.65-1.35l1.14,1.32q-1.81.56-2.67.75c-1.15.27-1.59.35-3.12.56v.71c0,.46.23.54,1.77.54,1.96,0,2.37-.04,2.58-.27.18-.21.25-.53.29-1.38.55.22.99.36,1.5.45-.09.93-.18,1.33-.38,1.68-.43.76-.97.9-3.84.9s-3.46-.23-3.46-1.37v-2.75c0-.6-.01-.96-.07-1.37h1.69c-.06.36-.08.72-.08,1.28v.3ZM233.81,203.71c0-.6-.01-.9-.04-1.21.33.04.67.06,1.29.06h4.3c.67,0,1.04-.02,1.33-.06-.04.3-.06.65-.06,1.25v4.27c0,.81.01,1.11.07,1.47h-1.62v-.65h-3.78v.66h-1.58c.06-.39.08-.72.08-1.42v-4.37ZM235.31,205.03h3.78v-1.16h-3.78v1.16ZM235.31,207.49h3.78v-1.19h-3.78v1.19Z"/>
        <path d="M15.44,226.5c.24.72.79,1.65,1.4,2.33-.27.45-.41.72-.63,1.29-.38-.6-.53-.92-.87-1.75.03.97.04,1.37.04,1.95v3.78c0,.76.03,1.32.08,1.77h-1.63c.07-.47.1-1.05.1-1.77v-2.85q0-.45.04-1.04c0-.06,0-.21.01-.45.02-.1.02-.27.03-.48-.38,1.44-.81,2.55-1.25,3.19-.22-.69-.42-1.12-.72-1.59.48-.69.83-1.41,1.17-2.47.23-.65.45-1.49.54-1.91h-.42c-.43,0-.74.02-.96.06v-1.49c.24.04.5.06.96.06h.57v-1.16c0-.74-.03-1.14-.09-1.5h1.63c-.06.39-.08.78-.08,1.49v1.17h.27c.38,0,.58-.02.86-.06v1.47c-.27-.03-.51-.04-.83-.04h-.24ZM19.27,232.78c-.75,1.23-1.28,1.83-2.37,2.71-.51-.54-.67-.66-1.15-.99.61-.38.9-.6,1.32-1.04.41-.42.58-.67.93-1.26l1.28.57ZM21.64,234.52c0,.46-.12.76-.38.93-.23.17-.63.22-1.38.22-.23,0-.41,0-1-.01-.03-.54-.12-.96-.29-1.44.38.06.73.11,1.02.11.46,0,.54-.03.54-.3v-1.91h-2.22c-.66,0-1.09.01-1.51.08v-1.42c.42.06.81.08,1.5.08h6.13c.64,0,1.08-.02,1.48-.06v1.41c-.43-.06-.83-.08-1.47-.08h-2.43v2.4ZM23.78,225.03c.53,0,.93-.01,1.33-.06-.04.28-.06.52-.06,1v1.33c0,.51.01.78.06,1.09-.45-.03-.76-.04-1.38-.04h-5.5c-.57,0-.94.01-1.37.04.05-.32.06-.62.06-1.04v-1.39c0-.41-.01-.72-.06-1,.33.04.77.06,1.32.06h1.05v-.69h-1.17c-.71,0-1.21.03-1.63.07v-1.47c.43.06.96.09,1.63.09h5.78c.67,0,1.26-.03,1.69-.09v1.47c-.39-.04-.93-.07-1.59-.07h-1.27v.69h1.11ZM17.2,228.87c.45.06.78.08,1.46.08h4.61c.64,0,1.02-.01,1.47-.06v1.38c-.42-.05-.74-.06-1.37-.06h-4.72c-.65,0-1.07.01-1.44.06v-1.4ZM18.17,226.18v1h1.06v-1h-1.06ZM21.47,224.34h-1.04v.69h1.04v-.69ZM20.44,227.19h1.04v-1h-1.04v1ZM23.42,232.21c.66.86,1.29,1.37,2.43,2.01-.36.33-.65.68-.99,1.2-1.09-.71-1.77-1.37-2.55-2.5l1.11-.71ZM22.67,227.19h1.03v-1h-1.03v1Z"/>
        <path d="M32.63,232.14c-.72,1.25-1.71,1.94-2.73,1.94-1.56,0-2.67-1.53-2.67-3.66,0-2.37,1.2-4.41,3.25-5.49,1-.54,2.08-.78,3.51-.78,3.14,0,5.46,2.22,5.46,5.19,0,2.62-1.29,4.51-3.78,5.58-.5.21-.89.33-1.08.33-.18,0-.25-.06-.45-.34-.25-.39-.54-.68-.95-.95,3.09-.79,4.49-2.25,4.49-4.68,0-1.25-.53-2.29-1.46-2.96-.53-.36-.95-.51-1.77-.64-.42,3.16-.92,4.89-1.83,6.46ZM30.47,226.83c-1,.88-1.58,2.15-1.58,3.55,0,1.16.38,1.83,1,1.83.75,0,1.52-1.04,2.08-2.82.36-1.12.54-1.98.77-3.65-1.07.23-1.59.48-2.28,1.08Z"/>
        <path d="M48.38,232.86c1.23,0,2.59-.18,3.94-.53.08-.03.12-.03.17-.03.09,0,.13.06.17.2.04.33.08.81.08,1.3,0,.3-.03.39-.17.45-.45.24-2.47.46-4.21.46-2.26,0-3.55-.38-4.59-1.35-.5-.46-.99-1.28-.99-1.61,0-.22.13-.31,1.37-1.02.54,1.49,1.79,2.12,4.25,2.12ZM48.52,224.23c.87,0,1.38-.03,2.4-.18h.11c.12,0,.17.04.2.13.03.18.06.63.06,1.17,0,.34-.03.46-.12.53-.12.07-1.42.17-2.43.17-1.33,0-2.45-.11-3.69-.35-.85-.17-.9-.21-.9-.73,0-.35.03-.92.08-1.33,1.3.4,2.73.6,4.3.6Z"/>
        <path d="M60.25,227.53c-.19-.66-.25-1.06-.43-2.91-.06-.72-.12-1.08-.27-1.59.91.02,1.5.06,1.9.17.23.06.33.17.33.33,0,.06-.01.13-.04.25-.1.36-.15.63-.15,1.02,0,.73.15,1.93.32,2.46.09.28.18.39.34.39.36,0,1.68-.69,2.4-1.25.19-.15.22-.17.3-.17.13,0,.27.11.5.39.38.51.67,1.06.67,1.27,0,.17-.11.27-.36.34-.93.25-2.46.86-3.49,1.35-1.83.9-2.66,1.72-2.66,2.65s.76,1.29,2.7,1.29c1.12,0,2.14-.1,3.52-.33.06-.01.17-.03.2-.03.12,0,.19.06.25.18.04.15.15,1.06.15,1.42,0,.21-.06.29-.26.34-.33.08-2.14.18-3.28.18-1.92,0-3.2-.25-3.99-.79-.67-.47-1.04-1.2-1.04-2.1,0-.69.2-1.3.6-1.9.52-.78,1.09-1.28,2.35-2.03-.31-.29-.43-.5-.57-.96Z"/>
        <path d="M71.95,226.96c-.27.02-.43.03-.61.05-.14.01-.15.01-.17.01-.12,0-.18-.04-.23-.2-.08-.24-.18-1.04-.19-1.48.17.01.6.03,1.14.03.17,0,1.35-.07,1.88-.12.25-1.21.34-1.84.34-2.65,1.54.21,2.1.39,2.1.67,0,.11-.01.13-.24.48-.12.18-.17.34-.42,1.27.7-.12,1.12-.22,1.68-.41.1-.03.15-.04.22-.04.11,0,.13.08.23.51.07.38.12.69.12.85,0,.18-.04.21-.43.3-.51.12-1.38.27-2.31.39-.56,1.68-.93,2.58-1.62,3.99-.53,1.05-.83,1.61-1.23,2.24-.12.18-.19.24-.3.24-.15,0-.57-.22-1.09-.61-.24-.17-.3-.24-.3-.35s.06-.19.25-.46c.43-.54,1-1.47,1.5-2.46.42-.82.57-1.17,1-2.35-.58.04-.63.06-1.32.1ZM76.88,235.6c-1.64,0-2.75-.9-2.75-2.23s1.15-2.42,2.7-2.42c.36,0,.53.01,1.14.11-.06-.72-.06-1.01-.12-2.4,0-.29-.03-.67-.06-1.16.77.08,1.35.17,1.64.29.12.04.18.12.18.24,0,.08-.01.13-.03.24-.08.31-.09.54-.09.94,0,.56.04,1.5.09,2.24,1.07.48,1.5.72,2.25,1.3.33.25.45.39.45.51,0,.15-.08.29-.5.96-.18.3-.31.44-.42.44q-.09,0-.51-.39c-.33-.33-.71-.58-1.23-.9,0,1.39-1.02,2.23-2.74,2.23ZM76.85,232.39c-.72,0-1.21.34-1.21.87,0,.5.45.81,1.12.81.79,0,1.21-.41,1.21-1.2,0-.12,0-.24-.02-.24-.3-.15-.7-.24-1.11-.24ZM82.46,228.13c-.18.26-.27.33-.38.33-.08,0-.13-.03-.24-.13-.38-.36-.9-.75-1.46-1.09q-.36-.22-1.02-.53c-.21-.09-.29-.15-.29-.27,0-.11.08-.24.3-.58.36-.53.45-.62.58-.62.28,0,1.39.57,2.19,1.11.65.43.84.61.84.78,0,.12-.24.57-.54,1Z"/>
        <path d="M90.47,232.14c-.72,1.25-1.71,1.94-2.73,1.94-1.56,0-2.67-1.53-2.67-3.66,0-2.37,1.2-4.41,3.25-5.49,1-.54,2.08-.78,3.51-.78,3.14,0,5.46,2.22,5.46,5.19,0,2.62-1.29,4.51-3.78,5.58-.5.21-.89.33-1.08.33-.18,0-.25-.06-.45-.34-.25-.39-.54-.68-.95-.95,3.09-.79,4.49-2.25,4.49-4.68,0-1.25-.53-2.29-1.46-2.96-.53-.36-.95-.51-1.77-.64-.42,3.16-.92,4.89-1.83,6.46ZM88.31,226.83c-1,.88-1.58,2.15-1.58,3.55,0,1.16.38,1.83,1,1.83.75,0,1.52-1.04,2.08-2.82.36-1.12.54-1.98.77-3.65-1.07.23-1.59.48-2.28,1.08Z"/>
        <path d="M106.21,227.8c.03,1.12.06,1.71.21,3.21,1.26.41,1.86.66,2.75,1.14,1.18.67,1.79,1.12,1.79,1.33,0,.18-.2.52-.54,1.02-.22.33-.39.48-.51.48-.08,0-.14-.03-.24-.14-1.07-1.02-1.92-1.57-3.18-2.08-.03.91-.2,1.39-.63,1.84-.53.52-1.44.81-2.62.81-1.96,0-3.17-.87-3.17-2.29,0-1.51,1.32-2.47,3.38-2.47.5,0,.93.03,1.3.08-.15-2.46-.2-3.65-.21-5.85-.01-.87-.04-1.39-.13-2.1.69.02,1.38.09,1.79.2.24.08.33.15.33.31,0,.08-.01.12-.06.24-.17.39-.22.96-.25,2.62q.12,0,.58-.03c.72-.04,1.74-.22,2.88-.54.04-.01.08-.01.12-.01.09,0,.12.03.18.18.15.36.32,1.1.32,1.35,0,.12-.06.17-.2.21-1.16.27-2.78.5-3.66.5h-.21ZM103.27,232.12c-1.02,0-1.63.34-1.63.92,0,.53.51.79,1.46.79,1.15,0,1.66-.41,1.66-1.35v-.12c-.49-.18-.92-.24-1.48-.24Z"/>
        <path d="M118.33,233.46c0,1.41-1.14,2.55-2.54,2.55s-2.53-1.14-2.53-2.55,1.14-2.54,2.53-2.54,2.54,1.14,2.54,2.54ZM114.43,233.46c0,.76.61,1.38,1.36,1.38s1.37-.62,1.37-1.38-.62-1.37-1.37-1.37-1.36.62-1.36,1.37Z"/>
      </g>
      <g>
        <path class="cls-7" d="M41.33,73.44c5.99-4.82,10.66-4.4,11.63-2.77.89,1.5-.2,9.39-9.12,4.98"/>
        <path class="cls-4" d="M45.57,76.02c2.15-3.7,6.52-2.97,7.65-2.44-1.95,3.62-3.96,4.96-7.65,2.44Z"/>
        <path class="cls-1" d="M48.57,77.59c-1.31,0-2.95-.38-4.99-1.39-.3-.15-.43-.52-.28-.82.15-.3.52-.42.82-.28,3.32,1.64,5.84,1.68,7.3.12,1.3-1.4,1.35-3.69,1.02-4.24-.21-.35-.72-.62-1.4-.75-.91-.17-4.28-.39-9.33,3.68-.26.21-.65.17-.86-.09-.21-.26-.17-.65.09-.86,3.68-2.96,7.54-4.43,10.31-3.93,1.04.19,1.83.66,2.23,1.32.64,1.09.43,3.95-1.18,5.69-.75.81-1.93,1.54-3.74,1.54Z"/>
        <path class="cls-7" d="M46.82,87.67c1.64-16.83-17.12-22.81-25.65-13.47-2.98,3.26-5.19,9.03-4.06,15.78-3.29,3.25-2.73,7.92,2.42,10.47,3.1,1.53,6.2,2.2,13.34,2.2,6.63,0,14.3-2.8,16.45-6.94,1.2-2.31.78-5.73-2.5-8.03Z"/>
        <path class="cls-2" d="M36.59,70.03c-.6-4.19-4.15-6.53-4.34-.47"/>
        <path class="cls-2" d="M24.9,71.1c-.51-4.21,2.31-7.38,4.07-1.58"/>
        <path class="cls-7" d="M20.44,74.16c-6.66-3.83-11.22-2.69-11.92-.92-.65,1.62,2.36,9.82,10.47,4.08"/>
        <path class="cls-4" d="M17.17,77.97c-2.15-3.7-7.04-2.78-8.16-2.25,1.95,3.62,4.48,4.77,8.16,2.25Z"/>
        <path class="cls-4" d="M30.01,69.55c1.23,7.47-2.33,14.46-12.54,14.46,0-11.43,12.54-14.46,12.54-14.46Z"/>
        <path class="cls-4" d="M32.25,69.56c0,8.41,6.81,12.73,13.85,13.26,0-11.43-13.85-13.26-13.85-13.26Z"/>
        <path class="cls-4" d="M16.02,96.44c13.82-6.39,25.47-3.61,33.3-.74-3.13,7.58-29.27,10.16-33.3.74Z"/>
        <path class="cls-1" d="M32.87,103.25c-7.6,0-10.65-.79-13.61-2.26-2.69-1.33-4.37-3.31-4.74-5.59-.32-1.98.37-3.97,1.94-5.63-1.1-7.14,1.47-12.92,4.26-15.98,4.25-4.65,11.26-5.93,17.43-3.18,3.01,1.34,5.47,3.51,7.11,6.28,1.79,3.02,2.53,6.55,2.2,10.5,3.38,2.57,3.64,6.23,2.4,8.6-2.36,4.55-10.5,7.26-17,7.26ZM31.49,70.39c-3.76,0-7.35,1.46-9.87,4.22-2.64,2.89-5.06,8.42-3.91,15.27.03.2-.03.39-.17.53-1.44,1.42-2.08,3.13-1.81,4.8.3,1.88,1.75,3.55,4.07,4.69,2.8,1.38,5.72,2.13,13.07,2.13,6.88,0,14.02-2.96,15.91-6.61,1.03-1.99.75-5.1-2.31-7.25-.18-.13-.28-.34-.26-.56.71-7.25-2.5-13.19-8.57-15.9-2.01-.89-4.11-1.33-6.16-1.33Z"/>
        <path class="cls-1" d="M13.79,79.95c-1.46,0-2.58-.54-3.4-1.18-2.09-1.64-2.9-4.58-2.44-5.76.29-.72.99-1.31,1.99-1.65,2.66-.93,6.7-.08,10.8,2.27.29.17.39.54.23.83-.17.29-.54.39-.83.23-5.62-3.23-8.91-2.49-9.79-2.18-.65.23-1.11.57-1.26.95-.21.53.31,2.97,2.06,4.35,1.89,1.49,4.48,1.14,7.5-.99.27-.19.65-.13.85.15.19.27.13.66-.15.85-2.23,1.58-4.07,2.14-5.56,2.14Z"/>
        <path class="cls-1" d="M36.59,70.64c-.3,0-.56-.22-.6-.52-.32-2.23-1.49-3.66-2.13-3.63-.31.02-.93.69-1,3.09-.01.34-.3.6-.63.59-.34-.01-.6-.29-.59-.63.11-3.62,1.4-4.23,2.15-4.27.03,0,.06,0,.09,0,1.46,0,2.94,2.06,3.31,4.67.05.33-.18.64-.52.69-.03,0-.06,0-.09,0Z"/>
        <path class="cls-1" d="M24.9,71.71c-.3,0-.57-.23-.6-.54-.32-2.67.61-5.08,2.07-5.39.74-.15,2.14.1,3.19,3.56.1.32-.08.66-.41.76-.32.1-.66-.08-.76-.41-.7-2.3-1.46-2.79-1.77-2.72-.62.13-1.38,1.81-1.11,4.05.04.33-.2.64-.53.68-.02,0-.05,0-.07,0Z"/>
        <path class="cls-1" d="M37.83,81.55c-.65-1.09-1.64-1.26-2.42-.7-.18.13-.11.42.12.44.71.07,1.33.3,1.99.61.22.1.44-.14.31-.35Z"/>
        <path class="cls-1" d="M26.87,81.75c.65-1.09,1.64-1.26,2.42-.7.18.13.11.42-.12.44-.71.07-1.33.3-1.99.61-.22.1-.44-.14-.31-.35Z"/>
        <circle class="cls-1" cx="33.72" cy="95.56" r=".57"/>
        <circle class="cls-1" cx="31.93" cy="95.56" r=".57"/>
        <path class="cls-1" d="M32.04,99.76c-.58,0-1.17-.13-1.74-.4-1.05-.5-1.76-1.38-1.96-2.34l-.5.2c-.32.13-.68-.02-.8-.34-.13-.32.02-.68.34-.8l1.32-.53c.21-.08.44-.05.62.09.17.14.26.36.22.59-.16.89.54,1.66,1.3,2.02.9.43,2.24.48,3.27-.69.23-.26.62-.28.87-.05.26.23.28.62.05.87-.81.91-1.88,1.39-2.99,1.39Z"/>
        <ellipse class="cls-1" cx="36.5" cy="90.1" rx="1.44" ry="1.56" transform="translate(-13.57 6.78) rotate(-8.95)"/>
        <ellipse class="cls-1" cx="28.84" cy="90.46" rx="1.56" ry="1.44" transform="translate(-62.96 114.68) rotate(-87.1)"/>
      </g>
      <g>
        <path class="cls-6" d="M320.06,250.21l2.44-1.25,1.46-4.73.45-7.2-1.46-6.87-4.68-6.99-5.39-2.36-6.79-.22-6.1,3.81-4.7,6.93-3.53,4.99-1.3,4.93,1.86,3.93,6.11,3.68c3.93,2.14,16.2,3.55,21.64,1.34Z"/>
        <path class="cls-12" d="M291.24,237.87c4.13.27,6.52,4.64,4.99,9.32-4.03-2.19-6.28-4.42-4.99-9.32Z"/>
        <path class="cls-1" d="M326.06,226.97c1.96.16,1.33,2.31.37,3.56-.2.26-.59.3-.84.08-1.7-1.45-1.1-3.77.47-3.64Z"/>
        <path class="cls-1" d="M325.95,227.81c-.33,0-.6-.27-.6-.6v-3.87l-.98-1.36c-.19-.27-.13-.64.14-.83.27-.19.64-.13.83.14l1.09,1.52c.07.1.11.22.11.35v4.07c0,.33-.27.6-.6.6Z"/>
        <ellipse class="cls-1" cx="302.22" cy="236.78" rx="1.67" ry="1.55" transform="translate(21.31 498.49) rotate(-81.05)"/>
        <ellipse class="cls-1" cx="311.72" cy="238.45" rx="1.55" ry="1.67" transform="translate(-11.65 16.06) rotate(-2.9)"/>
        <path class="cls-1" d="M301.38,236.23c-.06,0-.13-.02-.19-.06-.7-.55-1.05-1.12-1.32-2.09-.04-.16.05-.32.21-.37.16-.04.32.05.37.21.26.96.59,1.37,1.11,1.78.13.1.15.29.05.42-.06.07-.15.11-.23.11Z"/>
        <path class="cls-1" d="M301.2,236.78c-.74,0-1.53-.42-2.16-1.16-.11-.13-.09-.31.03-.42.13-.11.31-.09.42.03.55.65,1.26,1.01,1.85.95.16-.02.31.1.33.26.02.16-.1.31-.26.33-.07,0-.14.01-.21.01Z"/>
        <path class="cls-1" d="M312.81,238.02c-.15,0-.27-.11-.3-.26-.02-.16.09-.31.26-.34.49-.07,1.22-.49,1.67-1.25.08-.14.27-.19.41-.1.14.08.19.27.1.41-.48.82-1.33,1.44-2.11,1.54-.01,0-.03,0-.04,0Z"/>
        <path class="cls-1" d="M313.79,239.17c-.34,0-.7-.06-1.04-.22-.15-.07-.22-.25-.15-.4.07-.15.25-.22.4-.15.77.35,1.64.08,2.24-.22.15-.07.33-.01.4.14.07.15.01.33-.14.4-.46.23-1.07.45-1.71.45Z"/>
        <polygon class="cls-5" points="322.32 216.7 316.32 216.14 318.99 221.53 325.1 222.18 322.32 216.7"/>
        <polygon class="cls-5" points="320.71 224.76 315.44 220.74 317.34 218.01 322.45 222.07 320.71 224.76"/>
        <path class="cls-12" d="M324.59,240.88c-5.72-.79-10.1,4.13-9.2,10.53,6.07-1.7,9.72-3.92,9.2-10.53Z"/>
        <path class="cls-1" d="M305.76,232.12c-1.73-.3-2.63-1.6-2.54-3.04.02-.34.41-.4.6-.09.59.98,1.31,1.72,2.13,2.48.27.25.15.71-.18.65Z"/>
        <path class="cls-1" d="M311.49,232.63c1.54.83,3.06.36,3.88-.82.19-.28-.08-.57-.41-.44-1.07.4-2.09.55-3.2.64-.37.03-.55.46-.26.62Z"/>
        <path class="cls-1" d="M313.29,251.9c-2.36,0-4.28-.24-4.41-.25-.33-.04-.56-.34-.52-.67s.34-.56.67-.52c.06,0,5.61.69,9.39-.29,5.98-1.55,5.72-6.95,5.57-10.19-.01-.26-.02-.5-.03-.71-.07-2.22-.44-6.51-2.13-10.33-2.12-4.8-5.64-7.39-10.45-7.72-9.35-.63-12.53,5.04-14.64,8.79-.48.86-.9,1.6-1.33,2.17-.17.23-.38.49-.61.78-1.72,2.17-4.59,5.8-3.56,9.3.77,2.6,3.63,4.77,8.5,6.43.31.11.48.45.37.76-.11.31-.45.48-.76.37-5.26-1.79-8.37-4.22-9.26-7.22-1.21-4.09,2.03-8.18,3.77-10.38.22-.28.42-.54.59-.76.38-.51.78-1.22,1.24-2.04,2.12-3.77,5.66-10.08,15.76-9.4,5.29.36,9.15,3.19,11.46,8.43,1.77,4.01,2.16,8.47,2.23,10.77,0,.21.02.44.03.69.15,3.12.45,9.61-6.46,11.4-1.7.44-3.69.57-5.43.57Z"/>
        <path class="cls-1" d="M320.71,225.34c-.13,0-.26-.04-.37-.13-.26-.2-.3-.58-.1-.84l2.2-2.79c.13-.16.33-.25.53-.22l1.09.12-2.14-4.21-4.6-.43.65,1.31c.1.2.08.44-.06.62l-1.77,2.35c-.2.26-.57.32-.84.12-.26-.2-.32-.57-.12-.84l1.55-2.06-.96-1.94c-.1-.19-.08-.42.04-.6.12-.18.33-.28.55-.26l6,.56c.2.02.38.14.48.32l2.78,5.49c.1.2.08.43-.04.61-.12.18-.34.28-.55.25l-1.86-.2-2,2.54c-.12.15-.29.23-.47.23Z"/>
        <g>
          <path class="cls-3" d="M310.44,242.84c-.54-1.83-3.33-3.94-4.82-3.82s-4.72,1.72-5.69,1.6-1.6-.82-1.86,1.44,1.44,3.53,3.87,2.85c3.18,2.08,9.43,1.07,8.5-2.07Z"/>
          <path class="cls-3" d="M310.54,244.34c-.96,3.55-5.93,6.02-7.13,5.41s-3.89-1.63-2.34-4.67c2.41.67,7.43.52,7.63-.95s1.84.22,1.84.22Z"/>
          <path class="cls-1" d="M305.69,246.58c-1.13,0-2.33-.39-3.55-1.18-2.28.5-3.5-.18-4.12-.86-.78-.85-1.02-2.14-.61-3.38.41-1.25,1.01-1.32,1.88-1.29.63.02,1.59.06,3.19-.65,3.58-1.6,5.53-.43,7.38,1.82.18.22.15.55-.07.73-.22.18-.55.15-.73-.07-1.62-1.98-3.15-2.87-6.14-1.53-1.83.82-2.97.77-3.66.75q-.65-.02-.84.57c-.28.86-.13,1.78.38,2.34.65.7,1.8.87,3.33.5.14-.03.29,0,.42.07,1.8,1.22,4.44,2.05,6.76-.92.15-.19.42-.25.64-.15,0,0,.68.33,1.29.5.28.08.44.37.36.65s-.37.44-.65.36c-.39-.11-.8-.28-1.08-.4-1.22,1.42-2.63,2.13-4.16,2.13Z"/>
          <path class="cls-1" d="M304.23,250c-.84,0-1.62-.2-2.27-.61-2.95-1.84-1.53-4.57-1.52-4.59.14-.25.45-.35.71-.21.25.14.35.45.21.71-.1.19-.92,1.92,1.15,3.21.99.62,2.52.59,3.97-.09,1.83-.85,3.09-2.45,3.35-4.27.04-.29.31-.48.59-.44.29.04.48.31.44.59-.32,2.17-1.79,4.06-3.95,5.06-.91.42-1.83.63-2.69.63Z"/>
        </g>
      </g>
      <g>
        <polygon class="cls-11" points="290.94 232.87 288.73 235.32 291.06 237.92 293.18 235.28 290.94 232.87"/>
        <path class="cls-1" d="M294.19,235.57c-1.55,0-2.71-.89-3.25-2.38-.54,1.49-1.7,2.38-3.25,2.38-.19,0-.34-.15-.34-.34s.15-.34.34-.34c1.79,0,2.91-1.46,2.91-3.82,0-.19.15-.34.34-.34s.34.15.34.34c0,2.32,1.14,3.82,2.91,3.82.19,0,.34.15.34.34s-.15.34-.34.34Z"/>
        <path class="cls-1" d="M291.08,240.03c-.19,0-.34-.15-.34-.34,0-2.33-1.28-4.02-3.05-4.02-.19,0-.34-.15-.34-.34s.15-.34.34-.34c1.53,0,2.77,1,3.35,2.55.51-1.6,1.64-2.55,3.14-2.55.19,0,.34.15.34.34s-.15.34-.34.34c-1.71,0-2.77,1.54-2.77,4.02,0,.19-.15.34-.34.34Z"/>
      </g>
    </g>
  </g>
</svg>