<?xml version="1.0" encoding="UTF-8"?>
<svg id="_レイヤー_2" data-name="レイヤー 2" xmlns="http://www.w3.org/2000/svg" width="338.24" height="107.99" viewBox="0 0 338.24 107.99">
  <defs>
    <style>
      .cls-1 {
        fill: #211815;
      }

      .cls-2 {
        fill: #ecbb6e;
      }

      .cls-3 {
        fill: #5c948d;
      }

      .cls-4 {
        fill: #fffba1;
      }

      .cls-5 {
        fill: #d3f2c9;
      }

      .cls-6 {
        fill: #de8a4c;
      }

      .cls-7 {
        fill: #f2d496;
      }

      .cls-8 {
        fill: #fff;
        stroke: #ceeaeb;
        stroke-miterlimit: 10;
        stroke-width: 2.83px;
      }
    </style>
  </defs>
  <g id="_レイヤー_1-2" data-name="レイヤー 1">
    <g>
      <path class="cls-8" d="M10.04,1.42h239.38c4.68,0,8.47,3.79,8.47,8.47l-.16,64.75,9.69,9.69h-9.69s0,.5,0,.5c0,4.68-3.79,8.47-8.47,8.47H9.89c-4.68,0-8.47-3.79-8.47-8.47l.16-74.94c0-4.68,3.79-8.47,8.47-8.47Z"/>
      <circle class="cls-5" cx="308.24" cy="77.99" r="30"/>
      <g>
        <path d="M16.67,15.06c1.39,0,2.29.25,2.92.81.58.52.93,1.36.93,2.26,0,1.49-.73,2.46-2.17,2.88.76.33.96.63,1.72,2.64l1.17,3.09h-2.05l-.99-2.9c-.58-1.71-1.02-2.22-1.89-2.22h-1.9v5.11h-1.88v-11.68h4.14ZM16.13,20.05c1.71,0,2.49-.56,2.49-1.77,0-.51-.19-.96-.52-1.21-.34-.25-1.04-.4-1.98-.4h-1.71v3.39h1.72Z"/>
        <path d="M29.95,25.18c-.86,1.15-2.07,1.75-3.58,1.75-2.96,0-4.83-2.34-4.83-6.03,0-1.74.43-3.25,1.25-4.33.85-1.12,2.05-1.71,3.57-1.71s2.82.65,3.69,1.88c.72,1.04,1.14,2.54,1.14,4.16,0,1.71-.42,3.21-1.23,4.29ZM26.35,16.57c-.93,0-1.67.42-2.13,1.21-.45.75-.69,1.88-.69,3.15,0,1.17.24,2.24.67,3.01.45.83,1.21,1.28,2.14,1.28,1.79,0,2.83-1.61,2.83-4.32s-1.03-4.33-2.83-4.33Z"/>
        <path d="M39.59,15.06v1.59h-5.4v3.18h4.12v1.58h-4.12v3.72h5.66v1.62h-7.59v-11.68h7.33Z"/>
        <path d="M48.52,19.14c-1.07-.21-1.88-.53-2.43-.92-.27-.18-.33-.25-.33-.39,0-.17.12-.46.54-1.3.73.46,1.56.79,2.5.99.21-1.05.3-1.92.31-2.9.77.14,1.44.36,1.82.57.17.09.22.18.21.3,0,.06-.03.12-.11.27-.22.46-.24.51-.55,1.98.15.01.34.01.46.01h.11c.36-.01.63-.01.76-.01h.04c.13,0,.18.06.18.25,0,.66-.04,1.2-.1,1.31-.04.08-.24.1-.87.1-.29,0-.51-.01-.93-.03q-.32,1.54-.45,2.35c.51.04.62.04.87.04h.84c.15-.01.22.01.27.09.06.09.11.57.11,1.11,0,.27-.02.34-.11.39-.08.03-.4.05-.97.05-.27,0-.67-.02-1.2-.05-.01.27-.01.45-.01.57,0,1.38.64,2.01,2.05,2.01,1.58,0,2.52-.76,2.52-2.05,0-.47-.1-.89-.34-1.35-.3-.57-.58-.9-1.3-1.47h.13c.24,0,.75-.08,1.2-.17.24-.04.33-.06.41-.06.22,0,.38.1.67.48.69.84,1.04,1.72,1.04,2.66,0,2.11-1.71,3.51-4.31,3.51-2.43,0-3.64-1.21-3.64-3.67,0-.21,0-.38.03-.63-1.49-.32-2.29-1.05-2.29-2.12,0-.55.17-.96.58-1.38.04-.06.1-.07.17-.07.09,0,.19.07.54.36.27.22.31.27.31.35q0,.06-.09.19c-.06.1-.12.27-.12.36,0,.19.12.36.35.46.21.1.27.12.75.22l.39-2.43Z"/>
        <path d="M59.18,23.83c.27-.24.34-.3.45-.3.19,0,1.09.66,1.75,1.29.75.69,1.59,1.69,1.59,1.91,0,.13-.03.16-.46.55-.57.53-.69.62-.79.62-.09,0-.18-.06-.25-.21-.53-.93-1.73-2.16-2.79-2.85-.12-.09-.18-.15-.18-.24,0-.1.03-.15.69-.76Z"/>
        <path d="M73.2,19.87c.36.06.6.08,1.16.08h1.02c.51,0,.73-.02,1.09-.06-.06.48-.06.64-.06,1.56v3.1c.24.41.39.59.65.77.3.22.63.38.96.44.62.13,1.39.19,2.29.19,2.98,0,4.72-.08,6.39-.29-.27.67-.32.87-.44,1.65-1.35.05-3.36.08-5.38.08-2.2,0-3.07-.11-3.85-.48-.54-.27-.95-.6-1.35-1.12-.53.5-1.37,1.2-2.05,1.71l-.71-1.63c.6-.25,1.15-.65,1.99-1.4v-3.1h-.73c-.41,0-.58.01-.98.08v-1.56ZM74.44,14.53c1.16,1.04,1.54,1.46,2.46,2.64l-1.2,1.15c-.9-1.26-1.27-1.68-2.42-2.73l1.16-1.07ZM85.19,19.03c.48,0,.69-.01.92-.04-.05.38-.06.69-.06,1.21v4.08c0,.53-.13.81-.48.97-.3.15-.62.2-1.49.2q-.08,0-.95-.01c-.07-.51-.17-.9-.34-1.32.58.08.99.1,1.25.1.42,0,.54-.06.54-.24v-3.67h-5.76v3.78c0,.63.01.93.04,1.26h-1.54c.03-.39.04-.64.04-1.26v-3.96c0-.53,0-.68-.04-1.14.22.03.43.04.96.04v-2.98c0-.57-.01-.93-.06-1.3.39.04.78.06,1.38.06h4.2c.78,0,1.04-.01,1.38-.06-.04.33-.06.63-.06,1.3v2.98h.08ZM83.73,23.07c0,.46,0,.58.03.83-.04-.01-.07-.01-.09-.01-.21-.02-.54-.03-.76-.03h-2.03v.47h-1.32c.01-.25.03-.45.03-.81v-1.86c0-.32-.02-.54-.03-.84.17.01.36.03.87.03h2.46c.55,0,.66,0,.87-.03-.03.3-.03.43-.03.81v1.46ZM80.79,17.89c0-.58,0-.74-.03-1.09.27.01.69.03,1.14.03h1.75v-.72h-3.93v2.92h1.06v-1.14ZM80.88,22.74h1.56v-.79h-1.56v.79ZM83.66,19.03v-1.08h-1.49v1.08h1.49Z"/>
        <path d="M93.39,15.69c0-.6-.03-.93-.09-1.27h1.83c-.06.36-.09.71-.09,1.27v.81h3.11c.72,0,1.17-.03,1.59-.07v1.63c-.5-.06-.92-.08-1.59-.08h-3.11v2.12h4.02c.73,0,1.29-.03,1.71-.09v1.7c-.54-.06-1.04-.09-1.71-.09h-4.8c-.66,1.49-1.35,2.7-2.13,3.81,1.75-.14,3.54-.36,5.01-.6-.54-.75-.84-1.11-1.58-1.92l1.38-.75c1.41,1.53,2.31,2.68,3.45,4.4l-1.5,1.03c-.45-.76-.58-.99-.83-1.38-2.96.53-4.07.66-8.08,1-.63.05-.76.08-1.18.14l-.36-1.8c.27.02.39.02.57.02.15,0,.54-.02,1.2-.04.88-1.29,1.59-2.52,2.19-3.9h-2.85c-.66,0-1.17.03-1.71.09v-1.7c.4.06.97.09,1.71.09h3.84v-2.12h-2.87c-.66,0-1.12.03-1.6.08v-1.63c.4.04.88.07,1.6.07h2.87v-.81Z"/>
        <path d="M108.02,24.01c-.72,1.24-1.71,1.93-2.73,1.93-1.56,0-2.67-1.53-2.67-3.66,0-2.37,1.2-4.41,3.25-5.49,1-.54,2.08-.78,3.51-.78,3.14,0,5.46,2.22,5.46,5.19,0,2.62-1.29,4.51-3.78,5.58-.5.21-.89.33-1.08.33-.18,0-.25-.06-.45-.34-.25-.39-.54-.68-.95-.95,3.09-.79,4.49-2.25,4.49-4.68,0-1.25-.53-2.29-1.46-2.96-.53-.36-.95-.51-1.77-.64-.42,3.16-.92,4.89-1.83,6.46ZM105.86,18.7c-1,.88-1.58,2.15-1.58,3.55,0,1.16.38,1.83,1,1.83.75,0,1.52-1.04,2.08-2.82.36-1.12.54-1.98.77-3.65-1.07.23-1.59.48-2.28,1.08Z"/>
        <path d="M126.95,25.65h1.35c.74,0,1.23-.03,1.54-.08v1.53c-.41-.04-.92-.08-1.6-.08h-4.84v.67h-1.58c.04-.4.08-.86.08-1.51v-5.71c0-.25,0-.33.01-.54-.18.22-.29.33-.55.63-.06-.1-.08-.13-.12-.23v1.4c-.13.06-.53.21-1.18.46v3.99c0,.74-.2,1.07-.75,1.23-.33.11-.84.17-1.37.17-.21,0-.41,0-.81-.03-.04-.58-.1-.87-.33-1.48.72.07.99.09,1.29.09.36,0,.45-.07.45-.4v-3.04q-.58.18-1.02.31c-.06.02-.12.03-.2.06-.08.01-.13.04-.15.04q-.13.04-.22.07l-.3-1.59c.45-.03,1.02-.15,1.89-.4v-2.76h-.72c-.33,0-.66.01-1.05.06v-1.53c.36.06.67.08,1.06.08h.71v-1.18c0-.69-.01-1.01-.09-1.47h1.7c-.08.45-.09.78-.09,1.46v1.2h.48c.36,0,.54-.01.81-.04v1.3c.87-1.12,1.64-2.8,1.85-4l1.66.36q-.07.18-.16.41c-.03.07-.08.18-.14.33-.27.64-.42.97-.69,1.48h1.75c.45-.84.78-1.7.94-2.46l1.61.3c-.53,1.29-.62,1.47-.99,2.16h1.07c.55,0,1.08-.03,1.46-.09v1.51c-.42-.04-.92-.08-1.46-.08h-1.29v1.5h1.21c.54,0,1-.03,1.27-.06v1.45c-.31-.03-.78-.06-1.29-.06h-1.2v1.54h1.23c.62,0,.99-.01,1.26-.06v1.46c-.28-.04-.69-.06-1.26-.06h-1.23v1.7ZM120.05,20.73c.43-.15.63-.22,1.15-.44-.27-.46-.46-.75-.72-1.06.36-.34.45-.44.72-.75-.21-.02-.39-.03-.66-.03h-.49v2.28ZM125.46,19.74v-1.5h-2.07v1.5h2.07ZM123.39,22.62h2.07v-1.54h-2.07v1.54ZM123.39,25.65h2.07v-1.7h-2.07v1.7Z"/>
        <path d="M133.32,16.53c-.43.09-.72.13-1.48.25-.11-.42-.26-.76-.57-1.33,1.38-.15,2.35-.38,3.5-.79.4-.15.63-.26.88-.44l.9,1.26c-.17.08-.19.09-.28.13-.53.23-.83.35-1.44.53v1.92h.46c.46,0,.72-.02.99-.06v1.5c-.3-.04-.55-.06-.99-.06h-.39c.54.94.73,1.2,1.53,1.88-.25.41-.39.66-.69,1.38-.41-.46-.51-.62-1-1.39.06.4.09,1.06.09,1.6v2.97c0,.81.03,1.28.09,1.77h-1.68c.08-.52.09-.93.09-1.77v-2.49c0-.43.03-1.06.09-1.66-.42,1.23-.93,2.17-1.72,3.22-.2-.6-.42-1.05-.76-1.56.87-.91,1.8-2.61,2.19-3.94h-.76c-.51,0-.77.01-1.11.08v-1.53c.32.06.55.08,1.11.08h.97v-1.53ZM141.93,20.02q-.09.12-.22.35c-.04.06-.2.28-.3.42h1.27c.51,0,.83-.02,1.1-.06l.85.9q-.2.33-.36.66c-.12.21-.7,1.12-.88,1.36-.84,1.11-2.17,2.19-3.61,2.92-1.05.54-1.92.83-3.35,1.11-.21-.6-.4-.94-.78-1.45,1.71-.23,2.71-.56,4.12-1.35-.45-.46-.54-.54-1.16-1l1.08-.79c.76.54.85.61,1.27.99.71-.57,1.19-1.09,1.85-2.04h-2.49c-1.05,1.01-2.08,1.72-3.45,2.36-.27-.42-.52-.75-.94-1.2,1.8-.66,3.55-1.91,4.32-3.09-1.05.72-2.05,1.23-3.39,1.68-.22-.51-.44-.79-.87-1.26,1.44-.42,1.98-.63,3.06-1.27-.04-.04-.07-.09-.1-.11-.25-.29-.3-.33-.45-.46-.03-.03-.09-.09-.18-.17l-.29-.24,1.04-.78c.61.48.76.62,1.14.97.87-.67,1.2-1.02,1.77-1.8h-2.61c-.76.81-1.49,1.35-2.57,1.99-.28-.45-.52-.75-.91-1.09,1.09-.54,2.13-1.33,2.82-2.19.29-.36.57-.85.65-1.11l1.51.46q-.08.11-.24.36s-.04.08-.12.17c-.03.04-.06.09-.12.17h1.65c.51,0,.79-.01,1.09-.06l.81.87q-.17.22-.41.62c-.76,1.19-1.5,1.96-2.71,2.85l1.11.33Z"/>
        <path d="M155.22,16.72c2.03,0,3.3,1.21,3.3,3.17s-1.41,3.09-3.75,3.09c-.51,0-1.04-.06-1.23-.13-.12-.04-.18-.12-.21-.26-.1-.49-.3-.97-.66-1.57.93.22,1.5.31,2.13.31,1.21,0,1.94-.55,1.94-1.51,0-.38-.11-.75-.25-.96-.27-.38-.86-.62-1.53-.62-.86,0-2.04.38-4.51,1.44q.94,2.35,1.47,3.79c.63,1.7,1.16,3.23,1.16,3.36,0,.12-.09.2-.39.33-.43.2-.99.38-1.18.38-.15,0-.17-.03-.32-.58-.69-2.52-1.3-4.35-2.22-6.58-1.14.52-1.68.82-2,1.12-.09.07-.18.12-.28.12-.2,0-.38-.15-.66-.55-.3-.42-.42-.64-.67-1.12.96-.27,1.57-.48,2.98-1.06-.78-1.79-.88-2-1.47-2.75.96-.38,1.5-.54,1.84-.54.32,0,.39.09.43.49.05.42.08.57.26.99.01.03.15.35.46,1.16,1.32-.54,1.78-.72,2.77-1.04-.06-.03-.08-.04-.12-.1-.51-.66-.82-.99-1.48-1.54-.03-.06-.04-.09-.04-.13q0-.09.51-.54c.2-.18.5-.36.58-.36.08,0,.15.03.24.09.92.69,1.54,1.32,1.54,1.57,0,.12-.45.62-.81.89.83-.23,1.54-.33,2.17-.33Z"/>
        <path d="M160.61,16.3c0-.62-.01-1-.06-1.46.3.03.97.06,1.62.06h8.97c.66,0,1.25-.01,1.56-.06-.04.46-.06.87-.06,1.58v9.58c0,1.17-.46,1.46-2.34,1.46-.42,0-1.11-.03-1.6-.06-.09-.66-.17-.92-.42-1.53.72.08,1.54.13,1.98.13.64,0,.78-.06.78-.31v-9.34h-8.82v9.58c0,.85.02,1.24.09,1.68h-1.79c.06-.54.09-1.05.09-1.71v-9.6ZM162.89,17.37c.3.06.55.07,1.27.07h4.98c.74,0,.93-.01,1.28-.07v1.53c-.36-.04-.64-.06-1.26-.06h-5.01c-.6,0-.9.02-1.26.06v-1.53ZM169.59,23.95c0,.35.02.64.03.9-.45-.03-.6-.03-.95-.03h-3.48v1.08h-1.58c.04-.41.06-.74.06-1.27v-3.74c0-.36-.02-.66-.04-.93.39.02.6.03,1,.03h3.91c.58,0,.79,0,1.08-.03-.03.32-.04.51-.04.95v3.04ZM165.19,23.44h2.91v-2.07h-2.91v2.07Z"/>
        <path d="M176.6,20.14c-.68,0-.99.01-1.47.06v-1.37c.41.05.77.06,1.47.06h1.75c-.24-.54-.38-.79-.54-1.08h-1.54c-.69,0-1.26.03-1.71.08v-1.44c.45.06.9.09,1.63.09h.46c-.27-.49-.45-.73-.97-1.33l1.44-.54c.48.66.67.99,1.11,1.87h.81v-1c0-.44-.03-.84-.08-1.12h1.56c-.03.27-.04.58-.04,1.06v1.06h1.06v-1.06c0-.45-.01-.76-.06-1.06h1.57c-.04.27-.07.67-.07,1.12v1h.9c.5-.69.78-1.21,1.04-1.9l1.47.54c-.31.54-.58.96-.88,1.36h.41c.75,0,1.2-.03,1.63-.09v1.44c-.45-.04-1.02-.08-1.71-.08h-1.46c-.24.54-.34.77-.52,1.08h1.66c.71,0,1.07-.01,1.49-.06v1.37c-.46-.04-.79-.06-1.49-.06h-3.76v.69h3.03c.63,0,1.08-.02,1.47-.06v1.26c-.38-.04-.84-.06-1.47-.06h-3.03v.72h4.04c.81,0,1.32-.03,1.72-.09v1.44c-.52-.06-1.05-.09-1.71-.09h-2.89c.48.42,1.14.79,1.95,1.16.92.38,1.69.6,3,.83-.4.54-.58.85-.82,1.47-2.42-.66-4.05-1.53-5.33-2.87.03.51.03.69.03,1.02v.72c0,.61.03,1.05.09,1.46h-1.7c.06-.42.09-.89.09-1.47v-.69c0-.33,0-.45.03-.99-.66.7-1.18,1.11-2.07,1.59-.92.51-1.82.88-2.94,1.21-.21-.5-.5-.93-.87-1.4,2.08-.43,3.54-1.07,4.71-2.04h-2.67c-.71,0-1.21.03-1.75.09v-1.44c.45.06.95.09,1.74.09h3.81v-.72h-2.85c-.63,0-1.09.01-1.47.06v-1.26c.39.04.82.06,1.47.06h2.85v-.69h-3.61ZM182.25,18.9c.21-.39.34-.69.48-1.08h-3.29c.2.42.3.69.43,1.08h2.37Z"/>
        <path d="M193.43,19.54c-.27-.04-.54-.06-.93-.06h-.21c.51,1.05.79,1.47,1.37,2.04-.33.45-.53.84-.69,1.37-.33-.51-.52-.87-.83-1.59.03.38.05.46.05.85,0,.15.01.3.01.46,0,.25.01.43.01.54v2.83c0,.79.02,1.16.08,1.68h-1.59c.06-.56.09-.99.09-1.68v-2.28q.01-.71.03-1.06c0-.38.01-.53.04-.93-.33,1.15-.79,2.12-1.5,3.15-.21-.61-.42-1.03-.74-1.5.63-.81.98-1.41,1.43-2.37.25-.55.48-1.12.58-1.51h-.6c-.39,0-.71.01-1.04.08v-1.52c.36.04.65.06,1.07.06h.72v-1.62c-.39.09-.66.13-1.38.27-.18-.55-.29-.84-.55-1.33,1.23-.11,2.5-.42,3.52-.84.27-.1.38-.16.54-.27l.79,1.26c-.18.08-.54.21-.78.3-.14.04-.3.1-.72.24v1.99h.3c.35,0,.51,0,.78-.03v-1.31c.34.04.79.06,1.37.06h2.13v-.6c-.75.04-1.26.04-2.57.06-.15-.51-.3-.83-.54-1.21.56.01.99.01,1.17.01,2.34,0,4.95-.3,5.94-.67l.94,1.23q-.09.03-.42.09c-.72.15-1.9.3-3.13.4v.69h2.45c.58,0,1.05-.03,1.44-.09v1.35c-.39-.03-.76-.04-1.32-.04h-2.57v.59h1.85c.69,0,1-.02,1.39-.04-.04.33-.04.57-.04,1.21v2.29c0,.71,0,1,.04,1.35-.42-.03-.65-.04-1.25-.04h-2v.66h1.96c.75,0,1.05-.02,1.43-.06v1.35c-.44-.04-.92-.06-1.43-.06h-1.96v.72h2.4c.64,0,1.15-.03,1.54-.07v1.39c-.41-.06-.92-.09-1.62-.09h-5.91c-.73,0-1.2.03-1.6.07v-1.36c.34.04.87.06,1.59.06h2.21v-.72h-1.84c-.69,0-.96.01-1.42.05v-1.34c.39.04.69.06,1.42.06h1.84v-.66h-1.79c-.62,0-.88.02-1.23.04.03-.34.04-.72.04-1.38v-2.24c0-.63-.02-.94-.04-1.24.39.03.67.04,1.35.04h1.67v-.59h-2.12c-.46,0-.97.02-1.25.03v1.47ZM195.17,19.78v.69h1.62v-.69h-1.62ZM195.17,21.51v.72h1.62v-.72h-1.62ZM200,20.47v-.69h-1.82v.69h1.82ZM200,22.23v-.72h-1.82v.72h1.82Z"/>
        <path d="M214.39,22.69c-.38.39-.66.78-.95,1.35-1.51-1-2.76-2.31-3.46-3.64-.21.51-.42.93-.71,1.35-.67,1.04-1.44,1.74-2.71,2.55-.22-.39-.52-.79-.93-1.2v2.79c0,.87.01,1.32.08,1.71h-1.79c.08-.49.11-1.03.11-1.74v-8.2c0-.59-.02-1.02-.06-1.38.53.04.92.06,1.67.06h3.53c.01-.35.03-.55.03-.77,0-.6-.03-.9-.1-1.27h1.8c-.04.25-.06.39-.08.72q-.01.2-.04.79-.01.33-.03.53h3.67c.79,0,1.14-.02,1.65-.06-.04.36-.06.79-.06,1.39v8.24c0,.6-.04.83-.22,1.04-.31.39-.83.51-2.19.51-.38,0-.83-.01-1.4-.04-.1-.72-.2-1.07-.45-1.64.72.12,1.32.17,1.88.17.71,0,.78-.04.78-.46v-2.78ZM205.63,22.93c1.16-.71,1.82-1.3,2.38-2.18.53-.79.84-1.72,1.02-2.98h-3.41v5.16ZM210.6,17.77c-.04.36-.06.44-.1.69.41.89.97,1.73,1.62,2.39.63.65,1.26,1.12,2.26,1.69v-4.77h-3.78Z"/>
        <path d="M220.49,18.51c-.39.09-.53.13-1.07.33-.19.08-.3.11-.39.11-.33,0-.63-.62-.9-1.9.96-.04,1.31-.09,2.97-.35,1.8-.27,4.08-.62,5.28-.76,1.35-.18,2.43-.36,3-.48.1-.03.15-.03.22-.03.2,0,.27.09.41.46.12.32.21.76.21.97,0,.18-.06.24-.27.24-.32,0-.6.03-.89.08-2.53.42-4.56,2.64-4.56,4.98,0,1.75,1.38,2.91,3.72,3.12.21.01.29.09.29.27,0,.38-.15,1.1-.29,1.43-.08.16-.19.24-.39.24s-.65-.09-1.11-.22c-2.55-.75-3.88-2.37-3.88-4.67,0-1.25.41-2.4,1.19-3.39.42-.54.78-.84,1.63-1.42-1.96.33-4.04.72-5.17,1ZM228.17,18.9c.21,0,1.48,1.43,1.48,1.65,0,.07-.09.16-.36.4-.29.24-.3.24-.42.29q-.08.03-.11.03c-.06,0-.08-.01-.34-.43-.24-.38-.5-.71-.97-1.2-.03-.03-.08-.1-.08-.12.03-.08.04-.12.06-.12.04-.06.3-.27.36-.32.15-.07.24-.13.25-.15.01-.03.04-.03.04-.03h.08ZM230.73,19.93c-.22.17-.36.25-.43.25-.06,0-.09-.03-.17-.15-.45-.68-.67-.96-1.16-1.43-.03-.04-.06-.09-.06-.12,0-.08.09-.17.3-.32s.39-.24.46-.24c.11,0,.29.14.6.45.44.45.84,1,.84,1.14,0,.09-.11.2-.39.41Z"/>
        <path d="M238.16,24.01c-.72,1.24-1.71,1.93-2.73,1.93-1.56,0-2.67-1.53-2.67-3.66,0-2.37,1.2-4.41,3.25-5.49,1-.54,2.08-.78,3.51-.78,3.14,0,5.46,2.22,5.46,5.19,0,2.62-1.29,4.51-3.78,5.58-.5.21-.89.33-1.08.33-.18,0-.25-.06-.45-.34-.25-.39-.54-.68-.95-.95,3.09-.79,4.49-2.25,4.49-4.68,0-1.25-.53-2.29-1.46-2.96-.53-.36-.95-.51-1.77-.64-.42,3.16-.92,4.89-1.83,6.46ZM236,18.7c-1,.88-1.58,2.15-1.58,3.55,0,1.16.38,1.83,1,1.83.75,0,1.52-1.04,2.08-2.82.36-1.12.54-1.98.77-3.65-1.07.23-1.59.48-2.28,1.08Z"/>
        <path d="M15.49,51.36c1.28-.36,2.08-.63,3.36-1.08v1.53c-1.11.43-1.84.69-3.62,1.24q-.46.15-1.51.44c-.13.03-.22.06-.32.07-.38.12-.6.2-.78.27l-.35-1.78c.5-.03.9-.11,1.58-.27v-9.25c0-.75-.01-1.12-.09-1.62h1.82c-.08.48-.09.85-.09,1.62v2.4h2c.69,0,.99-.02,1.38-.08v1.68c-.36-.06-.71-.08-1.38-.08h-2v4.91ZM20.98,51.78c0,.32.2.38,1.27.38.95,0,1.32-.06,1.46-.25.2-.29.29-1.1.29-2.91.58.31.93.46,1.54.64-.1,2.15-.27,2.97-.69,3.44-.39.44-1.02.57-2.75.57-1.32,0-1.82-.06-2.19-.26-.38-.21-.52-.55-.52-1.2v-9.64c0-.81-.02-1.19-.09-1.62h1.77c-.08.51-.09.83-.09,1.62v3.15c1.68-.98,2.79-1.83,3.39-2.64l1.12,1.32q-.24.18-.52.4c-1.12.93-2.33,1.7-3.99,2.6v4.41Z"/>
        <path d="M37.93,43.6c.72,1.32,1.24,1.95,2.35,2.89-.08.09-.13.17-.18.21-.39.46-.48.57-.78,1.05-.38-.36-.51-.49-.76-.76-.3,1.09-.83,2.32-1.4,3.25.92,1.02,1.71,1.58,3.13,2.19-.4.57-.54.81-.82,1.51-1.61-.93-2.33-1.48-3.2-2.49-.97,1.1-1.89,1.8-3.22,2.49-.38-.67-.51-.87-.98-1.33,1.44-.61,2.34-1.26,3.3-2.34-.33-.52-.63-1.08-1-1.92-.03-.08-.18-.42-.42-1.04-.17.2-.24.27-.46.51-.29-.36-.39-.48-.73-.79v1.02c0,.71.01,1.17.04,1.53-.38-.03-.53-.03-1.26-.03h-.75v.91h1.08c.56,0,.79-.01,1.19-.07v1.5c-.45-.06-.66-.08-1.19-.08h-1.08v.84c0,.47.03.81.09,1.27h-1.58c.06-.46.09-.81.09-1.33v-.78h-1.18c-.63,0-.92.01-1.32.08v-1.5c.38.06.65.07,1.32.07h1.18v-.91h-.64c-.66,0-1,.01-1.47.04.05-.46.06-.96.06-1.61v-2.49c0-.66-.01-1.04-.06-1.5.45.03.77.04,1.44.04h.67v-.78h-1.11c-.6,0-.91.02-1.32.06v-1.46c.42.06.63.07,1.32.07h1.11v-.18c0-.42-.03-.78-.09-1.15h1.58c-.06.34-.09.72-.09,1.15v.18h.78c.67,0,.88-.01,1.3-.07v1.46c-.4-.04-.61-.06-1.3-.06h-.78v.78h.81c.69,0,.93-.01,1.2-.04-.03.28-.04.61-.04,1.41v1.04c.93-.9,1.42-1.65,1.9-2.85l1.3.62c-.52,1.14-.91,1.77-1.63,2.67l.93-.39c.13.77.49,1.71,1.02,2.54.42-.81.72-1.66.88-2.62l1.32.51c-.74-.82-1.17-1.48-1.79-2.68l1.23-.63ZM28.55,45.22v1h.88v-1h-.88ZM28.55,47.37v1.03h.88v-1.03h-.88ZM31.61,46.23v-1h-.88v1h.88ZM31.61,48.4v-1.03h-.88v1.03h.88ZM35.56,41.67c0-.47-.02-.74-.08-1.08h1.71c-.06.28-.08.6-.08,1.05v.5h1.46c.63,0,1.02-.01,1.46-.08v1.56c-.45-.04-.93-.08-1.46-.08h-3.96c-.6,0-1.04.02-1.44.08v-1.56c.39.06.79.08,1.44.08h.95v-.46Z"/>
        <path d="M43.03,45.09c-.27.02-.43.03-.61.05-.14.01-.15.01-.17.01-.12,0-.18-.04-.23-.2-.08-.24-.18-1.04-.19-1.48.17.01.6.03,1.14.03.17,0,1.35-.07,1.88-.12.25-1.21.34-1.85.34-2.66,1.54.21,2.1.39,2.1.67,0,.11-.01.13-.24.48-.12.18-.17.34-.42,1.28.7-.12,1.12-.23,1.68-.41.1-.03.15-.04.22-.04.11,0,.13.08.23.51.07.38.12.69.12.85,0,.18-.04.21-.43.3-.51.12-1.38.27-2.31.39-.56,1.68-.93,2.58-1.62,3.99-.53,1.05-.83,1.61-1.23,2.24-.12.18-.19.24-.3.24-.15,0-.57-.22-1.09-.61-.24-.17-.3-.24-.3-.34s.06-.2.25-.46c.43-.54,1-1.47,1.5-2.46.42-.82.57-1.17,1-2.35-.58.04-.63.06-1.32.1ZM47.96,53.73c-1.64,0-2.75-.9-2.75-2.24s1.15-2.42,2.7-2.42c.36,0,.53.02,1.14.11-.06-.72-.06-1.01-.12-2.4,0-.29-.03-.67-.06-1.15.77.07,1.35.16,1.64.29.12.04.18.12.18.24,0,.08-.01.14-.03.24-.08.32-.09.54-.09.94,0,.56.04,1.5.09,2.24,1.07.48,1.5.72,2.25,1.31.33.25.45.39.45.51,0,.15-.08.29-.5.96-.18.3-.31.44-.42.44q-.09,0-.51-.39c-.33-.33-.71-.58-1.23-.9,0,1.4-1.02,2.24-2.74,2.24ZM47.93,50.52c-.72,0-1.21.34-1.21.87,0,.49.45.81,1.12.81.79,0,1.21-.41,1.21-1.2,0-.12,0-.24-.02-.24-.3-.15-.7-.24-1.11-.24ZM53.54,46.26c-.18.26-.27.33-.38.33-.08,0-.13-.03-.24-.13-.38-.36-.9-.75-1.46-1.09q-.36-.22-1.02-.52c-.21-.09-.29-.15-.29-.27,0-.1.08-.24.3-.58.36-.53.45-.62.58-.62.28,0,1.39.57,2.19,1.11.65.43.84.61.84.78,0,.12-.24.57-.54,1Z"/>
        <path d="M60.25,45.66c-.19-.66-.25-1.06-.43-2.91-.06-.72-.12-1.08-.27-1.59.91.02,1.5.06,1.9.17.23.06.33.16.33.33,0,.06-.01.13-.04.25-.1.36-.15.63-.15,1.02,0,.74.15,1.93.32,2.46.09.29.18.39.34.39.36,0,1.68-.69,2.4-1.25.19-.15.22-.16.3-.16.13,0,.27.1.5.39.38.51.67,1.07.67,1.27,0,.17-.11.27-.36.35-.93.25-2.46.85-3.49,1.35-1.83.9-2.66,1.72-2.66,2.65s.76,1.29,2.7,1.29c1.12,0,2.14-.11,3.52-.33.06-.02.17-.03.2-.03.12,0,.19.06.25.18.04.15.15,1.07.15,1.42,0,.21-.06.29-.26.35-.33.07-2.14.18-3.28.18-1.92,0-3.2-.25-3.99-.79-.67-.46-1.04-1.2-1.04-2.1,0-.69.2-1.31.6-1.91.52-.78,1.09-1.27,2.35-2.02-.31-.29-.43-.5-.57-.96ZM65.69,42.3c.12-.09.2-.12.29-.12.21,0,1.51,1.38,1.51,1.6,0,.09-.12.23-.41.46-.3.26-.33.27-.4.27-.09,0-.11,0-.39-.42-.3-.42-.72-.9-1.04-1.17-.04-.04-.07-.09-.07-.14,0-.07.13-.21.51-.49ZM68.95,42.7c0,.09-.04.15-.23.3-.21.18-.49.38-.55.38-.09,0-.12-.04-.3-.29-.34-.5-.55-.73-1.09-1.23-.06-.06-.08-.09-.08-.13,0-.13.57-.57.75-.57.25,0,1.5,1.28,1.5,1.54Z"/>
        <path d="M70.55,50.08c.27-.24.34-.3.45-.3.19,0,1.09.66,1.75,1.29.75.69,1.59,1.69,1.59,1.91,0,.13-.03.16-.46.55-.57.53-.69.62-.79.62-.09,0-.18-.06-.25-.21-.53-.93-1.73-2.16-2.79-2.85-.12-.09-.18-.15-.18-.24,0-.1.03-.15.69-.76Z"/>
        <path d="M91.54,41.28c0,.38.18,1.08.54,2.02,1.16-.29,1.83-.52,3.41-1.2.09-.03.13-.04.18-.04.15,0,.25.27.48,1.25.01.08.01.09.03.15.02.03.02.04.02.06,0,.11-.06.17-.21.22-.77.33-1.64.6-3.24,1.02.78,1.45,1.89,2.71,2.97,3.34.08.04.12.11.12.18,0,.18-.33.88-.58,1.25-.13.19-.22.27-.36.27-.1,0-.13-.02-.33-.17-.31-.22-1.06-.57-1.6-.72-.64-.18-1.23-.26-1.92-.26-1.77,0-2.67.5-2.67,1.46,0,.54.29.92.9,1.21.7.35,1.99.54,3.51.54.45,0,.75-.01,1.2-.08-.24.46-.31.66-.6,1.59-.08.23-.2.29-.6.29-1,0-2.27-.13-3.03-.31-2-.5-3.13-1.62-3.13-3.12,0-.72.29-1.42.78-1.93.69-.68,1.8-1.05,3.22-1.05.93,0,1.53.11,2.33.42-.87-.93-1.31-1.53-1.83-2.55-.92.16-1.68.27-2.57.36-.52.04-1.68.12-1.9.12-.21,0-.27-.04-.35-.3-.09-.29-.17-.77-.24-1.43.5.02.73.03,1,.03.9,0,2.38-.12,3.36-.27-.13-.3-.39-.95-.54-1.35-.24-.66-.34-.9-.54-1.23.71-.12,1.47-.19,1.82-.19.29,0,.39.07.39.25v.17Z"/>
        <path d="M104.92,46.23q-.03-.73-.04-1.67c-.13.01-.27.01-.33.01-.99,0-2.26-.1-2.79-.24-.15-.04-.18-.07-.18-.22,0-.33.04-.73.15-1.32.84.17,1.88.27,2.77.27.08,0,.21,0,.38-.01v-.99c0-.53-.01-.76-.04-1.29.75.05,1.26.09,1.62.18.3.06.39.13.39.3,0,.08-.01.11-.12.35-.1.25-.12.31-.18,1.35.9-.1,1.62-.25,2.33-.46.04-.01.06-.01.08-.01.1,0,.1.01.27.5.11.31.21.71.21.82,0,.11-.04.17-.2.21-.49.16-1.78.39-2.73.49,0,1.07,0,1.11.01,1.63,1.05-.13,1.62-.29,2.81-.72.07-.03.1-.04.15-.04.09,0,.12.04.27.41.15.38.29.79.29.95,0,.07-.06.13-.17.18-.83.3-2.33.66-3.27.76.03.57.06.89.15,2.06.84.25,1.18.39,1.83.73.72.36,1.11.62,1.75,1.12.12.09.17.17.17.29,0,.11-.14.36-.42.81-.33.5-.5.69-.6.69-.04,0-.09-.02-.13-.06-.9-.85-1.49-1.28-2.49-1.77-.06.72-.22,1.12-.63,1.5-.51.49-1.36.76-2.43.76-1.84,0-2.98-.81-2.98-2.11,0-.57.24-1.12.64-1.5.58-.54,1.47-.83,2.59-.83.36,0,.67.03,1.05.08-.07-.98-.1-1.32-.12-1.63-.34.01-.54.01-.72.01-1.04,0-2.29-.16-3-.37-.15-.05-.21-.12-.21-.24,0-.23.09-.71.23-1.32.93.22,2.11.36,3.22.36h.43ZM103.88,50.8c-.96,0-1.49.29-1.49.79,0,.45.43.69,1.28.69.97,0,1.42-.34,1.42-1.09v-.25c-.39-.1-.69-.14-1.21-.14Z"/>
        <path d="M120.14,41.46c0,.38.18,1.08.54,2.02,1.23-.32,1.71-.48,3.1-1.08.08-.03.13-.04.17-.04.12,0,.2.12.33.61.13.46.2.76.2.87s-.08.15-.47.3c-.61.24-1.57.52-2.65.79.75,1.46,1.88,2.71,2.96,3.34.07.04.12.11.12.18,0,.18-.33.89-.58,1.25-.13.19-.22.27-.36.27-.11,0-.13-.02-.33-.17-.32-.23-1.07-.57-1.61-.72-.64-.18-1.23-.26-1.92-.26-1.77,0-2.67.5-2.67,1.46,0,.54.29.93.9,1.23.71.34,2,.54,3.51.54.45,0,.75-.01,1.2-.09-.24.47-.32.68-.6,1.61-.08.22-.2.29-.6.29-1,0-2.26-.13-3.03-.31-2-.5-3.14-1.62-3.14-3.12,0-.73.29-1.42.78-1.93.69-.69,1.8-1.07,3.22-1.07.93,0,1.53.1,2.33.42-.87-.93-1.3-1.53-1.83-2.55-.92.16-1.68.27-2.56.36-.53.04-1.68.12-1.91.12-.21,0-.27-.04-.34-.3-.09-.29-.17-.77-.24-1.42.5.03.74.03,1,.03.9,0,2.38-.12,3.36-.27-.14-.28-.39-.94-.54-1.35-.24-.66-.34-.9-.54-1.23.71-.11,1.47-.2,1.81-.2.29,0,.39.07.39.27v.15ZM125.15,42.94c-.27-.54-.71-1.12-1.11-1.51-.04-.06-.08-.1-.08-.13,0-.14.54-.53.72-.53.09,0,.25.14.52.42.5.54.92,1.14.92,1.29,0,.09-.04.12-.24.27-.28.2-.5.32-.58.32-.06,0-.1-.03-.15-.12ZM126.65,42.01c-.25-.45-.71-1.05-1.12-1.48-.04-.04-.06-.09-.06-.12,0-.12.53-.46.69-.46.1,0,.3.17.64.55.42.51.75.98.75,1.1,0,.06-.04.11-.21.24-.21.16-.46.31-.52.31-.08,0-.12-.04-.17-.13Z"/>
        <path d="M133.84,46.23q-.03-.73-.04-1.67c-.13.01-.27.01-.33.01-.99,0-2.26-.1-2.79-.24-.15-.04-.18-.07-.18-.22,0-.33.04-.73.15-1.32.84.17,1.88.27,2.77.27.08,0,.21,0,.38-.01v-.99c0-.53-.01-.76-.04-1.29.75.05,1.26.09,1.62.18.3.06.39.13.39.3,0,.08-.01.11-.12.35-.1.25-.12.31-.18,1.35.9-.1,1.62-.25,2.33-.46.04-.01.06-.01.08-.01.1,0,.1.01.27.5.11.31.21.71.21.82,0,.11-.04.17-.2.21-.49.16-1.78.39-2.73.49,0,1.07,0,1.11.01,1.63,1.05-.13,1.62-.29,2.81-.72.07-.03.1-.04.15-.04.09,0,.12.04.27.41.15.38.29.79.29.95,0,.07-.06.13-.17.18-.83.3-2.33.66-3.27.76.03.57.06.89.15,2.06.84.25,1.18.39,1.83.73.72.36,1.11.62,1.75,1.12.12.09.17.17.17.29,0,.11-.14.36-.42.81-.33.5-.5.69-.6.69-.04,0-.09-.02-.13-.06-.9-.85-1.49-1.28-2.49-1.77-.06.72-.22,1.12-.63,1.5-.51.49-1.36.76-2.43.76-1.84,0-2.98-.81-2.98-2.11,0-.57.24-1.12.64-1.5.58-.54,1.47-.83,2.59-.83.36,0,.67.03,1.05.08-.07-.98-.1-1.32-.12-1.63-.34.01-.54.01-.72.01-1.04,0-2.29-.16-3-.37-.15-.05-.21-.12-.21-.24,0-.23.09-.71.23-1.32.93.22,2.11.36,3.22.36h.43ZM132.8,50.8c-.96,0-1.49.29-1.49.79,0,.45.43.69,1.28.69.97,0,1.42-.34,1.42-1.09v-.25c-.39-.1-.69-.14-1.21-.14Z"/>
        <path d="M144.25,45.09c-.27.02-.43.03-.61.05-.14.01-.15.01-.17.01-.12,0-.18-.04-.23-.2-.08-.24-.18-1.04-.19-1.48.17.01.6.03,1.14.03.17,0,1.35-.07,1.88-.12.25-1.21.34-1.85.34-2.66,1.54.21,2.1.39,2.1.67,0,.11-.01.13-.24.48-.12.18-.17.34-.42,1.28.7-.12,1.12-.23,1.68-.41.1-.03.15-.04.22-.04.11,0,.13.08.23.51.07.38.12.69.12.85,0,.18-.04.21-.43.3-.51.12-1.38.27-2.31.39-.56,1.68-.93,2.58-1.62,3.99-.53,1.05-.83,1.61-1.23,2.24-.12.18-.19.24-.3.24-.15,0-.57-.22-1.09-.61-.24-.17-.3-.24-.3-.34s.06-.2.25-.46c.43-.54,1-1.47,1.5-2.46.42-.82.57-1.17,1-2.35-.58.04-.63.06-1.32.1ZM149.18,53.73c-1.64,0-2.75-.9-2.75-2.24s1.15-2.42,2.7-2.42c.36,0,.53.02,1.14.11-.06-.72-.06-1.01-.12-2.4,0-.29-.03-.67-.06-1.15.77.07,1.35.16,1.64.29.12.04.18.12.18.24,0,.08-.01.14-.03.24-.08.32-.09.54-.09.94,0,.56.04,1.5.09,2.24,1.07.48,1.5.72,2.25,1.31.33.25.45.39.45.51,0,.15-.08.29-.5.96-.18.3-.31.44-.42.44q-.09,0-.51-.39c-.33-.33-.71-.58-1.23-.9,0,1.4-1.02,2.24-2.74,2.24ZM149.15,50.52c-.72,0-1.21.34-1.21.87,0,.49.45.81,1.12.81.79,0,1.21-.41,1.21-1.2,0-.12,0-.24-.02-.24-.3-.15-.7-.24-1.11-.24ZM154.76,46.26c-.18.26-.27.33-.38.33-.08,0-.13-.03-.24-.13-.38-.36-.9-.75-1.46-1.09q-.36-.22-1.02-.52c-.21-.09-.29-.15-.29-.27,0-.1.08-.24.3-.58.36-.53.45-.62.58-.62.28,0,1.39.57,2.19,1.11.65.43.84.61.84.78,0,.12-.24.57-.54,1Z"/>
        <path d="M158.29,47.07h-.33c-.06,0-.1,0-.13.02h-.13c-.15,0-.25-.08-.29-.24-.08-.38-.12-.86-.12-1.54.9.09,2.97.15,5.8.15,2.55,0,5.49-.05,5.96-.09h.13c.21,0,.21.01.21,1,0,.66-.03.74-.24.74h-.1c-.69-.03-.97-.03-4.5-.08-.06,1.14-.12,1.62-.31,2.31-.47,1.69-1.35,2.88-2.85,3.81-.42.27-.75.42-.88.42-.08,0-.13-.03-.25-.15-.54-.55-.72-.69-1.26-.96,2.65-1.24,3.63-2.67,3.72-5.45-2.43.02-3.25.02-4.41.06ZM159.83,41.92c.35.01.65.03.81.03.76.04.99.04,1.98.04,2.26,0,3.34-.03,4.16-.12h.07c.21,0,.26.11.26.57v.31c0,.09,0,.24-.02.42,0,.41-.03.45-.31.45-.17,0-1.26-.03-2.31-.04-.22-.01-.6-.01-1.14-.01-1.92,0-3.27.03-3.75.09-.04.01-.09.01-.12.01-.15,0-.22-.06-.25-.2-.06-.32-.12-1.03-.12-1.62.3.04.41.04.75.06ZM168.38,43.09c-.3-.57-.63-1-1.11-1.52q-.09-.09-.09-.13c0-.09.09-.18.35-.38.24-.16.33-.22.42-.22.12,0,.27.12.64.53.48.52.83,1,.83,1.12,0,.09-.04.15-.22.3-.33.29-.54.42-.66.42-.06,0-.09-.03-.15-.12ZM170.5,41.97c-.18.13-.33.21-.41.21-.04,0-.09-.03-.15-.14-.32-.54-.68-1.02-1.12-1.47-.05-.04-.08-.09-.08-.12,0-.1.63-.55.76-.54.12.01.17.03.33.18.45.42,1.11,1.26,1.11,1.44,0,.09-.12.2-.45.44Z"/>
        <path d="M177.41,46.38c2.75,0,4.32-.03,5.83-.13h.2c.45,0,.45.01.45,1.21,0,.61-.04.72-.3.72h-.06c-.99-.04-1.54-.04-5.88-.04-1.59,0-2.38.02-3.76.06h-.44c-.48,0-.55.02-.84.06-.08,0-.13.01-.17.01-.17,0-.27-.08-.3-.21-.09-.38-.15-1.14-.15-1.83,1.21.12,2.28.15,5.42.15Z"/>
        <path d="M189.1,47.01c-.45.36-.69.51-.81.51s-.13,0-.42-.3c-.27-.27-.64-.54-1.06-.77,1.6-.97,2.56-1.84,3.49-3.15.63-.89,1.1-1.75,1.33-2.58,1.59.58,1.96.78,1.96.99,0,.08-.04.13-.19.24-.15.11-.35.38-.75.99h.27c.53.02.9.02.99.02,1.46,0,1.83-.03,2.29-.21.12-.04.17-.06.25-.06.21,0,.42.17.88.72.38.42.48.6.48.77,0,.13-.04.21-.21.38-.12.12-.3.4-.53.84-1.41,2.56-2.46,3.97-4.15,5.5-1.33,1.21-3.45,2.64-3.92,2.64-.13,0-.25-.06-.38-.18-.45-.44-.83-.71-1.26-.88,2.07-1.01,3.67-2.13,5.1-3.55q-.11-.11-.44-.45c-.31-.33-.66-.61-1.42-1.18-.09-.08-.12-.12-.12-.18,0-.08.2-.3.72-.84.25-.25.31-.3.4-.3.24,0,1.12.72,2.03,1.63.9-1.17,1.54-2.28,1.9-3.24q-1.71.03-3.9.04c-.69.9-1.56,1.79-2.56,2.61Z"/>
        <path d="M206.75,49.26c-1.48.87-1.91,1.31-1.91,1.96,0,.27.11.45.33.59.33.2,1.07.3,2.01.3.81,0,1.93-.08,2.7-.18.32-.04.5-.09,1.09-.24h.08c.11,0,.18.08.23.18.09.32.15.76.15,1.31,0,.22-.08.31-.27.36-.36.08-2.03.17-3.12.17-1.83,0-2.8-.12-3.52-.42-.87-.36-1.31-1.04-1.31-1.98,0-.87.41-1.63,1.21-2.28.65-.51.79-.62,2.17-1.4-.12-.49-.34-.71-.81-.71-.62,0-1.26.24-1.96.71-.43.3-.95.72-1.26,1.04-.45.46-.5.5-.62.5-.15,0-.46-.34-.78-.87-.15-.25-.24-.45-.24-.55,0-.13.03-.17.39-.39,1.23-.82,2.25-1.88,2.87-2.95-1.07.08-1.62.09-2.21.09-.23,0-.27-.04-.34-.3-.05-.2-.12-.99-.14-1.39.51.07.81.09,1.53.09.58,0,1.23-.02,1.91-.04.31-.86.42-1.4.43-2.1,1.33.23,1.95.45,1.95.71,0,.06-.02.09-.06.18-.1.19-.22.43-.42.9q-.03.06-.04.1c.86-.12,1.61-.27,2.13-.39.33-.09.41-.1.48-.1.12,0,.18.04.21.13.06.27.15.96.15,1.17,0,.17-.06.24-.25.29-.48.13-2.13.39-3.51.52-.45.83-.76,1.31-1.23,1.82.67-.32,1.18-.44,1.78-.44.68,0,1.12.39,1.43,1.23,1.48-.81,2.28-1.25,2.37-1.3.69-.41.98-.63,1.31-1.01.61.63,1.27,1.58,1.27,1.83,0,.09-.06.15-.25.2-.74.2-2.1.78-4.38,1.89.01.27.04.96.04,1.44v.72c0,.18-.03.27-.1.32-.08.07-.48.12-.93.12-.51,0-.6-.04-.6-.29v-.06c.03-.43.04-1,.04-1.36v-.08Z"/>
        <path d="M215.77,43.81c0-.43-.02-1.02-.04-1.35.69.08,1.2.18,1.6.33.36.14.48.23.48.39q0,.09-.06.24c-.2.51-.25,1.08-.25,2.45,0,1.92.12,3.12.42,4.03.22.71.57,1.11.97,1.11.62,0,1.12-.72,1.68-2.38.28.76.39.99.81,1.53.08.11.12.21.12.31,0,.24-.22.75-.53,1.19-.58.86-1.33,1.32-2.13,1.32-1.15,0-2.02-.93-2.56-2.78-.34-1.2-.51-2.71-.51-4.81v-1.58ZM224.69,44.05c.09,0,.17.04.29.15.75.72,1.53,1.92,2.03,3.09.33.79.64,1.86.64,2.18,0,.15-.08.22-.39.39-.34.18-1.05.42-1.23.42-.13,0-.19-.08-.24-.34-.2-1.16-.46-2-.93-2.97-.42-.87-.45-.91-1.47-2.17.63-.46,1.12-.74,1.3-.74Z"/>
        <path d="M232.85,46.18c1.89-.53,3.25-.77,4.27-.77,2.12,0,3.42,1.16,3.42,3.03,0,1.12-.46,2.12-1.35,2.87-.58.5-1.46.92-2.61,1.26-.64.18-1.33.32-1.63.32-.18,0-.27-.04-.33-.2-.21-.53-.45-.9-.76-1.21,3.3-.35,4.98-1.39,4.98-3.11,0-.87-.72-1.54-1.65-1.54-1.62,0-3.39.54-5.25,1.58-.15.08-.24.12-.3.12-.25,0-.67-.75-1.02-1.83.74-.11.99-.17,2.24-.51Z"/>
        <path d="M17.29,67.56c.38.11.48.18.48.35,0,.1-.01.15-.09.36-.17.44-.29,1.2-.34,2.25-.12,2.42-.18,4.29-.18,5.78,0,.48.04.84.12,1.08.17.5.69.75,1.53.75,1.35,0,2.62-.55,3.79-1.65.54-.51.87-.92,1.42-1.74.09.48.21.79.54,1.47.04.12.08.21.08.34,0,.27-.29.63-1.04,1.3-1.49,1.34-3.13,2.03-4.86,2.03-1.14,0-1.98-.29-2.52-.82-.57-.6-.79-1.38-.79-2.87,0-1.17.01-2.07.13-5.56.02-.53.03-.84.03-.98,0-1.27-.01-1.65-.11-2.29.77.03,1.35.09,1.8.21Z"/>
        <path d="M34.03,76.27c1.08.36,1.54.55,2.31.99.99.57,1.16.72,1.16,1,0,.14-.2.45-.51.86-.22.29-.32.36-.43.36q-.09,0-.59-.45c-.54-.5-1.12-.86-1.89-1.15,0,1.23-.93,1.9-2.64,1.9-1.53,0-2.45-.67-2.45-1.79s1.05-1.98,2.52-1.98c.27,0,.48.01,1.04.06-.11-1.8-.15-3.04-.17-4.51,0-.88-.03-1.16-.14-1.63.63.01,1.31.08,1.61.13.21.06.27.12.27.27,0,.07,0,.09-.09.27-.1.25-.17.86-.18,1.86.94-.04,1.46-.13,2.61-.45.03-.02.06-.02.08-.02.04,0,.09.02.11.04.1.14.3.99.3,1.32,0,.13-.04.17-.58.29-.9.18-1.61.27-2.49.29.02.73.04,1.15.17,2.34ZM31.43,77.29c-.72,0-1.09.21-1.09.63,0,.36.33.52,1,.52s1.02-.17,1.15-.54c.05-.12.06-.2.06-.46-.32-.11-.62-.15-1.12-.15Z"/>
        <path d="M45.37,75.79c.04.08.06.13.06.21,0,.1-.02.12-.15.45-.3.69-.66,1.77-.84,2.58-.04.17-.09.25-.15.29-.08.03-.59.11-.75.11h-.06c-.08,0-.18-.02-.3-.02-.2,0-.24-.04-.3-.22-.29-.97-.51-2.99-.51-4.5,0-1.65.1-2.67.52-4.92.15-.81.22-1.26.29-1.75.63.12,1.17.27,1.62.48.25.11.33.18.33.33,0,.11-.02.15-.18.39-.5.79-1.05,3.97-1.05,6.12,0,.35.02.81.06,1.56.42-.95.57-1.23.92-1.96.13.31.22.46.49.87ZM48.62,76.86c.48.25,1.05.34,2.06.34s1.53-.07,2.46-.34c.09-.03.16-.04.21-.04.1,0,.18.06.19.21.08.51.13,1.11.13,1.41,0,.15-.04.2-.25.25-.81.21-1.63.32-2.64.32-1.38,0-2.23-.17-2.94-.59-.66-.4-1.35-1.23-1.35-1.63,0-.21.32-.49,1.12-.99.27.54.53.81,1,1.07ZM47.57,69.21c.33.07,1.29.13,2.03.13.99,0,1.98-.08,2.91-.24q.08-.01.14-.01c.1,0,.15.04.18.17.03.15.08.81.08,1.21,0,.22-.04.3-.21.33-.62.12-1.63.2-2.71.2-1.29,0-2.45-.08-2.59-.17-.08-.04-.11-.15-.11-.42,0-.4.04-1,.08-1.12.01-.06.06-.09.15-.09.02,0,.04,0,.08.02Z"/>
        <path d="M59.05,75.91c-.67,0-1.2.01-1.56.04.04-.42.08-.89.08-1.53v-5.25c0-.78-.03-1.42-.08-1.79.42.04.87.06,1.52.06h6.64c.63,0,1.09-.01,1.51-.06-.04.32-.08.98-.08,1.79v5.25c0,.72.02,1.11.08,1.53-.38-.03-.96-.04-1.53-.04h-1.24v2.22c0,.41.12.45,1.29.45,1.08,0,1.36-.06,1.53-.3.15-.21.23-.78.25-1.84.6.32.96.46,1.5.6-.15,1.6-.29,2.15-.66,2.49-.4.36-1.02.48-2.62.48-2.42,0-2.85-.2-2.85-1.27v-2.82h-1.29c-.17,1.09-.63,1.99-1.36,2.67-.92.84-2,1.36-3.65,1.74-.24-.6-.42-.9-.84-1.42,1.37-.24,2.12-.5,2.82-.96.76-.5,1.18-1.12,1.36-2.02h-.82ZM59.08,69.84h6.5v-.95h-6.5v.95ZM59.08,72.13h6.5v-.94h-6.5v.94ZM59.08,74.52h6.5v-1.04h-6.5v1.04Z"/>
        <path d="M78.32,72.16c2.12,0,3.62,1.44,3.62,3.48,0,1.39-.74,2.66-1.96,3.39-.86.51-1.91.77-3.09.77-1.91,0-3.02-.77-3.02-2.07,0-1.19.99-2.03,2.4-2.03,1.27,0,2.19.64,2.8,1.96.76-.55,1.08-1.14,1.08-1.95,0-1.29-.92-2.13-2.36-2.13s-3.04.74-4.35,2.04c-.24.24-.46.49-.73.84-.11.15-.18.21-.27.21-.27,0-1.33-1.05-1.33-1.32,0-.13.06-.21.39-.45.34-.27.84-.71,1.47-1.3,1.46-1.38,2.52-2.54,4.09-4.46-1.88.24-3.13.45-3.6.62-.08.02-.12.03-.17.03-.12,0-.2-.07-.29-.3-.18-.45-.27-.95-.32-1.61.41.06.69.08,1.02.08.72,0,1.93-.1,3.51-.29.55-.06.73-.1,1.15-.27.14-.06.21-.07.3-.07.21,0,.42.18.81.78.29.39.38.59.38.71,0,.2-.04.26-.38.46-.27.17-.43.3-.78.63-.75.72-.76.72-1.69,1.66-.66.68-.74.75-1.33,1.35.97-.54,1.74-.76,2.64-.76ZM76.88,77.35c-.23-.15-.48-.22-.77-.22-.46,0-.76.22-.76.58,0,.44.46.71,1.18.71.33,0,.62-.03.99-.13-.18-.5-.33-.72-.64-.93Z"/>
        <path d="M91.76,77.23c1.23,0,2.59-.18,3.94-.52.08-.03.12-.03.17-.03.09,0,.13.06.17.2.04.33.08.81.08,1.3,0,.3-.03.39-.17.45-.45.24-2.47.46-4.21.46-2.26,0-3.55-.38-4.59-1.35-.5-.46-.99-1.27-.99-1.6,0-.22.13-.32,1.37-1.02.54,1.49,1.79,2.12,4.25,2.12ZM91.9,68.61c.87,0,1.38-.03,2.4-.18h.11c.12,0,.17.04.2.13.03.18.06.63.06,1.17,0,.34-.03.47-.12.53-.12.08-1.42.17-2.43.17-1.33,0-2.45-.11-3.69-.35-.85-.16-.9-.21-.9-.73,0-.35.03-.92.08-1.33,1.3.41,2.73.6,4.3.6Z"/>
        <path d="M103.63,71.91c-.19-.66-.25-1.06-.43-2.91-.06-.72-.12-1.08-.27-1.59.91.02,1.5.06,1.9.17.23.06.33.16.33.33,0,.06-.01.13-.04.25-.1.36-.15.63-.15,1.02,0,.74.15,1.93.32,2.46.09.29.18.39.34.39.36,0,1.68-.69,2.4-1.25.19-.15.22-.16.3-.16.13,0,.27.1.5.39.38.51.67,1.07.67,1.27,0,.17-.11.27-.36.35-.93.25-2.46.85-3.49,1.35-1.83.9-2.66,1.72-2.66,2.65s.76,1.29,2.7,1.29c1.12,0,2.14-.11,3.52-.33.06-.02.17-.03.2-.03.12,0,.19.06.25.18.04.15.15,1.07.15,1.42,0,.21-.06.29-.26.35-.33.07-2.14.18-3.28.18-1.92,0-3.2-.25-3.99-.79-.67-.46-1.04-1.2-1.04-2.1,0-.69.2-1.31.6-1.91.52-.78,1.09-1.27,2.35-2.02-.31-.29-.43-.5-.57-.96Z"/>
        <path d="M114.98,72.79c-.12.03-.18.06-.27.11-.08.04-.12.06-.18.06-.33,0-.57-.57-.75-1.68h.29c.63,0,2.24-.19,3.2-.39.31-1.3.48-2.31.48-3.02,0-.06,0-.15-.01-.25.64.06,1.26.19,1.68.38.24.09.36.21.36.36,0,.08-.02.13-.09.26q-.23.39-.69,2.04c.36-.04.76-.07,1.02-.07.62,0,1.1.12,1.44.36.6.44.9,1.32.9,2.69,0,2.23-.41,4.15-1.1,5.1-.48.66-1.11.97-2,.97-.54,0-1.05-.08-1.2-.17q-.12-.08-.17-.63c-.04-.41-.13-.77-.32-1.19.78.27.98.32,1.46.32.72,0,1.02-.34,1.35-1.56.23-.79.35-1.82.35-2.93,0-1.17-.29-1.59-1.08-1.59-.27,0-.71.04-1.05.09-.04.18-.06.2-.12.39-.42,1.54-1.19,3.55-1.95,5.17-.79,1.63-.99,1.96-1.18,1.96-.12,0-.53-.21-.96-.5-.35-.21-.44-.3-.44-.42q0-.07.62-1.05c.83-1.27,1.91-3.76,2.28-5.25-1.11.25-1.73.39-1.86.43ZM124.4,69.72c-.24.18-.41.25-.48.25-.04,0-.09-.03-.13-.1-.32-.51-.84-1.1-1.28-1.47-.03-.03-.04-.06-.04-.09,0-.06.11-.17.36-.36.25-.18.33-.23.43-.23.24,0,1.56,1.33,1.56,1.58,0,.09-.12.2-.42.42ZM122.81,71.31c0-.11.13-.24.57-.58.3-.23.45-.32.57-.32.2,0,.87.72,1.5,1.61.52.75,1.09,1.81,1.09,2.07,0,.15-.04.19-.52.58-.3.24-.65.44-.77.44-.1,0-.15-.04-.25-.3-.29-.72-.54-1.21-.95-1.86-.4-.64-.43-.67-1.15-1.46-.06-.07-.09-.12-.09-.18ZM124.78,66.7c.25,0,1.53,1.28,1.53,1.53,0,.07-.09.16-.39.38-.27.21-.41.28-.46.28q-.08,0-.38-.42c-.25-.34-.74-.85-1-1.08-.04-.04-.08-.08-.08-.12,0-.12.62-.57.78-.57Z"/>
        <path d="M135.41,71.88c.34,1.29,1.11,2.68,2.07,3.76,1.06,1.23,2.26,2.04,3.97,2.75-.5.57-.69.88-1.05,1.65-2.85-1.45-4.65-3.37-5.73-6.12-.43,1.47-1.2,2.73-2.35,3.86-.97.97-2.01,1.65-3.43,2.28-.24-.55-.54-1-1-1.51,1.75-.7,3-1.56,3.93-2.68.9-1.1,1.38-2.25,1.63-3.97h-3.39c-.92,0-1.33.01-1.82.09v-1.8c.45.06.98.09,1.82.09h3.54c.03-.66.04-1,.04-1.58,0-.72-.03-1.15-.11-1.57h1.91c-.08.51-.09.7-.11,1.69,0,.61-.01.94-.03,1.46h3.81c.81,0,1.33-.03,1.81-.09v1.8c-.55-.06-1-.09-1.8-.09h-3.72Z"/>
        <path d="M143.41,72.33c-.43.09-.73.17-1.11.27l-.12-1.56c.3,0,.61-.04,1.08-.15l.57-.12v-2.37c0-.69-.01-.99-.08-1.38h1.68c-.04.34-.06.63-.06,1.27v2.16l2.01-.42c.41-.09.77-.18,1.01-.27l.1,1.56c-.27.03-.63.07-1.05.16l-2.07.44v3.63c0,.32.06.36.44.36.48,0,.73-.11.84-.33.1-.26.18-1.01.21-2.15.42.24.94.43,1.41.56-.11,1.84-.3,2.49-.83,2.92-.39.33-1,.46-2.07.46-1.23,0-1.54-.27-1.54-1.33v-3.81l-.42.09ZM148.6,69.22c-.53,0-.89.01-1.19.06v-1.57c.42.04,1.08.07,1.86.07h4.68c.67,0,1.06-.01,1.48-.06-.06.87-.06.9-.17,4.21-.12,3.3-.4,5.7-.81,6.75-.3.75-.96,1.09-2.13,1.09-.32,0-1.05-.03-1.44-.04-.06-.66-.15-1.06-.36-1.61.69.11,1.21.17,1.56.17.86,0,.98-.15,1.21-1.49.17-.93.29-2.13.38-3.51q.06-1.17.11-4.08h-2.13c-.11,3.03-.3,4.33-.83,5.94-.41,1.26-.99,2.29-1.88,3.33-.54.63-.97,1-1.89,1.6-.42-.52-.58-.67-1.28-1.18,1.2-.65,2-1.33,2.64-2.29.84-1.26,1.3-2.77,1.5-4.8.07-.81.09-1.08.13-2.59h-1.47Z"/>
        <path d="M158.71,71.34c-.27.02-.43.03-.61.05-.14.01-.15.01-.17.01-.12,0-.18-.04-.23-.2-.08-.24-.18-1.04-.19-1.48.17.01.6.03,1.14.03.17,0,1.35-.07,1.88-.12.25-1.21.34-1.85.34-2.66,1.54.21,2.1.39,2.1.67,0,.11-.01.13-.24.48-.12.18-.17.34-.42,1.28.7-.12,1.12-.23,1.68-.41.1-.03.15-.04.22-.04.11,0,.13.08.23.51.07.38.12.69.12.85,0,.18-.04.21-.43.3-.51.12-1.38.27-2.31.39-.56,1.68-.93,2.58-1.62,3.99-.53,1.05-.83,1.61-1.23,2.24-.12.18-.19.24-.3.24-.15,0-.57-.22-1.09-.61-.24-.17-.3-.24-.3-.34s.06-.2.25-.46c.43-.54,1-1.47,1.5-2.46.42-.82.57-1.17,1-2.35-.58.04-.63.06-1.32.1ZM163.64,79.98c-1.64,0-2.75-.9-2.75-2.24s1.15-2.42,2.7-2.42c.36,0,.53.02,1.14.11-.06-.72-.06-1.01-.12-2.4,0-.29-.03-.67-.06-1.15.77.07,1.35.16,1.64.29.12.04.18.12.18.24,0,.08-.01.14-.03.24-.08.32-.09.54-.09.94,0,.56.04,1.5.09,2.24,1.07.48,1.5.72,2.25,1.31.33.25.45.39.45.51,0,.15-.08.29-.5.96-.18.3-.31.44-.42.44q-.09,0-.51-.39c-.33-.33-.71-.58-1.23-.9,0,1.4-1.02,2.24-2.74,2.24ZM163.61,76.77c-.72,0-1.21.34-1.21.87,0,.49.45.81,1.12.81.79,0,1.21-.41,1.21-1.2,0-.12,0-.24-.02-.24-.3-.15-.7-.24-1.11-.24ZM169.22,72.51c-.18.26-.27.33-.38.33-.08,0-.13-.03-.24-.13-.38-.36-.9-.75-1.46-1.09q-.36-.22-1.02-.52c-.21-.09-.29-.15-.29-.27,0-.1.08-.24.3-.58.36-.53.45-.62.58-.62.28,0,1.39.57,2.19,1.11.65.43.84.61.84.78,0,.12-.24.57-.54,1Z"/>
        <path d="M177.23,76.51c-.72,1.24-1.71,1.93-2.73,1.93-1.56,0-2.67-1.53-2.67-3.66,0-2.37,1.2-4.41,3.25-5.49,1-.54,2.08-.78,3.51-.78,3.14,0,5.46,2.22,5.46,5.19,0,2.62-1.29,4.51-3.78,5.58-.5.21-.89.33-1.08.33-.18,0-.25-.06-.45-.34-.25-.39-.54-.68-.95-.95,3.09-.79,4.49-2.25,4.49-4.68,0-1.25-.53-2.29-1.46-2.96-.53-.36-.95-.51-1.77-.64-.42,3.16-.92,4.89-1.83,6.46ZM175.07,71.2c-1,.88-1.58,2.15-1.58,3.55,0,1.16.38,1.83,1,1.83.75,0,1.52-1.04,2.08-2.82.36-1.12.54-1.98.77-3.65-1.07.23-1.59.48-2.28,1.08Z"/>
        <path d="M192.97,72.18c.03,1.12.06,1.71.21,3.21,1.26.4,1.86.66,2.75,1.14,1.18.67,1.79,1.12,1.79,1.33,0,.18-.2.53-.54,1.02-.22.33-.39.48-.51.48-.08,0-.14-.03-.24-.13-1.07-1.02-1.92-1.58-3.18-2.08-.03.92-.2,1.39-.63,1.84-.53.53-1.44.81-2.62.81-1.96,0-3.17-.87-3.17-2.29,0-1.52,1.32-2.48,3.38-2.48.5,0,.93.03,1.3.08-.15-2.46-.2-3.64-.21-5.85-.01-.87-.04-1.39-.13-2.1.69.01,1.38.09,1.79.19.24.08.33.15.33.32,0,.07-.01.12-.06.24-.17.39-.22.96-.25,2.62q.12,0,.58-.03c.72-.04,1.74-.22,2.88-.54.04-.02.08-.02.12-.02.09,0,.12.03.18.18.15.36.32,1.1.32,1.35,0,.12-.06.17-.2.21-1.16.27-2.78.5-3.66.5h-.21ZM190.03,76.5c-1.02,0-1.63.35-1.63.92,0,.53.51.8,1.46.8,1.15,0,1.66-.41,1.66-1.35v-.12c-.49-.18-.92-.24-1.48-.24Z"/>
        <path d="M208.09,78.63c0,.66-.52,1.18-1.18,1.18s-1.19-.52-1.19-1.18.53-1.19,1.19-1.19,1.18.53,1.18,1.19ZM207.56,76.41h-1.33l-.41-8.98h2.16l-.42,8.98Z"/>
      </g>
      <g>
        <path class="cls-1" d="M325.81,70.38c1.81.14,1.23,2.13.34,3.29-.19.24-.54.27-.77.08-1.57-1.34-1.02-3.48.43-3.36Z"/>
        <path class="cls-1" d="M325.71,71.17c-.31,0-.57-.25-.57-.57v-3.57l-.9-1.25c-.18-.25-.12-.61.13-.79.25-.18.61-.12.79.13l1,1.4c.07.1.11.21.11.33v3.75c0,.31-.25.57-.57.57Z"/>
        <polygon class="cls-3" points="322.87 61.44 316.74 60.87 319.47 66.38 325.71 67.04 322.87 61.44"/>
        <rect class="cls-3" x="316.16" y="64.55" width="6.67" height="2.9" transform="translate(110.34 -184.38) rotate(38.45)"/>
        <path class="cls-1" d="M321.23,70.23c-.12,0-.25-.04-.35-.12-.25-.19-.29-.55-.09-.8l2.25-2.85c.12-.15.31-.23.51-.21l1.19.13-2.23-4.39-4.8-.45.7,1.41c.1.19.07.42-.06.59l-1.81,2.4c-.19.25-.54.3-.79.11-.25-.19-.3-.54-.11-.79l1.6-2.12-.99-2.01c-.09-.18-.08-.4.04-.57.12-.17.31-.27.52-.24l6.12.57c.19.02.37.13.45.31l2.84,5.6c.09.19.08.41-.04.58-.12.17-.32.26-.53.24l-1.92-.2-2.06,2.61c-.11.14-.28.22-.45.22Z"/>
        <path class="cls-4" d="M317.19,93.18l4.18-1.62,2.02-5.47-.29-8.15-2.24-7.54-3.74-4.67-5.59-1.9-5.52-.3-7.14,3.84-3.23,5.74-3.98,4.71-1.8,4.98,1.36,4.52,9.81,4.92c2.84,1.15,12.97,1.45,16.17.94Z"/>
        <path class="cls-7" d="M290.28,79.53c4.88.32,7.71,5.48,5.9,11.02-4.77-2.59-7.43-5.23-5.9-11.02Z"/>
        <path class="cls-7" d="M323.46,83.29c-5.64-.78-9.96,4.07-9.08,10.38,5.99-1.67,9.58-3.87,9.08-10.38Z"/>
        <path class="cls-1" d="M301.77,72.43c1.6-.65,3.04-.03,3.72,1.21.16.29-.14.55-.45.39-1.01-.51-1.99-.76-3.07-.96-.36-.07-.49-.51-.19-.64Z"/>
        <path class="cls-1" d="M314.47,74.86c-1.18-1.26-2.75-1.29-3.88-.44-.27.2-.1.55.25.54,1.13-.04,2.13.14,3.2.4.36.09.66-.26.44-.5Z"/>
        <path class="cls-1" d="M310.47,83.91c-.14,0-.27-.05-.39-.14-.25-.21-.29-.59-.07-.85.68-.81,1.51-1.23,2.34-1.19.75.04,1.43.46,1.93,1.18.19.27.12.65-.15.84-.27.19-.65.12-.84-.15-.2-.29-.53-.64-1-.66-.44-.02-.92.25-1.36.77-.12.14-.29.21-.46.21Z"/>
        <path class="cls-1" d="M303.02,82.64c-.19,0-.37-.09-.49-.25-.37-.52-.72-.8-1-.81,0,0,0,0-.02,0-.33,0-.68.34-.92.64-.21.26-.59.29-.85.08-.26-.21-.29-.59-.08-.85.6-.74,1.23-1.1,1.9-1.08.7.02,1.33.45,1.94,1.31.19.27.13.65-.14.84-.11.08-.23.11-.35.11Z"/>
        <path class="cls-1" d="M313.25,94.23c-.31,0-.56-.25-.57-.56,0-.31.24-.57.56-.58,3.72-.08,6.39-.95,7.93-2.58,1.98-2.1,1.87-5.19,1.79-7.45l-.02-.46c-.13-4.27-1.4-18.26-12.21-18.99-9.16-.62-12.59,5.21-14.85,9.07-.46.78-.86,1.46-1.24,1.98-.11.15-.23.31-.37.48-1.58,2.06-4.51,5.88-3.4,9.55.8,2.64,3.61,4.79,8.34,6.41,1.43.49,2.87.87,4.3,1.14.31.06.51.35.45.66s-.36.51-.66.45c-1.48-.28-2.97-.67-4.45-1.18-5.1-1.74-8.15-4.15-9.07-7.16-1.28-4.23,2.01-8.51,3.59-10.57.13-.17.25-.33.36-.47.35-.47.73-1.12,1.17-1.87,2.26-3.85,6.04-10.29,15.91-9.63,5.1.34,8.83,3.35,11.1,8.93,1.72,4.24,2.1,8.81,2.17,11.16l.02.46c.09,2.46.21,5.83-2.1,8.27-1.78,1.89-4.64,2.85-8.73,2.94,0,0,0,0-.01,0Z"/>
        <path class="cls-1" d="M301.36,81.34c-.06,0-.12-.02-.18-.06-.75-.6-1.14-1.21-1.43-2.27-.04-.15.05-.31.2-.35.15-.04.31.05.35.2.29,1.07.66,1.52,1.23,1.97.12.1.14.28.05.4-.06.07-.14.11-.22.11Z"/>
        <path class="cls-1" d="M313.35,82.87c-.14,0-.26-.1-.28-.25-.02-.16.09-.3.24-.32.67-.09,1.43-.66,1.87-1.39.08-.13.25-.18.39-.1.13.08.18.25.1.39-.52.88-1.44,1.55-2.28,1.67-.01,0-.03,0-.04,0Z"/>
        <path class="cls-1" d="M314.7,83.41c-.37,0-.75-.07-1.12-.24-.14-.07-.21-.23-.14-.38.07-.14.23-.2.38-.14.86.39,1.83.09,2.49-.24.14-.07.31-.01.38.13.07.14.01.31-.13.38-.5.25-1.16.48-1.86.48Z"/>
        <path class="cls-1" d="M300.49,81.34c-.8,0-1.66-.46-2.34-1.26-.1-.12-.09-.3.03-.4.12-.1.3-.09.4.03.62.73,1.4,1.13,2.07,1.05.16-.02.3.09.31.25.02.16-.09.3-.25.31-.07,0-.15.01-.22.01Z"/>
        <g>
          <path class="cls-2" d="M310.66,87.07c-.67-1.83-3.64-3.8-5.16-3.59-1.51.21-4.7,2.06-5.7,2-.99-.06-1.68-.73-1.8,1.59-.12,2.32,1.7,3.51,4.13,2.66,3.37,1.92,9.68.49,8.53-2.66Z"/>
          <path class="cls-2" d="M310.66,89.44c-.75,3.68-4.93,5.84-6.2,5.3-1.26-.54-2.85-1.42-1.47-4.62,2.5.53,6.91-.12,7.03-1.63s.63.96.63.96Z"/>
          <path class="cls-6" d="M304.24,90.44c-.73,1.35-.38,3.07,1.83,1.99,2.21-1.08,2.21-2.29,2.21-2.29,0,0,1.45-.73-.48,0-1.94.73-3.55.3-3.55.3Z"/>
          <path class="cls-1" d="M305.74,91.16c-1.06,0-2.19-.33-3.37-.99-2.29.66-3.56.04-4.23-.6-.84-.81-1.16-2.1-.83-3.37.34-1.28.9-1.38,1.8-1.41.65-.02,1.63-.04,3.22-.88,3.52-1.85,5.58-.79,7.59,1.38.19.2.18.52-.03.7-.2.19-.52.18-.7-.03-1.79-1.93-3.42-2.74-6.4-1.17-1.8.95-2.92.97-3.66.99-.69.02-.69.03-.86.67-.24.91-.02,1.85.55,2.4.71.68,1.91.79,3.46.3.13-.04.28-.02.4.05,1.93,1.13,4.69,1.81,6.88-1.38.13-.19.38-.27.6-.18,0,0,.72.29,1.36.43.27.06.44.32.38.59-.06.27-.33.44-.59.38-.42-.09-.85-.24-1.15-.34-1.22,1.63-2.73,2.45-4.41,2.45Z"/>
          <path class="cls-1" d="M305.05,95.29c-.6,0-1.18-.14-1.7-.42-.85-.46-1.39-1.1-1.6-1.92-.43-1.62.6-3.29.65-3.36.15-.23.45-.3.68-.16.23.15.3.45.16.68,0,.01-.85,1.39-.53,2.59.15.55.51.97,1.11,1.3.86.46,1.92.39,3-.19,1.51-.82,3.14-2.8,3.35-5.36.02-.27.26-.48.54-.45.27.02.48.26.45.54-.21,2.58-1.73,4.99-3.86,6.15-.76.41-1.52.62-2.25.62Z"/>
        </g>
      </g>
    </g>
  </g>
</svg>