<?xml version="1.0" encoding="UTF-8"?>
<svg id="_レイヤー_2" data-name="レイヤー 2" xmlns="http://www.w3.org/2000/svg" width="339.66" height="233.9" viewBox="0 0 339.66 233.9">
  <defs>
    <style>
      .cls-1 {
        fill: #211815;
      }

      .cls-2 {
        fill: #f5f19b;
      }

      .cls-3 {
        fill: #ecbb6e;
      }

      .cls-4 {
        fill: #93c9ce;
      }

      .cls-5 {
        fill: #5c948d;
      }

      .cls-6 {
        fill: #fffba1;
      }

      .cls-7, .cls-8 {
        fill: #fff;
      }

      .cls-9 {
        fill: #d3f2c9;
      }

      .cls-10 {
        fill: #ceeaeb;
      }

      .cls-11 {
        fill: #f2ec67;
      }

      .cls-12 {
        fill: #f2d496;
      }

      .cls-8 {
        stroke: #ceeaeb;
        stroke-miterlimit: 10;
        stroke-width: 2.83px;
      }
    </style>
  </defs>
  <g id="_レイヤー_1-2" data-name="レイヤー 1">
    <g>
      <path class="cls-8" d="M10.04,127.33h239.38c4.68,0,8.47,3.79,8.47,8.47l-.16,64.75,9.69,9.69h-9.69s0,.5,0,.5c0,4.68-3.79,8.47-8.47,8.47H9.89c-4.68,0-8.47-3.79-8.47-8.47l.16-74.94c0-4.68,3.79-8.47,8.47-8.47Z"/>
      <path class="cls-8" d="M329.77,1.42H90.4c-4.68,0-8.47,3.79-8.47,8.47v66.5s-9.69,9.69-9.69,9.69h9.69v.5c0,4.68,3.79,8.47,8.47,8.47h239.38c4.68,0,8.47-3.79,8.47-8.47V9.89c0-4.68-3.79-8.47-8.47-8.47Z"/>
      <circle class="cls-9" cx="308.24" cy="203.9" r="30"/>
      <g>
        <path d="M96.82,20.95c-.27.02-.43.03-.61.05-.14.01-.15.01-.17.01-.12,0-.18-.04-.23-.2-.08-.24-.18-1.04-.19-1.48.17.01.6.03,1.14.03.17,0,1.35-.07,1.88-.12.25-1.21.34-1.84.34-2.65,1.54.21,2.1.39,2.1.67,0,.11-.01.13-.24.48-.12.18-.17.34-.42,1.27.7-.12,1.12-.22,1.68-.41.1-.03.15-.04.22-.04.11,0,.13.08.23.51.07.37.12.69.12.85,0,.18-.04.21-.43.3-.51.12-1.38.27-2.31.39-.56,1.68-.93,2.58-1.62,3.99-.53,1.05-.83,1.61-1.23,2.24-.12.18-.19.24-.3.24-.15,0-.57-.22-1.09-.61-.24-.17-.3-.24-.3-.35s.06-.19.25-.46c.43-.54,1-1.47,1.5-2.46.42-.82.57-1.17,1-2.35-.58.04-.63.06-1.32.1ZM101.76,29.59c-1.64,0-2.75-.9-2.75-2.23s1.15-2.42,2.7-2.42c.36,0,.53.01,1.14.11-.06-.72-.06-1.01-.12-2.4,0-.29-.03-.67-.06-1.16.77.08,1.35.17,1.64.29.12.04.18.12.18.24,0,.08-.01.13-.03.24-.08.31-.09.54-.09.94,0,.56.04,1.5.09,2.24,1.07.48,1.5.72,2.25,1.3.33.25.45.39.45.51,0,.15-.08.29-.5.96-.18.3-.31.44-.42.44q-.09,0-.51-.39c-.33-.33-.71-.58-1.23-.9,0,1.39-1.02,2.23-2.74,2.23ZM101.73,26.38c-.72,0-1.21.34-1.21.87,0,.5.45.81,1.12.81.79,0,1.21-.41,1.21-1.2,0-.12,0-.24-.02-.24-.3-.15-.7-.24-1.11-.24ZM107.34,22.12c-.18.26-.27.33-.38.33-.08,0-.13-.03-.24-.13-.38-.36-.9-.75-1.46-1.09q-.36-.22-1.02-.53c-.21-.09-.29-.15-.29-.27,0-.11.08-.24.3-.58.36-.53.45-.62.58-.62.28,0,1.39.57,2.19,1.11.65.43.84.61.84.78,0,.12-.24.57-.54,1Z"/>
        <path d="M117.66,21.77c2.12,0,3.62,1.44,3.62,3.48,0,1.39-.74,2.65-1.96,3.39-.86.51-1.91.76-3.09.76-1.91,0-3.02-.76-3.02-2.07,0-1.19.99-2.03,2.4-2.03,1.27,0,2.19.64,2.8,1.96.76-.55,1.08-1.14,1.08-1.95,0-1.29-.92-2.13-2.36-2.13s-3.04.74-4.35,2.04c-.24.24-.46.5-.73.84-.11.15-.18.21-.27.21-.27,0-1.33-1.05-1.33-1.32,0-.13.06-.21.39-.45.34-.27.84-.71,1.47-1.3,1.46-1.38,2.52-2.54,4.09-4.46-1.88.24-3.13.45-3.6.62-.08.01-.12.03-.17.03-.12,0-.2-.07-.29-.3-.18-.45-.27-.94-.32-1.6.41.06.69.08,1.02.08.72,0,1.93-.11,3.51-.29.55-.06.73-.11,1.15-.27.14-.06.21-.08.3-.08.21,0,.42.18.81.78.29.39.38.58.38.71,0,.2-.04.25-.38.46-.27.17-.43.3-.78.63-.75.72-.76.72-1.69,1.67-.66.67-.74.75-1.33,1.35.97-.54,1.74-.77,2.64-.77ZM116.22,26.96c-.23-.15-.48-.23-.77-.23-.46,0-.76.23-.76.58,0,.44.46.71,1.18.71.33,0,.62-.03.99-.13-.18-.5-.33-.72-.64-.93Z"/>
        <path d="M127.77,25.75s.06.12.06.18c0,.09-.01.17-.12.43-.39,1.11-.51,1.61-.58,2.42-.03.22-.07.29-.25.34-.3.09-.66.14-1.06.14-.18,0-.24-.05-.32-.26-.42-1.18-.69-2.98-.69-4.56s.19-3.15.75-5.68c.17-.79.18-.92.24-1.47.66.09,1.1.21,1.53.43.3.15.39.25.39.42,0,.12-.03.2-.17.39-.12.17-.19.36-.3.7-.54,1.71-.85,3.74-.85,5.38,0,.5.03,1.08.13,2.1.21-.58.43-1.21.69-1.88.15.41.24.57.55.9ZM130.72,23.11c-.96,0-1.19-.03-1.23-.13-.06-.13-.12-.71-.12-1.11,0-.1,0-.22.03-.43.55.06,1.08.08,1.86.08.43,0,.72,0,1.24-.03,0-1.16,0-1.28.02-1.75-.5.01-1.02.03-1.33.03-1.12,0-1.44-.03-1.49-.15-.06-.12-.1-.62-.1-1.02,0-.12,0-.24.03-.5.45.04.87.06,1.65.06,1.65,0,3.04-.13,4.27-.42.08-.03.11-.03.15-.03.1,0,.13.03.17.15.04.15.08.63.08.96s-.02.41-.14.48c-.15.09-.75.19-1.71.31q-.02.17-.03.51c0,.24-.02.3-.02,1.21.63-.1.83-.15,1.7-.34.08-.03.11-.03.15-.03.1,0,.13.03.17.15.03.15.07.67.07,1s-.01.41-.13.48c-.18.09-.99.24-1.92.34.02.69.04,1.14.18,2.42.79.34,1.33.66,2.04,1.17.56.42.72.58.72.73,0,.2-.27.69-.62,1.11-.2.22-.3.32-.42.32q-.11,0-.44-.38c-.31-.36-.78-.75-1.3-1.11,0,.6-.1.93-.38,1.27-.45.58-1.26.9-2.29.9-1.69,0-2.83-.9-2.83-2.25s1.14-2.26,2.83-2.26c.39,0,.69.01,1.07.08-.08-1.25-.09-1.56-.09-1.88q-1.48.06-1.83.06ZM131.49,26.26c-.76,0-1.18.27-1.18.75s.4.76,1.11.76c.81,0,1.23-.34,1.23-1.02v-.27c-.39-.17-.74-.22-1.16-.22Z"/>
        <path d="M142.96,21.52c-.19-.66-.25-1.06-.43-2.91-.06-.72-.12-1.08-.27-1.59.91.02,1.5.06,1.9.17.23.06.33.17.33.33,0,.06-.01.13-.04.25-.1.36-.15.63-.15,1.02,0,.73.15,1.93.32,2.46.09.28.18.39.34.39.36,0,1.68-.69,2.4-1.25.19-.15.22-.17.3-.17.13,0,.27.11.5.39.38.51.67,1.06.67,1.27,0,.17-.11.27-.36.34-.93.25-2.46.86-3.49,1.35-1.83.9-2.66,1.72-2.66,2.65s.76,1.29,2.7,1.29c1.12,0,2.14-.1,3.52-.33.06-.01.17-.03.2-.03.12,0,.19.06.25.18.04.15.15,1.06.15,1.42,0,.21-.06.29-.26.34-.33.08-2.14.18-3.28.18-1.92,0-3.2-.26-3.99-.79-.67-.47-1.04-1.2-1.04-2.1,0-.69.2-1.3.6-1.9.52-.78,1.09-1.28,2.35-2.03-.31-.29-.43-.5-.57-.96ZM148.41,18.16c.12-.09.2-.12.29-.12.21,0,1.51,1.38,1.51,1.6,0,.09-.12.23-.41.46-.3.25-.33.27-.4.27-.09,0-.11,0-.39-.42-.3-.42-.72-.9-1.04-1.17-.04-.04-.07-.09-.07-.14,0-.07.13-.21.51-.49ZM151.66,18.56c0,.09-.04.15-.22.3-.21.18-.5.38-.56.38-.09,0-.12-.04-.3-.28-.34-.5-.55-.74-1.09-1.23-.06-.06-.08-.09-.08-.13,0-.13.57-.57.75-.57.25,0,1.5,1.28,1.5,1.54Z"/>
        <path d="M152.59,23.14c.55-.67.83-.92,1.48-1.33.92-.57,1.59-.78,2.46-.78.69,0,1.29.13,1.94.45q.39.2,1.36.83c1.14.73,1.94,1.05,2.66,1.05.31,0,.75-.12,1.11-.29.64-.33,1.03-.66,1.56-1.37l1.2,1.2c-.62.78-.93,1.09-1.42,1.46-.77.57-1.62.85-2.6.85-.45,0-.92-.07-1.32-.21-.58-.19-.89-.34-2.06-1.11-1.32-.84-1.78-1.02-2.58-1.02-.98,0-1.67.36-2.61,1.38l-1.18-1.11Z"/>
        <path d="M175.12,28.24c0,.66-.52,1.18-1.18,1.18s-1.19-.52-1.19-1.18.53-1.18,1.19-1.18,1.18.52,1.18,1.18ZM174.6,26.02h-1.33l-.41-8.98h2.16l-.42,8.98Z"/>
        <path d="M189.9,17.17c1.39,0,2.29.25,2.92.81.58.53.93,1.37.93,2.27,0,1.48-.73,2.46-2.17,2.88.76.33.96.63,1.72,2.64l1.17,3.09h-2.05l-.99-2.9c-.58-1.71-1.02-2.22-1.89-2.22h-1.9v5.12h-1.88v-11.68h4.14ZM189.36,22.16c1.71,0,2.49-.56,2.49-1.77,0-.51-.2-.96-.53-1.21-.34-.25-1.04-.41-1.98-.41h-1.71v3.39h1.72Z"/>
        <path d="M203.17,27.29c-.86,1.16-2.07,1.75-3.58,1.75-2.96,0-4.83-2.34-4.83-6.03,0-1.74.43-3.25,1.25-4.33.85-1.12,2.05-1.71,3.57-1.71s2.82.65,3.69,1.88c.72,1.04,1.14,2.54,1.14,4.16,0,1.71-.42,3.21-1.23,4.29ZM199.57,18.68c-.93,0-1.67.42-2.13,1.21-.45.75-.69,1.88-.69,3.15,0,1.17.24,2.23.67,3.01.45.83,1.21,1.28,2.14,1.28,1.79,0,2.83-1.61,2.83-4.32s-1.04-4.33-2.83-4.33Z"/>
        <path d="M212.82,17.17v1.59h-5.4v3.18h4.12v1.58h-4.12v3.72h5.66v1.62h-7.59v-11.68h7.33Z"/>
        <path d="M219,22.4c-.12.03-.18.06-.27.11-.08.04-.12.06-.18.06-.33,0-.57-.57-.75-1.68h.29c.63,0,2.24-.2,3.2-.39.31-1.31.48-2.31.48-3.02,0-.06,0-.15-.01-.25.64.06,1.26.2,1.68.38.24.09.36.21.36.36,0,.08-.02.13-.09.25q-.23.39-.69,2.04c.36-.04.76-.08,1.02-.08.62,0,1.1.12,1.44.36.6.43.9,1.32.9,2.68,0,2.24-.41,4.16-1.1,5.1-.48.66-1.11.98-2,.98-.54,0-1.05-.08-1.2-.17q-.12-.08-.17-.63c-.04-.41-.13-.77-.32-1.19.78.27.98.32,1.46.32.72,0,1.02-.35,1.35-1.56.23-.79.35-1.81.35-2.92,0-1.17-.29-1.59-1.08-1.59-.27,0-.71.04-1.05.09-.04.18-.06.2-.12.39-.42,1.54-1.19,3.55-1.95,5.17-.79,1.63-.99,1.96-1.18,1.96-.12,0-.53-.21-.96-.5-.35-.21-.44-.3-.44-.42q0-.08.62-1.05c.83-1.28,1.91-3.77,2.28-5.25-1.11.25-1.73.39-1.86.43ZM228.42,19.33c-.24.18-.41.25-.48.25-.04,0-.09-.03-.13-.11-.32-.51-.84-1.09-1.28-1.47-.03-.03-.04-.06-.04-.09,0-.06.11-.17.36-.36.25-.18.33-.22.43-.22.24,0,1.56,1.33,1.56,1.58,0,.09-.12.19-.42.42ZM226.83,20.92c0-.11.13-.24.57-.58.3-.23.45-.32.57-.32.2,0,.87.72,1.5,1.61.52.75,1.09,1.81,1.09,2.07,0,.15-.04.2-.52.58-.3.24-.65.44-.77.44-.1,0-.15-.04-.25-.3-.29-.72-.54-1.21-.95-1.86-.4-.65-.43-.67-1.15-1.46-.06-.08-.09-.12-.09-.18ZM228.79,16.31c.25,0,1.53,1.28,1.53,1.53,0,.08-.09.17-.39.38-.27.21-.41.29-.46.29q-.08,0-.38-.42c-.25-.34-.74-.86-1-1.08-.04-.04-.08-.08-.08-.12,0-.12.62-.57.78-.57Z"/>
        <path d="M237.7,17.3c0-.31-.02-.6-.08-.88h1.75c-.04.3-.08.57-.08.88v.18h4.26c.63,0,1.05-.03,1.5-.09v1.47c-.48-.06-.84-.07-1.5-.07h-9.93c-.66,0-1,.01-1.48.07v-1.47c.45.06.88.09,1.56.09h3.99v-.18ZM232.56,24.38c0-.5-.02-.86-.06-1.31.45.05.9.06,1.5.06h9.31c.69,0,1.02-.01,1.42-.06-.04.44-.06.8-.06,1.29v3.67c0,.71-.08.99-.34,1.23-.29.25-.72.34-1.74.34-.3,0-.38,0-.83-.03q-.22,0-.46-.01c-.03-.64-.11-.97-.3-1.44.73.09,1.41.13,1.8.13.27,0,.34-.06.34-.3v-3.58h-9.06v3.82c0,.74.02,1.1.08,1.59h-1.7c.06-.31.09-.9.09-1.59v-3.82ZM234.34,20.35c0-.45-.01-.71-.04-1.04.39.03.75.04,1.41.04h5.97c.62,0,.9-.01,1.29-.04-.03.36-.04.58-.04,1.05v1.23c0,.54.01.72.04,1.05-.38-.03-.71-.04-1.37-.04h-5.94c-.6,0-.96.01-1.37.04.03-.29.04-.58.04-1.05v-1.25ZM241.69,27.04c0,.42.02.71.04.98-.25-.03-.82-.04-1.2-.04h-3.63v.72h-1.49c.04-.27.06-.6.06-1.17v-1.67c0-.41-.02-.69-.05-.95.36.03.65.04,1.17.04h3.96c.54,0,.68,0,1.17-.04-.03.29-.04.5-.04.93v1.2ZM235.84,21.4h5.57v-.87h-5.57v.87ZM236.91,26.83h3.4v-.78h-3.4v.78Z"/>
        <path d="M247.48,19.67c0-.44-.02-1.02-.04-1.35.69.07,1.2.18,1.6.33.36.14.48.23.48.39q0,.09-.06.24c-.2.51-.25,1.08-.25,2.44,0,1.92.12,3.12.42,4.04.22.71.57,1.11.97,1.11.62,0,1.12-.72,1.68-2.38.28.77.39.99.81,1.53.08.1.12.21.12.31,0,.24-.22.75-.53,1.19-.58.85-1.33,1.32-2.13,1.32-1.15,0-2.02-.93-2.56-2.77-.34-1.2-.51-2.71-.51-4.81v-1.58ZM256.41,19.91c.09,0,.17.04.29.15.75.72,1.53,1.92,2.03,3.09.33.79.64,1.86.64,2.17,0,.15-.08.23-.39.39-.34.18-1.05.42-1.23.42-.13,0-.19-.08-.24-.34-.2-1.16-.46-2-.93-2.97-.42-.87-.45-.92-1.47-2.17.63-.46,1.12-.73,1.3-.73Z"/>
        <path d="M264.75,25.75s.06.12.06.18c0,.09-.01.17-.12.43-.39,1.11-.51,1.61-.58,2.42-.03.22-.07.29-.25.34-.3.09-.66.14-1.06.14-.18,0-.24-.05-.32-.26-.42-1.18-.69-2.98-.69-4.56s.19-3.15.75-5.68c.17-.79.18-.92.24-1.47.66.09,1.1.21,1.53.43.3.15.39.25.39.42,0,.12-.03.2-.17.39-.12.17-.19.36-.3.7-.54,1.71-.85,3.74-.85,5.38,0,.5.03,1.08.13,2.1.21-.58.43-1.21.69-1.88.15.41.24.57.55.9ZM267.7,23.11c-.96,0-1.19-.03-1.23-.13-.06-.13-.12-.71-.12-1.11,0-.1,0-.22.03-.43.55.06,1.08.08,1.86.08.43,0,.72,0,1.24-.03,0-1.16,0-1.28.02-1.75-.5.01-1.02.03-1.33.03-1.12,0-1.44-.03-1.49-.15-.06-.12-.1-.62-.1-1.02,0-.12,0-.24.03-.5.45.04.87.06,1.65.06,1.65,0,3.04-.13,4.27-.42.08-.03.11-.03.15-.03.1,0,.13.03.17.15.04.15.08.63.08.96s-.02.41-.14.48c-.15.09-.75.19-1.71.31q-.02.17-.03.51c0,.24-.02.3-.02,1.21.63-.1.83-.15,1.7-.34.08-.03.11-.03.15-.03.1,0,.13.03.17.15.03.15.07.67.07,1s-.01.41-.13.48c-.18.09-.99.24-1.92.34.02.69.04,1.14.18,2.42.79.34,1.33.66,2.04,1.17.56.42.72.58.72.73,0,.2-.27.69-.62,1.11-.2.22-.3.32-.42.32q-.11,0-.44-.38c-.31-.36-.78-.75-1.3-1.11,0,.6-.1.93-.38,1.27-.45.58-1.26.9-2.29.9-1.69,0-2.83-.9-2.83-2.25s1.14-2.26,2.83-2.26c.39,0,.69.01,1.07.08-.08-1.25-.09-1.56-.09-1.88q-1.48.06-1.83.06ZM268.47,26.26c-.76,0-1.18.27-1.18.75s.4.76,1.11.76c.81,0,1.23-.34,1.23-1.02v-.27c-.39-.17-.74-.22-1.16-.22Z"/>
        <path d="M279.94,21.52c-.19-.66-.25-1.06-.43-2.91-.06-.72-.12-1.08-.27-1.59.91.02,1.5.06,1.9.17.23.06.33.17.33.33,0,.06-.01.13-.04.25-.1.36-.15.63-.15,1.02,0,.73.15,1.93.32,2.46.09.28.18.39.34.39.36,0,1.68-.69,2.4-1.25.19-.15.22-.17.3-.17.13,0,.27.11.5.39.38.51.67,1.06.67,1.27,0,.17-.11.27-.36.34-.93.25-2.46.86-3.49,1.35-1.83.9-2.66,1.72-2.66,2.65s.76,1.29,2.7,1.29c1.12,0,2.14-.1,3.52-.33.06-.01.17-.03.2-.03.12,0,.19.06.25.18.04.15.15,1.06.15,1.42,0,.21-.06.29-.26.34-.33.08-2.14.18-3.28.18-1.92,0-3.2-.26-3.99-.79-.67-.47-1.04-1.2-1.04-2.1,0-.69.2-1.3.6-1.9.52-.78,1.09-1.28,2.35-2.03-.31-.29-.43-.5-.57-.96ZM285.39,18.16c.12-.09.2-.12.29-.12.21,0,1.51,1.38,1.51,1.6,0,.09-.12.23-.41.46-.3.25-.33.27-.4.27-.09,0-.11,0-.39-.42-.3-.42-.72-.9-1.04-1.17-.04-.04-.07-.09-.07-.14,0-.07.13-.21.51-.49ZM288.64,18.56c0,.09-.04.15-.23.3-.21.18-.49.38-.55.38-.09,0-.12-.04-.3-.28-.34-.5-.55-.74-1.09-1.23-.06-.06-.08-.09-.08-.13,0-.13.57-.57.75-.57.25,0,1.5,1.28,1.5,1.54Z"/>
        <path d="M290.25,25.94c.27-.24.34-.3.45-.3.19,0,1.09.66,1.75,1.29.75.69,1.59,1.69,1.59,1.9,0,.14-.03.17-.46.56-.57.52-.69.61-.79.61-.09,0-.18-.06-.25-.21-.53-.93-1.73-2.16-2.79-2.85-.12-.09-.18-.15-.18-.24,0-.1.03-.15.69-.76Z"/>
        <path d="M308.58,18.94c-.04.09-.08.17-.09.23q-.06.17-.16.46c-.24.73-.75,1.9-1.16,2.62-.51.93-.83,1.36-1.7,2.38-.57-.63-.73-.79-1.27-1.26.96-.9,1.69-1.98,2.28-3.34.21-.51.36-.98.53-1.7l1.58.6ZM315.64,23.77c-.23.25-.27.3-.65.84-.85,1.23-2.14,2.42-3.57,3.29-1.61.99-3.13,1.54-5.42,1.98-.27-.72-.42-1-.85-1.62,2.25-.33,3.73-.79,5.2-1.63,1.56-.87,2.76-2,3.48-3.25.1-.18.22-.4.34-.66l1.46,1.07ZM311.92,16.55c-.08.5-.09.92-.09,1.72v5.29c0,1.19-.53,1.5-2.49,1.5-.24,0-.45-.01-.93-.04-.06-.63-.14-.94-.38-1.59.67.13,1.05.18,1.44.18.58,0,.72-.06.72-.34v-4.98c0-.88-.01-1.33-.09-1.74h1.82ZM314.76,18.29c.17.57.42,1.17.82,1.84.56.93,1.2,1.63,2.24,2.43-.42.44-.69.81-1.07,1.42-1.48-1.35-2.19-2.32-3.09-4.24-.24-.51-.3-.65-.39-.81l1.49-.64Z"/>
        <path d="M96.82,47.2c-.27.02-.43.03-.61.05-.14.01-.15.01-.17.01-.12,0-.18-.04-.23-.2-.08-.24-.18-1.04-.19-1.48.17.01.6.03,1.14.03.17,0,1.35-.07,1.88-.12.25-1.21.34-1.84.34-2.65,1.54.21,2.1.39,2.1.67,0,.11-.01.13-.24.48-.12.18-.17.34-.42,1.27.7-.12,1.12-.22,1.68-.41.1-.03.15-.04.22-.04.11,0,.13.08.23.51.07.37.12.69.12.85,0,.18-.04.21-.43.3-.51.12-1.38.27-2.31.39-.56,1.68-.93,2.58-1.62,3.99-.53,1.05-.83,1.61-1.23,2.24-.12.18-.19.24-.3.24-.15,0-.57-.22-1.09-.61-.24-.17-.3-.24-.3-.35s.06-.19.25-.46c.43-.54,1-1.47,1.5-2.46.42-.82.57-1.17,1-2.35-.58.04-.63.06-1.32.1ZM101.76,55.84c-1.64,0-2.75-.9-2.75-2.23s1.15-2.42,2.7-2.42c.36,0,.53.01,1.14.11-.06-.72-.06-1.01-.12-2.4,0-.29-.03-.67-.06-1.16.77.08,1.35.17,1.64.29.12.04.18.12.18.24,0,.08-.01.13-.03.24-.08.31-.09.54-.09.94,0,.56.04,1.5.09,2.24,1.07.48,1.5.72,2.25,1.3.33.25.45.39.45.51,0,.15-.08.29-.5.96-.18.3-.31.44-.42.44q-.09,0-.51-.39c-.33-.33-.71-.58-1.23-.9,0,1.39-1.02,2.23-2.74,2.23ZM101.73,52.63c-.72,0-1.21.34-1.21.87,0,.5.45.81,1.12.81.79,0,1.21-.41,1.21-1.2,0-.12,0-.24-.02-.24-.3-.15-.7-.24-1.11-.24ZM107.34,48.37c-.18.26-.27.33-.38.33-.08,0-.13-.03-.24-.13-.38-.36-.9-.75-1.46-1.09q-.36-.22-1.02-.53c-.21-.09-.29-.15-.29-.27,0-.11.08-.24.3-.58.36-.53.45-.62.58-.62.28,0,1.39.57,2.19,1.11.65.43.84.61.84.78,0,.12-.24.57-.54,1Z"/>
        <path d="M110.5,45.92c0-.44-.02-1.02-.04-1.35.69.07,1.2.18,1.6.33.36.14.48.23.48.39q0,.09-.06.24c-.2.51-.25,1.08-.25,2.44,0,1.92.12,3.12.42,4.04.22.71.57,1.11.97,1.11.62,0,1.12-.72,1.68-2.38.28.77.39.99.81,1.53.08.1.12.21.12.31,0,.24-.22.75-.53,1.19-.58.85-1.33,1.32-2.13,1.32-1.15,0-2.02-.93-2.56-2.77-.34-1.2-.51-2.71-.51-4.81v-1.58ZM119.43,46.16c.09,0,.17.04.29.15.75.72,1.53,1.92,2.03,3.09.33.79.64,1.86.64,2.17,0,.15-.08.23-.39.39-.34.18-1.05.42-1.23.42-.13,0-.19-.08-.24-.34-.2-1.16-.46-2-.93-2.97-.42-.87-.45-.92-1.47-2.17.63-.46,1.12-.73,1.3-.73Z"/>
        <path d="M125.71,48.47c-.66,0-1.12.03-1.59.09v-1.71c.46.06.94.09,1.59.09h9.64c.67,0,1.14-.03,1.6-.09v1.71c-.5-.06-.94-.09-1.6-.09h-2.4v5.25c0,.38.15.43,1.11.43s1.25-.09,1.36-.51c.08-.24.17-1.02.21-2.01.58.29.94.41,1.53.51-.18,2-.25,2.38-.54,2.85-.33.54-.99.71-2.86.71-1.19,0-1.8-.12-2.13-.41-.21-.18-.29-.42-.29-.91v-5.91h-2.07c-.03,1.93-.29,3.33-.84,4.47-.43.9-1.07,1.65-1.89,2.25-.36.25-.67.43-1.53.88-.33-.6-.66-1.05-1.09-1.44,1.62-.71,2.46-1.4,3.03-2.48.47-.85.65-1.9.68-3.69h-1.92ZM135.63,45.08c-.38-.04-.84-.08-1.47-.08h-7.2c-.64,0-1.08.03-1.45.08v-1.71c.38.06.82.09,1.5.09h7.11c.71,0,1.14-.03,1.51-.09v1.71Z"/>
        <path d="M144.36,45.08c-1.93.18-2.59.21-4.51.25q-.15-.58-.53-1.49h.65c2.11,0,4.77-.19,6.54-.5,1.33-.22,1.89-.36,2.66-.67l1.17,1.44c-1.26.31-3.1.66-4.35.79v1.88h2.98c.79,0,1.32-.03,1.79-.09v1.6c-.48-.04-1.04-.08-1.77-.08h-3v1.74h3.67c.81,0,1.29-.03,1.75-.09v1.63c-.51-.06-.96-.09-1.75-.09h-3.67v2.82c0,.65-.2,1.08-.56,1.23-.34.15-.96.24-1.63.24-.43,0-1.09-.03-1.95-.09-.08-.64-.17-.97-.44-1.57,1.04.13,1.82.19,2.4.19.42,0,.55-.1.55-.43v-2.38h-4.04c-.78,0-1.26.03-1.75.09v-1.63c.46.06.95.09,1.75.09h4.04v-1.74h-3.22c-.63,0-1.31.03-1.8.08v-1.6c.47.06.99.09,1.79.09h3.24v-1.71Z"/>
        <path d="M155.52,46.87c-.39.09-.53.13-1.07.33-.19.08-.3.11-.39.11-.33,0-.63-.62-.9-1.91.96-.04,1.31-.09,2.97-.34,1.8-.27,4.08-.62,5.28-.76,1.35-.18,2.43-.36,3-.48.1-.03.15-.03.22-.03.2,0,.27.09.41.47.12.31.21.76.21.97,0,.18-.06.24-.27.24-.32,0-.6.03-.89.08-2.53.42-4.56,2.64-4.56,4.98,0,1.75,1.38,2.91,3.72,3.12.21.01.29.09.29.27,0,.38-.15,1.09-.29,1.42-.08.17-.19.24-.39.24s-.65-.09-1.11-.22c-2.55-.75-3.88-2.37-3.88-4.67,0-1.25.41-2.4,1.19-3.39.42-.54.78-.84,1.63-1.43-1.96.33-4.04.72-5.17,1.01ZM163.2,47.26c.21,0,1.48,1.42,1.48,1.65,0,.08-.09.17-.36.41-.29.24-.3.24-.42.29q-.08.03-.11.03c-.06,0-.08-.02-.34-.44-.24-.38-.5-.71-.97-1.2-.03-.03-.08-.1-.08-.12.03-.08.04-.12.06-.12.04-.06.3-.27.36-.32.15-.08.24-.13.25-.15.01-.03.04-.03.04-.03h.08ZM165.76,48.29c-.22.17-.36.25-.43.25-.06,0-.09-.03-.17-.15-.45-.67-.67-.96-1.16-1.42-.03-.04-.06-.09-.06-.12,0-.08.09-.17.3-.31.21-.15.39-.24.46-.24.11,0,.29.13.6.45.44.45.84,1,.84,1.14,0,.09-.11.2-.39.41Z"/>
        <path d="M172.3,43.42c.38.1.48.18.48.34,0,.11-.01.15-.09.36-.17.43-.29,1.2-.34,2.25-.12,2.42-.18,4.29-.18,5.77,0,.48.04.84.12,1.08.17.5.69.75,1.53.75,1.35,0,2.62-.55,3.79-1.65.54-.51.87-.92,1.42-1.74.09.48.21.79.54,1.47.04.12.08.21.08.34,0,.27-.29.63-1.04,1.3-1.49,1.33-3.13,2.03-4.86,2.03-1.14,0-1.98-.29-2.52-.83-.57-.6-.79-1.38-.79-2.86,0-1.17.01-2.07.13-5.57.02-.52.03-.84.03-.97,0-1.28-.01-1.65-.11-2.29.77.03,1.35.09,1.8.21Z"/>
        <path d="M185.43,48.29c1.89-.53,3.25-.77,4.27-.77,2.12,0,3.42,1.16,3.42,3.03,0,1.12-.46,2.12-1.35,2.87-.58.49-1.46.91-2.61,1.26-.64.18-1.33.31-1.63.31-.18,0-.27-.04-.33-.19-.21-.53-.45-.9-.76-1.21,3.3-.35,4.98-1.4,4.98-3.11,0-.87-.72-1.54-1.65-1.54-1.62,0-3.39.54-5.25,1.58-.15.08-.24.12-.3.12-.25,0-.67-.75-1.02-1.83.74-.11.99-.17,2.24-.51Z"/>
        <path d="M197.91,48.32c-.12.03-.18.06-.27.11-.08.04-.12.06-.2.06-.32,0-.55-.58-.74-1.69.12.01.23.01.29.01.63,0,2.24-.2,3.2-.39.31-1.32.48-2.31.48-3.03,0-.06,0-.13-.01-.25.64.08,1.26.21,1.68.38.24.09.36.22.36.38,0,.08-.02.12-.09.24q-.23.4-.69,2.05c.36-.04.76-.08,1.02-.08.62,0,1.1.12,1.44.36.6.43.9,1.32.9,2.68,0,2.24-.41,4.14-1.1,5.08-.48.66-1.11.97-1.99.97-.54,0-1.05-.07-1.2-.17q-.12-.07-.17-.63c-.04-.4-.13-.75-.32-1.17.78.25.98.3,1.46.3.72,0,1.02-.34,1.35-1.54.23-.79.35-1.83.35-2.92,0-1.17-.29-1.59-1.08-1.59-.27,0-.71.03-1.05.09-.04.17-.06.18-.12.39-.42,1.53-1.19,3.55-1.95,5.17-.79,1.63-.99,1.96-1.18,1.96-.12,0-.53-.21-.96-.5-.35-.21-.44-.3-.44-.42q0-.08.62-1.05c.83-1.28,1.91-3.78,2.28-5.25-1.11.24-1.73.39-1.86.43ZM205.56,46.64c0-.1.14-.24.57-.58.3-.22.45-.31.55-.31.09,0,.17.04.36.24.88.86,1.71,2,2.19,2.99.15.33.24.54.24.63,0,.15-.04.2-.52.58-.3.24-.65.43-.77.43-.1,0-.15-.04-.25-.3-.3-.73-.58-1.3-.94-1.86-.39-.6-.47-.69-1.35-1.64-.06-.09-.08-.13-.08-.18Z"/>
        <path d="M215.35,48.38q.07-.12.73-1.23c.09.25.18.42.36.66.1.17.15.25.15.34s-.03.17-.39.75c-.25.45-.69,1.38-.87,1.83-.15.42-.21.45-.71.45s-.88-.06-.94-.15c-.09-.12-.15-.93-.15-2.04,0-1.47.11-2.5.5-5.12.04-.3.06-.45.06-.78,1.17.21,1.94.56,1.94.84,0,.08-.02.12-.12.26-.2.28-.32.67-.46,1.47-.18,1-.32,2.32-.32,3.12q.13-.24.23-.41ZM220.8,44v.25c.01.06.01.18.03.34q.01.24.04.62,0,.17.03.72c.04.72.07,1.44.07,1.8,0,2.82-.73,5.01-2.29,6.86-.6.7-1.12,1.11-1.42,1.11-.18,0-.19,0-.51-.24-.29-.22-.67-.42-1.06-.52,1.05-.75,1.62-1.28,2.17-2.07.93-1.33,1.38-2.92,1.38-4.86,0-2.05-.14-3.32-.48-4.23.63-.07,1.09-.1,1.53-.1s.51.03.51.29v.04Z"/>
        <path d="M229.36,47.5c-1.07-.21-1.88-.53-2.43-.92-.27-.18-.33-.25-.33-.39,0-.17.12-.46.54-1.3.73.46,1.56.79,2.5.99.21-1.05.3-1.92.31-2.9.77.14,1.44.36,1.82.57.17.09.22.18.21.3,0,.06-.03.12-.11.27-.22.46-.24.51-.55,1.98.15.02.34.02.46.02h.11c.36-.02.63-.02.76-.02h.04c.13,0,.18.06.18.25,0,.66-.04,1.2-.1,1.31-.04.07-.24.1-.87.1-.29,0-.51-.01-.93-.03q-.32,1.54-.45,2.36c.51.04.62.04.87.04h.84c.15-.01.22.01.27.09.06.09.11.57.11,1.11,0,.27-.02.34-.11.39-.07.03-.4.04-.97.04-.27,0-.67-.01-1.2-.04-.01.27-.01.45-.01.57,0,1.38.64,2.01,2.05,2.01,1.58,0,2.52-.77,2.52-2.05,0-.47-.1-.89-.34-1.35-.3-.57-.58-.9-1.3-1.47h.13c.24,0,.75-.08,1.2-.17.24-.04.33-.06.41-.06.22,0,.38.1.67.48.69.84,1.04,1.72,1.04,2.66,0,2.11-1.71,3.51-4.31,3.51-2.43,0-3.64-1.21-3.64-3.67,0-.21,0-.38.03-.63-1.49-.32-2.29-1.05-2.29-2.12,0-.55.17-.96.58-1.38.04-.06.1-.08.17-.08.09,0,.19.08.54.36.27.22.31.27.31.34q0,.06-.09.2c-.06.1-.12.27-.12.36,0,.2.12.36.35.46.21.11.27.12.75.23l.39-2.43Z"/>
        <path d="M244.41,46.85c.97-.25,1.62-.34,2.33-.34,2.13,0,3.36,1.26,3.36,3.42,0,1.88-.81,3.39-2.45,4.59-.87.64-2.19,1.29-2.62,1.29-.2,0-.24-.04-.56-.5-.22-.34-.45-.55-.82-.83,1.72-.58,2.44-.96,3.22-1.63.9-.79,1.35-1.75,1.35-2.89,0-1.22-.57-1.91-1.58-1.91-.81,0-1.86.31-3.22.97-.2.09-.3.17-.55.35-.06.03-.12.06-.18.06-.29,0-.77-.84-1.1-1.96.56-.04.84-.12,2.82-.62ZM245.41,43.19c.54.17,1.35.32,2.08.41.3.03.41.04,1.17.08.22,0,.29.06.29.22,0,.5-.11,1.31-.2,1.46-.03.09-.1.12-.21.12-.34,0-1.56-.17-2.26-.31-1.19-.24-2.22-.54-2.43-.71-.05-.04-.08-.11-.08-.17,0-.12.31-.93.46-1.21.08-.12.12-.15.21-.15q.08,0,.96.27Z"/>
        <path d="M256.02,43.7v-.21c.94.17,1.42.3,1.81.5.11.04.13.1.13.21,0,.06-.03.13-.09.24-.13.24-.18.42-.41,1.41-.28,1.29-.43,2.73-.43,4.3,0,.84.03,1.3.12,2.1l.79-1.61c.09.32.21.57.39.78.12.15.13.19.13.31s0,.12-.28.75c-.32.67-.5,1.26-.66,2.03-.04.24-.09.31-.17.34-.12.06-.63.13-.93.13-.21,0-.29-.04-.33-.18-.36-1.02-.66-3.12-.66-4.62,0-1.29.17-3.07.43-4.95.09-.62.14-1.07.14-1.38v-.17ZM261.13,47.95c-.84,0-1.08-.03-1.16-.13-.1-.13-.19-.75-.19-1.3v-.22c.6.06,1.08.09,1.84.09.58,0,.92-.02,1.51-.06-.04-1.56-.13-2.49-.31-2.97h.4c.53,0,1.17.04,1.5.12.15.03.23.12.23.24,0,.06-.02.12-.04.22-.08.21-.12.54-.12.93,0,.23.01.93.01,1.11v.15c.75-.12,1.11-.2,1.74-.41.06-.02.12-.03.18-.03.09,0,.13.04.17.13.06.17.12.75.12,1.08,0,.24-.04.35-.17.39-.2.07-1.11.25-2,.38.02.42.02.64.02.88,0,2.21-.27,3.78-.87,4.96-.54,1.06-1.71,2.31-2.19,2.31-.13,0-.19-.03-.36-.18-.5-.44-.58-.51-1.17-.78,1.05-.58,1.72-1.21,2.19-2.07.5-.91.76-2.17.76-3.55,0-.1,0-.36-.01-.72-.01-.15-.01-.38-.03-.67-.54.04-1.75.1-2.05.1Z"/>
        <path d="M271.2,46.87c-.39.09-.53.13-1.07.33-.19.08-.3.11-.39.11-.33,0-.63-.62-.9-1.91.96-.04,1.31-.09,2.97-.34,1.8-.27,4.08-.62,5.28-.76,1.35-.18,2.43-.36,3-.48.1-.03.15-.03.22-.03.2,0,.27.09.41.47.12.31.21.76.21.97,0,.18-.06.24-.27.24-.32,0-.6.03-.89.08-2.53.42-4.56,2.64-4.56,4.98,0,1.75,1.38,2.91,3.72,3.12.21.01.29.09.29.27,0,.38-.15,1.09-.29,1.42-.08.17-.19.24-.39.24s-.65-.09-1.11-.22c-2.55-.75-3.88-2.37-3.88-4.67,0-1.25.41-2.4,1.19-3.39.42-.54.78-.84,1.63-1.43-1.96.33-4.04.72-5.17,1.01Z"/>
        <path d="M291.18,48.02c2.12,0,3.62,1.44,3.62,3.48,0,1.39-.74,2.65-1.96,3.39-.86.51-1.91.76-3.09.76-1.91,0-3.02-.76-3.02-2.07,0-1.19.99-2.03,2.4-2.03,1.27,0,2.19.64,2.8,1.96.76-.55,1.08-1.14,1.08-1.95,0-1.29-.92-2.13-2.36-2.13s-3.04.74-4.35,2.04c-.24.24-.46.5-.73.84-.11.15-.18.21-.27.21-.27,0-1.33-1.05-1.33-1.32,0-.13.06-.21.39-.45.34-.27.84-.71,1.47-1.3,1.46-1.38,2.52-2.54,4.09-4.46-1.88.24-3.13.45-3.6.62-.08.01-.12.03-.17.03-.12,0-.2-.07-.29-.3-.18-.45-.27-.94-.32-1.6.41.06.69.08,1.02.08.72,0,1.93-.11,3.51-.29.55-.06.73-.11,1.16-.27.13-.06.21-.08.3-.08.21,0,.42.18.81.78.29.39.38.58.38.71,0,.2-.04.25-.38.46-.27.17-.43.3-.78.63-.75.72-.76.72-1.69,1.67-.66.67-.74.75-1.33,1.35.97-.54,1.74-.77,2.64-.77ZM289.74,53.21c-.23-.15-.48-.23-.77-.23-.46,0-.76.23-.76.58,0,.44.46.71,1.18.71.33,0,.62-.03.99-.13-.18-.5-.33-.72-.64-.93Z"/>
        <path d="M301.11,48.29c1.89-.53,3.25-.77,4.27-.77,2.12,0,3.42,1.16,3.42,3.03,0,1.12-.46,2.12-1.35,2.87-.58.49-1.46.91-2.61,1.26-.64.18-1.33.31-1.63.31-.18,0-.27-.04-.33-.19-.21-.53-.45-.9-.76-1.21,3.3-.35,4.98-1.4,4.98-3.11,0-.87-.72-1.54-1.65-1.54-1.62,0-3.39.54-5.25,1.58-.15.08-.24.12-.3.12-.25,0-.67-.75-1.02-1.83.74-.11.99-.17,2.24-.51Z"/>
        <path d="M314.58,46.87c-.39.09-.53.13-1.07.33-.19.08-.3.11-.39.11-.33,0-.63-.62-.9-1.91.96-.04,1.31-.09,2.97-.34,1.8-.27,4.08-.62,5.28-.76,1.35-.18,2.43-.36,3-.48.1-.03.15-.03.22-.03.2,0,.27.09.41.47.12.31.21.76.21.97,0,.18-.06.24-.27.24-.32,0-.6.03-.89.08-2.53.42-4.56,2.64-4.56,4.98,0,1.75,1.38,2.91,3.72,3.12.21.01.29.09.29.27,0,.38-.15,1.09-.29,1.42-.08.17-.19.24-.39.24s-.65-.09-1.11-.22c-2.55-.75-3.88-2.37-3.88-4.67,0-1.25.41-2.4,1.19-3.39.42-.54.78-.84,1.63-1.43-1.96.33-4.04.72-5.17,1.01Z"/>
        <path d="M102.18,79.34c1.23,0,2.59-.18,3.94-.53.08-.03.12-.03.17-.03.09,0,.13.06.17.2.04.33.08.81.08,1.3,0,.3-.03.39-.17.45-.45.24-2.47.46-4.21.46-2.26,0-3.55-.38-4.59-1.35-.5-.46-.99-1.28-.99-1.61,0-.22.13-.31,1.37-1.02.54,1.49,1.79,2.12,4.25,2.12ZM102.31,70.72c.87,0,1.38-.03,2.4-.18h.11c.12,0,.17.04.2.13.03.18.06.63.06,1.17,0,.34-.03.46-.12.53-.12.07-1.42.17-2.43.17-1.33,0-2.45-.11-3.69-.35-.85-.17-.9-.21-.9-.73,0-.35.03-.92.08-1.33,1.3.4,2.73.6,4.3.6Z"/>
        <path d="M114.04,74.02c-.19-.66-.25-1.06-.43-2.91-.06-.72-.12-1.08-.27-1.59.91.02,1.5.06,1.9.17.23.06.33.17.33.33,0,.06-.01.13-.04.25-.1.36-.15.63-.15,1.02,0,.73.15,1.93.32,2.46.09.28.18.39.34.39.36,0,1.68-.69,2.4-1.25.19-.15.22-.17.3-.17.13,0,.27.11.5.39.38.51.67,1.06.67,1.27,0,.17-.11.27-.36.34-.93.25-2.46.86-3.49,1.35-1.83.9-2.66,1.72-2.66,2.65s.76,1.29,2.7,1.29c1.12,0,2.14-.1,3.52-.33.06-.01.17-.03.2-.03.12,0,.19.06.25.18.04.15.15,1.06.15,1.42,0,.21-.06.29-.26.34-.33.08-2.14.18-3.28.18-1.92,0-3.2-.26-3.99-.79-.67-.47-1.04-1.2-1.04-2.1,0-.69.2-1.3.6-1.9.52-.78,1.09-1.28,2.35-2.03-.31-.29-.43-.5-.57-.96Z"/>
        <path d="M125.74,73.45c-.27.02-.43.03-.61.05-.14.01-.15.01-.17.01-.12,0-.18-.04-.23-.2-.08-.24-.18-1.04-.19-1.48.17.01.6.03,1.14.03.17,0,1.35-.07,1.88-.12.25-1.21.34-1.84.34-2.65,1.54.21,2.1.39,2.1.67,0,.11-.01.13-.24.48-.12.18-.17.34-.42,1.27.7-.12,1.12-.22,1.68-.41.1-.03.15-.04.22-.04.11,0,.13.08.23.51.07.37.12.69.12.85,0,.18-.04.21-.43.3-.51.12-1.38.27-2.31.39-.56,1.68-.93,2.58-1.62,3.99-.53,1.05-.83,1.61-1.23,2.24-.12.18-.19.24-.3.24-.15,0-.57-.22-1.09-.61-.24-.17-.3-.24-.3-.35s.06-.19.25-.46c.43-.54,1-1.47,1.5-2.46.42-.82.57-1.17,1-2.35-.58.04-.63.06-1.32.1ZM130.68,82.09c-1.64,0-2.75-.9-2.75-2.23s1.15-2.42,2.7-2.42c.36,0,.53.01,1.14.11-.06-.72-.06-1.01-.12-2.4,0-.29-.03-.67-.06-1.16.77.08,1.35.17,1.64.29.12.04.18.12.18.24,0,.08-.01.13-.03.24-.08.31-.09.54-.09.94,0,.56.04,1.5.09,2.24,1.07.48,1.5.72,2.25,1.3.33.25.45.39.45.51,0,.15-.08.29-.5.96-.18.3-.31.44-.42.44q-.09,0-.51-.39c-.33-.33-.71-.58-1.23-.9,0,1.39-1.02,2.23-2.74,2.23ZM130.65,78.88c-.72,0-1.21.34-1.21.87,0,.5.45.81,1.12.81.79,0,1.21-.41,1.21-1.2,0-.12,0-.24-.02-.24-.3-.15-.7-.24-1.11-.24ZM136.26,74.62c-.18.26-.27.33-.38.33-.08,0-.13-.03-.24-.13-.38-.36-.9-.75-1.46-1.09q-.36-.22-1.02-.53c-.21-.09-.29-.15-.29-.27,0-.11.08-.24.3-.58.36-.53.45-.62.58-.62.28,0,1.39.57,2.19,1.11.65.43.84.61.84.78,0,.12-.24.57-.54,1Z"/>
        <path d="M145.5,69.98c.18.12.25.21.25.32s-.01.12-.24.38c-.08.09-.3.42-.54.83q-.75,1.25-1.16,1.96c-.42.71-.69,1.18-.84,1.41q-.04.07-.25.45c-.2.35-.32.53-.53.81.97-.86,1.5-1.08,2.49-1.08.66,0,1.25.29,1.62.78.31.42.4.81.54,2.28.07.88.15,1.28.25,1.5.1.21.31.33.58.33,1.03,0,2.26-1.25,2.86-2.88.15.63.27.93.58,1.49.11.18.14.3.14.45,0,.17-.08.38-.26.66-.78,1.26-2.05,2.01-3.42,2.01-.86,0-1.58-.3-1.95-.79-.3-.42-.44-.97-.56-2.44-.07-.96-.15-1.29-.36-1.53-.17-.18-.41-.27-.74-.27-.99,0-2.29,1.33-3.06,3.1-.22.51-.38.97-.54,1.54-.06.22-.13.32-.24.32-.31,0-1.04-.3-1.42-.58-.1-.09-.15-.15-.15-.24,0-.08.03-.15.22-.57.12-.27.17-.34.27-.62q1.11-2.59,4.19-8.82c.34-.69.51-1.12.61-1.58.78.29,1.14.47,1.62.79Z"/>
        <path d="M153.91,74h-.09c-.08.01-.13.01-.17.01-.13,0-.21-.06-.25-.25-.09-.38-.15-.83-.18-1.41.21.02.38.02.48.02.81,0,1.75-.06,2.55-.17.15-.99.23-1.74.23-2.37v-.34c1.74.24,2.07.33,2.05.6,0,.08-.03.12-.09.25-.18.34-.2.39-.44,1.58.58-.11,1.33-.3,1.64-.41.06-.03.07-.03.12-.03.13,0,.16.06.28.58.06.3.12.72.12.84,0,.11-.04.17-.18.2q-.27.09-2.33.45c-.69,3.06-1.41,5.29-2.56,7.99-.08.2-.15.27-.24.27-.2,0-.72-.21-1.23-.5-.26-.13-.33-.2-.33-.29,0-.06.04-.17.12-.31,1.14-2.16,1.96-4.46,2.53-6.92-.66.08-1.12.12-2.04.2ZM160.32,79.7c.43.29,1.06.42,1.95.42.97,0,1.81-.09,2.29-.24.12-.03.15-.04.21-.04.13,0,.19.04.24.18.11.31.18.93.18,1.39,0,.2-.06.27-.25.32-.5.1-1.33.17-2.22.17-1.88,0-2.92-.3-3.61-1.02-.25-.27-.46-.6-.58-.97-.09-.22-.15-.48-.15-.57,0-.25.45-.52,1.23-.78.17.63.34.92.72,1.15ZM164.53,75.34c-.3-.04-.93-.08-1.46-.08-1.11,0-1.58.04-2.89.27-.03.02-.08.02-.11.02-.09,0-.13-.03-.17-.12-.04-.11-.1-.84-.1-1.16,0-.19.03-.29.15-.33.06-.03.15-.04.46-.1,1.02-.18,1.88-.25,2.92-.25.87,0,1.32.03,1.43.1.07.06.09.18.09.67,0,.44-.03.83-.06.92-.01.04-.08.08-.15.08-.03,0-.08,0-.12-.01ZM162.88,70.06c.2,0,1.47,1.42,1.47,1.65,0,.06-.1.19-.22.29-.06.04-.15.12-.25.21-.13.12-.18.15-.33.21t-.08.03c-.06,0-.06-.01-.34-.45-.25-.39-.74-.99-.99-1.22-.03-.03-.08-.09-.08-.1.03-.06.05-.09.05-.09.07-.09.33-.3.39-.34.15-.08.24-.14.25-.15.01-.03.03-.03.04-.03h.09ZM165.42,71.11c-.21.15-.36.24-.43.24-.06,0-.09-.03-.17-.15-.33-.54-.65-.93-1.14-1.43-.04-.04-.06-.07-.06-.12,0-.14.57-.56.76-.56.11,0,.29.15.62.5.48.5.83.95.83,1.09,0,.09-.11.2-.41.42Z"/>
        <path d="M170.13,73.6c-1.06.18-1.3.22-1.56.3-.15.04-.27.06-.36.06-.27,0-.4-.48-.46-1.65.87,0,1.35-.04,2.42-.24,0-.48.01-1.03.01-1.23,0-.58-.03-1.09-.09-1.47,1.58.07,2.04.18,2.04.46q0,.08-.13.39t-.2,1.62c.48.38.74.67.72.87,0,.04-.03.08-.09.13-.22.2-.25.22-.52.62q-.06.08-.15.19l-.06.09c0,.22,0,.25-.02.54.45-.51.87-.93,1.28-1.26,1.32-1.08,2.31-1.53,3.39-1.53s1.77.43,2.29,1.33c.45.78.69,1.88.69,3.17,0,.78-.06,1.38-.23,2.5.72.51,1.5,1.3,1.5,1.51,0,.24-.84,1.08-1.09,1.08-.11,0-.12-.02-.32-.32-.12-.17-.28-.36-.61-.72-.21.39-.33.55-.54.75-.56.51-1.3.78-2.19.78-1.56,0-2.56-.79-2.56-2,0-1.28,1.04-2.24,2.4-2.24.78,0,1.35.11,1.86.33.06-.55.08-.83.08-1.3,0-2.37-.45-3.3-1.59-3.3-.81,0-1.89.57-3.03,1.59-.41.38-.72.69-1.37,1.39v.87c0,2,.04,4,.11,4.53v.06c0,.27-.21.34-.93.34-.66,0-.79-.06-.79-.34v-.12c.03-.43.04-.96.04-1.62q0-.99.01-2.17s-.03.04-.06.08c-.33.41-.87,1.14-1.22,1.63-.17.24-.25.32-.36.32-.15,0-.42-.27-.88-.87-.18-.22-.29-.42-.29-.5s.08-.17.45-.5c.27-.25,1.29-1.5,1.81-2.19.27-.38.46-.65.58-.84v-1.16ZM175.87,78.74c-.69,0-1.11.29-1.11.75s.32.69.89.69c.5,0,.9-.15,1.17-.45.13-.13.34-.51.34-.57h0c-.51-.33-.81-.42-1.29-.42Z"/>
        <path d="M189.58,80.74c0,.66-.53,1.18-1.18,1.18s-1.19-.52-1.19-1.18.53-1.18,1.19-1.18,1.18.52,1.18,1.18ZM189.06,78.52h-1.33l-.41-8.98h2.16l-.42,8.98Z"/>
      </g>
      <circle class="cls-10" cx="31.42" cy="83.49" r="30"/>
      <g>
        <path d="M24.05,146.61c-.69,0-1.79.23-2.54.51-1.59.61-2.64,1.74-2.64,2.83,0,.69.45,1.15,1.35,1.38.41.1,1.11.18,1.6.17h.15c.25,0,.34.09.34.28,0,.5-.09,1.19-.17,1.38-.06.12-.13.16-.29.16-.91,0-2.07-.24-2.85-.6-1.15-.51-1.79-1.39-1.79-2.5,0-.71.27-1.42.78-2.07.29-.35.51-.56,1.05-.93-2.73.83-4.09,1.35-5.01,1.95-.12.08-.19.1-.27.1-.17,0-.3-.13-.51-.51-.21-.34-.36-.76-.36-.99,0-.14.06-.18.42-.29.34-.11.58-.25,1.16-.66.69-.51,1.77-1.44,2.7-2.33.77-.73,1.2-1.18,2.1-2.23-.87.1-3.23.51-3.57.6-.21.06-.22.06-.27.06-.14,0-.2-.06-.25-.21-.12-.33-.23-.88-.3-1.51.21.01.32.01.45.01.67,0,2.13-.12,3.93-.34.67-.08,1.07-.17,1.33-.3.18-.09.21-.1.32-.1.18,0,.42.19.84.7.3.35.39.51.39.68s-.06.24-.25.38q-.27.17-1.53,1.33c-1.04.96-2.27,2.01-3.65,3.1,2.12-.63,3.22-.93,5.52-1.44.51-.1,1.01-.24,1.58-.42.08-.03.13-.04.18-.04.12,0,.18.06.25.2.17.34.36,1.08.36,1.35,0,.21-.06.3-.22.3h-.34Z"/>
        <path d="M32.63,149.92c-.72,1.25-1.71,1.93-2.73,1.93-1.56,0-2.67-1.53-2.67-3.66,0-2.37,1.2-4.41,3.25-5.49,1-.54,2.08-.78,3.51-.78,3.14,0,5.46,2.22,5.46,5.19,0,2.62-1.29,4.51-3.78,5.58-.5.21-.89.33-1.08.33-.18,0-.25-.06-.45-.34-.25-.39-.54-.67-.95-.95,3.09-.79,4.49-2.25,4.49-4.68,0-1.25-.53-2.29-1.46-2.96-.53-.36-.95-.51-1.77-.64-.42,3.17-.92,4.89-1.83,6.46ZM30.47,144.61c-1,.88-1.58,2.14-1.58,3.55,0,1.16.38,1.83,1,1.83.75,0,1.52-1.04,2.08-2.82.36-1.12.54-1.98.77-3.64-1.07.22-1.59.48-2.28,1.08Z"/>
        <path d="M45.79,145.32c-.19-.66-.25-1.07-.43-2.91-.06-.72-.12-1.08-.27-1.59.91.01,1.5.06,1.9.17.23.06.33.17.33.33,0,.06-.01.13-.04.25-.1.36-.15.63-.15,1.02,0,.74.15,1.94.32,2.46.09.29.18.39.34.39.36,0,1.68-.69,2.4-1.24.19-.15.22-.17.3-.17.13,0,.27.1.5.39.38.51.67,1.07.67,1.28,0,.17-.11.27-.36.34-.93.25-2.46.85-3.49,1.35-1.83.9-2.66,1.73-2.66,2.66s.76,1.29,2.7,1.29c1.12,0,2.14-.11,3.52-.33.06-.02.17-.03.2-.03.12,0,.19.06.25.18.04.15.15,1.07.15,1.43,0,.21-.06.28-.26.34-.33.08-2.14.18-3.28.18-1.92,0-3.2-.25-3.99-.79-.67-.46-1.04-1.2-1.04-2.1,0-.69.2-1.31.6-1.91.52-.78,1.09-1.27,2.35-2.02-.31-.29-.43-.5-.57-.96Z"/>
        <path d="M59.17,145.36c-1.19.12-1.49.13-2.16.13-.46,0-.54-.2-.65-1.53h.58c.74,0,1.4-.04,2.22-.13v-.32c0-.97-.06-1.74-.21-2.55,1.14.06,1.59.12,1.9.21.15.04.21.12.21.27,0,.09-.01.15-.09.3-.13.29-.21.83-.22,1.84.5-.09,1.29-.29,1.89-.46.04-.01.08-.01.1-.01.12,0,.2.06.23.17.08.3.17.9.17,1.12,0,.12-.08.22-.2.27-.18.08-1.27.3-2.23.46v1.94c1.48-.5,2.64-.74,3.63-.74,1.92,0,3.16,1.23,3.16,3.13,0,1.23-.49,2.22-1.38,2.75-.46.27-1.12.43-1.84.43s-1.37-.06-1.53-.17c-.16-.09-.18-.13-.21-.49-.03-.42-.12-.78-.3-1.22.62.23,1.12.32,1.71.32,1.17,0,1.83-.6,1.83-1.67s-.63-1.67-1.63-1.67c-.95,0-2.14.3-3.43.86q0,.06.01.64.01.99.01,1.2c.02.27.02.54.02.67,0,1.21-.46,1.8-1.46,1.8s-1.94-.51-2.54-1.29c-.24-.33-.36-.67-.36-1.08,0-.97.87-1.86,2.76-2.83v-2.37ZM59.17,149.38c-.87.53-1.23.87-1.23,1.18,0,.35.5.72.95.72.21,0,.29-.14.29-.48v-1.42ZM67.54,145.98c-.76-.81-1.81-1.48-2.8-1.8-.12-.04-.18-.1-.18-.18,0-.09.15-.33.57-.9.17-.22.18-.24.33-.24.15.01.72.21,1.11.39.94.43,2.17,1.37,2.17,1.65,0,.27-.75,1.21-.97,1.21-.08,0-.14-.03-.23-.14Z"/>
        <path d="M74.8,145.93q.07-.12.73-1.23c.09.25.18.42.36.66.1.17.15.25.15.34s-.03.17-.39.75c-.25.45-.69,1.38-.87,1.83-.15.42-.21.45-.71.45s-.88-.06-.94-.15c-.09-.12-.15-.93-.15-2.04,0-1.47.11-2.5.5-5.11.04-.3.06-.45.06-.78,1.17.21,1.94.55,1.94.84,0,.08-.02.12-.12.25-.2.29-.32.67-.46,1.47-.18,1-.32,2.33-.32,3.12q.13-.24.23-.41ZM80.24,141.55v.25c.01.06.01.18.03.35q.01.24.04.61,0,.17.03.72c.04.72.07,1.44.07,1.8,0,2.82-.73,5.01-2.29,6.85-.6.71-1.12,1.11-1.42,1.11-.18,0-.19,0-.51-.24-.29-.22-.67-.42-1.06-.53,1.05-.75,1.62-1.27,2.17-2.07.93-1.33,1.38-2.92,1.38-4.86,0-2.05-.14-3.31-.48-4.23.63-.08,1.09-.11,1.53-.11s.51.03.51.29v.04Z"/>
        <path d="M92.41,152.04c0,.66-.53,1.18-1.18,1.18s-1.19-.53-1.19-1.18.53-1.19,1.19-1.19,1.18.53,1.18,1.19ZM91.88,149.82h-1.33l-.41-8.98h2.16l-.42,8.98Z"/>
        <path d="M99.11,146.32c.21.03.36.04.69.04h.52c.2-.25.32-.42.68-.95-.62-.87-1.26-1.6-1.95-2.22l.75-1.23c.29.29.36.36.55.57.51-.85.99-1.91,1.11-2.42l1.46.57q-.14.22-.54,1c-.32.63-.69,1.28-1.08,1.86q.21.25.52.64c.96-1.56,1.11-1.81,1.37-2.49l1.28.75q-.15.21-.87,1.33c-.44.69-1.28,1.88-1.77,2.5.79-.04,1.02-.06,1.56-.12-.12-.34-.21-.57-.46-1.15l.96-.48c.6,1.31.84,1.92,1.17,3.01l-1.1.54c-.09-.34-.12-.49-.18-.7-.51.07-.66.09-.96.12v4.54c0,.71.01,1.08.08,1.52h-1.58c.06-.45.09-.81.09-1.52v-4.42c-.46.03-.85.06-1.21.09-.66.03-.69.05-.92.09l-.17-1.5ZM100.93,148.56c-.08,2.03-.17,2.78-.5,4.33l-1.32-.53c.38-1.23.51-2.19.57-4.05l1.25.24ZM104.3,148.23c.21.78.28,1.32.43,3.06l-1.21.34c-.01-1.21-.08-1.92-.3-3.11l1.08-.3ZM110.26,148.3c.6,0,1.02-.03,1.4-.08v1.52c-.41-.04-.87-.06-1.4-.06h-1.3v2h1.77c.78,0,1.17-.01,1.56-.08v1.56c-.46-.06-.92-.09-1.59-.09h-4.72c-.63,0-1.1.03-1.58.09v-1.54c.39.04.73.06,1.36.06h1.7v-2h-.97c-.54,0-.99.02-1.42.06v-1.52c.38.06.75.08,1.44.08h.96v-.29c0-.72-.03-1.09-.09-1.38h1.65c-.04.36-.06.74-.06,1.38v.29h1.3ZM111.82,141.63c-.51.79-1,1.51-1.14,1.7-.36.48-.79.96-1.24,1.39.96.51,1.8.81,3.07,1.07-.34.55-.46.84-.67,1.56-1.53-.46-2.59-.95-3.62-1.63-.87.62-1.51.96-2.67,1.44-.27-.52-.49-.84-.93-1.35.96-.3,1.65-.6,2.4-1.05-.78-.76-1.31-1.51-1.8-2.5-.38.01-.53.03-.77.06v-1.54c.34.04.83.08,1.58.08h3.75c.57,0,.85-.01,1.14-.06l.9.85ZM106.78,142.24c.39.69.75,1.11,1.41,1.65.69-.61,1-.96,1.46-1.65h-2.87Z"/>
        <path d="M116.42,142.15c-.26-.51-.51-.9-.93-1.46l1.59-.33c.44.6.81,1.23,1.08,1.79h1.33c-.19-.5-.5-1.11-.83-1.67l1.62-.25c.3.54.67,1.36.88,1.92h1.05c.38-.57.76-1.29,1.02-1.94l1.67.39c-.24.45-.67,1.15-.95,1.54h.87c.71,0,1.09-.02,1.53-.06-.03.36-.04.74-.04,1.28v1.16c0,.48.01.76.06,1.15h-1.59v-2.19h-9.28v2.17h-1.58c.04-.36.06-.72.06-1.12v-1.14c0-.51-.01-.79-.06-1.31.48.04.9.06,1.54.06h.95ZM117.53,147.91c-.81,0-1.06.01-1.53.06.04-.38.06-.67.06-1.29v-1.36c0-.45-.01-.83-.04-1.07.33.03.64.04,1.09.04h6.12c.42,0,.73-.01,1.06-.04-.03.24-.04.53-.04,1.11v1.32c0,.75.02.99.04,1.28-.45-.03-.81-.04-1.51-.04h-2.04c-.2.48-.27.63-.5,1.04h3.84c.66,0,.98-.02,1.35-.06-.05.38-.06.71-.06,1.4v1.87c0,.65.01.99.08,1.41h-1.62v-.57h-7.39v.57h-1.61c.05-.48.08-.94.08-1.44v-1.86c0-.64-.01-.97-.06-1.37.39.03.72.05,1.33.05h2.38c.22-.38.38-.66.54-1.04h-1.58ZM116.44,151.62h7.39v-1.4h-7.39v1.4ZM117.56,146.71h5.17v-1.21h-5.17v1.21Z"/>
        <path d="M133.85,149.92c-.72,1.25-1.71,1.93-2.73,1.93-1.56,0-2.67-1.53-2.67-3.66,0-2.37,1.2-4.41,3.25-5.49,1-.54,2.08-.78,3.51-.78,3.14,0,5.46,2.22,5.46,5.19,0,2.62-1.29,4.51-3.78,5.58-.5.21-.89.33-1.08.33-.18,0-.25-.06-.45-.34-.25-.39-.54-.67-.95-.95,3.09-.79,4.49-2.25,4.49-4.68,0-1.25-.53-2.29-1.46-2.96-.53-.36-.95-.51-1.77-.64-.42,3.17-.92,4.89-1.83,6.46ZM131.69,144.61c-1,.88-1.58,2.14-1.58,3.55,0,1.16.38,1.83,1,1.83.75,0,1.52-1.04,2.08-2.82.36-1.12.54-1.98.77-3.64-1.07.22-1.59.48-2.28,1.08Z"/>
        <path d="M151.87,141.43c-.76.39-1.05.75-1.15,1.42.13-.03.27-.04.31-.04.6,0,1.05.48,1.05,1.09,0,.66-.46,1.12-1.11,1.12-.79,0-1.26-.58-1.26-1.59,0-.6.18-1.28.44-1.7.25-.39.58-.67,1.12-.97l.6.66ZM154.76,141.43c-.77.39-1.05.75-1.16,1.42.13-.03.27-.04.31-.04.6,0,1.05.48,1.05,1.09,0,.66-.47,1.12-1.11,1.12-.79,0-1.26-.58-1.26-1.54,0-1.29.46-2.12,1.56-2.71l.6.66Z"/>
        <path d="M158.5,146.76c.55.5.72.65,1.17,1.09.3-.69.41-.99.58-1.78l1.37.7c-.3.96-.46,1.37-.89,2.19.47.52.69.78,1.32,1.56l-1.09,1.14c-.48-.69-.67-.95-1-1.35-.88,1.29-1.82,2.22-3.17,3.15-.29-.5-.62-.95-.99-1.31,1.38-.78,2.33-1.66,3.17-2.98-.57-.65-.83-.9-1.5-1.51l1.04-.9ZM159.19,144.24c-.73,1.68-1.17,2.32-2.35,3.55-.29-.58-.48-.87-.9-1.29.57-.5.81-.76,1.19-1.32.34-.52.5-.82.73-1.5l1.33.56ZM164.15,144.66c-.63,0-.9.01-1.18.06v-1.21c-.32-.03-.58-.03-1.16-.03h-4.27c-.54,0-.88.02-1.35.08v-1.54c.43.06.73.08,1.41.08h1.33v-.63c0-.51-.01-.84-.07-1.19h1.68c-.06.38-.08.71-.08,1.19v.63h1.2c.66,0,1.02-.01,1.42-.08v1.19c.24.03.55.04,1.08.04h.29c.01-.51.01-1.05.01-1.64,0-.52-.01-.78-.08-1.21h1.7c-.06.51-.06.63-.08,1.28-.01.85-.01,1.2-.03,1.58h1.49c.84,0,1.16-.02,1.47-.06-.04.5-.06.54-.1,2.9-.06,3.06-.3,5.4-.66,6.3-.27.69-.77.96-1.79.96-.48,0-.95-.01-1.38-.06-.03-.63-.11-.96-.32-1.56.47.09,1.11.17,1.38.17.58,0,.68-.12.84-.99.27-1.54.38-3.08.4-6.22h-1.39c-.12,1.42-.23,2.13-.46,3.22-.38,1.59-.9,2.75-1.75,3.93-.46.65-.83,1-1.68,1.73-.33-.51-.64-.81-1.17-1.14,1.23-.93,1.83-1.67,2.52-3.09.54-1.09.84-2.49,1-4.65h-.23ZM161.62,143.71c.61,1.29,1.05,1.91,1.95,2.8-.43.33-.58.48-1.05,1.04-.99-1.12-1.3-1.62-2.11-3.27l1.21-.57Z"/>
        <path d="M172.12,150.67c-.65,0-1.04.01-1.68.09v-1.59c.36.06.93.09,1.54.09h4.14v-.1c0-.36-.02-.66-.06-.84h1.71c-.04.21-.06.48-.06.84v.1h4.46c.6,0,1.08-.03,1.48-.09v1.59c-.48-.06-1.04-.09-1.69-.09h-4.25v1.6c0,.56.03.92.1,1.4h-1.8c.08-.48.11-.86.11-1.4v-1.6h-4ZM174.8,143.1c.25.2.33.24.54.42.25-.36.36-.51.54-.84h-3.78c-.61,0-1.06.02-1.48.06v-1.56c.46.06.96.09,1.71.09h3.84v-.15c0-.34-.03-.58-.09-.88h1.75c-.06.3-.09.54-.09.88v.15h4.09c.76,0,1.26-.03,1.72-.09v1.56c-.42-.04-.87-.06-1.5-.06h-4.62c-.38.65-.69,1.08-1.17,1.64.3.27.38.36.6.6.61-.67.88-1,1.42-1.8l1.16.76c-.86,1.05-1.79,1.96-3,2.99q.12-.02.31-.02c.6-.03,1.19-.08,1.7-.13-.23-.33-.33-.46-.63-.85l1.05-.44c.79.99.88,1.11,1.77,2.64l-1.25.5c-.18-.43-.25-.58-.38-.83-1.45.23-2.26.32-4.65.51-.3.03-.57.04-.71.07l-.13-1c-.78.56-1.28.84-2.46,1.43l-.58-1.49c1.12-.32,2.24-.9,3.18-1.71l.74,1.12-.36.27h.17s.42,0,.51-.01c.54-.43.77-.63,1.2-1.06-.58-.65-1.23-1.2-2.07-1.77l.95-.99ZM172.01,142.89c.81.63,1.38,1.12,2.01,1.8l-1.09,1.07c-.69-.84-1.12-1.26-2.02-1.92l1.11-.95ZM182.9,143.85c-.83.83-1.51,1.38-2.54,2.07l-.99-1.04c1.06-.69,1.63-1.17,2.38-2l1.14.96ZM180.95,145.78c1.17.72,1.52.96,2.55,1.83l-1,1.18c-.8-.83-1.46-1.38-2.42-2.01l.87-1Z"/>
        <path d="M190.75,149.92c-.72,1.25-1.71,1.93-2.73,1.93-1.56,0-2.67-1.53-2.67-3.66,0-2.37,1.2-4.41,3.25-5.49,1-.54,2.08-.78,3.51-.78,3.14,0,5.46,2.22,5.46,5.19,0,2.62-1.29,4.51-3.78,5.58-.5.21-.89.33-1.08.33-.18,0-.25-.06-.45-.34-.25-.39-.54-.67-.95-.95,3.09-.79,4.49-2.25,4.49-4.68,0-1.25-.53-2.29-1.46-2.96-.53-.36-.95-.51-1.77-.64-.42,3.17-.92,4.89-1.83,6.46ZM188.59,144.61c-1,.88-1.58,2.14-1.58,3.55,0,1.16.38,1.83,1,1.83.75,0,1.52-1.04,2.08-2.82.36-1.12.54-1.98.77-3.64-1.07.22-1.59.48-2.28,1.08Z"/>
        <path d="M202.7,147.9v3.51c1.39-.27,2.42-.51,3.54-.81v1.5c-1.92.55-3.39.88-6.57,1.49l-.33-1.68c.86-.07,1-.09,1.75-.19v-8.7c0-.57-.01-1.02-.06-1.42.41.04.9.06,1.44.06h2.62v-.35c0-.34-.03-.71-.09-1.04h1.77c-.06.3-.09.58-.09,1.05v.33h2.76c.56,0,1.02-.02,1.43-.06-.03.25-.06.9-.06,1.44v3.48c0,.67.01,1.08.06,1.44-.17-.01-.23-.01-.38-.01l1.14.87q-.21.13-.6.42c-.75.53-1.47.95-2.33,1.37,1.27.75,2.42,1.17,3.94,1.42-.36.52-.51.83-.79,1.6-1.95-.48-3.76-1.41-5.07-2.58-.83-.75-1.49-1.62-1.89-2.49-.08-.18-.11-.27-.26-.65h-1.95ZM202.7,144.1h6.55v-1.02h-6.55v1.02ZM202.7,146.52h6.55v-1.09h-6.55v1.09ZM206.24,147.9c.36.79.69,1.28,1.32,1.85,1.4-.77,1.96-1.16,2.67-1.83-.3-.02-.43-.02-.62-.02h-3.37Z"/>
        <path d="M220.73,140.94c0,.38.18,1.08.54,2.02,1.16-.29,1.83-.52,3.41-1.2.09-.03.13-.04.18-.04.15,0,.25.27.48,1.25.01.08.01.09.03.15.02.03.02.04.02.06,0,.11-.06.17-.21.23-.77.33-1.64.6-3.24,1.02.78,1.46,1.89,2.71,2.97,3.34.08.04.12.11.12.18,0,.18-.33.89-.58,1.25-.13.2-.22.27-.36.27-.1,0-.13-.02-.33-.17-.31-.23-1.06-.57-1.6-.72-.64-.18-1.23-.26-1.92-.26-1.77,0-2.67.5-2.67,1.46,0,.54.29.92.9,1.21.7.35,1.99.54,3.51.54.45,0,.75-.01,1.2-.07-.24.46-.31.66-.6,1.59-.08.22-.2.28-.6.28-1,0-2.27-.13-3.03-.31-2-.5-3.13-1.62-3.13-3.12,0-.72.29-1.42.78-1.93.69-.67,1.8-1.05,3.22-1.05.93,0,1.53.1,2.33.42-.87-.93-1.31-1.53-1.83-2.55-.92.17-1.68.27-2.57.36-.52.04-1.68.12-1.9.12-.21,0-.27-.04-.35-.3-.09-.29-.17-.76-.24-1.42.5.01.73.03,1,.03.9,0,2.38-.12,3.36-.27-.13-.3-.39-.95-.54-1.35-.24-.66-.34-.9-.54-1.23.71-.12,1.47-.19,1.82-.19.29,0,.39.07.39.25v.17Z"/>
        <path d="M228.23,144.46c.77-.39,1.07-.75,1.16-1.42-.13.03-.25.04-.3.04-.6,0-1.07-.48-1.07-1.09,0-.66.47-1.12,1.11-1.12.79,0,1.26.57,1.26,1.54,0,1.29-.46,2.12-1.56,2.71l-.6-.66ZM231.13,144.46c.76-.39,1.06-.75,1.16-1.42-.14.03-.26.04-.3.04-.6,0-1.06-.48-1.06-1.09,0-.66.46-1.12,1.11-1.12.79,0,1.26.57,1.26,1.54,0,1.29-.47,2.12-1.56,2.71l-.6-.66Z"/>
        <path d="M18.77,175.17c-1.48.87-1.91,1.3-1.91,1.96,0,.27.11.45.33.58.33.2,1.07.3,2.01.3.81,0,1.93-.08,2.7-.18.32-.04.5-.09,1.09-.24h.08c.11,0,.18.08.23.18.09.32.15.77.15,1.31,0,.22-.08.31-.27.36-.36.08-2.03.17-3.12.17-1.83,0-2.8-.12-3.52-.42-.87-.36-1.31-1.04-1.31-1.98,0-.87.41-1.63,1.21-2.28.65-.51.79-.62,2.17-1.39-.12-.5-.34-.71-.81-.71-.62,0-1.26.24-1.96.71-.43.3-.95.72-1.26,1.03-.45.47-.5.5-.62.5-.15,0-.46-.34-.78-.87-.15-.25-.24-.45-.24-.55,0-.13.03-.17.39-.39,1.23-.83,2.25-1.88,2.87-2.96-1.07.08-1.62.09-2.21.09-.23,0-.27-.04-.34-.3-.05-.2-.12-.99-.14-1.39.51.07.81.09,1.53.09.58,0,1.23-.02,1.91-.04.31-.86.42-1.4.43-2.1,1.33.23,1.95.45,1.95.71,0,.06-.02.09-.06.18-.1.19-.22.43-.42.9q-.03.06-.04.11c.86-.12,1.61-.27,2.13-.39.33-.09.41-.1.48-.1.12,0,.18.04.21.13.06.27.15.96.15,1.17,0,.17-.06.24-.25.29-.48.13-2.13.39-3.51.52-.45.83-.76,1.31-1.23,1.82.67-.32,1.18-.43,1.78-.43.68,0,1.12.39,1.43,1.23,1.48-.81,2.28-1.25,2.37-1.3.69-.41.98-.63,1.31-1,.61.63,1.27,1.57,1.27,1.83,0,.09-.06.15-.25.2-.74.2-2.1.78-4.38,1.89.01.27.04.96.04,1.44v.72c0,.18-.03.27-.1.32-.08.08-.48.12-.93.12-.51,0-.6-.04-.6-.29v-.06c.03-.43.04-1,.04-1.36v-.08Z"/>
        <path d="M30.13,175.57c-.67,0-1.2.01-1.56.04.04-.42.08-.89.08-1.53v-5.25c0-.78-.03-1.42-.08-1.79.42.04.87.06,1.52.06h6.64c.63,0,1.09-.02,1.51-.06-.04.32-.08.98-.08,1.79v5.25c0,.72.02,1.11.08,1.53-.38-.03-.96-.04-1.53-.04h-1.24v2.22c0,.4.12.45,1.29.45,1.08,0,1.36-.06,1.53-.3.15-.21.23-.78.25-1.84.6.32.96.46,1.5.6-.15,1.61-.29,2.15-.66,2.49-.4.36-1.02.48-2.62.48-2.42,0-2.85-.2-2.85-1.28v-2.82h-1.29c-.17,1.09-.63,1.99-1.36,2.67-.92.84-2,1.36-3.65,1.74-.24-.6-.42-.9-.84-1.42,1.37-.24,2.12-.5,2.82-.96.76-.5,1.18-1.12,1.36-2.02h-.82ZM30.16,169.5h6.5v-.95h-6.5v.95ZM30.16,171.79h6.5v-.95h-6.5v.95ZM30.16,174.18h6.5v-1.04h-6.5v1.04Z"/>
        <path d="M49.4,171.82c2.12,0,3.62,1.44,3.62,3.48,0,1.39-.74,2.66-1.96,3.39-.86.51-1.91.77-3.09.77-1.91,0-3.02-.77-3.02-2.07,0-1.18.99-2.02,2.4-2.02,1.27,0,2.19.64,2.8,1.96.76-.56,1.08-1.14,1.08-1.95,0-1.29-.92-2.13-2.36-2.13s-3.04.73-4.35,2.04c-.24.24-.46.5-.73.84-.11.15-.18.21-.27.21-.27,0-1.33-1.05-1.33-1.32,0-.13.06-.21.39-.45.34-.27.84-.7,1.47-1.3,1.46-1.38,2.52-2.54,4.09-4.46-1.88.24-3.13.45-3.6.62-.08.02-.12.03-.17.03-.12,0-.2-.08-.29-.3-.18-.45-.27-.95-.32-1.61.41.06.69.08,1.02.08.72,0,1.93-.1,3.51-.29.55-.06.73-.1,1.15-.27.14-.06.21-.08.3-.08.21,0,.42.18.81.78.29.39.38.58.38.71,0,.19-.04.25-.38.46-.27.17-.43.3-.78.63-.75.72-.76.72-1.69,1.67-.66.67-.74.75-1.33,1.35.97-.54,1.74-.76,2.64-.76ZM47.96,177.01c-.23-.15-.48-.22-.77-.22-.46,0-.76.22-.76.58,0,.43.46.71,1.18.71.33,0,.62-.03.99-.14-.18-.5-.33-.72-.64-.93Z"/>
        <path d="M61.55,176.17c-.72,1.25-1.71,1.93-2.73,1.93-1.56,0-2.67-1.53-2.67-3.66,0-2.37,1.2-4.41,3.25-5.49,1-.54,2.08-.78,3.51-.78,3.14,0,5.46,2.22,5.46,5.19,0,2.62-1.29,4.51-3.78,5.58-.5.21-.89.33-1.08.33-.18,0-.25-.06-.45-.34-.25-.39-.54-.67-.95-.95,3.09-.79,4.49-2.25,4.49-4.68,0-1.25-.53-2.29-1.46-2.96-.53-.36-.95-.51-1.77-.64-.42,3.17-.92,4.89-1.83,6.46ZM59.39,170.86c-1,.88-1.58,2.14-1.58,3.55,0,1.16.38,1.83,1,1.83.75,0,1.52-1.04,2.08-2.82.36-1.12.54-1.98.77-3.64-1.07.22-1.59.48-2.28,1.08Z"/>
        <path d="M74.29,175.45c.04.07.06.13.06.21,0,.1-.02.12-.15.45-.3.69-.66,1.77-.84,2.58-.04.17-.09.25-.15.29-.08.03-.59.11-.75.11h-.06c-.08,0-.18-.02-.3-.02-.2,0-.24-.04-.3-.22-.29-.97-.51-2.99-.51-4.5,0-1.65.1-2.67.52-4.92.15-.81.22-1.26.29-1.75.63.12,1.17.27,1.62.48.25.1.33.18.33.33,0,.1-.02.15-.18.39-.5.79-1.05,3.97-1.05,6.12,0,.34.02.81.06,1.56.42-.95.57-1.23.92-1.96.13.31.22.46.49.87ZM77.54,176.52c.48.25,1.05.34,2.06.34s1.53-.07,2.46-.34c.09-.03.16-.04.21-.04.1,0,.18.06.19.21.08.51.13,1.11.13,1.41,0,.15-.04.2-.25.25-.81.21-1.63.32-2.64.32-1.38,0-2.23-.17-2.94-.58-.66-.41-1.35-1.23-1.35-1.64,0-.21.32-.49,1.12-.99.27.54.53.81,1,1.06ZM76.49,168.87c.33.08,1.29.13,2.03.13.99,0,1.98-.08,2.91-.24q.08-.01.14-.01c.1,0,.15.04.18.17.03.15.08.81.08,1.21,0,.22-.04.3-.21.33-.62.12-1.63.2-2.71.2-1.29,0-2.45-.08-2.59-.17-.08-.04-.11-.15-.11-.42,0-.41.04-1,.08-1.12.01-.06.06-.09.15-.09.02,0,.04,0,.08.01Z"/>
        <path d="M89.17,171.57c-.19-.66-.25-1.07-.43-2.91-.06-.72-.12-1.08-.27-1.59.91.01,1.5.06,1.9.17.23.06.33.17.33.33,0,.06-.01.13-.04.25-.1.36-.15.63-.15,1.02,0,.74.15,1.94.32,2.46.09.29.18.39.34.39.36,0,1.68-.69,2.4-1.24.19-.15.22-.17.3-.17.13,0,.27.1.5.39.38.51.67,1.07.67,1.28,0,.17-.11.27-.36.34-.93.25-2.46.85-3.49,1.35-1.83.9-2.66,1.73-2.66,2.66s.76,1.29,2.7,1.29c1.12,0,2.14-.11,3.52-.33.06-.02.17-.03.2-.03.12,0,.19.06.25.18.04.15.15,1.07.15,1.43,0,.21-.06.28-.26.34-.33.08-2.14.18-3.28.18-1.92,0-3.2-.25-3.99-.79-.67-.46-1.04-1.2-1.04-2.1,0-.69.2-1.31.6-1.91.52-.78,1.09-1.27,2.35-2.02-.31-.29-.43-.5-.57-.96Z"/>
        <path d="M102.71,172.09c1.89-.52,3.25-.76,4.27-.76,2.12,0,3.42,1.16,3.42,3.03,0,1.12-.46,2.12-1.35,2.87-.58.5-1.46.92-2.61,1.26-.64.18-1.33.32-1.63.32-.18,0-.27-.04-.33-.2-.21-.52-.45-.9-.76-1.21,3.3-.34,4.98-1.39,4.98-3.1,0-.87-.72-1.54-1.65-1.54-1.62,0-3.39.54-5.25,1.57-.15.08-.24.12-.3.12-.25,0-.67-.75-1.02-1.83.74-.1.99-.17,2.24-.51Z"/>
        <path d="M116.18,170.67c-.39.09-.53.13-1.07.33-.19.08-.3.1-.39.1-.33,0-.63-.61-.9-1.9.96-.04,1.31-.09,2.97-.34,1.8-.27,4.08-.62,5.28-.77,1.35-.18,2.43-.36,3-.48.1-.03.15-.03.22-.03.2,0,.27.09.41.46.12.32.21.76.21.97,0,.18-.06.24-.27.24-.32,0-.6.03-.89.08-2.53.42-4.56,2.64-4.56,4.98,0,1.75,1.38,2.91,3.72,3.12.21.01.29.09.29.27,0,.38-.15,1.09-.29,1.42-.08.17-.19.24-.39.24s-.65-.09-1.11-.22c-2.55-.75-3.88-2.37-3.88-4.67,0-1.25.41-2.4,1.19-3.39.42-.54.78-.84,1.63-1.42-1.96.33-4.04.72-5.17,1Z"/>
        <path d="M132.19,171.3c-1.07-.21-1.88-.52-2.43-.92-.27-.18-.33-.25-.33-.39,0-.17.12-.46.54-1.3.73.46,1.56.79,2.5.99.21-1.05.3-1.92.31-2.89.77.13,1.44.36,1.82.57.17.09.22.18.21.3,0,.06-.03.12-.11.27-.22.46-.24.51-.55,1.98.15.01.34.01.46.01h.11c.36-.01.63-.01.76-.01h.04c.13,0,.18.06.18.25,0,.66-.04,1.2-.1,1.3-.04.08-.24.11-.87.11-.29,0-.51-.02-.93-.03q-.32,1.54-.45,2.35c.51.04.62.04.87.04h.84c.15-.01.22.02.27.09.06.09.11.57.11,1.11,0,.27-.02.34-.11.39-.07.03-.4.05-.97.05-.27,0-.67-.02-1.2-.05-.01.27-.01.45-.01.57,0,1.38.64,2.01,2.05,2.01,1.58,0,2.52-.76,2.52-2.05,0-.46-.1-.88-.34-1.35-.3-.57-.58-.9-1.3-1.47h.13c.24,0,.75-.07,1.2-.16.24-.05.33-.06.41-.06.22,0,.38.11.67.48.69.84,1.04,1.72,1.04,2.65,0,2.12-1.71,3.51-4.31,3.51-2.43,0-3.64-1.21-3.64-3.67,0-.21,0-.38.03-.63-1.49-.31-2.29-1.05-2.29-2.12,0-.55.17-.96.58-1.38.04-.06.1-.07.17-.07.09,0,.19.07.54.36.27.23.31.27.31.35q0,.06-.09.19c-.06.11-.12.27-.12.36,0,.19.12.36.35.46.21.1.27.12.75.22l.39-2.43Z"/>
        <path d="M149.87,171.54c.34,1.29,1.11,2.68,2.07,3.76,1.06,1.23,2.26,2.04,3.97,2.75-.5.57-.69.88-1.05,1.65-2.85-1.45-4.65-3.37-5.73-6.12-.43,1.47-1.2,2.73-2.35,3.85-.97.97-2.01,1.65-3.43,2.28-.24-.56-.54-1-1-1.52,1.75-.7,3-1.56,3.93-2.68.9-1.09,1.38-2.25,1.63-3.97h-3.39c-.92,0-1.33.01-1.82.09v-1.8c.45.06.98.09,1.82.09h3.54c.03-.66.04-1,.04-1.58,0-.72-.03-1.15-.11-1.57h1.91c-.08.51-.09.7-.11,1.69,0,.62-.01.95-.03,1.46h3.81c.81,0,1.33-.03,1.81-.09v1.8c-.55-.06-1-.09-1.8-.09h-3.72Z"/>
        <path d="M162.62,173.77h-3.4c-.53,0-.93.02-1.32.06v-1.26c.33.04.72.06,1.35.06h3.38v-.55h-3.04c-.51,0-.87.01-1.21.04.03-.32.04-.6.04-.97v-.95c0-.41-.01-.63-.04-1,.41.03.69.04,1.23.04h3.03v-.54h-3.94c-.72,0-1.17.01-1.68.08v-1.42c.45.06.93.09,1.77.09h3.85c-.01-.51-.03-.66-.09-.99h1.72c-.06.32-.07.45-.09.99h4.05c.84,0,1.3-.03,1.77-.09v1.42c-.48-.04-.99-.08-1.68-.08h-4.14v.54h3.27c.56,0,.84-.01,1.2-.04-.03.33-.04.55-.04,1v.95c0,.45.02.66.04.97-.33-.03-.67-.04-1.14-.04h-3.33v.55h3.25c.84,0,1.08-.01,1.53-.04-.04.38-.04.55-.04,1.3v.51c.63,0,.94-.03,1.25-.08v1.36c-.35-.04-.62-.07-1.25-.07v.84c0,.76.01,1.11.07,1.54h-1.6v-.56h-3.21v.81c0,1.29-.36,1.56-2.1,1.56-.36,0-.88-.01-1.4-.04-.07-.58-.17-.87-.43-1.44.76.09,1.3.13,1.8.13s.58-.06.58-.34v-.68h-3.39c-.63,0-1,.02-1.42.06v-1.32c.39.04.63.06,1.38.06h3.43v-.63h-4.12c-.81,0-1.21.01-1.59.07v-1.36c.39.06.72.08,1.56.08h4.15v-.63ZM159.94,170.37v.58h2.68v-.58h-2.68ZM164.17,170.95h2.89v-.58h-2.89v.58ZM167.38,174.4v-.63h-3.21v.63h3.21ZM164.17,176.25h3.21v-.63h-3.21v.63Z"/>
        <path d="M173.17,171c-.27.01-.43.03-.61.04-.14.01-.15.01-.17.01-.12,0-.18-.04-.23-.19-.08-.24-.18-1.04-.19-1.49.17.01.6.03,1.14.03.17,0,1.35-.08,1.88-.12.25-1.21.34-1.84.34-2.66,1.54.21,2.1.39,2.1.68,0,.1-.01.13-.24.48-.12.18-.17.34-.42,1.28.7-.12,1.12-.23,1.68-.41.1-.03.15-.04.22-.04.11,0,.13.08.23.51.07.38.12.69.12.85,0,.18-.04.21-.43.3-.51.12-1.38.27-2.31.39-.56,1.68-.93,2.58-1.62,3.99-.53,1.05-.83,1.6-1.23,2.23-.12.18-.19.24-.3.24-.15,0-.57-.22-1.09-.62-.24-.17-.3-.24-.3-.34s.06-.2.25-.46c.43-.54,1-1.47,1.5-2.46.42-.83.57-1.17,1-2.36-.58.04-.63.06-1.32.11ZM178.1,179.64c-1.64,0-2.75-.9-2.75-2.24s1.15-2.41,2.7-2.41c.36,0,.53.01,1.14.1-.06-.72-.06-1-.12-2.4,0-.29-.03-.68-.06-1.16.77.08,1.35.17,1.64.29.12.04.18.12.18.24,0,.08-.01.14-.03.24-.08.32-.09.54-.09.95,0,.55.04,1.5.09,2.23,1.07.48,1.5.72,2.25,1.31.33.25.45.39.45.51,0,.15-.08.29-.5.96-.18.3-.31.43-.42.43q-.09,0-.51-.39c-.33-.33-.71-.58-1.23-.9,0,1.4-1.02,2.24-2.74,2.24ZM178.07,176.43c-.72,0-1.21.34-1.21.87,0,.5.45.81,1.12.81.79,0,1.21-.4,1.21-1.2,0-.12,0-.24-.02-.24-.3-.15-.7-.24-1.11-.24ZM183.68,172.17c-.18.25-.27.33-.38.33-.08,0-.13-.03-.24-.13-.38-.36-.9-.75-1.46-1.1q-.36-.22-1.02-.52c-.21-.09-.29-.15-.29-.27,0-.1.08-.24.3-.58.36-.52.45-.61.58-.61.28,0,1.39.57,2.19,1.11.65.44.84.62.84.78,0,.12-.24.57-.54,1Z"/>
        <path d="M192.1,169.21c.42,0,.77-.01.92-.04v1.32c-.22-.03-.48-.04-.93-.04h-.96c.27.31.57.52,1.28.93-.38.41-.44.5-.83,1.18-.74-.61-.92-.82-1.28-1.38.02.24.03.48.03.58v.54c0,.18.01.36.06.53h-1.54c.03-.15.05-.33.05-.48v-.54c0-.15.01-.31.04-.63-.77,1.05-1.25,1.52-2.36,2.27-.3-.53-.46-.74-.93-1.19,1.16-.6,1.83-1.12,2.31-1.81h-.78c-.51,0-.9.01-1.2.06v-1.35c.34.04.67.06,1.21.06h1.71v-1.69c0-.44-.01-.69-.06-.98h1.56c-.04.29-.06.53-.06.95v1.72h1.75ZM191.36,178.99c-.53-.42-.74-.55-1.33-.87-.9.79-1.79,1.24-3.45,1.71-.21-.51-.43-.9-.75-1.33,1.29-.27,2.08-.56,2.87-1.05-.67-.31-1.07-.46-2.13-.85.45-.63.58-.83.93-1.42h-.42c-.53,0-.81.01-1.14.08v-1.46c.33.06.6.08,1.14.08h1.08c.13-.3.21-.48.39-1.02l1.49.29c-.13.36-.18.46-.3.74h2.28c.51,0,.78-.02,1.07-.06v1.42c-.3-.04-.54-.06-1.17-.06-.29.92-.42,1.21-.87,1.84.55.25.67.33,1.17.64l-.84,1.33ZM187.57,166.68c.54.79.72,1.12,1,1.91l-1.26.46c-.29-.79-.53-1.26-.98-1.9l1.23-.47ZM189.04,175.17c-.2.33-.24.41-.51.81.63.23.85.3,1.23.46.32-.42.5-.76.66-1.27h-1.38ZM192.92,167.19c-.57,1.14-.63,1.27-1.08,1.93l-1.23-.55c.46-.63.78-1.21,1.02-1.92l1.29.54ZM199.21,170.44c-.25-.04-.44-.04-1.02-.06-.09,2.33-.54,4.07-1.46,5.64.81,1.02,1.61,1.68,2.75,2.25-.34.45-.58.88-.84,1.53-1.09-.65-2.02-1.47-2.82-2.47-.9,1.03-2.01,1.92-3.27,2.58-.27-.75-.41-.99-.76-1.44.63-.32.81-.42,1.14-.63.83-.54,1.49-1.11,2.04-1.8-.66-1.19-.96-2.03-1.21-3.38-.25.41-.36.55-.66.94-.31-.4-.63-.73-1.04-1.03.9-1.14,1.5-2.4,1.95-4.16.18-.67.32-1.53.33-1.95l1.6.32c-.06.17-.1.3-.21.79-.1.41-.25.97-.39,1.42h2.52c.68,0,1.01-.01,1.35-.08v1.52ZM194.87,170.38q-.12.3-.18.44c.24,1.63.52,2.58,1.14,3.79.58-1.25.83-2.4.9-4.23h-1.86Z"/>
        <path d="M206.21,173.97c0-.33-.01-.55-.06-.93h.76c.71-.38,1.26-.75,1.77-1.21h-4.5c-.66,0-1.05.01-1.5.07v-1.56c.43.06.81.08,1.5.08h5.25c.57,0,.79-.01,1.11-.06l.76.96q-.4.35-.57.5c-1.1.95-1.91,1.53-2.96,2.16v.09h3.79c.69,0,1.3-.03,1.75-.09v1.63c-.45-.06-1.11-.09-1.75-.09h-3.79v2.54c0,1.23-.48,1.62-2.05,1.62-.5,0-1.02-.03-1.74-.08-.08-.55-.13-.75-.45-1.53.72.11,1.5.17,2.01.17s.66-.09.66-.38v-2.34h-3.96c-.64,0-1.27.03-1.75.09v-1.63c.5.06,1.09.09,1.75.09h3.96v-.09ZM205.97,167.59c0-.45-.01-.73-.07-1.09h1.77c-.06.33-.08.65-.08,1.08v.33h3.95c.73,0,1.06-.01,1.63-.06-.04.35-.06.66-.06,1.14v1.17c0,.41.03.75.08,1.09h-1.57v-1.92h-9.38v1.92h-1.59c.06-.33.08-.66.08-1.09v-1.17c0-.45-.02-.79-.06-1.14.55.05.92.06,1.65.06h3.66v-.32Z"/>
        <path d="M216.55,171c-.27.01-.43.03-.61.04-.14.01-.15.01-.17.01-.12,0-.18-.04-.23-.19-.08-.24-.18-1.04-.19-1.49.17.01.6.03,1.14.03.17,0,1.35-.08,1.88-.12.25-1.21.34-1.84.34-2.66,1.54.21,2.1.39,2.1.68,0,.1-.01.13-.24.48-.12.18-.17.34-.42,1.28.7-.12,1.12-.23,1.68-.41.1-.03.15-.04.22-.04.11,0,.13.08.23.51.07.38.12.69.12.85,0,.18-.04.21-.43.3-.51.12-1.38.27-2.31.39-.56,1.68-.93,2.58-1.62,3.99-.53,1.05-.83,1.6-1.23,2.23-.12.18-.19.24-.3.24-.15,0-.57-.22-1.09-.62-.24-.17-.3-.24-.3-.34s.06-.2.25-.46c.43-.54,1-1.47,1.5-2.46.42-.83.57-1.17,1-2.36-.58.04-.63.06-1.32.11ZM221.48,179.64c-1.64,0-2.75-.9-2.75-2.24s1.15-2.41,2.7-2.41c.36,0,.53.01,1.14.1-.06-.72-.06-1-.12-2.4,0-.29-.03-.68-.06-1.16.77.08,1.35.17,1.64.29.12.04.18.12.18.24,0,.08-.01.14-.03.24-.08.32-.09.54-.09.95,0,.55.04,1.5.09,2.23,1.07.48,1.5.72,2.25,1.31.33.25.45.39.45.51,0,.15-.08.29-.5.96-.18.3-.31.43-.42.43q-.09,0-.51-.39c-.33-.33-.71-.58-1.23-.9,0,1.4-1.02,2.24-2.74,2.24ZM221.45,176.43c-.72,0-1.21.34-1.21.87,0,.5.45.81,1.12.81.79,0,1.21-.4,1.21-1.2,0-.12,0-.24-.02-.24-.3-.15-.7-.24-1.11-.24ZM227.06,172.17c-.18.25-.27.33-.38.33-.08,0-.13-.03-.24-.13-.38-.36-.9-.75-1.46-1.1q-.36-.22-1.02-.52c-.21-.09-.29-.15-.29-.27,0-.1.08-.24.3-.58.36-.52.45-.61.58-.61.28,0,1.39.57,2.19,1.11.65.44.84.62.84.78,0,.12-.24.57-.54,1Z"/>
        <path d="M18.17,202.42c-.72,1.25-1.71,1.93-2.73,1.93-1.56,0-2.67-1.53-2.67-3.66,0-2.37,1.2-4.41,3.25-5.49,1-.54,2.08-.78,3.51-.78,3.14,0,5.46,2.22,5.46,5.19,0,2.62-1.29,4.51-3.78,5.58-.5.21-.89.33-1.08.33-.18,0-.25-.06-.45-.34-.25-.39-.54-.67-.95-.95,3.09-.79,4.49-2.25,4.49-4.68,0-1.25-.53-2.29-1.46-2.96-.53-.36-.95-.51-1.77-.64-.42,3.17-.92,4.89-1.83,6.46ZM16.01,197.11c-1,.88-1.58,2.14-1.58,3.55,0,1.16.38,1.83,1,1.83.75,0,1.52-1.04,2.08-2.82.36-1.12.54-1.98.77-3.64-1.07.22-1.59.48-2.28,1.08Z"/>
        <path d="M34.57,204.54c0,.66-.53,1.18-1.18,1.18s-1.19-.53-1.19-1.18.53-1.19,1.19-1.19,1.18.53,1.18,1.19ZM34.04,202.32h-1.33l-.41-8.98h2.16l-.42,8.98Z"/>
      </g>
      <g>
        <path class="cls-6" d="M320.06,220.38l2.44-1.25,1.46-4.73.45-7.2-1.46-6.87-4.68-6.99-5.39-2.36-6.79-.22-6.1,3.81-4.7,6.93-3.53,4.99-1.3,4.93,1.86,3.93,6.11,3.68c3.93,2.14,16.2,3.55,21.64,1.34Z"/>
        <path class="cls-12" d="M291.24,208.05c4.13.27,6.52,4.64,4.99,9.32-4.03-2.19-6.28-4.42-4.99-9.32Z"/>
        <path class="cls-1" d="M326.06,197.15c1.96.16,1.33,2.31.37,3.56-.2.26-.59.3-.84.08-1.7-1.45-1.1-3.77.47-3.64Z"/>
        <path class="cls-1" d="M325.95,197.99c-.33,0-.6-.27-.6-.6v-3.87l-.98-1.36c-.19-.27-.13-.64.14-.83.27-.19.64-.13.83.14l1.09,1.52c.07.1.11.22.11.35v4.07c0,.33-.27.6-.6.6Z"/>
        <ellipse class="cls-1" cx="302.22" cy="206.96" rx="1.67" ry="1.55" transform="translate(50.77 473.31) rotate(-81.05)"/>
        <ellipse class="cls-1" cx="311.72" cy="208.63" rx="1.55" ry="1.67" transform="translate(-10.14 16.02) rotate(-2.9)"/>
        <path class="cls-1" d="M301.38,206.41c-.06,0-.13-.02-.19-.06-.7-.55-1.05-1.12-1.32-2.09-.04-.16.05-.32.21-.37.16-.04.32.05.37.21.26.96.59,1.37,1.11,1.78.13.1.15.29.05.42-.06.07-.15.11-.23.11Z"/>
        <path class="cls-1" d="M301.2,206.95c-.74,0-1.53-.42-2.16-1.16-.11-.13-.09-.31.03-.42.13-.11.31-.09.42.03.55.65,1.26,1.01,1.85.95.16-.02.31.1.33.26.02.16-.1.31-.26.33-.07,0-.14.01-.21.01Z"/>
        <path class="cls-1" d="M312.81,208.2c-.15,0-.27-.11-.3-.26-.02-.16.09-.31.26-.34.49-.07,1.22-.49,1.67-1.25.08-.14.27-.19.41-.1.14.08.19.27.1.41-.48.82-1.33,1.44-2.11,1.54-.01,0-.03,0-.04,0Z"/>
        <path class="cls-1" d="M313.79,209.34c-.34,0-.7-.06-1.04-.22-.15-.07-.22-.25-.15-.4.07-.15.25-.22.4-.15.77.35,1.64.08,2.24-.22.15-.07.33-.01.4.14.07.15.01.33-.14.4-.46.23-1.07.45-1.71.45Z"/>
        <polygon class="cls-5" points="322.32 186.87 316.32 186.31 318.99 191.7 325.1 192.36 322.32 186.87"/>
        <polygon class="cls-5" points="320.71 194.93 315.44 190.91 317.34 188.19 322.45 192.25 320.71 194.93"/>
        <path class="cls-12" d="M324.59,211.05c-5.72-.79-10.1,4.13-9.2,10.53,6.07-1.7,9.72-3.92,9.2-10.53Z"/>
        <path class="cls-1" d="M305.76,202.3c-1.73-.3-2.63-1.6-2.54-3.04.02-.34.41-.4.6-.09.59.98,1.31,1.72,2.13,2.48.27.25.15.71-.18.65Z"/>
        <path class="cls-1" d="M311.49,202.8c1.54.83,3.06.36,3.88-.82.19-.28-.08-.57-.41-.44-1.07.4-2.09.55-3.2.64-.37.03-.55.46-.26.62Z"/>
        <path class="cls-1" d="M313.29,222.08c-2.36,0-4.28-.24-4.41-.25-.33-.04-.56-.34-.52-.67s.34-.56.67-.52c.06,0,5.61.69,9.39-.29,5.98-1.55,5.72-6.95,5.57-10.19-.01-.26-.02-.5-.03-.71-.07-2.22-.44-6.51-2.13-10.33-2.12-4.8-5.64-7.39-10.45-7.72-9.35-.63-12.53,5.04-14.64,8.79-.48.86-.9,1.6-1.33,2.17-.17.23-.38.49-.61.78-1.72,2.17-4.59,5.8-3.56,9.3.77,2.6,3.63,4.77,8.5,6.43.31.11.48.45.37.76-.11.31-.45.48-.76.37-5.26-1.79-8.37-4.22-9.26-7.22-1.21-4.09,2.03-8.18,3.77-10.38.22-.28.42-.54.59-.76.38-.51.78-1.22,1.24-2.04,2.12-3.77,5.66-10.08,15.76-9.4,5.29.36,9.15,3.19,11.46,8.43,1.77,4.01,2.16,8.47,2.23,10.77,0,.21.02.44.03.69.15,3.12.45,9.61-6.46,11.4-1.7.44-3.69.57-5.43.57Z"/>
        <path class="cls-1" d="M320.71,195.52c-.13,0-.26-.04-.37-.13-.26-.2-.3-.58-.1-.84l2.2-2.79c.13-.16.33-.25.53-.22l1.09.12-2.14-4.21-4.6-.43.65,1.31c.1.2.08.44-.06.62l-1.77,2.35c-.2.26-.57.32-.84.12-.26-.2-.32-.57-.12-.84l1.55-2.06-.96-1.94c-.1-.19-.08-.42.04-.6.12-.18.33-.28.55-.26l6,.56c.2.02.38.14.48.32l2.78,5.49c.1.2.08.43-.04.61-.12.18-.34.28-.55.25l-1.86-.2-2,2.54c-.12.15-.29.23-.47.23Z"/>
        <g>
          <path class="cls-3" d="M310.44,213.01c-.54-1.83-3.33-3.94-4.82-3.82s-4.72,1.72-5.69,1.6-1.6-.82-1.86,1.44,1.44,3.53,3.87,2.85c3.18,2.08,9.43,1.07,8.5-2.07Z"/>
          <path class="cls-3" d="M310.54,214.52c-.96,3.55-5.93,6.02-7.13,5.41s-3.89-1.63-2.34-4.67c2.41.67,7.43.52,7.63-.95s1.84.22,1.84.22Z"/>
          <path class="cls-1" d="M305.69,216.76c-1.13,0-2.33-.39-3.55-1.18-2.28.5-3.5-.18-4.12-.86-.78-.85-1.02-2.14-.61-3.38.41-1.25,1.01-1.32,1.88-1.29.63.02,1.59.06,3.19-.65,3.58-1.6,5.53-.43,7.38,1.82.18.22.15.55-.07.73-.22.18-.55.15-.73-.07-1.62-1.98-3.15-2.87-6.14-1.53-1.83.82-2.97.77-3.66.75q-.65-.02-.84.57c-.28.86-.13,1.78.38,2.34.65.7,1.8.87,3.33.5.14-.03.29,0,.42.07,1.8,1.22,4.44,2.05,6.76-.92.15-.19.42-.25.64-.15,0,0,.68.33,1.29.5.28.08.44.37.36.65s-.37.44-.65.36c-.39-.11-.8-.28-1.08-.4-1.22,1.42-2.63,2.13-4.16,2.13Z"/>
          <path class="cls-1" d="M304.23,220.17c-.84,0-1.62-.2-2.27-.61-2.95-1.84-1.53-4.57-1.52-4.59.14-.25.45-.35.71-.21.25.14.35.45.21.71-.1.19-.92,1.92,1.15,3.21.99.62,2.52.59,3.97-.09,1.83-.85,3.09-2.45,3.35-4.27.04-.29.31-.48.59-.44.29.04.48.31.44.59-.32,2.17-1.79,4.06-3.95,5.06-.91.42-1.83.63-2.69.63Z"/>
        </g>
      </g>
      <g>
        <polygon class="cls-11" points="290.94 203.05 288.73 205.5 291.06 208.09 293.18 205.46 290.94 203.05"/>
        <path class="cls-1" d="M294.19,205.74c-1.55,0-2.71-.89-3.25-2.38-.54,1.49-1.7,2.38-3.25,2.38-.19,0-.34-.15-.34-.34s.15-.34.34-.34c1.79,0,2.91-1.46,2.91-3.82,0-.19.15-.34.34-.34s.34.15.34.34c0,2.32,1.14,3.82,2.91,3.82.19,0,.34.15.34.34s-.15.34-.34.34Z"/>
        <path class="cls-1" d="M291.08,210.21c-.19,0-.34-.15-.34-.34,0-2.33-1.28-4.02-3.05-4.02-.19,0-.34-.15-.34-.34s.15-.34.34-.34c1.53,0,2.77,1,3.35,2.55.51-1.6,1.64-2.55,3.14-2.55.19,0,.34.15.34.34s-.15.34-.34.34c-1.71,0-2.77,1.54-2.77,4.02,0,.19-.15.34-.34.34Z"/>
      </g>
      <g>
        <path class="cls-7" d="M41.92,72.66c5.99-4.82,10.66-4.4,11.63-2.77.89,1.5-.2,9.39-9.12,4.98"/>
        <path class="cls-4" d="M46.16,75.24c2.15-3.7,6.52-2.97,7.65-2.44-1.95,3.62-3.96,4.96-7.65,2.44Z"/>
        <path class="cls-1" d="M49.16,76.82c-1.31,0-2.95-.38-4.99-1.39-.3-.15-.43-.52-.28-.82.15-.3.52-.42.82-.28,3.32,1.64,5.84,1.68,7.3.12,1.3-1.4,1.35-3.69,1.02-4.24-.21-.35-.72-.62-1.4-.75-.91-.17-4.28-.39-9.33,3.68-.26.21-.65.17-.86-.09-.21-.26-.17-.65.09-.86,3.68-2.96,7.54-4.43,10.31-3.93,1.04.19,1.83.66,2.23,1.32.64,1.09.43,3.95-1.18,5.69-.75.81-1.93,1.54-3.74,1.54Z"/>
        <path class="cls-7" d="M47.41,86.9c1.64-16.83-17.12-22.81-25.65-13.47-2.98,3.26-5.19,9.03-4.06,15.78-3.29,3.25-2.73,7.92,2.42,10.47,3.1,1.53,6.2,2.2,13.34,2.2,6.63,0,14.3-2.8,16.45-6.94,1.2-2.31.78-5.73-2.5-8.03Z"/>
        <path class="cls-2" d="M37.18,69.26c-.6-4.19-4.15-6.53-4.34-.47"/>
        <path class="cls-2" d="M25.49,70.33c-.51-4.21,2.31-7.38,4.07-1.58"/>
        <path class="cls-7" d="M21.03,73.39c-6.66-3.83-11.22-2.69-11.92-.92-.65,1.62,2.36,9.82,10.47,4.08"/>
        <path class="cls-4" d="M17.76,77.2c-2.15-3.7-7.04-2.78-8.16-2.25,1.95,3.62,4.48,4.77,8.16,2.25Z"/>
        <path class="cls-4" d="M30.59,68.78c1.23,7.47-2.33,14.46-12.54,14.46,0-11.43,12.54-14.46,12.54-14.46Z"/>
        <path class="cls-4" d="M32.84,68.79c0,8.41,6.81,12.73,13.85,13.26,0-11.43-13.85-13.26-13.85-13.26Z"/>
        <path class="cls-4" d="M16.61,95.67c13.82-6.39,25.47-3.61,33.3-.74-3.13,7.58-29.27,10.16-33.3.74Z"/>
        <path class="cls-1" d="M33.45,102.48c-7.6,0-10.65-.79-13.61-2.26-2.69-1.33-4.37-3.31-4.74-5.59-.32-1.98.37-3.97,1.94-5.63-1.1-7.14,1.47-12.92,4.26-15.98,4.25-4.65,11.26-5.93,17.43-3.18,3.01,1.34,5.47,3.51,7.11,6.28,1.79,3.02,2.53,6.55,2.2,10.5,3.38,2.57,3.64,6.23,2.4,8.6-2.36,4.55-10.5,7.26-17,7.26ZM32.08,69.61c-3.76,0-7.35,1.46-9.87,4.22-2.64,2.89-5.06,8.42-3.91,15.27.03.2-.03.39-.17.53-1.44,1.42-2.08,3.13-1.81,4.8.3,1.88,1.75,3.55,4.07,4.69,2.8,1.38,5.72,2.13,13.07,2.13,6.88,0,14.02-2.96,15.91-6.61,1.03-1.99.75-5.1-2.31-7.25-.18-.13-.28-.34-.26-.56.71-7.25-2.5-13.19-8.57-15.9-2.01-.89-4.11-1.33-6.16-1.33Z"/>
        <path class="cls-1" d="M14.38,79.18c-1.46,0-2.58-.54-3.4-1.18-2.09-1.64-2.9-4.58-2.44-5.76.29-.72.99-1.31,1.99-1.65,2.66-.93,6.7-.08,10.8,2.27.29.17.39.54.23.83-.17.29-.54.39-.83.23-5.62-3.23-8.91-2.49-9.79-2.18-.65.23-1.11.57-1.26.95-.21.53.31,2.97,2.06,4.35,1.89,1.49,4.48,1.14,7.5-.99.27-.19.65-.13.85.15.19.27.13.66-.15.85-2.23,1.58-4.07,2.14-5.56,2.14Z"/>
        <path class="cls-1" d="M37.18,69.87c-.3,0-.56-.22-.6-.52-.32-2.23-1.49-3.66-2.13-3.63-.31.02-.93.69-1,3.09-.01.34-.3.6-.63.59-.34-.01-.6-.29-.59-.63.11-3.62,1.4-4.23,2.15-4.27.03,0,.06,0,.09,0,1.46,0,2.94,2.06,3.31,4.67.05.33-.18.64-.52.69-.03,0-.06,0-.09,0Z"/>
        <path class="cls-1" d="M25.49,70.94c-.3,0-.57-.23-.6-.54-.32-2.67.61-5.08,2.07-5.39.74-.15,2.14.1,3.19,3.56.1.32-.08.66-.41.76-.32.1-.66-.08-.76-.41-.7-2.3-1.46-2.79-1.77-2.72-.62.13-1.38,1.81-1.11,4.05.04.33-.2.64-.53.68-.02,0-.05,0-.07,0Z"/>
        <path class="cls-1" d="M38.42,80.78c-.65-1.09-1.64-1.26-2.42-.7-.18.13-.11.42.12.44.71.07,1.33.3,1.99.61.22.1.44-.14.31-.35Z"/>
        <path class="cls-1" d="M27.46,80.98c.65-1.09,1.64-1.26,2.42-.7.18.13.11.42-.12.44-.71.07-1.33.3-1.99.61-.22.1-.44-.14-.31-.35Z"/>
        <circle class="cls-1" cx="34.31" cy="94.79" r=".57"/>
        <circle class="cls-1" cx="32.52" cy="94.79" r=".57"/>
        <path class="cls-1" d="M33.19,99.12c-.21,0-.41-.01-.6-.04-1.65-.22-2.98-1.29-3.43-2.66l-.43.02c-.33.01-.63-.25-.64-.59-.01-.34.25-.63.59-.64l.94-.04c.31,0,.59.22.63.53.16,1.1,1.18,1.99,2.5,2.16,1.47.2,2.73-.55,3.36-2,.12-.27.4-.42.69-.36l.78.16c.33.07.55.4.48.73s-.4.55-.73.48l-.31-.06c-.93,1.71-2.48,2.32-3.84,2.32Z"/>
        <path class="cls-1" d="M35.85,90.31c-.11,0-.22-.03-.32-.11-.24-.18-.29-.52-.11-.75.44-.59,1.04-.92,1.7-.93.69,0,1.35.32,1.82.92.19.23.15.57-.09.76-.23.19-.57.15-.76-.08-.26-.33-.61-.51-.95-.51,0,0-.01,0-.02,0-.32,0-.62.18-.85.5-.11.14-.27.22-.43.22Z"/>
        <path class="cls-1" d="M30.65,90.31c-.16,0-.33-.08-.43-.22-.24-.32-.53-.49-.85-.5,0,0-.01,0-.02,0-.34,0-.68.19-.95.51-.19.23-.53.27-.76.08-.23-.19-.27-.53-.09-.76.48-.6,1.14-.94,1.82-.92.66.01,1.26.34,1.7.93.18.24.13.58-.11.75-.1.07-.21.11-.32.11Z"/>
      </g>
    </g>
  </g>
</svg>