<?xml version="1.0" encoding="UTF-8"?>
<svg id="_レイヤー_2" data-name="レイヤー 2" xmlns="http://www.w3.org/2000/svg" width="339.66" height="208.16" viewBox="0 0 339.66 208.16">
  <defs>
    <style>
      .cls-1 {
        fill: #211815;
      }

      .cls-2 {
        fill: #f5f19b;
      }

      .cls-3 {
        fill: #ecbb6e;
      }

      .cls-4 {
        fill: #93c9ce;
      }

      .cls-5 {
        fill: #5c948d;
      }

      .cls-6 {
        fill: #fffba1;
      }

      .cls-7, .cls-8 {
        fill: #fff;
      }

      .cls-9 {
        fill: #d3f2c9;
      }

      .cls-10 {
        fill: #de8a4c;
      }

      .cls-11 {
        fill: #ceeaeb;
      }

      .cls-12 {
        fill: #f2d496;
      }

      .cls-8 {
        stroke: #ceeaeb;
        stroke-miterlimit: 10;
        stroke-width: 2.83px;
      }
    </style>
  </defs>
  <g id="_レイヤー_1-2" data-name="レイヤー 1">
    <g>
      <path class="cls-8" d="M9.89,97.54h239.38c4.68,0,8.47,3.79,8.47,8.47v69.68s9.69,9.69,9.69,9.69h-9.69s0,.5,0,.5c0,4.68-3.79,8.47-8.47,8.47H9.89c-4.68,0-8.47-3.79-8.47-8.47v-79.87c0-4.68,3.79-8.47,8.47-8.47Z"/>
      <circle class="cls-9" cx="305.91" cy="178.16" r="30"/>
      <g>
        <path d="M26.64,122.25c-.69,0-1.79.23-2.54.51-1.59.61-2.64,1.74-2.64,2.83,0,.69.45,1.16,1.35,1.38.41.1,1.11.18,1.6.16h.15c.25,0,.34.09.34.29,0,.5-.09,1.19-.17,1.38-.06.12-.13.16-.29.16-.91,0-2.07-.24-2.85-.6-1.15-.51-1.79-1.39-1.79-2.5,0-.71.27-1.42.78-2.07.29-.35.51-.56,1.05-.93-2.73.83-4.09,1.35-5.01,1.95-.12.07-.19.1-.27.1-.17,0-.3-.13-.51-.51-.21-.34-.36-.76-.36-.99,0-.14.06-.18.42-.29.34-.11.58-.26,1.16-.66.69-.51,1.77-1.44,2.7-2.33.77-.74,1.2-1.18,2.1-2.24-.87.11-3.23.51-3.57.6-.21.06-.22.06-.27.06-.14,0-.2-.06-.25-.21-.12-.33-.23-.88-.3-1.51.21.01.32.01.45.01.67,0,2.13-.12,3.93-.34.67-.08,1.07-.17,1.33-.3.18-.09.21-.1.32-.1.18,0,.42.19.84.7.3.34.39.51.39.67s-.06.24-.25.38q-.27.17-1.53,1.34c-1.04.96-2.27,2.01-3.65,3.1,2.12-.63,3.22-.93,5.52-1.44.51-.11,1.01-.24,1.58-.42.08-.03.13-.04.18-.04.12,0,.18.06.25.2.17.34.36,1.08.36,1.35,0,.21-.06.3-.22.3h-.34Z"/>
        <path d="M35.22,125.57c-.72,1.24-1.71,1.93-2.73,1.93-1.56,0-2.67-1.53-2.67-3.66,0-2.37,1.2-4.41,3.25-5.49,1-.54,2.08-.78,3.51-.78,3.14,0,5.46,2.22,5.46,5.19,0,2.62-1.29,4.51-3.78,5.58-.5.21-.89.33-1.08.33-.18,0-.25-.06-.45-.34-.25-.39-.54-.68-.95-.95,3.09-.79,4.49-2.25,4.49-4.68,0-1.25-.53-2.29-1.46-2.96-.53-.36-.95-.51-1.77-.64-.42,3.16-.92,4.89-1.83,6.46ZM33.06,120.26c-1,.88-1.58,2.15-1.58,3.55,0,1.16.38,1.83,1,1.83.75,0,1.52-1.04,2.08-2.82.36-1.12.54-1.98.77-3.65-1.07.23-1.59.48-2.28,1.08Z"/>
        <path d="M43.8,121.37c.38.06.6.08,1.09.08h.99c.42,0,.76-.02,1.09-.06-.04.41-.06.78-.06,1.56v3.07c.24.42.39.6.7.81.27.18.51.31.72.36.66.2,1.54.27,2.85.27,2.35,0,3.12-.04,6.03-.38-.18.52-.31,1.09-.42,1.73-1.86.07-3.34.1-5.73.1-1.48,0-2.64-.12-3.27-.36-.71-.25-1.08-.53-1.67-1.23l-.22.23c-.33.34-.39.39-.95.89q-.12.1-.32.24c-.1.09-.18.15-.33.27l-.78-1.58c.54-.25,1.21-.75,1.9-1.4v-3.06h-.73c-.36,0-.6.01-.92.08v-1.62ZM44.9,116.09c1.04.9,1.79,1.68,2.49,2.6l-1.2,1.17c-.83-1.14-1.44-1.81-2.45-2.69l1.16-1.08ZM50.67,119.01q-.82-.55-1.2-.75l1.12-.65h-1.38c-.72,0-1.07.01-1.49.08v-1.47c.45.08.88.09,1.71.09h4.67c.92,0,1.38-.03,1.62-.09l.75.87c-.23.15-.33.21-.72.55-.6.5-1.27.99-1.88,1.37h1.17c.74,0,1.1-.02,1.46-.06-.03.38-.04.86-.04,1.65v4.44c0,.81-.06,1.1-.27,1.3-.25.26-.62.35-1.5.35-.13,0-.38,0-.65-.02-.06-.57-.13-.93-.34-1.37.38.06.72.09.96.09.3,0,.33-.03.33-.39v-.57h-2.16v.6c0,.78.02,1.14.08,1.59h-1.59c.06-.42.09-.84.09-1.59v-.6h-1.95v.73c0,.84.02,1.23.08,1.56h-1.62c.06-.39.09-.86.09-1.56v-4.56c0-.83-.01-1.17-.07-1.67.45.04.87.06,1.6.06h1.14ZM49.46,120.23v.95h1.95v-.95h-1.95ZM49.46,123.29h1.95v-.96h-1.95v.96ZM50.7,117.62q.51.33,1.51,1.08c.87-.61,1.07-.75,1.44-1.08h-2.96ZM52.83,121.17h2.16v-.95h-2.16v.95ZM54.99,122.33h-2.16v.96h2.16v-.96Z"/>
        <path d="M62.93,121.58q.07-.12.73-1.23c.09.26.18.42.36.66.1.17.15.26.15.35s-.03.16-.39.75c-.25.45-.69,1.38-.87,1.83-.15.42-.21.45-.71.45s-.88-.06-.94-.15c-.09-.12-.15-.93-.15-2.04,0-1.47.11-2.5.5-5.12.04-.3.06-.45.06-.78,1.17.21,1.94.55,1.94.84,0,.07-.02.12-.12.25-.2.28-.32.67-.46,1.47-.18,1-.32,2.32-.32,3.12q.13-.24.23-.41ZM68.37,117.2v.25c.01.06.01.18.03.35q.01.24.04.61,0,.17.03.72c.04.72.07,1.44.07,1.8,0,2.82-.73,5.01-2.29,6.85-.6.71-1.12,1.11-1.42,1.11-.18,0-.19,0-.51-.24-.29-.22-.67-.42-1.06-.53,1.05-.75,1.62-1.28,2.17-2.07.93-1.33,1.38-2.92,1.38-4.86,0-2.05-.14-3.31-.48-4.23.63-.08,1.09-.11,1.53-.11s.51.03.51.29v.04Z"/>
        <path d="M80.54,127.68c0,.66-.52,1.18-1.18,1.18s-1.19-.52-1.19-1.18.53-1.19,1.19-1.19,1.18.53,1.18,1.19ZM80.01,125.46h-1.33l-.41-8.98h2.16l-.42,8.98Z"/>
        <path d="M95.27,116.61c2.67,0,3.94,1.08,3.94,3.38,0,1-.39,1.94-1.05,2.52-.69.62-1.65.92-2.89.92h-2.16v4.87h-1.93v-11.68h4.09ZM94.8,121.83c1.69,0,2.46-.57,2.46-1.84s-.72-1.77-2.46-1.77h-1.7v3.61h1.7Z"/>
        <path d="M107.57,116.61v1.59h-5.4v3.18h4.12v1.58h-4.12v3.72h5.66v1.62h-7.59v-11.68h7.33Z"/>
        <path d="M112.91,116.61c1.39,0,2.29.25,2.92.81.58.52.93,1.36.93,2.26,0,1.49-.73,2.46-2.17,2.88.76.33.96.63,1.72,2.64l1.17,3.09h-2.05l-.99-2.9c-.58-1.71-1.02-2.22-1.89-2.22h-1.9v5.11h-1.88v-11.68h4.14ZM112.37,121.61c1.71,0,2.49-.56,2.49-1.77,0-.51-.19-.96-.52-1.21-.34-.25-1.04-.4-1.98-.4h-1.71v3.39h1.72Z"/>
        <path d="M126.38,120.96c-.19-.66-.25-1.06-.43-2.91-.06-.72-.12-1.08-.27-1.59.91.02,1.5.06,1.9.17.23.06.33.16.33.33,0,.06-.01.13-.04.25-.1.36-.15.63-.15,1.02,0,.74.15,1.93.32,2.46.09.29.18.39.34.39.36,0,1.68-.69,2.4-1.25.19-.15.22-.16.3-.16.13,0,.27.1.5.39.38.51.67,1.07.67,1.27,0,.17-.11.27-.36.35-.93.25-2.46.85-3.49,1.35-1.83.9-2.66,1.72-2.66,2.65s.76,1.29,2.7,1.29c1.12,0,2.14-.11,3.52-.33.06-.02.17-.03.2-.03.12,0,.19.06.25.18.04.15.15,1.07.15,1.42,0,.21-.06.29-.26.35-.33.07-2.14.18-3.28.18-1.92,0-3.2-.25-3.99-.79-.67-.46-1.04-1.2-1.04-2.1,0-.69.2-1.31.6-1.91.52-.78,1.09-1.27,2.35-2.02-.31-.29-.43-.5-.57-.96Z"/>
        <path d="M144.39,116.61c1.39,0,2.29.25,2.92.81.58.52.93,1.36.93,2.26,0,1.49-.73,2.46-2.17,2.88.76.33.96.63,1.72,2.64l1.17,3.09h-2.05l-.99-2.9c-.58-1.71-1.02-2.22-1.89-2.22h-1.9v5.11h-1.88v-11.68h4.14ZM143.85,121.61c1.71,0,2.49-.56,2.49-1.77,0-.51-.19-.96-.52-1.21-.34-.25-1.04-.4-1.98-.4h-1.71v3.39h1.72Z"/>
        <path d="M157.67,126.74c-.86,1.15-2.07,1.75-3.58,1.75-2.96,0-4.83-2.34-4.83-6.03,0-1.74.43-3.25,1.25-4.33.85-1.12,2.05-1.71,3.57-1.71s2.82.65,3.69,1.88c.72,1.04,1.14,2.54,1.14,4.16,0,1.71-.42,3.21-1.23,4.29ZM154.07,118.13c-.93,0-1.67.42-2.13,1.21-.45.75-.69,1.88-.69,3.15,0,1.17.24,2.24.67,3.01.45.83,1.21,1.28,2.14,1.28,1.79,0,2.83-1.61,2.83-4.32s-1.03-4.33-2.83-4.33Z"/>
        <path d="M167.31,116.61v1.59h-5.4v3.18h4.12v1.58h-4.12v3.72h5.66v1.62h-7.59v-11.68h7.33Z"/>
        <path d="M178.5,124.56c-1.48.87-1.91,1.31-1.91,1.96,0,.27.11.45.33.59.33.2,1.07.3,2.01.3.81,0,1.93-.08,2.7-.18.32-.04.5-.09,1.09-.24h.08c.11,0,.18.08.23.18.09.32.15.76.15,1.31,0,.22-.08.31-.27.36-.36.08-2.03.17-3.12.17-1.83,0-2.8-.12-3.52-.42-.87-.36-1.31-1.04-1.31-1.98,0-.87.41-1.63,1.21-2.28.65-.51.79-.62,2.18-1.4-.12-.49-.35-.71-.81-.71-.62,0-1.26.24-1.96.71-.43.3-.95.72-1.26,1.04-.45.46-.5.5-.62.5-.15,0-.46-.34-.78-.87-.15-.25-.24-.45-.24-.55,0-.13.03-.17.39-.39,1.23-.82,2.25-1.88,2.87-2.95-1.07.08-1.62.09-2.21.09-.23,0-.27-.04-.34-.3-.05-.2-.12-.99-.14-1.39.51.07.81.09,1.53.09.58,0,1.23-.02,1.91-.04.31-.86.42-1.4.43-2.1,1.33.23,1.95.45,1.95.71,0,.06-.02.09-.06.18-.1.19-.22.43-.42.9q-.03.06-.04.1c.86-.12,1.61-.27,2.13-.39.33-.09.41-.1.48-.1.12,0,.18.04.21.13.06.27.15.96.15,1.17,0,.17-.06.24-.25.29-.48.13-2.13.39-3.51.52-.45.83-.76,1.31-1.23,1.82.67-.32,1.18-.44,1.78-.44.68,0,1.12.39,1.43,1.23,1.48-.81,2.28-1.25,2.37-1.3.69-.41.98-.63,1.31-1.01.61.63,1.27,1.58,1.27,1.83,0,.09-.06.15-.25.2-.74.2-2.1.78-4.38,1.89.01.27.04.96.04,1.44v.72c0,.18-.03.27-.1.32-.08.07-.48.12-.93.12-.51,0-.6-.04-.6-.29v-.06c.03-.43.04-1,.04-1.36v-.08Z"/>
        <path d="M191.97,120.36c4.2-1.04,4.59-1.15,4.94-1.46.13-.11.24-.15.36-.15.23,0,.58.27.96.72.41.46.62.81.62.96,0,.21-.03.25-.39.51-.17.13-.21.18-.93,1.2-.45.63-1.46,1.71-2.02,2.16-.18.15-.27.19-.38.19-.09,0-.15-.03-.25-.13-.33-.34-.63-.56-1.21-.84,1.27-.9,2.34-2,2.73-2.81l-.6.18c-.06.01-1.32.36-3.81,1.05v2.71c0,.79.18,1.19.6,1.37.43.17,1.06.24,1.96.24.75,0,1.84-.08,2.68-.18.32-.03.39-.04.44-.04.31,0,.39.24.43,1.38v.12c0,.18-.06.3-.18.34-.18.08-1.26.12-2.76.12-1.88,0-2.85-.12-3.6-.46-.88-.41-1.35-1.25-1.35-2.43v-2.67c-1.77.51-1.96.58-2.46.84-.1.04-.17.08-.22.08-.27,0-.58-.69-.9-1.89.99-.1,2.12-.31,3.58-.67v-1.43c0-1.26-.03-1.95-.13-2.59.71,0,1.51.09,1.93.2.13.04.22.12.22.21s0,.09-.12.34c-.09.19-.14.72-.14,1.49v1.35Z"/>
        <path d="M204.21,123.62c-.24-.56-.73-1.5-.93-1.79-.3-.43-.34-.51-.34-.6,0-.12.17-.27.57-.5.46-.27.53-.3.62-.29.13.02.33.24.69.81.49.75.94,1.6.94,1.79,0,.1-.1.21-.41.39-.34.21-.82.44-.91.44s-.15-.06-.23-.25ZM212.37,121.07c0,.06-.03.12-.09.2-.15.19-.24.34-.44.76-1.08,2.4-1.79,3.51-2.98,4.72-.89.89-2.28,1.92-2.6,1.92-.09,0-.17-.03-.25-.12-.27-.29-.69-.6-1.17-.87,2.27-1.2,3.53-2.42,4.58-4.37.58-1.11.97-2.28,1.04-3.15,1.25.35,1.92.68,1.92.9ZM208.52,122.39c0,.09-.69.51-1.11.67-.09.03-.15.04-.15.06-.04.02-.08.03-.09.03-.08,0-.15-.08-.2-.23-.21-.63-.63-1.5-1.09-2.26t-.04-.15c0-.11.12-.2.57-.44.55-.3.58-.31.67-.31.08,0,.1.03.21.13.21.29.85,1.42.97,1.75.09.25.15.43.2.5.04.04.06.09.06.1v.09s0,.04,0,.04Z"/>
        <path d="M221.51,124.08c0,.92.04,3.36.08,4.07v.07c0,.13-.03.24-.11.29-.1.09-.71.17-1.26.17-.48,0-.57-.04-.57-.34v-.06c.03-.39.07-4.71.07-6.49,0-3.45-.03-4.43-.17-5.29,1.08.07,1.56.12,2,.21.15.04.23.12.23.24q0,.08-.06.33c-.06.18-.09.39-.1.63,0,.03-.03.93-.08,2.7q1.06.3,1.68.53c1.5.53,2.36.92,3.69,1.62.12.09.18.17.18.25,0,.15-.27.87-.51,1.32-.12.25-.2.33-.29.33-.06,0-.13-.03-.24-.11-1.47-.97-3.01-1.7-4.54-2.14v1.69Z"/>
        <path d="M232.53,120.06c-.39.09-.53.13-1.07.33-.19.08-.3.11-.39.11-.33,0-.63-.62-.9-1.9.96-.04,1.31-.09,2.97-.35,1.8-.27,4.08-.62,5.28-.76,1.35-.18,2.43-.36,3-.48.1-.03.15-.03.22-.03.2,0,.27.09.41.46.12.32.21.76.21.97,0,.18-.06.24-.27.24-.32,0-.6.03-.89.08-2.53.42-4.56,2.64-4.56,4.98,0,1.75,1.38,2.91,3.72,3.12.21.01.29.09.29.27,0,.38-.15,1.1-.29,1.43-.08.16-.19.24-.39.24s-.65-.09-1.11-.22c-2.55-.75-3.88-2.37-3.88-4.67,0-1.25.41-2.4,1.19-3.39.42-.54.78-.84,1.63-1.42-1.96.33-4.04.72-5.17,1ZM240.21,120.45c.21,0,1.48,1.43,1.48,1.65,0,.07-.09.16-.36.4-.29.24-.3.24-.42.29q-.08.03-.11.03c-.06,0-.08-.01-.34-.43-.24-.38-.5-.71-.97-1.2-.03-.03-.08-.1-.08-.12.03-.08.04-.12.06-.12.04-.06.3-.27.36-.32.15-.07.24-.13.25-.15.01-.03.04-.03.04-.03h.08ZM242.78,121.49c-.22.17-.36.25-.43.25-.06,0-.09-.03-.17-.15-.45-.68-.67-.96-1.16-1.43-.03-.04-.06-.09-.06-.12,0-.08.09-.17.3-.32s.39-.24.46-.24c.11,0,.29.14.6.45.44.45.84,1,.84,1.14,0,.09-.11.2-.39.41Z"/>
        <path d="M18.26,150.48c-.67,0-1.2.01-1.56.04.04-.42.08-.89.08-1.53v-5.25c0-.78-.03-1.42-.08-1.79.42.04.87.06,1.52.06h6.64c.63,0,1.09-.01,1.51-.06-.04.32-.08.98-.08,1.79v5.25c0,.72.02,1.11.08,1.53-.38-.03-.96-.04-1.53-.04h-1.24v2.22c0,.41.12.45,1.29.45,1.08,0,1.36-.06,1.53-.3.15-.21.23-.78.25-1.84.6.32.96.46,1.5.6-.15,1.6-.29,2.15-.66,2.49-.4.36-1.02.48-2.62.48-2.42,0-2.85-.2-2.85-1.27v-2.82h-1.29c-.17,1.09-.63,1.99-1.36,2.67-.92.84-2,1.36-3.65,1.74-.24-.6-.42-.9-.84-1.42,1.37-.24,2.12-.5,2.82-.96.76-.5,1.18-1.12,1.36-2.02h-.82ZM18.29,144.41h6.5v-.95h-6.5v.95ZM18.29,146.7h6.5v-.94h-6.5v.94ZM18.29,149.09h6.5v-1.04h-6.5v1.04Z"/>
        <path d="M37.53,146.73c2.12,0,3.62,1.44,3.62,3.48,0,1.39-.74,2.66-1.96,3.39-.86.51-1.91.77-3.09.77-1.91,0-3.02-.77-3.02-2.07,0-1.19.99-2.03,2.4-2.03,1.27,0,2.19.64,2.8,1.96.76-.55,1.08-1.14,1.08-1.95,0-1.29-.92-2.13-2.36-2.13s-3.04.74-4.35,2.04c-.24.24-.46.49-.73.84-.11.15-.18.21-.27.21-.27,0-1.33-1.05-1.33-1.32,0-.13.06-.21.39-.45.34-.27.84-.71,1.47-1.3,1.46-1.38,2.52-2.54,4.09-4.46-1.88.24-3.13.45-3.6.62-.08.02-.12.03-.17.03-.12,0-.2-.07-.29-.3-.18-.45-.27-.95-.32-1.61.41.06.69.08,1.02.08.72,0,1.93-.1,3.51-.29.55-.06.73-.1,1.16-.27.13-.06.21-.07.3-.07.21,0,.42.18.81.78.29.39.38.59.38.71,0,.2-.04.26-.38.46-.27.17-.43.3-.78.63-.75.72-.76.72-1.69,1.66-.66.68-.74.75-1.33,1.35.97-.54,1.74-.76,2.64-.76ZM36.09,151.92c-.23-.15-.48-.22-.77-.22-.46,0-.76.22-.76.58,0,.44.46.71,1.18.71.33,0,.62-.03.99-.13-.18-.5-.33-.72-.64-.93Z"/>
        <path d="M48.38,146.48c-.19-.66-.25-1.06-.43-2.91-.06-.72-.12-1.08-.27-1.59.91.02,1.5.06,1.9.17.23.06.33.16.33.33,0,.06-.01.13-.04.25-.1.36-.15.63-.15,1.02,0,.74.15,1.93.32,2.46.09.29.18.39.34.39.36,0,1.68-.69,2.4-1.25.19-.15.22-.16.3-.16.13,0,.27.1.5.39.38.51.67,1.07.67,1.27,0,.17-.11.27-.36.35-.93.25-2.46.85-3.49,1.35-1.83.9-2.66,1.72-2.66,2.65s.76,1.29,2.7,1.29c1.12,0,2.14-.11,3.52-.33.06-.02.17-.03.2-.03.12,0,.19.06.25.18.04.15.15,1.07.15,1.42,0,.21-.06.29-.26.35-.33.07-2.14.18-3.28.18-1.92,0-3.2-.25-3.99-.79-.67-.46-1.04-1.2-1.04-2.1,0-.69.2-1.31.6-1.91.52-.78,1.09-1.27,2.35-2.02-.31-.29-.43-.5-.57-.96Z"/>
        <path d="M58.68,150.9c.27-.24.34-.3.45-.3.19,0,1.09.66,1.75,1.29.75.69,1.59,1.69,1.59,1.91,0,.13-.03.16-.46.55-.57.53-.69.62-.79.62-.09,0-.18-.06-.25-.21-.53-.93-1.73-2.16-2.79-2.85-.12-.09-.18-.15-.18-.24,0-.1.03-.15.69-.76Z"/>
        <path d="M75.72,146.16c-.96.6-1.29.78-2.31,1.24-.25-.58-.48-.97-.84-1.48,1.53-.6,2.54-1.15,3.62-2,.96-.74,1.68-1.51,2.28-2.43h1.7c.76,1.07,1.35,1.63,2.45,2.4,1.21.87,2.4,1.49,3.7,1.95-.4.62-.6,1.02-.81,1.62-.9-.39-1.46-.69-2.45-1.32v1.12c-.39-.04-.75-.06-1.29-.06h-4.82c-.41,0-.84.01-1.23.06v-1.11ZM74.93,149.87c-.75,0-1.23.03-1.7.09v-1.67c.45.04,1.02.08,1.7.08h8.95c.72,0,1.21-.03,1.7-.08v1.67c-.48-.06-.96-.09-1.7-.09h-4.93c-.48,1.09-.93,1.93-1.5,2.79q2.49-.13,4.56-.36c-.46-.51-.72-.78-1.51-1.59l1.42-.63c1.54,1.56,2.17,2.29,3.33,3.83l-1.39.92c-.41-.62-.53-.79-.86-1.24-1.2.15-2.05.25-2.59.3-1.5.15-4.23.41-4.84.45-.81.04-1.53.12-1.86.19l-.22-1.75c.43.03.62.04.81.04.12,0,.56-.02,1.29-.06.71-1.08,1.16-1.93,1.53-2.88h-2.17ZM81.75,145.71c.2,0,.33,0,.63-.01-1.3-.87-2.14-1.65-3.01-2.8-.75,1.02-1.62,1.84-2.98,2.8.24.01.36.01.58.01h4.78Z"/>
        <path d="M90.92,153.27c0,.68.02,1.05.09,1.47h-1.74c.06-.44.09-.83.09-1.5v-3.62c-.58.53-.88.75-1.6,1.23-.18-.56-.44-1.08-.74-1.5,1-.59,1.69-1.12,2.47-1.95.67-.71,1.09-1.3,1.56-2.22h-2.34c-.51,0-.85.01-1.2.06v-1.6c.38.04.66.06,1.12.06h.73v-1.2c0-.39-.03-.76-.09-1.09h1.72c-.06.32-.07.66-.07,1.11v1.18h.6c.43,0,.6-.01.83-.04l.69.75c-.12.19-.21.37-.31.61-.48,1.05-.74,1.49-1.44,2.46.67.76,1.33,1.29,2.28,1.81-.33.46-.54.86-.78,1.42-.76-.48-1.21-.88-1.88-1.62v4.17ZM97.04,152.58h1.72c.72,0,1.21-.03,1.65-.08v1.72c-.51-.06-1.07-.09-1.65-.09h-4.92c-.6,0-1.12.03-1.62.09v-1.72c.45.04.96.08,1.63.08h1.58v-5.62h-1.08c-.48,0-.96.03-1.41.07v-1.63c.41.06.81.08,1.41.08h1.08v-2.54c0-.6-.03-.95-.09-1.5h1.79c-.08.57-.09.85-.09,1.5v2.54h1.51c.66,0,1.04-.02,1.42-.08v1.63c-.46-.04-.92-.07-1.42-.07h-1.51v5.62Z"/>
        <path d="M107.52,151.08c-.72,1.24-1.71,1.93-2.73,1.93-1.56,0-2.67-1.53-2.67-3.66,0-2.37,1.2-4.41,3.25-5.49,1-.54,2.08-.78,3.51-.78,3.14,0,5.46,2.22,5.46,5.19,0,2.62-1.29,4.51-3.78,5.58-.5.21-.89.33-1.08.33-.18,0-.25-.06-.45-.34-.25-.39-.54-.68-.95-.95,3.09-.79,4.49-2.25,4.49-4.68,0-1.25-.53-2.29-1.46-2.96-.53-.36-.95-.51-1.77-.64-.42,3.16-.92,4.89-1.83,6.46ZM105.36,145.77c-1,.88-1.58,2.15-1.58,3.55,0,1.16.38,1.83,1,1.83.75,0,1.52-1.04,2.08-2.82.36-1.12.54-1.98.77-3.65-1.07.23-1.59.48-2.28,1.08Z"/>
        <path d="M125.54,142.59c-.76.39-1.05.75-1.15,1.43.13-.03.27-.04.31-.04.6,0,1.05.48,1.05,1.09,0,.66-.46,1.12-1.11,1.12-.79,0-1.26-.58-1.26-1.59,0-.6.18-1.27.44-1.69.25-.39.58-.67,1.12-.98l.6.66ZM128.43,142.59c-.77.39-1.05.75-1.16,1.43.13-.03.27-.04.31-.04.6,0,1.05.48,1.05,1.09,0,.66-.47,1.12-1.11,1.12-.79,0-1.26-.58-1.26-1.54,0-1.29.46-2.11,1.56-2.71l.6.66Z"/>
        <path d="M130.8,148.8c0-.57.02-.99.03-1.58-.25.51-.57.99-.95,1.49-.19-.71-.34-1.11-.63-1.73.92-1,1.59-2.16,2.16-3.73.32-.87.45-1.35.54-1.98l1.54.63c-.11.31-.15.43-.27.79q-.28.88-.93,2.37v8.04c0,.79.02,1.23.06,1.67h-1.65c.08-.57.09-.99.09-1.68v-4.29ZM141.24,145.61c.54,0,.98-.02,1.31-.06-.04.38-.06.77-.06,1.35v5.99c0,.72.03,1.21.09,1.8h-1.65v-.79h-6.1v.78h-1.59c.05-.48.08-1.05.08-1.57v-6.17c0-.51-.03-.99-.06-1.38.41.04.72.06,1.3.06h1.37v-1.94h-.72c-.69,0-1.23.03-1.7.08v-1.6c.42.06.92.09,1.7.09h6.03c.79,0,1.32-.03,1.75-.09v1.6c-.42-.04-1.02-.08-1.71-.08h-1.49v1.94h1.46ZM134.76,146.98v5.51h1.16v-5.51h-1.16ZM138.41,143.67h-1.11v1.94h1.11v-1.94ZM137.3,152.49h1.11v-5.51h-1.11v5.51ZM139.79,152.49h1.2v-5.51h-1.2v5.51Z"/>
        <path d="M149.13,149.85c-.22-.46-.32-.6-.58-.95-.06.09-.08.14-.13.24-.5-.81-.51-.84-.86-1.62.04.66.06,1.17.06,1.88v3.6c0,.73.03,1.32.09,1.77h-1.67c.06-.45.09-1.05.09-1.77v-2.94q.04-1.2.11-1.86c-.51,1.62-.75,2.19-1.29,3.11-.33-.67-.51-.92-.92-1.32.87-1.26,1.62-2.96,1.96-4.5h-.55c-.45,0-.77.02-1.07.06v-1.51c.24.06.57.08,1.08.08h.67v-1.21c0-.74-.03-1.12-.09-1.49h1.65c-.06.41-.07.81-.07,1.49v1.21h.42c.36,0,.61-.02.84-.06v1.06c1.14-1.12,2-2.56,2.23-3.76l1.59.27c-.07.17-.1.22-.24.58-.03.08-.08.17-.15.34h2.01c.65,0,.99-.01,1.26-.07l.87.94c-.13.19-.18.27-.39.63-.6,1.05-1.21,1.86-1.96,2.62,1.27.78,2.37,1.25,3.67,1.61-.39.49-.62.9-.81,1.5l-.63-.26c-.01.18-.01.27-.01.62v3.15c0,.67.01,1.11.08,1.46h-1.65v-.74h-3.63v.74h-1.6c.06-.39.08-.75.08-1.43v-3.67l-.45.21ZM147.66,145.48c.39.95.84,1.64,1.59,2.49-.13.12-.18.17-.27.29,1.07-.44,1.91-.88,2.83-1.53-.5-.48-.67-.68-1.21-1.35-.43.52-.66.76-1.11,1.18-.26-.42-.56-.78-.9-1.06-.2-.02-.38-.02-.54-.02h-.39ZM155.22,149.19h.3c-.85-.39-1.68-.88-2.56-1.51-.78.62-1.28.93-2.45,1.51h4.71ZM151.11,152.57h3.63v-2.01h-3.63v2.01ZM151.58,143.96q-.08.13-.15.24c.58.82.92,1.18,1.49,1.65.69-.66,1.02-1.11,1.45-1.89h-2.79Z"/>
        <path d="M158.52,145.62c.77-.39,1.07-.75,1.16-1.42-.13.03-.25.04-.3.04-.6,0-1.07-.48-1.07-1.1,0-.66.47-1.12,1.11-1.12.79,0,1.26.57,1.26,1.54,0,1.29-.46,2.12-1.56,2.71l-.6-.66ZM161.42,145.62c.76-.39,1.06-.75,1.16-1.42-.14.03-.26.04-.3.04-.6,0-1.06-.48-1.06-1.1,0-.66.46-1.12,1.11-1.12.79,0,1.26.57,1.26,1.54,0,1.29-.47,2.12-1.56,2.71l-.6-.66Z"/>
        <path d="M176.63,146.48c-.19-.66-.25-1.06-.43-2.91-.06-.72-.12-1.08-.27-1.59.91.02,1.5.06,1.9.17.23.06.33.16.33.33,0,.06-.01.13-.04.25-.1.36-.15.63-.15,1.02,0,.74.15,1.93.32,2.46.09.29.18.39.34.39.36,0,1.68-.69,2.4-1.25.19-.15.22-.16.3-.16.13,0,.27.1.5.39.38.51.67,1.07.67,1.27,0,.17-.11.27-.36.35-.93.25-2.46.85-3.49,1.35-1.83.9-2.66,1.72-2.66,2.65s.76,1.29,2.7,1.29c1.12,0,2.14-.11,3.52-.33.06-.02.17-.03.2-.03.12,0,.19.06.25.18.04.15.15,1.07.15,1.42,0,.21-.06.29-.26.35-.33.07-2.14.18-3.28.18-1.92,0-3.2-.25-3.99-.79-.67-.46-1.04-1.2-1.04-2.1,0-.69.2-1.31.6-1.91.52-.78,1.09-1.27,2.35-2.02-.31-.29-.43-.5-.57-.96Z"/>
        <path d="M195.95,142.59c-.76.39-1.05.75-1.15,1.43.13-.03.27-.04.31-.04.6,0,1.05.48,1.05,1.09,0,.66-.46,1.12-1.11,1.12-.79,0-1.26-.58-1.26-1.59,0-.6.18-1.27.44-1.69.25-.39.58-.67,1.12-.98l.6.66ZM198.84,142.59c-.77.39-1.05.75-1.16,1.43.13-.03.27-.04.31-.04.6,0,1.05.48,1.05,1.09,0,.66-.47,1.12-1.11,1.12-.79,0-1.26-.58-1.26-1.54,0-1.29.46-2.11,1.56-2.71l.6.66Z"/>
        <path d="M205.76,142.98c0-.74-.01-1.1-.09-1.58h1.83c-.06.46-.09.84-.09,1.51v.95h3.93c.63,0,.94-.02,1.32-.06-.04.41-.06.71-.06,1.28v4.38c0,.65.01,1.02.08,1.44h-1.71v-.86h-3.55v2.91c0,.87.03,1.3.1,1.8h-1.86c.07-.51.1-.97.1-1.8v-2.91h-3.39v.86h-1.71c.06-.47.08-.83.08-1.44v-4.4c0-.54-.02-.79-.06-1.26.41.04.72.06,1.31.06h3.78v-.88ZM202.37,145.4v3.12h3.39v-3.12h-3.39ZM210.96,148.52v-3.12h-3.55v3.12h3.55Z"/>
        <path d="M223.77,150.44c-2.42,1.82-5.13,3.21-8.14,4.16-.25-.6-.46-.97-.83-1.43,2.85-.78,4.96-1.71,7.14-3.16-2.85.33-3.73.42-5.91.58-.44.03-.66.06-.9.1l-.22-1.54c.2.02.33.02.46.02q.15,0,1.49-.04v-5.14c0-.54-.02-.93-.04-1.38.46.04.78.06,1.53.06h1.17c.27-.44.46-.88.65-1.41l1.68.21c-.25.5-.43.83-.67,1.2h2.68c.79,0,1.12-.02,1.54-.06-.06.42-.08.9-.08,1.58v3.03c.65-.71,1.05-1.2,1.31-1.63l1.08,1.12c-.22.21-.34.33-.69.75-.51.6-1.04,1.12-1.7,1.72v3.99c0,1.03-.51,1.35-2.11,1.35q-.3,0-1.58-.04c-.04-.5-.15-.96-.39-1.56.96.12,1.15.13,1.59.13.79,0,.94-.04.94-.29v-2.31ZM223.77,143.97h-5.38v.81h5.38v-.81ZM218.39,146.82h5.38v-.84h-5.38v.84ZM218.39,149.03q3.11-.21,5.38-.45v-.55h-5.38v1.01Z"/>
        <path d="M228.93,145.62c.77-.39,1.07-.75,1.16-1.42-.13.03-.25.04-.3.04-.6,0-1.07-.48-1.07-1.1,0-.66.47-1.12,1.11-1.12.79,0,1.26.57,1.26,1.54,0,1.29-.46,2.12-1.56,2.71l-.6-.66ZM231.83,145.62c.76-.39,1.06-.75,1.16-1.42-.14.03-.26.04-.3.04-.6,0-1.06-.48-1.06-1.1,0-.66.46-1.12,1.11-1.12.79,0,1.26.57,1.26,1.54,0,1.29-.47,2.12-1.56,2.71l-.6-.66Z"/>
        <path d="M20.76,176.59c-.72,1.24-1.71,1.93-2.73,1.93-1.56,0-2.67-1.53-2.67-3.66,0-2.37,1.2-4.41,3.25-5.49,1-.54,2.08-.78,3.51-.78,3.14,0,5.46,2.22,5.46,5.19,0,2.62-1.29,4.51-3.78,5.58-.5.21-.89.33-1.08.33-.18,0-.25-.06-.45-.34-.25-.39-.54-.68-.95-.95,3.09-.79,4.49-2.25,4.49-4.68,0-1.25-.53-2.29-1.46-2.96-.53-.36-.95-.51-1.77-.64-.42,3.16-.92,4.89-1.83,6.46ZM18.6,171.28c-1,.88-1.58,2.15-1.58,3.55,0,1.16.38,1.83,1,1.83.75,0,1.52-1.04,2.08-2.82.36-1.12.54-1.98.77-3.65-1.07.23-1.59.48-2.28,1.08Z"/>
        <path d="M34.62,170.47c0,.06-.03.14-.1.29-.17.25-.23.48-.42,1.35-.48,2.1-1.26,3.93-2.28,5.33-.43.6-.75.91-.93.91-.06,0-.12-.03-.23-.09-.49-.27-.91-.43-1.5-.57,1.38-1.2,2.43-3.12,2.98-5.44.18-.78.29-1.53.29-2.21v-.26c1.3.14,2.19.41,2.19.69ZM40.25,177.97c-.78-2.74-1.91-5.28-3.13-7.11-.18-.27-.2-.3-.2-.38,0-.12.14-.22.57-.48.45-.29.69-.39.83-.39.17,0,.21.06.78.93.68,1.05,1.33,2.4,2.12,4.32.53,1.29.84,2.26.84,2.55,0,.17-.08.24-.45.41-.36.18-.96.39-1.09.39-.12,0-.21-.09-.25-.24ZM40.17,170.46c-.34-.62-.64-1.04-1.11-1.52-.08-.09-.09-.1-.09-.15,0-.09.09-.18.34-.38.24-.17.34-.23.42-.23.12,0,.27.12.64.53.46.53.83,1.02.83,1.14,0,.18-.66.72-.88.72-.06,0-.09-.03-.15-.12ZM42.29,169.33c-.2.13-.33.21-.41.21-.04,0-.08-.01-.15-.14-.41-.66-.65-.97-1.12-1.47-.04-.05-.08-.09-.08-.11,0-.13.6-.55.78-.55.12,0,.33.16.63.49.43.48.79.99.79,1.11,0,.1-.12.21-.45.45Z"/>
        <path d="M45.63,173.17s-.11.01-.12.01c-.33,0-.46-.51-.57-2.05.74.12,1.77.17,4.56.17,3,0,3.81,0,4.1-.03.22-.01.27-.03.57-.12.11-.04.2-.06.29-.06.22,0,.41.1.64.36.41.46.68.88.68,1.06,0,.17-.08.29-.25.48-.12.1-.2.24-.48.88-1,2.21-2.13,3.55-3.9,4.68-.81.53-2.12,1.12-2.42,1.12-.21,0-.33-.09-.58-.39-.39-.46-.57-.63-.99-.84,1.71-.51,3.27-1.37,4.38-2.43.84-.81,1.47-1.86,1.91-3.17-5.69.08-6.74.12-7.8.32ZM50.54,167.85q1.56,0,3.29-.12h.18c.2,0,.27.15.29.6,0,.18,0,.35.01.5v.06c0,.54-.06.69-.25.69-.06,0-.18-.02-.31-.02-.29-.03-1.41-.06-1.88-.06-2.25,0-3.86.03-4.74.11h-.12c-.39,0-.45-.22-.54-1.9.98.12,1.92.15,4.08.15Z"/>
        <path d="M70.62,171.48c.08.15.1.25.1.35,0,.15-.06.25-.25.52-.82,1.08-1.71,1.95-3.04,2.99-1.5,1.17-2.77,1.95-4.57,2.8-1.16.54-1.21.57-1.4.73-.12.12-.18.15-.27.15-.13,0-.25-.12-.48-.45-.3-.45-.58-1.07-.75-1.59,1.52-.34,3.33-1.16,5.08-2.26,2.31-1.46,3.76-2.89,4.89-4.86.17.55.3.85.69,1.62ZM60.63,168.96c.25-.29.36-.36.49-.36.29.01,1.41.74,2.34,1.49.57.46.75.66.75.81,0,.1-.27.51-.63.92-.33.38-.49.51-.61.51q-.11,0-.72-.58c-.39-.38-1.17-1-1.56-1.25q-.53-.34-.63-.4c-.06-.04-.09-.09-.09-.13,0-.14.29-.56.66-.99Z"/>
        <path d="M83.63,176.4c.96.87,1.54,1.5,1.54,1.67,0,.13-.2.38-.66.83-.34.33-.5.43-.6.43-.06,0-.13-.03-.22-.1q-.17-.2-.86-.98c-.83-.93-1.95-1.92-3.25-2.85-.99,1.03-2.33,2.16-3.4,2.9-.86.58-1.67,1.03-1.85,1.03-.15,0-.17-.01-.52-.42-.21-.24-.56-.54-.93-.81,1.73-.79,3-1.65,4.42-2.96,1.54-1.41,2.57-2.71,3.77-4.79q-5.07.03-5.9.12c-.18.01-.21.01-.24.01-.17,0-.25-.07-.29-.24-.08-.48-.11-.93-.11-1.72,1.02.13,2.61.2,4.79.2.88,0,1.81-.03,2.31-.09.2-.02.23-.03.54-.13.06-.03.09-.03.18-.03.25,0,.52.21.88.69.29.4.45.72.45.88,0,.18-.05.24-.44.6-.24.24-.34.36-.81,1.12-.45.75-1.14,1.7-1.71,2.38,1.17.78,1.96,1.38,2.89,2.25Z"/>
        <path d="M88.65,172.87c-.12.03-.18.06-.27.11-.08.04-.12.06-.18.06-.33,0-.57-.57-.75-1.68h.29c.63,0,2.24-.19,3.2-.39.31-1.3.48-2.31.48-3.02,0-.06,0-.15-.01-.25.64.06,1.26.19,1.68.38.24.09.36.21.36.36,0,.08-.02.13-.09.26q-.23.39-.69,2.04c.36-.04.76-.07,1.02-.07.62,0,1.1.12,1.44.36.6.44.9,1.32.9,2.69,0,2.23-.41,4.15-1.1,5.1-.48.66-1.11.97-2,.97-.54,0-1.05-.08-1.2-.17q-.12-.08-.17-.63c-.04-.41-.13-.77-.32-1.19.78.27.98.32,1.46.32.72,0,1.02-.34,1.35-1.56.23-.79.35-1.82.35-2.93,0-1.17-.29-1.59-1.08-1.59-.27,0-.71.04-1.05.09-.04.18-.06.2-.12.39-.42,1.54-1.19,3.55-1.95,5.17-.79,1.63-.99,1.96-1.18,1.96-.12,0-.53-.21-.96-.5-.35-.21-.44-.3-.44-.42q0-.07.62-1.05c.83-1.27,1.91-3.76,2.28-5.25-1.11.25-1.73.39-1.86.43ZM98.07,169.8c-.24.18-.41.25-.48.25-.04,0-.09-.03-.13-.1-.32-.51-.84-1.1-1.28-1.47-.03-.03-.04-.06-.04-.09,0-.06.11-.17.36-.36.25-.18.33-.23.43-.23.24,0,1.56,1.33,1.56,1.58,0,.09-.12.2-.42.42ZM96.48,171.39c0-.11.13-.24.57-.58.3-.23.45-.32.57-.32.2,0,.87.72,1.5,1.61.52.75,1.09,1.81,1.09,2.07,0,.15-.04.19-.52.58-.3.24-.65.44-.77.44-.1,0-.15-.04-.25-.3-.29-.72-.54-1.21-.95-1.86-.4-.64-.43-.67-1.15-1.46-.06-.07-.09-.12-.09-.18ZM98.45,166.78c.25,0,1.53,1.28,1.53,1.53,0,.07-.09.16-.39.38-.27.21-.41.28-.46.28q-.08,0-.38-.42c-.25-.34-.74-.85-1-1.08-.04-.04-.08-.08-.08-.12,0-.12.62-.57.78-.57Z"/>
        <path d="M104.76,177.67q0-1.63.01-2.34c-.75.82-1.26,1.48-1.51,1.95-.08.15-.18.24-.27.24-.15,0-.51-.31-.99-.86-.19-.24-.28-.38-.28-.43q0-.1.76-.85c.64-.65,1.51-1.67,2.33-2.75,0-.09,0-.43.01-1.04-.74.13-1.68.39-1.93.52-.15.08-.18.09-.25.09-.26,0-.47-.58-.66-1.75.79-.02,1.79-.12,2.88-.3,0-.54.01-1.3.01-1.72,0-.45-.03-.81-.09-1.11.95.06,1.41.12,1.83.22.22.06.31.15.31.31,0,.08-.03.15-.09.3-.15.3-.17.4-.29,1.59.36.22.71.6.71.79q0,.13-.46.71c-.04.06-.18.25-.41.54q-.01.48-.01.59c1.47-1.25,2.71-1.77,4.18-1.77,2.34,0,3.81,1.48,3.81,3.87,0,1.83-.84,3.2-2.57,4.12-.66.38-1.79.78-2.12.78-.09,0-.19-.03-.24-.09t-.23-.3c-.25-.36-.54-.65-.84-.85,2.99-.81,4.17-1.86,4.17-3.71,0-1.44-.85-2.37-2.21-2.37-.88,0-1.69.29-2.65.92q-.48.31-1.33,1.04.01.12.01.31c0,1.61,0,1.74.09,4.89.02.16.02.29.02.31,0,.29-.21.35-1.31.35-.39,0-.42-.04-.42-.47l.02-1.74Z"/>
        <path d="M117.78,172.54c-.12.03-.18.06-.27.11-.08.04-.12.06-.2.06-.32,0-.55-.59-.74-1.7.12.02.23.02.29.02.63,0,2.24-.2,3.2-.39.31-1.32.48-2.31.48-3.03,0-.06,0-.14-.01-.26.64.08,1.26.21,1.68.38.24.09.36.22.36.38,0,.08-.02.12-.09.24q-.23.4-.69,2.05c.36-.04.76-.07,1.02-.07.62,0,1.1.12,1.44.36.6.44.9,1.32.9,2.69,0,2.23-.41,4.14-1.1,5.08-.48.66-1.11.97-1.99.97-.54,0-1.05-.07-1.2-.16q-.12-.08-.17-.63c-.04-.4-.13-.75-.32-1.17.78.26.98.3,1.46.3.72,0,1.02-.35,1.35-1.54.23-.79.35-1.83.35-2.93,0-1.17-.29-1.59-1.08-1.59-.27,0-.71.03-1.05.09-.04.17-.06.18-.12.39-.42,1.53-1.19,3.55-1.95,5.17-.79,1.63-.99,1.96-1.18,1.96-.12,0-.53-.21-.96-.5-.35-.21-.44-.3-.44-.42q0-.07.62-1.05c.83-1.27,1.91-3.78,2.28-5.25-1.11.24-1.73.39-1.86.43ZM125.43,170.86c0-.1.14-.24.57-.58.3-.23.45-.32.55-.32.09,0,.17.04.36.24.88.86,1.71,2,2.19,2.99.15.33.24.54.24.63,0,.15-.04.2-.52.58-.3.24-.65.43-.77.43-.1,0-.15-.04-.25-.3-.3-.74-.58-1.31-.94-1.86-.39-.6-.47-.69-1.35-1.64-.06-.09-.08-.13-.08-.18Z"/>
        <path d="M138.75,172.24c2.12,0,3.62,1.44,3.62,3.48,0,1.39-.74,2.66-1.96,3.39-.86.51-1.91.77-3.09.77-1.91,0-3.02-.77-3.02-2.07,0-1.19.99-2.03,2.4-2.03,1.27,0,2.19.64,2.8,1.96.76-.55,1.08-1.14,1.08-1.95,0-1.29-.92-2.13-2.36-2.13s-3.04.74-4.35,2.04c-.24.24-.46.49-.73.84-.11.15-.18.21-.27.21-.27,0-1.33-1.05-1.33-1.32,0-.13.06-.21.39-.45.34-.27.84-.71,1.47-1.3,1.46-1.38,2.52-2.54,4.09-4.46-1.88.24-3.13.45-3.6.62-.08.02-.12.03-.17.03-.12,0-.2-.07-.29-.3-.18-.45-.27-.95-.32-1.61.41.06.69.08,1.02.08.72,0,1.93-.1,3.51-.29.55-.06.73-.1,1.15-.27.14-.06.21-.07.3-.07.21,0,.42.18.81.78.29.39.38.59.38.71,0,.2-.04.26-.38.46-.27.17-.43.3-.78.63-.75.72-.76.72-1.69,1.66-.66.68-.74.75-1.33,1.35.97-.54,1.74-.76,2.64-.76ZM137.31,177.43c-.23-.15-.48-.22-.77-.22-.46,0-.76.22-.76.58,0,.44.46.71,1.18.71.33,0,.62-.03.99-.13-.18-.5-.33-.72-.64-.93Z"/>
        <path d="M150.9,176.59c-.72,1.24-1.71,1.93-2.73,1.93-1.56,0-2.67-1.53-2.67-3.66,0-2.37,1.2-4.41,3.25-5.49,1-.54,2.08-.78,3.51-.78,3.14,0,5.46,2.22,5.46,5.19,0,2.62-1.29,4.51-3.78,5.58-.5.21-.89.33-1.08.33-.18,0-.25-.06-.45-.34-.25-.39-.54-.68-.95-.95,3.09-.79,4.49-2.25,4.49-4.68,0-1.25-.53-2.29-1.46-2.96-.53-.36-.95-.51-1.77-.64-.42,3.16-.92,4.89-1.83,6.46ZM148.74,171.28c-1,.88-1.58,2.15-1.58,3.55,0,1.16.38,1.83,1,1.83.75,0,1.52-1.04,2.08-2.82.36-1.12.54-1.98.77-3.65-1.07.23-1.59.48-2.28,1.08Z"/>
        <path d="M166.64,172.26c.03,1.12.06,1.71.21,3.21,1.26.4,1.86.66,2.75,1.14,1.18.67,1.79,1.12,1.79,1.33,0,.18-.2.53-.54,1.02-.22.33-.39.48-.51.48-.08,0-.14-.03-.24-.13-1.07-1.02-1.92-1.58-3.18-2.08-.03.92-.2,1.39-.63,1.84-.53.53-1.44.81-2.62.81-1.96,0-3.17-.87-3.17-2.29,0-1.52,1.32-2.48,3.38-2.48.5,0,.93.03,1.3.08-.15-2.46-.2-3.64-.21-5.85-.01-.87-.04-1.39-.13-2.1.69.01,1.38.09,1.79.19.24.08.33.15.33.32,0,.07-.01.12-.06.24-.17.39-.22.96-.25,2.62q.12,0,.58-.03c.72-.04,1.74-.22,2.88-.54.04-.02.08-.02.12-.02.09,0,.12.03.18.18.15.36.32,1.1.32,1.35,0,.12-.06.17-.2.21-1.16.27-2.78.5-3.66.5h-.21ZM163.7,176.58c-1.02,0-1.63.35-1.63.92,0,.53.51.8,1.46.8,1.15,0,1.66-.41,1.66-1.35v-.12c-.49-.18-.92-.24-1.48-.24Z"/>
        <path d="M178.76,177.91c0,1.41-1.14,2.55-2.54,2.55s-2.53-1.14-2.53-2.55,1.14-2.54,2.53-2.54,2.54,1.14,2.54,2.54ZM174.86,177.91c0,.76.61,1.38,1.36,1.38s1.37-.62,1.37-1.38-.62-1.37-1.37-1.37-1.36.62-1.36,1.37Z"/>
      </g>
      <path class="cls-8" d="M329.77,1.42H90.4c-4.68,0-8.47,3.79-8.47,8.47v40.63s-9.69,9.69-9.69,9.69h9.69v.5c0,4.68,3.79,8.47,8.47,8.47h239.38c4.68,0,8.47-3.79,8.47-8.47V9.89c0-4.68-3.79-8.47-8.47-8.47Z"/>
      <g>
        <path d="M99.34,16.64c2.67,0,3.94,1.08,3.94,3.38,0,1-.39,1.94-1.05,2.52-.69.61-1.65.92-2.89.92h-2.16v4.87h-1.93v-11.68h4.09ZM98.88,21.86c1.69,0,2.46-.57,2.46-1.84s-.72-1.77-2.46-1.77h-1.7v3.61h1.7Z"/>
        <path d="M111.64,16.64v1.59h-5.4v3.18h4.12v1.57h-4.12v3.72h5.66v1.62h-7.59v-11.68h7.33Z"/>
        <path d="M116.98,16.64c1.39,0,2.29.25,2.92.81.58.52.93,1.36.93,2.26,0,1.49-.73,2.46-2.17,2.88.76.33.96.63,1.72,2.64l1.17,3.09h-2.05l-.99-2.89c-.58-1.71-1.02-2.22-1.89-2.22h-1.9v5.11h-1.88v-11.68h4.14ZM116.44,21.63c1.71,0,2.49-.55,2.49-1.77,0-.51-.19-.96-.52-1.21-.34-.26-1.04-.41-1.98-.41h-1.71v3.39h1.72Z"/>
        <path d="M129.94,25.16c.04.06.06.11.06.17q0,.09-.25.78c-.32.92-.51,1.67-.57,2.25-.01.2-.08.27-.27.32-.21.06-.61.09-1,.09-.15,0-.22-.03-.27-.12-.13-.29-.38-1.32-.5-2.16-.1-.71-.15-1.44-.15-2.21,0-1.72.2-3.36.74-6.3.09-.48.12-.71.17-1.17.69.09,1.17.23,1.6.44.23.12.32.22.32.36,0,.09-.03.17-.11.29-.61,1.05-1.18,4.29-1.18,6.69,0,.36.01.93.06,1.65.36-.93.52-1.35.85-2.07.11.41.21.6.51,1ZM132.46,21.21c-.72,0-.87-.03-.92-.2-.04-.13-.09-.61-.09-.96,0-.12,0-.24.01-.51.41.03.64.04,1.14.04.81,0,1.32-.01,2.1-.08-.02-1.9-.03-2.14-.18-2.85.74.01,1.29.08,1.77.2.22.06.31.13.31.29,0,.06-.01.1-.06.22-.15.34-.23.93-.25,1.98.55-.07,1.03-.18,1.93-.39.08-.03.1-.03.15-.03.09,0,.13.04.17.15.03.13.07.71.07,1.02,0,.38-.01.44-.17.5-.24.12-.9.23-2.17.39,0,1.03.09,2.74.2,3.72.95.4,1.59.75,2.25,1.21.42.3.51.41.51.51,0,.17-.27.67-.58,1.11-.18.25-.27.33-.38.33s-.1,0-.45-.33c-.33-.33-.67-.58-1.33-1.02v.12c0,1.32-1.09,2.19-2.76,2.19s-2.8-.9-2.8-2.25,1.14-2.36,2.66-2.36c.55,0,.84.02,1.24.08q-.06-1.17-.1-3.18c-.65.04-1.67.09-2.26.09ZM133.69,25.62c-.75,0-1.25.34-1.25.87,0,.48.46.78,1.19.78.79,0,1.21-.36,1.21-1.05,0-.21-.02-.38-.02-.38-.39-.15-.73-.22-1.14-.22Z"/>
        <path d="M149.77,17.11c-.76.39-1.05.75-1.15,1.42.13-.03.27-.04.31-.04.6,0,1.05.48,1.05,1.09,0,.66-.46,1.12-1.11,1.12-.79,0-1.26-.58-1.26-1.59,0-.6.18-1.28.44-1.7.25-.39.58-.67,1.12-.97l.6.66ZM152.67,17.11c-.77.39-1.05.75-1.16,1.42.13-.03.27-.04.31-.04.6,0,1.05.48,1.05,1.09,0,.66-.47,1.12-1.11,1.12-.79,0-1.26-.58-1.26-1.54,0-1.29.46-2.12,1.56-2.71l.6.66Z"/>
        <path d="M163.35,21.54h2.13c.68,0,1.1-.03,1.54-.09v1.63c-.48-.04-.93-.08-1.56-.08h-1.62c.86,1.5,2.1,2.75,3.58,3.58-.48.48-.69.78-.99,1.5-.61-.43-1.05-.86-1.62-1.5-.74-.85-1.05-1.32-1.53-2.22.03.54.04,1,.04,1.44v1.82c0,.67.03,1.2.09,1.67h-1.67c.06-.46.09-1,.09-1.68v-1.71c0-.4.02-.88.04-1.48-.91,1.65-1.93,2.76-3.39,3.73-.38-.71-.58-1-.9-1.36,1.54-.89,2.8-2.17,3.67-3.78h-.95c-.64,0-1.11.03-1.58.09v-.6c-.25.36-.43.69-.61,1.21-.38-.58-.6-1.05-.89-1.8.03.46.06,1.27.06,1.91v3.69c0,.76.03,1.32.09,1.77h-1.67c.06-.46.09-1.02.09-1.77v-3.1c0-.57.02-.93.11-1.86-.44,1.46-.87,2.43-1.51,3.41-.18-.68-.38-1.11-.68-1.61.72-.92,1.47-2.61,1.92-4.35h-.57c-.44,0-.69.01-.96.06v-1.53c.24.04.51.06.96.06h.72v-1.16c0-.76-.01-1.14-.08-1.5h1.65c-.06.39-.08.8-.08,1.5v1.16h.43c.36,0,.54-.01.78-.06v1.42c.57-1.02,1.05-2.52,1.09-3.5l1.46.38c-.06.17-.1.34-.21.79-.08.27-.1.41-.18.69h1.15v-.99c0-.62-.03-.99-.09-1.37h1.68c-.06.36-.09.77-.09,1.37v.99h1.7c.72,0,1.14-.03,1.54-.09v1.58c-.42-.04-.9-.08-1.54-.08h-1.7v1.82ZM160.21,19.73c-.25.62-.39.9-.81,1.61q-.36-.38-1.17-.95c.12-.17.17-.24.24-.34-.2-.03-.44-.04-.71-.04h-.38c.34.79.71,1.39,1.36,2.28v-.82c.45.06.87.09,1.56.09h1.53v-1.82h-1.63Z"/>
        <path d="M174.19,25.59c-.72,1.25-1.71,1.93-2.73,1.93-1.56,0-2.67-1.53-2.67-3.66,0-2.37,1.2-4.41,3.25-5.49,1-.54,2.08-.78,3.51-.78,3.14,0,5.46,2.22,5.46,5.19,0,2.62-1.29,4.51-3.78,5.58-.5.21-.89.33-1.08.33-.18,0-.25-.06-.45-.34-.25-.39-.54-.67-.95-.95,3.09-.79,4.49-2.25,4.49-4.68,0-1.25-.53-2.29-1.46-2.96-.53-.36-.95-.51-1.77-.64-.42,3.17-.92,4.89-1.83,6.46ZM172.03,20.28c-1,.88-1.58,2.14-1.58,3.55,0,1.16.38,1.83,1,1.83.75,0,1.52-1.04,2.08-2.82.36-1.12.54-1.98.77-3.64-1.07.22-1.59.48-2.28,1.08Z"/>
        <path d="M184.08,23.3c0-.53,0-1.04.03-1.61-.42.74-.62,1.02-1,1.5-.15-.6-.36-1.17-.65-1.71.96-1.06,1.59-2.14,2.13-3.58.35-.9.45-1.33.56-2.06l1.63.39q-.71,2.13-1.21,3.24v8.08c0,.63.01,1.12.07,1.67h-1.65c.06-.58.09-.97.09-1.68v-4.25ZM186.54,29.25c.06-.51.08-.89.08-1.77v-6.34c0-.72-.03-1.2-.09-1.62h1.6c-.04.45-.06.89-.06,1.64v6.04h6.34c.72,0,1.15-.01,1.59-.07v1.54c-.5-.06-.96-.09-1.61-.09h-6.33v.68h-1.53ZM188.19,18.53c-.58,0-.93.01-1.35.06v-1.51c.38.06.77.08,1.52.08h2.56c.06-.51.08-.65.11-1.2l1.59.09q-.14.79-.2,1.11h2.19c.69,0,1.02-.02,1.5-.09v1.53c-.42-.04-.84-.06-1.32-.06h-2.62c-.06.3-.13.61-.21.94h2.07c.6,0,.95-.01,1.21-.03-.04.46-.04.7-.04,1.38v4.36c0,.6,0,.83.04,1.28-.45-.02-.82-.03-1.23-.03h-3.71c-.42,0-.76.01-1.21.03.03-.32.04-.69.04-1.14v-4.71c0-.54-.01-.93-.04-1.17.36.03.57.03,1.16.03h.21c.1-.34.15-.58.22-.94h-2.49ZM190.59,21.44h3.15v-.75h-3.15v.75ZM190.59,23.28h3.15v-.77h-3.15v.77ZM190.59,25.2h3.15v-.84h-3.15v.84Z"/>
        <path d="M205.59,17.87c-.03.97-.12,1.46-.36,2.05-.28.72-.61,1.17-1.41,1.88-.41-.51-.57-.67-1.02-1-.54-.04-.62-.04-1.21-.04h-2.05v1.39h2.02c.72,0,.93-.01,1.35-.06v1.46c-.39-.03-.72-.04-1.33-.04h-2.04v1.72c1.58-.2,1.83-.24,3.52-.58l.03,1.39c-1.51.35-2.29.5-3.55.69v.95c0,.57.03,1,.09,1.53h-1.7c.06-.57.09-.97.09-1.51v-.75c-.24.04-.39.08-.48.09-.13.01-.15.01-.22.04l-.18-1.67c.17.02.21.02.25.02.15,0,.41-.02.63-.03v-6.99c0-.61-.02-.88-.08-1.32,1.41-.12,2.96-.45,3.87-.83.36-.13.38-.15.74-.38l.87,1.47q-.25.06-.88.27c-1.32.42-1.63.5-3,.75v1.03h2.04c.72,0,.93-.01,1.35-.06v1.12c.95-.75,1.25-1.54,1.25-3.29,0-.33-.01-.58-.04-.82.3.03.58.04,1.05.04h2.17c.55,0,.79-.02,1.14-.04-.03.38-.04.67-.04,1.2v2.08c0,.2.09.24.46.24.3,0,.39-.08.45-.36.06-.33.09-.66.11-1.35.43.27.75.41,1.25.57-.09,1.18-.2,1.69-.42,2.05-.23.34-.57.45-1.53.45-.66,0-1.17-.06-1.38-.18-.25-.13-.33-.33-.33-.82v-2.37h-1.46ZM210,22.73c-.15.23-.27.42-.39.65-.67,1.25-1.26,2.1-1.99,2.91.94.65,1.9,1.07,3.27,1.38-.36.52-.48.75-.76,1.5-1.59-.54-2.6-1.06-3.62-1.86-1.07.83-2.33,1.44-4.04,1.95-.21-.58-.42-.98-.79-1.47,1.63-.38,2.67-.79,3.76-1.54-.7-.88-1.06-1.53-1.51-2.8-.25.02-.39.03-.66.06v-1.59c.27.04.48.06.93.06h3.97c.54,0,.73-.01,1.02-.06l.81.82ZM205.36,23.43c.34.86.6,1.28,1.15,1.88.71-.72.92-.99,1.4-1.88h-2.55Z"/>
        <path d="M211.68,20.13c.77-.39,1.07-.75,1.16-1.42-.13.03-.25.04-.3.04-.6,0-1.07-.48-1.07-1.09,0-.66.47-1.12,1.11-1.12.79,0,1.26.57,1.26,1.54,0,1.29-.46,2.12-1.56,2.71l-.6-.66ZM214.57,20.13c.76-.39,1.06-.75,1.16-1.42-.14.03-.26.04-.3.04-.6,0-1.06-.48-1.06-1.09,0-.66.46-1.12,1.11-1.12.79,0,1.26.57,1.26,1.54,0,1.29-.47,2.12-1.56,2.71l-.6-.66Z"/>
        <path d="M218.13,25.41c.27-.24.34-.3.45-.3.19,0,1.09.66,1.75,1.29.75.69,1.59,1.7,1.59,1.91,0,.13-.03.17-.46.55-.57.53-.69.62-.79.62-.09,0-.18-.06-.25-.21-.53-.93-1.73-2.16-2.79-2.85-.12-.09-.18-.15-.18-.24,0-.11.03-.15.69-.76Z"/>
        <path d="M236.55,16.64c1.39,0,2.29.25,2.92.81.58.52.93,1.36.93,2.26,0,1.49-.73,2.46-2.17,2.88.76.33.96.63,1.72,2.64l1.17,3.09h-2.05l-.99-2.89c-.58-1.71-1.02-2.22-1.89-2.22h-1.9v5.11h-1.88v-11.68h4.14ZM236.01,21.63c1.71,0,2.49-.55,2.49-1.77,0-.51-.2-.96-.53-1.21-.34-.26-1.04-.41-1.98-.41h-1.71v3.39h1.72Z"/>
        <path d="M249.82,26.76c-.86,1.16-2.07,1.75-3.58,1.75-2.96,0-4.83-2.34-4.83-6.03,0-1.74.43-3.25,1.25-4.33.85-1.12,2.05-1.71,3.57-1.71s2.82.64,3.69,1.88c.72,1.03,1.14,2.53,1.14,4.15,0,1.71-.42,3.21-1.23,4.29ZM246.22,18.15c-.93,0-1.67.42-2.13,1.21-.45.75-.69,1.88-.69,3.15,0,1.17.24,2.24.67,3.01.45.83,1.21,1.28,2.14,1.28,1.79,0,2.83-1.6,2.83-4.32s-1.04-4.33-2.83-4.33Z"/>
        <path d="M259.47,16.64v1.59h-5.4v3.18h4.12v1.57h-4.12v3.72h5.66v1.62h-7.59v-11.68h7.33Z"/>
        <path d="M268.24,25.16c.04.06.06.11.06.17q0,.09-.25.78c-.32.92-.51,1.67-.57,2.25-.01.2-.08.27-.27.32-.21.06-.61.09-1,.09-.15,0-.22-.03-.27-.12-.13-.29-.38-1.32-.5-2.16-.1-.71-.15-1.44-.15-2.21,0-1.72.2-3.36.74-6.3.09-.48.12-.71.17-1.17.69.09,1.17.23,1.6.44.23.12.32.22.32.36,0,.09-.03.17-.11.29-.61,1.05-1.18,4.29-1.18,6.69,0,.36.01.93.06,1.65.36-.93.52-1.35.85-2.07.11.41.21.6.51,1ZM270.76,21.21c-.72,0-.87-.03-.92-.2-.04-.13-.09-.61-.09-.96,0-.12,0-.24.01-.51.41.03.64.04,1.14.04.81,0,1.32-.01,2.1-.08-.02-1.9-.03-2.14-.18-2.85.74.01,1.29.08,1.77.2.22.06.31.13.31.29,0,.06-.01.1-.06.22-.15.34-.23.93-.25,1.98.55-.07,1.03-.18,1.93-.39.08-.03.1-.03.15-.03.09,0,.13.04.17.15.03.13.07.71.07,1.02,0,.38-.01.44-.17.5-.24.12-.9.23-2.17.39,0,1.03.09,2.74.2,3.72.95.4,1.59.75,2.25,1.21.42.3.51.41.51.51,0,.17-.27.67-.58,1.11-.18.25-.27.33-.38.33s-.1,0-.45-.33c-.33-.33-.67-.58-1.33-1.02v.12c0,1.32-1.09,2.19-2.76,2.19s-2.8-.9-2.8-2.25,1.14-2.36,2.66-2.36c.55,0,.84.02,1.24.08q-.06-1.17-.1-3.18c-.65.04-1.67.09-2.26.09ZM271.99,25.62c-.75,0-1.25.34-1.25.87,0,.48.46.78,1.19.78.79,0,1.21-.36,1.21-1.05,0-.21-.02-.38-.02-.38-.39-.15-.73-.22-1.14-.22Z"/>
        <path d="M288.07,17.11c-.76.39-1.05.75-1.15,1.42.13-.03.27-.04.31-.04.6,0,1.05.48,1.05,1.09,0,.66-.46,1.12-1.11,1.12-.79,0-1.26-.58-1.26-1.59,0-.6.18-1.28.44-1.7.25-.39.58-.67,1.12-.97l.6.66ZM290.97,17.11c-.77.39-1.05.75-1.16,1.42.13-.03.27-.04.31-.04.6,0,1.05.48,1.05,1.09,0,.66-.47,1.12-1.11,1.12-.79,0-1.26-.58-1.26-1.54,0-1.29.46-2.12,1.56-2.71l.6.66Z"/>
        <path d="M295.15,20.67c-.96.6-1.29.78-2.31,1.25-.25-.58-.48-.97-.84-1.49,1.53-.6,2.54-1.15,3.62-2,.96-.73,1.68-1.51,2.28-2.43h1.7c.76,1.07,1.35,1.63,2.45,2.4,1.21.87,2.4,1.48,3.7,1.95-.4.62-.6,1.02-.81,1.62-.9-.39-1.46-.69-2.45-1.32v1.12c-.39-.04-.75-.06-1.29-.06h-4.82c-.41,0-.84.02-1.23.06v-1.11ZM294.36,24.38c-.75,0-1.23.03-1.7.09v-1.67c.45.04,1.02.08,1.7.08h8.95c.72,0,1.21-.03,1.7-.08v1.67c-.48-.06-.96-.09-1.7-.09h-4.93c-.48,1.09-.93,1.93-1.5,2.79q2.49-.14,4.56-.36c-.46-.51-.72-.78-1.51-1.59l1.42-.63c1.54,1.56,2.17,2.29,3.33,3.82l-1.4.92c-.4-.61-.52-.79-.85-1.24-1.2.15-2.05.25-2.59.3-1.5.15-4.23.4-4.84.45-.81.04-1.53.12-1.86.19l-.22-1.75c.43.03.62.04.81.04.12,0,.56-.01,1.29-.06.71-1.08,1.16-1.94,1.53-2.88h-2.17ZM301.18,20.22c.2,0,.33,0,.63-.01-1.3-.87-2.14-1.65-3.01-2.8-.75,1.02-1.62,1.84-2.98,2.8.24.01.36.01.58.01h4.78Z"/>
        <path d="M310.35,27.78c0,.68.02,1.05.09,1.47h-1.74c.06-.44.09-.83.09-1.5v-3.62c-.58.53-.88.75-1.61,1.23-.18-.56-.43-1.08-.73-1.5,1-.58,1.7-1.12,2.47-1.95.67-.71,1.09-1.3,1.56-2.22h-2.34c-.51,0-.86.01-1.2.06v-1.6c.38.04.66.06,1.12.06h.73v-1.2c0-.39-.03-.76-.09-1.09h1.72c-.06.32-.07.66-.07,1.11v1.18h.6c.43,0,.6-.01.83-.04l.69.75c-.12.2-.21.38-.31.62-.48,1.05-.74,1.48-1.44,2.46.67.76,1.33,1.29,2.28,1.81-.33.46-.54.86-.78,1.42-.76-.48-1.21-.88-1.88-1.62v4.17ZM316.47,27.09h1.72c.72,0,1.21-.03,1.65-.08v1.72c-.51-.06-1.07-.09-1.65-.09h-4.92c-.6,0-1.12.03-1.62.09v-1.72c.45.04.96.08,1.63.08h1.57v-5.62h-1.08c-.48,0-.96.03-1.41.08v-1.63c.41.06.81.08,1.41.08h1.08v-2.54c0-.6-.03-.95-.09-1.5h1.79c-.08.57-.09.85-.09,1.5v2.54h1.51c.66,0,1.04-.02,1.42-.08v1.63c-.46-.04-.92-.08-1.42-.08h-1.51v5.62Z"/>
        <path d="M100.89,51.11c-.72,1.25-1.71,1.93-2.73,1.93-1.56,0-2.67-1.53-2.67-3.66,0-2.37,1.2-4.41,3.25-5.49,1-.54,2.08-.78,3.51-.78,3.14,0,5.46,2.22,5.46,5.19,0,2.62-1.29,4.51-3.78,5.58-.5.21-.89.33-1.08.33-.18,0-.25-.06-.45-.34-.25-.39-.54-.67-.95-.95,3.09-.79,4.49-2.25,4.49-4.68,0-1.25-.53-2.29-1.46-2.96-.53-.36-.95-.51-1.77-.64-.42,3.17-.92,4.89-1.83,6.46ZM98.73,45.8c-1,.88-1.58,2.14-1.58,3.55,0,1.16.38,1.83,1,1.83.75,0,1.52-1.04,2.08-2.82.36-1.12.54-1.98.77-3.64-1.07.22-1.59.48-2.28,1.08Z"/>
        <path d="M112.54,46.53c-.66,0-1.04.02-1.35.06v-.77h-1.33c.04-.33.06-.58.06-1.06v-1.07c0-.39-.02-.71-.06-1.08.46.04.88.06,1.59.06h3.75v-.33c0-.34-.01-.58-.08-.9h1.75c-.06.29-.07.53-.07.9v.33h3.96c.71,0,1.11-.01,1.59-.06-.05.36-.06.66-.06,1.05v1.09c0,.43.01.74.06,1.06h-1.32v.77c-.36-.04-.71-.06-1.37-.06h-2.91c0,.27,0,.3-.02.78h2.68c.72,0,.95-.01,1.29-.06v1.38c-.34-.04-.61-.06-1.29-.06h-2.79c-.03.34-.04.46-.11.78h4.5c.75,0,1.06-.01,1.49-.08v1.51c-.51-.06-.93-.09-1.56-.09h-3.67c.5.6.79.87,1.35,1.2.62.39,1.52.74,2.54.99.36.09.81.19,1.59.33-.34.51-.55.96-.75,1.54-1.33-.32-1.92-.5-2.7-.83-1.53-.69-2.5-1.47-3.41-2.73-.5.96-1.12,1.64-2.1,2.25-1,.65-1.92.98-3.51,1.29-.27-.72-.35-.87-.77-1.48,1.49-.21,2.24-.42,3.11-.89.84-.42,1.39-.93,1.84-1.68h-3.17c-.57,0-1.05.03-1.56.09v-1.51c.42.06.72.08,1.47.08h3.76c.06-.25.09-.42.13-.78h-2.44c-.67,0-.96.02-1.29.06v-1.38c.34.04.58.06,1.29.06h2.53c0-.2.02-.46.02-.78h-2.68ZM115.24,45.26c-.01-.45-.03-.66-.06-.93h1.67c-.04.18-.04.35-.06.93h2.88c.56,0,.75,0,1.12-.04v-1.19h-9.37v1.19c.31.03.57.04,1.12.04h2.7Z"/>
        <path d="M134.35,44.31c.88,0,1.33-.01,1.86-.08-.06.53-.06.67-.08,1.25-.06,3.55-.21,5.87-.49,7.18-.27,1.23-.87,1.63-2.4,1.63-.64,0-1.29-.04-2.19-.16-.09-.72-.2-1.16-.41-1.76.93.21,1.74.3,2.47.3.66,0,.88-.25,1.05-1.23.18-1.06.32-3.27.33-5.61h-3.9c-.13,1.08-.15,1.2-.29,1.81-.46,2.27-1.23,3.69-2.66,5.03-.76.71-1.44,1.2-2.53,1.8-.32-.6-.68-1.07-1.19-1.5,1.98-.86,3.29-2.01,4.07-3.58.43-.87.72-2.01.9-3.55h-2.49c-.74,0-1.32.03-1.8.09v-1.71c.53.06.99.09,1.83.09h2.57c.03-.57.03-.72.03-1.47,0-.66-.03-1.08-.09-1.38h1.92q-.08.36-.17,2.85h3.65Z"/>
        <path d="M138.37,45.65c.77-.39,1.07-.75,1.16-1.42-.13.03-.25.04-.3.04-.6,0-1.07-.48-1.07-1.09,0-.66.47-1.12,1.11-1.12.79,0,1.26.57,1.26,1.54,0,1.29-.46,2.12-1.56,2.71l-.6-.66ZM141.27,45.65c.76-.39,1.06-.75,1.16-1.42-.14.03-.26.04-.3.04-.6,0-1.06-.48-1.06-1.09,0-.66.46-1.12,1.11-1.12.79,0,1.26.57,1.26,1.54,0,1.29-.47,2.12-1.56,2.71l-.6-.66Z"/>
        <path d="M155.56,47.03c1.89-.52,3.25-.76,4.27-.76,2.12,0,3.42,1.16,3.42,3.03,0,1.12-.46,2.12-1.35,2.87-.58.5-1.46.92-2.61,1.26-.64.18-1.33.32-1.63.32-.18,0-.27-.04-.33-.2-.21-.52-.45-.9-.76-1.21,3.3-.34,4.98-1.39,4.98-3.1,0-.87-.72-1.54-1.65-1.54-1.62,0-3.39.54-5.25,1.57-.15.08-.24.12-.3.12-.25,0-.67-.75-1.02-1.83.74-.1.99-.17,2.24-.51Z"/>
        <path d="M169.03,45.6c-.39.09-.53.13-1.07.33-.19.08-.3.1-.39.1-.33,0-.63-.61-.9-1.9.96-.04,1.31-.09,2.97-.34,1.8-.27,4.08-.62,5.28-.77,1.35-.18,2.43-.36,3-.48.1-.03.15-.03.22-.03.2,0,.27.09.41.46.12.32.21.76.21.97,0,.18-.06.24-.27.24-.32,0-.6.03-.89.08-2.53.42-4.56,2.64-4.56,4.98,0,1.75,1.38,2.91,3.72,3.12.21.01.29.09.29.27,0,.38-.15,1.09-.29,1.42-.08.17-.19.24-.39.24s-.65-.09-1.11-.22c-2.55-.75-3.88-2.37-3.88-4.67,0-1.25.41-2.4,1.19-3.39.42-.54.78-.84,1.63-1.42-1.96.33-4.04.72-5.17,1Z"/>
        <path d="M188.22,49.11c.58-.42,1.02-.79,1.42-1.25-.54-1.06-.84-2.19-1.06-3.87h-5.19c-.03,2.41-.15,3.76-.42,4.83-.22.9-.5,1.56-.88,2.16-.42-.48-.75-.75-1.29-1.06.83-1.28,1.12-2.73,1.12-5.48,0-.97-.01-1.26-.08-1.81.48.03,1.1.06,1.74.06h4.86q-.03-.29-.04-.61c-.01-.27-.04-.42-.09-.65h1.63c-.03.2-.04.48-.04.84,0,.11,0,.12.02.42h1.65c-.48-.34-.64-.45-1.05-.66l1.07-.67c.55.29.76.44,1.35.9l-.66.43c.81,0,1.16-.03,1.54-.09v1.47c-.51-.06-1-.07-1.75-.07h-2.03c.15,1.14.32,1.83.62,2.59.46-.72.78-1.4.98-2.04l1.35.55q-.17.29-.36.69c-.38.75-.81,1.46-1.3,2.13.24.34.42.57.6.75.21.19.47.36.54.36.2,0,.41-.69.5-1.69.42.4.67.6,1.2.9-.36,1.7-.81,2.36-1.59,2.36-.67,0-1.5-.58-2.19-1.54-.64.67-.93.92-1.71,1.47-.42-.48-.46-.53-.75-.74-.19-.01-.31-.01-.58-.01h-2.67c-.34,0-.7.01-.9.04,0-.09.01-.39.03-.92v-1.47c0-.34-.02-.67-.03-.88.29.03.52.04.92.04h2.67c.41,0,.63-.02.92-.04-.02.19-.03.5-.03.87v1.69ZM183.87,51.11c-.55,1.72-.84,2.25-1.74,3.29l-1.29-.93c.99-1,1.21-1.41,1.68-2.97l1.35.62ZM188.47,45.98c-.25-.03-.51-.04-.9-.04h-2.99c-.38,0-.66.01-.9.04v-1.3c.24.03.48.04.9.04h2.99c.42,0,.64-.02.9-.04v1.3ZM185.82,52.89c0,.31.16.34,1.57.34.9,0,1.58-.04,1.83-.12.32-.1.41-.38.41-1.27.63.28.87.36,1.47.49-.12,1.1-.27,1.54-.64,1.82-.42.31-1.26.43-3.14.43-2.52,0-2.98-.19-2.98-1.25v-1.72c0-.43-.01-.71-.08-1h1.63c-.06.29-.07.5-.07.84v1.44ZM185.1,48.6h1.83v-.87h-1.83v.87ZM188.16,52.61c-.65-.79-.98-1.09-1.86-1.75l1.02-.74c.75.48,1.14.79,1.94,1.56l-1.09.93ZM192.12,50.67c.77.93,1.2,1.61,1.88,2.87l-1.36.74c-.56-1.21-1.07-2.07-1.79-3.03l1.27-.57Z"/>
        <path d="M200.07,42.15c.38.11.48.18.48.35,0,.1-.01.15-.09.36-.17.44-.29,1.2-.34,2.25-.12,2.42-.18,4.29-.18,5.78,0,.48.04.84.12,1.08.17.5.69.75,1.53.75,1.35,0,2.62-.55,3.79-1.65.54-.51.87-.92,1.42-1.74.09.48.21.79.54,1.47.04.12.08.21.08.35,0,.27-.29.63-1.04,1.3-1.49,1.33-3.13,2.02-4.86,2.02-1.14,0-1.98-.28-2.52-.82-.57-.6-.79-1.38-.79-2.87,0-1.17.01-2.07.13-5.56.02-.53.03-.84.03-.98,0-1.27-.01-1.65-.11-2.29.77.03,1.35.09,1.8.21ZM205.05,45.99c-.06,0-.12-.04-.17-.12-.33-.57-.66-.99-1.16-1.5-.08-.06-.09-.09-.09-.14,0-.09.12-.21.38-.39.22-.17.32-.21.39-.21.12,0,.32.15.69.57.5.54.81.94.81,1.06,0,.17-.66.72-.85.72ZM206.56,43.14c.45.48.83.96.83,1.09,0,.15-.63.67-.81.67-.06,0-.12-.04-.18-.15-.24-.42-.57-.83-1.16-1.42-.06-.06-.07-.09-.07-.12,0-.13.6-.55.78-.55.11,0,.29.15.62.48Z"/>
        <path d="M211.42,47.06c-.12.03-.18.06-.27.1-.08.04-.12.06-.2.06-.32,0-.55-.58-.74-1.7.12.02.23.02.29.02.63,0,2.24-.2,3.2-.39.31-1.32.48-2.31.48-3.03,0-.06,0-.14-.01-.25.64.07,1.26.21,1.68.38.24.09.36.22.36.38,0,.07-.02.12-.09.24q-.23.41-.69,2.05c.36-.04.76-.07,1.02-.07.62,0,1.1.12,1.44.36.6.44.9,1.32.9,2.69,0,2.23-.41,4.14-1.1,5.08-.48.66-1.11.98-1.99.98-.54,0-1.05-.08-1.2-.17q-.12-.08-.17-.63c-.04-.41-.13-.75-.32-1.17.78.25.98.3,1.46.3.72,0,1.02-.34,1.35-1.54.23-.79.35-1.83.35-2.92,0-1.17-.29-1.59-1.08-1.59-.27,0-.71.03-1.05.09-.04.17-.06.18-.12.39-.42,1.53-1.19,3.55-1.95,5.17-.79,1.63-.99,1.96-1.18,1.96-.12,0-.53-.21-.96-.5-.35-.21-.44-.3-.44-.42q0-.07.62-1.05c.83-1.27,1.91-3.78,2.28-5.25-1.11.24-1.73.39-1.86.44ZM219.07,45.38c0-.11.14-.24.57-.58.3-.23.45-.32.55-.32.09,0,.17.04.36.24.88.85,1.71,2,2.19,2.98.15.33.24.54.24.63,0,.15-.04.2-.52.58-.3.24-.65.44-.77.44-.1,0-.15-.04-.25-.3-.3-.74-.58-1.31-.94-1.86-.39-.6-.47-.69-1.35-1.63-.06-.09-.08-.13-.08-.18Z"/>
        <path d="M226.02,45.93c-.27.01-.43.03-.61.04-.14.01-.15.01-.17.01-.12,0-.18-.04-.23-.19-.08-.24-.18-1.04-.19-1.49.17.01.6.03,1.14.03.17,0,1.35-.08,1.88-.12.25-1.21.34-1.84.34-2.66,1.54.21,2.1.39,2.1.68,0,.1-.01.13-.24.48-.12.18-.17.34-.42,1.28.7-.12,1.12-.23,1.68-.41.1-.03.15-.04.22-.04.11,0,.13.08.23.51.07.38.12.69.12.85,0,.18-.04.21-.43.3-.51.12-1.38.27-2.31.39-.56,1.68-.93,2.58-1.62,3.99-.53,1.05-.83,1.6-1.23,2.23-.12.18-.19.24-.3.24-.15,0-.57-.22-1.09-.62-.24-.17-.3-.24-.3-.34s.06-.2.25-.46c.43-.54,1-1.47,1.5-2.46.42-.83.57-1.17,1-2.36-.58.04-.63.06-1.32.11ZM230.95,54.57c-1.64,0-2.75-.9-2.75-2.24s1.15-2.41,2.7-2.41c.36,0,.53.01,1.14.1-.06-.72-.06-1-.12-2.4,0-.29-.03-.68-.06-1.16.77.08,1.35.17,1.64.29.12.04.18.12.18.24,0,.08-.01.14-.03.24-.08.32-.09.54-.09.95,0,.55.04,1.5.09,2.23,1.07.48,1.5.72,2.25,1.31.33.25.45.39.45.51,0,.15-.08.29-.5.96-.18.3-.31.43-.42.43q-.09,0-.51-.39c-.33-.33-.71-.58-1.23-.9,0,1.4-1.02,2.24-2.74,2.24ZM230.92,51.36c-.72,0-1.21.34-1.21.87,0,.5.45.81,1.12.81.79,0,1.21-.4,1.21-1.2,0-.12,0-.24-.02-.24-.3-.15-.7-.24-1.11-.24ZM236.53,47.1c-.18.25-.27.33-.38.33-.08,0-.13-.03-.24-.13-.38-.36-.9-.75-1.46-1.1q-.36-.22-1.02-.52c-.21-.09-.29-.15-.29-.27,0-.1.08-.24.3-.58.36-.52.45-.61.58-.61.28,0,1.39.57,2.19,1.11.65.44.84.62.84.78,0,.12-.24.57-.54,1Z"/>
        <path d="M246.48,53.22c0,.66-.53,1.18-1.18,1.18s-1.19-.53-1.19-1.18.53-1.19,1.19-1.19,1.18.53,1.18,1.19ZM245.95,51h-1.33l-.41-8.98h2.16l-.42,8.98Z"/>
      </g>
      <circle class="cls-11" cx="31.42" cy="51.75" r="30"/>
      <g>
        <path class="cls-7" d="M40.58,42.28c5.99-4.81,10.66-4.4,11.63-2.77.89,1.5-.2,9.39-9.11,4.98"/>
        <path class="cls-4" d="M44.82,44.85c2.15-3.69,6.52-2.97,7.64-2.44-1.95,3.62-3.96,4.96-7.64,2.44Z"/>
        <path class="cls-1" d="M47.81,46.43c-1.31,0-2.94-.38-4.99-1.39-.3-.15-.42-.51-.28-.82.15-.3.52-.42.82-.28,3.32,1.64,5.84,1.68,7.29.12,1.3-1.4,1.35-3.69,1.02-4.24-.21-.35-.72-.62-1.4-.75-.91-.16-4.27-.39-9.33,3.68-.26.21-.65.17-.86-.09-.21-.26-.17-.65.09-.86,3.68-2.96,7.53-4.43,10.31-3.92,1.04.19,1.83.66,2.23,1.32.64,1.09.43,3.95-1.18,5.69-.75.81-1.93,1.54-3.74,1.54Z"/>
        <path class="cls-7" d="M46.06,56.5c1.64-16.82-17.11-22.8-25.64-13.47-2.97,3.25-5.19,9.02-4.06,15.77-3.29,3.25-2.73,7.92,2.42,10.46,3.1,1.53,6.19,2.19,13.34,2.19,6.63,0,14.3-2.8,16.45-6.93,1.2-2.31.78-5.72-2.5-8.03Z"/>
        <path class="cls-2" d="M35.84,38.87c-.6-4.19-4.15-6.52-4.34-.47"/>
        <path class="cls-2" d="M24.16,39.94c-.51-4.2,2.31-7.38,4.07-1.58"/>
        <path class="cls-7" d="M19.7,43c-6.66-3.82-11.21-2.69-11.91-.92-.65,1.62,2.36,9.82,10.47,4.08"/>
        <ellipse class="cls-1" cx="35.32" cy="58.45" rx="1.44" ry="1.56" transform="translate(-8.66 6.21) rotate(-8.95)"/>
        <path class="cls-4" d="M16.43,46.81c-2.15-3.69-7.03-2.78-8.16-2.25,1.95,3.62,4.47,4.77,8.16,2.25Z"/>
        <path class="cls-4" d="M29.26,38.39c1.23,7.46-2.33,14.45-12.53,14.45,0-11.42,12.53-14.45,12.53-14.45Z"/>
        <path class="cls-4" d="M31.5,38.4c0,8.41,6.81,12.72,13.84,13.25,0-11.42-13.84-13.25-13.84-13.25Z"/>
        <path class="cls-4" d="M15.28,65.27c13.81-6.39,25.45-3.61,33.28-.74-3.13,7.57-29.25,10.15-33.28.74Z"/>
        <path class="cls-1" d="M32.12,72.07c-7.59,0-10.64-.79-13.61-2.26-2.68-1.33-4.37-3.31-4.74-5.59-.32-1.98.37-3.96,1.94-5.63-1.1-7.13,1.47-12.92,4.26-15.97,4.25-4.65,11.25-5.93,17.42-3.18,3.01,1.34,5.47,3.51,7.11,6.28,1.79,3.02,2.53,6.54,2.2,10.49,3.38,2.56,3.63,6.22,2.4,8.6-2.36,4.54-10.49,7.26-16.99,7.26ZM30.74,39.23c-3.76,0-7.35,1.46-9.87,4.22-2.64,2.89-5.06,8.42-3.91,15.26.03.2-.03.39-.17.53-1.44,1.42-2.08,3.13-1.81,4.79.3,1.88,1.75,3.54,4.07,4.69,2.8,1.38,5.71,2.13,13.07,2.13,6.88,0,14.01-2.96,15.91-6.6,1.03-1.98.75-5.1-2.31-7.25-.18-.13-.28-.34-.26-.56.71-7.25-2.49-13.19-8.56-15.89-2.01-.89-4.11-1.33-6.15-1.33Z"/>
        <path class="cls-1" d="M31.75,68.56c-1.88,0-3.48-.99-4.4-2.72l-.45.09c-.33.07-.65-.14-.72-.47-.07-.33.14-.65.47-.72l.91-.19c.28-.06.57.09.68.35.73,1.67,2.12,2.55,3.82,2.43,1.72-.13,3.25-1.27,3.64-2.72.07-.28.34-.46.62-.45l.77.04c.34.02.59.3.58.64-.02.34-.31.59-.64.58l-.31-.02c-.69,1.72-2.5,2.99-4.57,3.14-.14.01-.27.02-.41.02Z"/>
        <ellipse class="cls-1" cx="35.32" cy="58.45" rx="1.44" ry="1.56" transform="translate(-8.66 6.21) rotate(-8.95)"/>
        <ellipse class="cls-1" cx="27.65" cy="58.8" rx="1.56" ry="1.44" transform="translate(-32.47 83.45) rotate(-87.1)"/>
        <path class="cls-1" d="M13.05,48.78c-1.46,0-2.58-.54-3.4-1.18-2.09-1.64-2.9-4.58-2.43-5.75.29-.72.99-1.3,1.99-1.65,2.66-.93,6.69-.08,10.79,2.27.29.17.39.54.22.83-.17.29-.54.39-.83.22-5.62-3.23-8.91-2.48-9.78-2.18-.65.23-1.11.57-1.26.95-.21.53.31,2.97,2.06,4.35,1.89,1.49,4.48,1.14,7.49-.99.27-.19.65-.13.85.15.19.27.13.65-.15.85-2.23,1.58-4.07,2.14-5.55,2.14Z"/>
        <path class="cls-1" d="M35.84,39.48c-.3,0-.56-.22-.6-.52-.32-2.23-1.48-3.66-2.12-3.62-.31.02-.93.69-1,3.09-.01.34-.3.59-.63.59-.34-.01-.6-.29-.59-.63.11-3.61,1.4-4.22,2.15-4.27.03,0,.06,0,.09,0,1.46,0,2.94,2.06,3.31,4.67.05.33-.18.64-.52.69-.03,0-.06,0-.09,0Z"/>
        <path class="cls-1" d="M24.16,40.55c-.3,0-.57-.23-.6-.54-.32-2.66.61-5.08,2.07-5.39.74-.15,2.14.1,3.19,3.56.1.32-.08.66-.41.76-.32.1-.66-.08-.76-.41-.7-2.3-1.46-2.78-1.77-2.72-.62.13-1.38,1.81-1.11,4.05.04.33-.2.64-.53.68-.02,0-.05,0-.07,0Z"/>
        <path class="cls-1" d="M36.59,49.98c-.65-1.09-1.64-1.26-2.41-.7-.18.13-.11.42.12.44.71.07,1.33.3,1.98.61.22.1.44-.14.31-.35Z"/>
        <path class="cls-1" d="M25.69,50.38c.65-1.09,1.64-1.26,2.41-.7.18.13.11.42-.12.44-.71.07-1.33.3-1.98.61-.22.1-.44-.14-.31-.35Z"/>
        <circle class="cls-1" cx="32.97" cy="64.39" r=".57"/>
        <circle class="cls-1" cx="31.18" cy="64.39" r=".57"/>
      </g>
      <g>
        <path class="cls-1" d="M322.67,168.94c1.79.14,1.22,2.12.34,3.27-.18.24-.54.27-.77.08-1.56-1.33-1.01-3.46.43-3.34Z"/>
        <path class="cls-1" d="M322.57,169.73c-.31,0-.56-.25-.56-.56v-3.55l-.89-1.24c-.18-.25-.12-.61.13-.79.25-.18.61-.12.79.13l1,1.39c.07.1.11.21.11.33v3.73c0,.31-.25.56-.56.56Z"/>
        <path class="cls-6" d="M307.81,195.32c1.34-.08,2.63-.26,3.88-.53,9.79-2.16,10.15-7.15,10.02-11.31-.13-4.16-1.03-19.07-13.04-19.88-12.01-.81-15.11,8.74-17.43,11.84-2.32,3.1-10.78,12.79,5.09,18.2,1.55.53,3.09.93,4.6,1.21"/>
        <polygon class="cls-5" points="319.74 160.06 313.65 159.49 316.36 164.96 322.56 165.63 319.74 160.06"/>
        <rect class="cls-5" x="313.08" y="163.14" width="6.62" height="2.88" transform="translate(170.98 -161.06) rotate(38.45)"/>
        <path class="cls-12" d="M287.6,181.26c5.03.33,7.93,5.64,6.07,11.34-4.9-2.67-7.64-5.38-6.07-11.34Z"/>
        <path class="cls-12" d="M321.2,183.38c-5.8-.8-10.25,4.19-9.34,10.68,6.16-1.72,9.86-3.98,9.34-10.68Z"/>
        <ellipse class="cls-1" cx="299.58" cy="183.56" rx="1.82" ry="1.68" transform="translate(71.65 450.93) rotate(-81.05)"/>
        <ellipse class="cls-1" cx="309.65" cy="184.6" rx="1.68" ry="1.82" transform="translate(-8.93 15.88) rotate(-2.9)"/>
        <path class="cls-1" d="M299.41,173.94c1.65-.67,3.13-.04,3.82,1.25.16.3-.14.56-.46.4-1.03-.52-2.05-.78-3.16-.99-.37-.07-.51-.53-.2-.66Z"/>
        <path class="cls-1" d="M312.49,176.45c-1.22-1.29-2.83-1.33-4-.45-.27.21-.11.57.26.56,1.16-.05,2.19.14,3.29.41.37.09.68-.27.45-.52Z"/>
        <path class="cls-1" d="M307.81,195.89c-.3,0-.55-.23-.56-.53-.02-.31.22-.58.53-.6,1.29-.08,2.57-.25,3.79-.52,9.84-2.17,9.68-7.33,9.58-10.74-.13-4.28-.81-7.98-2.03-11-2.08-5.2-5.61-8-10.49-8.33-9.65-.65-13.25,5.48-15.63,9.54-.48.82-.9,1.53-1.31,2.07-.11.15-.24.32-.38.51-1.66,2.17-4.75,6.2-3.58,10.07.84,2.78,3.8,5.06,8.79,6.76,1.5.51,3.02.91,4.52,1.19.31.06.51.35.45.66s-.35.51-.66.45c-1.55-.29-3.12-.71-4.67-1.23-5.35-1.82-8.55-4.35-9.5-7.5-1.34-4.42,2.11-8.92,3.77-11.08.14-.18.26-.35.38-.5.37-.49.77-1.18,1.24-1.97,2.37-4.04,6.34-10.8,16.68-10.1,5.35.36,9.2,3.4,11.46,9.03,1.26,3.14,1.97,6.98,2.11,11.39.14,4.6-.54,9.69-10.46,11.88-1.28.28-2.61.47-3.97.54-.01,0-.02,0-.03,0Z"/>
        <path class="cls-1" d="M298.65,182.92c-.06,0-.12-.02-.17-.06-.75-.59-1.13-1.2-1.42-2.25-.04-.15.05-.31.2-.35.15-.04.31.05.35.2.29,1.06.65,1.51,1.23,1.96.12.1.14.27.05.4-.06.07-.14.11-.22.11Z"/>
        <path class="cls-1" d="M298.46,183.51c-.79,0-1.64-.46-2.32-1.25-.1-.12-.09-.3.03-.4.12-.1.3-.09.4.03.62.73,1.39,1.12,2.05,1.05.15-.02.29.09.31.25.02.15-.09.29-.25.31-.07,0-.15.01-.22.01Z"/>
        <path class="cls-1" d="M310.83,184.09c-.14,0-.26-.1-.28-.24-.02-.15.09-.3.24-.32.66-.09,1.42-.66,1.85-1.39.08-.13.25-.18.39-.1.13.08.18.25.1.39-.52.88-1.43,1.54-2.26,1.66-.01,0-.03,0-.04,0Z"/>
        <path class="cls-1" d="M311.9,185.34c-.37,0-.75-.07-1.11-.24-.14-.06-.2-.23-.14-.37.06-.14.23-.2.37-.14.85.39,1.82.09,2.47-.24.14-.07.31-.01.38.13.07.14.01.31-.13.38-.5.25-1.16.48-1.85.48Z"/>
        <g>
          <path class="cls-3" d="M309.44,189.21c-.67-1.82-3.62-3.78-5.13-3.57-1.51.21-4.67,2.04-5.66,1.99s-1.67-.72-1.79,1.58,1.69,3.49,4.1,2.64c3.35,1.91,9.62.49,8.48-2.64Z"/>
          <path class="cls-3" d="M309.44,191.57c-.74,3.66-4.9,5.8-6.16,5.26-1.26-.54-2.84-1.41-1.46-4.59,2.49.53,6.87-.11,6.98-1.62s.63.95.63.95Z"/>
          <path class="cls-10" d="M303.06,192.56c-.72,1.34-.37,3.05,1.82,1.98,2.19-1.07,2.19-2.27,2.19-2.27,0,0,1.44-.72-.48,0s-3.53.29-3.53.29Z"/>
          <path class="cls-1" d="M304.55,193.28c-1.05,0-2.18-.32-3.35-.98-2.28.65-3.54.04-4.21-.59-.84-.8-1.15-2.08-.82-3.34.33-1.27.9-1.38,1.78-1.4.64-.01,1.62-.04,3.2-.87,3.5-1.84,5.55-.78,7.54,1.37.19.2.17.51-.03.7s-.51.17-.7-.03c-1.78-1.92-3.39-2.73-6.36-1.17-1.79.94-2.9.97-3.64.98-.68.02-.69.03-.85.66-.24.9-.02,1.84.55,2.38.71.68,1.9.78,3.44.3.13-.04.28-.02.4.05,1.91,1.13,4.66,1.8,6.84-1.37.13-.19.38-.27.59-.18,0,0,.71.29,1.35.43.27.06.43.32.37.59s-.32.44-.59.37c-.42-.09-.85-.23-1.14-.34-1.22,1.62-2.71,2.44-4.39,2.44Z"/>
          <path class="cls-1" d="M303.86,197.39c-.6,0-1.17-.14-1.69-.42-.84-.45-1.38-1.1-1.59-1.91-.43-1.61.6-3.27.64-3.34.14-.23.45-.3.68-.16.23.14.3.45.16.68,0,.01-.84,1.38-.52,2.57.15.55.51.97,1.11,1.29.85.46,1.91.39,2.98-.19,1.5-.82,3.12-2.78,3.33-5.32.02-.27.26-.47.53-.45.27.02.47.26.45.53-.21,2.56-1.72,4.96-3.84,6.11-.75.41-1.51.61-2.23.61Z"/>
        </g>
        <path class="cls-1" d="M318.11,168.79c-.12,0-.25-.04-.35-.12-.24-.19-.29-.55-.09-.79l2.24-2.84c.12-.15.31-.23.5-.21l1.19.13-2.21-4.36-4.77-.45.69,1.4c.09.19.07.42-.05.59l-1.8,2.39c-.19.25-.54.3-.79.11-.25-.19-.3-.54-.11-.79l1.59-2.11-.99-1.99c-.09-.18-.08-.4.04-.57.12-.17.31-.26.52-.24l6.09.57c.19.02.36.13.45.31l2.82,5.57c.09.18.08.41-.04.58-.12.17-.32.26-.52.24l-1.91-.2-2.04,2.59c-.11.14-.28.21-.44.21Z"/>
      </g>
    </g>
  </g>
</svg>