<?xml version="1.0" encoding="UTF-8"?>
<svg id="_レイヤー_2" data-name="レイヤー 2" xmlns="http://www.w3.org/2000/svg" width="374" height="77.36" viewBox="0 0 374 77.36">
  <defs>
    <style>
      .cls-1 {
        fill: #d4e9de;
      }

      .cls-2 {
        fill: #fff;
      }

      .cls-3 {
        fill: #739b9e;
      }
    </style>
  </defs>
  <g id="_レイヤー_1-2" data-name="レイヤー 1">
    <g>
      <rect class="cls-1" x="0" y="0" width="374" height="77.36"/>
      <rect class="cls-2" x="7.58" y="14.39" width="358.85" height="51.32" rx="25.57" ry="25.57"/>
      <g>
        <path class="cls-3" d="M118.61,34.02c1.49,0,2.45.27,3.12.86.62.56.99,1.46.99,2.42,0,1.58-.78,2.62-2.32,3.07.82.35,1.02.67,1.84,2.82l1.25,3.3h-2.19l-1.06-3.09c-.62-1.82-1.09-2.37-2.02-2.37h-2.03v5.46h-2v-12.47h4.42ZM118.03,39.35c1.82,0,2.66-.59,2.66-1.89,0-.54-.21-1.02-.56-1.3-.37-.27-1.1-.43-2.11-.43h-1.83v3.62h1.84Z"/>
        <path class="cls-3" d="M133.74,44.82c-.91,1.23-2.21,1.87-3.83,1.87-3.15,0-5.15-2.5-5.15-6.44,0-1.86.46-3.47,1.33-4.63.91-1.2,2.19-1.82,3.81-1.82s3.01.69,3.94,2c.77,1.1,1.22,2.71,1.22,4.43,0,1.82-.45,3.43-1.31,4.58ZM129.9,35.64c-.99,0-1.78.45-2.27,1.3-.48.8-.74,2-.74,3.36,0,1.25.26,2.38.72,3.22.48.88,1.3,1.36,2.29,1.36,1.9,0,3.03-1.71,3.03-4.61s-1.1-4.63-3.03-4.63Z"/>
        <path class="cls-3" d="M145.01,34.02v1.7h-5.76v3.39h4.4v1.68h-4.4v3.97h6.03v1.73h-8.1v-12.47h7.83Z"/>
        <path class="cls-3" d="M154.91,39.22c2.02-.56,3.47-.82,4.56-.82,2.26,0,3.65,1.23,3.65,3.23,0,1.2-.5,2.26-1.44,3.06-.62.53-1.55.98-2.79,1.34-.69.19-1.42.34-1.74.34-.19,0-.29-.05-.35-.21-.22-.56-.48-.96-.82-1.3,3.52-.37,5.31-1.49,5.31-3.31,0-.93-.77-1.65-1.76-1.65-1.73,0-3.62.58-5.6,1.68-.16.08-.26.13-.32.13-.27,0-.72-.8-1.09-1.95.78-.11,1.06-.18,2.38-.54Z"/>
        <path class="cls-3" d="M170.25,37.7c-.42.1-.56.14-1.14.35-.21.08-.32.11-.42.11-.35,0-.67-.66-.96-2.03,1.02-.05,1.39-.1,3.17-.37,1.92-.29,4.35-.66,5.63-.82,1.44-.19,2.59-.38,3.2-.51.11-.03.16-.03.24-.03.21,0,.29.1.43.5.13.34.22.82.22,1.04,0,.19-.06.26-.29.26-.34,0-.64.03-.94.08-2.71.45-4.87,2.82-4.87,5.31,0,1.87,1.47,3.11,3.97,3.33.22.02.3.1.3.29,0,.4-.16,1.17-.3,1.52-.08.18-.21.26-.42.26s-.69-.1-1.18-.24c-2.72-.8-4.15-2.53-4.15-4.98,0-1.33.43-2.56,1.26-3.62.45-.58.83-.9,1.75-1.52-2.1.35-4.31.77-5.52,1.07Z"/>
        <path class="cls-3" d="M185.74,38.05c-.29.02-.46.03-.66.05-.14.02-.16.02-.18.02-.13,0-.19-.05-.24-.21-.08-.26-.19-1.1-.21-1.58.18.02.64.03,1.22.03.18,0,1.44-.08,2-.13.27-1.3.37-1.97.37-2.83,1.65.22,2.24.42,2.24.72,0,.11-.02.14-.26.51-.13.19-.18.37-.45,1.36.75-.13,1.2-.24,1.79-.43.11-.03.16-.05.24-.05.11,0,.14.08.24.54.08.4.13.74.13.91,0,.19-.05.22-.46.32-.54.13-1.47.29-2.46.42-.59,1.79-.99,2.75-1.73,4.26-.56,1.12-.88,1.71-1.31,2.39-.13.19-.21.26-.32.26-.16,0-.61-.24-1.17-.66-.26-.18-.32-.26-.32-.37s.06-.21.27-.5c.46-.58,1.07-1.57,1.6-2.62.45-.88.61-1.25,1.07-2.51-.62.05-.67.06-1.41.11ZM191.01,47.27c-1.75,0-2.93-.96-2.93-2.39s1.23-2.58,2.88-2.58c.38,0,.56.02,1.22.11-.06-.77-.06-1.07-.13-2.56,0-.3-.03-.72-.06-1.23.82.08,1.44.18,1.74.3.13.05.19.13.19.26,0,.08-.02.14-.03.26-.08.34-.1.58-.1,1.01,0,.59.05,1.6.1,2.38,1.14.51,1.6.77,2.4,1.39.35.27.48.42.48.54,0,.16-.08.3-.53,1.02-.19.32-.34.46-.45.46q-.1,0-.54-.42c-.35-.35-.75-.62-1.31-.96,0,1.49-1.09,2.39-2.93,2.39ZM190.97,43.85c-.77,0-1.3.37-1.3.93,0,.53.48.86,1.2.86.85,0,1.3-.43,1.3-1.28,0-.13,0-.26-.02-.26-.32-.16-.75-.26-1.18-.26ZM196.96,39.3c-.19.27-.29.35-.4.35-.08,0-.14-.03-.26-.14-.4-.38-.96-.8-1.55-1.17q-.38-.24-1.09-.56c-.22-.1-.3-.16-.3-.29,0-.11.08-.26.32-.62.38-.56.48-.66.62-.66.3,0,1.49.61,2.34,1.18.69.46.9.66.9.83,0,.13-.26.61-.58,1.07Z"/>
        <path class="cls-3" d="M204.64,42.81c.05.08.06.14.06.22,0,.11-.02.13-.16.48-.32.74-.7,1.89-.9,2.75-.05.18-.1.27-.16.3-.08.03-.62.11-.8.11h-.06c-.08,0-.19-.02-.32-.02-.21,0-.26-.05-.32-.24-.3-1.04-.54-3.19-.54-4.8,0-1.76.11-2.85.56-5.25.16-.86.24-1.34.3-1.87.67.13,1.25.29,1.73.51.27.11.35.19.35.35,0,.11-.02.16-.19.42-.53.85-1.12,4.24-1.12,6.53,0,.37.02.86.06,1.67.45-1.01.61-1.31.98-2.1.14.34.24.5.53.93ZM208.11,43.94c.51.27,1.12.37,2.19.37s1.63-.08,2.62-.37c.1-.03.18-.05.22-.05.11,0,.19.06.21.22.08.54.14,1.18.14,1.5,0,.16-.05.21-.27.27-.86.22-1.74.34-2.82.34-1.47,0-2.39-.18-3.14-.62-.7-.43-1.44-1.31-1.44-1.74,0-.22.34-.53,1.2-1.06.29.58.56.86,1.07,1.14ZM206.99,35.78c.35.08,1.38.14,2.16.14,1.06,0,2.11-.08,3.11-.26q.08-.02.14-.02c.11,0,.16.05.19.18.03.16.08.86.08,1.3,0,.24-.05.32-.22.35-.66.13-1.74.21-2.9.21-1.38,0-2.61-.08-2.77-.18-.08-.05-.11-.16-.11-.45,0-.43.05-1.07.08-1.2.02-.06.06-.1.16-.1.02,0,.05,0,.08.02Z"/>
        <path class="cls-3" d="M219.6,36.5c.37-.96.72-1.47,1.33-1.98.74-.61,1.62-.9,2.74-.9,2.4,0,3.94,1.31,3.94,3.36,0,.69-.19,1.34-.56,1.87-.29.42-.42.54-1.31,1.36-1.25,1.12-1.52,1.55-1.52,2.4v.85h-1.63v-.9c0-.72.14-1.36.43-1.87.22-.4.46-.67,1.1-1.31.67-.66.88-.9,1.06-1.18.22-.32.35-.77.35-1.2,0-1.07-.72-1.74-1.86-1.74s-1.81.59-2.29,1.98l-1.78-.74ZM224.7,45.83c0,.7-.56,1.26-1.26,1.26s-1.26-.56-1.26-1.26.56-1.26,1.26-1.26,1.26.56,1.26,1.26Z"/>
      </g>
      <g>
        <g>
          <path class="cls-3" d="M42.72,35.58c.02-1.97.63-3.49,1.83-4.55,1.13-1.05,2.47-1.58,4.03-1.58s2.98.53,4.11,1.58c1.15,1.06,1.74,2.58,1.78,4.56v9.42c-.04,1.96-.63,3.48-1.78,4.54-1.13,1.05-2.5,1.59-4.11,1.61-1.56-.02-2.91-.56-4.03-1.61-1.2-1.06-1.81-2.57-1.83-4.53v-9.44ZM51.51,35.77c-.06-2.14-1.03-3.23-2.92-3.27-1.9.04-2.87,1.13-2.91,3.27v9.07c.04,2.16,1.01,3.25,2.91,3.27,1.89-.02,2.87-1.11,2.92-3.27v-9.07Z"/>
          <path class="cls-3" d="M56.52,44.94l6.91-15.31h3.3l-6.99,15.31h5.4v-6.15h2.96v6.15h1.66v2.87h-1.66v3.18h-2.96v-3.18h-8.62v-2.87Z"/>
        </g>
        <path class="cls-3" d="M33.72,42.84c-.76.79-1.8,1.41-3.01,1.81-.17-.32-.31-.52-.56-.82,1.2-.29,2.21-.79,2.94-1.47h-1.5c-.05.18-.06.22-.13.43l-1.01-.02c.24-.56.38-1.02.49-1.58.08-.39.14-.77.14-.95.17.02.4.03.82.03h1.78l-.02-.58h-1.93c-.34,0-.56,0-.8.04v-.83c-.1.08-.13.12-.26.23-.17-.29-.35-.5-.56-.69.74-.57,1.16-1.12,1.35-1.76l.93.17c-.11.23-.14.29-.25.47h1.11c.41,0,.64-.02.85-.04v.7c.34-.4.55-.78.7-1.3l.92.16q-.07.17-.22.49h1.65c.46,0,.67,0,.95-.05v.9c-.26-.04-.52-.05-.9-.05h-.68c.23.33.23.35.38.59l-.71.2h.41c.43,0,.59,0,.81-.03-.03.16-.04.3-.04.61v.91c0,.31,0,.45.04.63-.2-.02-.47-.03-.81-.03h-1.99v.57h2.47c.33,0,.52,0,.74-.03-.02.11-.02.17-.03.26t-.03.26s-.02.22-.05.55c-.09.86-.14,1.07-.31,1.27-.17.2-.43.26-1.02.26-.25,0-.43,0-.8-.03-.05-.36-.11-.56-.22-.85.33.04.74.08.95.08.47,0,.49-.05.55-1.01h-2.22l.02,1.45c0,.46.02.68.06.95h-1.02c.04-.25.05-.4.05-.75v-.22l-.02-.96ZM32.48,38.94c-.11-.29-.22-.5-.39-.8h-.48c-.21.29-.4.5-.68.77.21.03.38.04.79.04h.75ZM33.69,41.04h-1.77c-.03.19-.04.21-.12.57h1.9v-.57ZM34.18,38.94c-.13-.16-.31-.33-.56-.51.15-.12.2-.15.32-.27-.15,0-.32-.02-.49-.02h-.48c.11.17.17.26.34.58l-.71.22h1.58ZM36.01,38.94c-.1-.22-.26-.51-.44-.79h-.53c-.23.33-.42.55-.69.79h1.67ZM34.59,40.28h1.87v-.58h-1.88v.58Z"/>
        <path class="cls-3" d="M80.3,44.74v-.47h-5.38v.47h-1.01c.04-.28.05-.64.05-1.12v-5.46c0-.42-.02-.69-.05-1.04.32.04.59.05,1.02.05h5.36c.42,0,.7,0,1.02-.05-.04.32-.04.6-.04,1.04v5.47c0,.47.02.89.04,1.11h-1ZM74.92,43.42h5.38v-5.39h-5.38v5.39ZM78.52,39.01c.38,0,.6,0,.83-.03-.02.21-.03.41-.03.68v2.06c0,.29,0,.47.03.68-.26-.02-.47-.03-.83-.03h-1.85c-.43,0-.57,0-.84.03.03-.23.04-.42.04-.68v-2.06c0-.25,0-.45-.04-.68.22.02.46.03.84.03h1.85ZM76.78,41.58h1.63v-1.76h-1.63v1.76Z"/>
      </g>
      <rect class="cls-1" x="95.06" y="32.52" width="1.42" height="15.06"/>
    </g>
  </g>
</svg>